%TF.GenerationSoftware,KiCad,Pcbnew,9.0.8-9.0.8~ubuntu24.04.1*%
%TF.CreationDate,2026-04-18T20:03:31+02:00*%
%TF.ProjectId,pedal_proto_pcb,70656461-6c5f-4707-926f-746f5f706362,rev?*%
%TF.SameCoordinates,Original*%
%TF.FileFunction,Soldermask,Top*%
%TF.FilePolarity,Negative*%
%FSLAX46Y46*%
G04 Gerber Fmt 4.6, Leading zero omitted, Abs format (unit mm)*
G04 Created by KiCad (PCBNEW 9.0.8-9.0.8~ubuntu24.04.1) date 2026-04-18 20:03:31*
%MOMM*%
%LPD*%
G01*
G04 APERTURE LIST*
%ADD10R,1.700000X1.700000*%
%ADD11C,1.700000*%
%ADD12R,1.800000X1.800000*%
%ADD13C,1.800000*%
%ADD14C,1.600000*%
%ADD15O,3.380000X1.880000*%
%ADD16O,1.380000X3.380000*%
%ADD17O,4.380000X1.880000*%
%ADD18O,4.380000X2.380000*%
G04 APERTURE END LIST*
D10*
%TO.C,J25*%
X167000000Y-140000000D03*
D11*
X167000000Y-142540000D03*
%TD*%
D10*
%TO.C,J24*%
X167000000Y-148225000D03*
D11*
X167000000Y-150765000D03*
%TD*%
D10*
%TO.C,J20*%
X149500000Y-148275000D03*
D11*
X149500000Y-150815000D03*
%TD*%
D10*
%TO.C,J36*%
X193500000Y-148175000D03*
D11*
X193500000Y-150715000D03*
%TD*%
D10*
%TO.C,J18*%
X149500000Y-131735000D03*
D11*
X149500000Y-134275000D03*
%TD*%
D12*
%TO.C,D2*%
X208770000Y-82000000D03*
D13*
X206230000Y-82000000D03*
%TD*%
D10*
%TO.C,J15*%
X144500000Y-131735000D03*
D11*
X144500000Y-134275000D03*
%TD*%
D10*
%TO.C,J21*%
X162000000Y-148275000D03*
D11*
X162000000Y-150815000D03*
%TD*%
D10*
%TO.C,J16*%
X144500000Y-140000000D03*
D11*
X144500000Y-142540000D03*
%TD*%
D14*
%TO.C,R1*%
X192500000Y-92500000D03*
X179800000Y-92500000D03*
%TD*%
D10*
%TO.C,J1*%
X124000000Y-98000000D03*
%TD*%
%TO.C,J29*%
X172000000Y-131750000D03*
D11*
X172000000Y-134290000D03*
%TD*%
D10*
%TO.C,J38*%
X123000000Y-148225000D03*
D11*
X123000000Y-150765000D03*
%TD*%
D10*
%TO.C,J31*%
X185000000Y-140000000D03*
D11*
X185000000Y-142540000D03*
%TD*%
D10*
%TO.C,J4*%
X199000000Y-98000000D03*
%TD*%
%TO.C,J28*%
X172000000Y-140000000D03*
D11*
X172000000Y-142540000D03*
%TD*%
D12*
%TO.C,D1*%
X197270000Y-133000000D03*
D13*
X194730000Y-133000000D03*
%TD*%
D10*
%TO.C,J12*%
X139500000Y-131735000D03*
D11*
X139500000Y-134275000D03*
%TD*%
D10*
%TO.C,J34*%
X208500000Y-148225000D03*
D11*
X208500000Y-150765000D03*
%TD*%
D10*
%TO.C,J23*%
X162000000Y-131775000D03*
D11*
X162000000Y-134315000D03*
%TD*%
D10*
%TO.C,J22*%
X162000000Y-140000000D03*
D11*
X162000000Y-142540000D03*
%TD*%
D10*
%TO.C,J40*%
X171500000Y-82000000D03*
%TD*%
%TO.C,J11*%
X134500000Y-148275000D03*
D11*
X134500000Y-150815000D03*
%TD*%
D10*
%TO.C,J27*%
X172000000Y-148225000D03*
D11*
X172000000Y-150765000D03*
%TD*%
D14*
%TO.C,R2*%
X196500000Y-92500000D03*
X209200000Y-92500000D03*
%TD*%
D15*
%TO.C,SW3*%
X177500000Y-86650000D03*
X177500000Y-82000000D03*
X177500000Y-77350000D03*
%TD*%
D16*
%TO.C,J5*%
X192000000Y-82000000D03*
X197000000Y-82000000D03*
%TD*%
D17*
%TO.C,RV1*%
X137200000Y-121500000D03*
X132000000Y-121500000D03*
X126800000Y-121500000D03*
%TD*%
D10*
%TO.C,J8*%
X158500000Y-82000000D03*
%TD*%
%TO.C,J6*%
X216000000Y-80725000D03*
D11*
X216000000Y-83265000D03*
%TD*%
D10*
%TO.C,J33*%
X203500000Y-148225000D03*
D11*
X203500000Y-150765000D03*
%TD*%
D10*
%TO.C,J2*%
X149000000Y-98000000D03*
%TD*%
%TO.C,J30*%
X185000000Y-148225000D03*
D11*
X185000000Y-150765000D03*
%TD*%
D17*
%TO.C,RV2*%
X162200000Y-121500000D03*
X157000000Y-121500000D03*
X151800000Y-121500000D03*
%TD*%
%TO.C,RV4*%
X212200000Y-121500000D03*
X207000000Y-121500000D03*
X201800000Y-121500000D03*
%TD*%
D10*
%TO.C,J9*%
X134500000Y-131735000D03*
D11*
X134500000Y-134275000D03*
%TD*%
D10*
%TO.C,J35*%
X198500000Y-148175000D03*
D11*
X198500000Y-150715000D03*
%TD*%
D18*
%TO.C,SW1*%
X133000000Y-77500000D03*
X133000000Y-82000000D03*
X133000000Y-86500000D03*
X138000000Y-77500000D03*
X138000000Y-82000000D03*
X138000000Y-86500000D03*
X143000000Y-77500000D03*
X143000000Y-82000000D03*
X143000000Y-86500000D03*
%TD*%
D10*
%TO.C,J3*%
X174000000Y-98000000D03*
%TD*%
%TO.C,J17*%
X144500000Y-148275000D03*
D11*
X144500000Y-150815000D03*
%TD*%
D10*
%TO.C,J19*%
X149500000Y-140000000D03*
D11*
X149500000Y-142540000D03*
%TD*%
D10*
%TO.C,J14*%
X139500000Y-148275000D03*
D11*
X139500000Y-150815000D03*
%TD*%
D10*
%TO.C,J26*%
X167000000Y-131725000D03*
D11*
X167000000Y-134265000D03*
%TD*%
D10*
%TO.C,J32*%
X185000000Y-131775000D03*
D11*
X185000000Y-134315000D03*
%TD*%
D15*
%TO.C,SW2*%
X165000000Y-77350000D03*
X165000000Y-82000000D03*
X165000000Y-86650000D03*
%TD*%
D10*
%TO.C,J7*%
X123000000Y-80725000D03*
D11*
X123000000Y-83265000D03*
%TD*%
D10*
%TO.C,J10*%
X134500000Y-140000000D03*
D11*
X134500000Y-142540000D03*
%TD*%
D10*
%TO.C,J13*%
X139500000Y-140000000D03*
D11*
X139500000Y-142540000D03*
%TD*%
D10*
%TO.C,J37*%
X150500000Y-82000000D03*
%TD*%
D17*
%TO.C,RV3*%
X187200000Y-121500000D03*
X182000000Y-121500000D03*
X176800000Y-121500000D03*
%TD*%
D10*
%TO.C,J39*%
X216000000Y-148315000D03*
D11*
X216000000Y-150855000D03*
%TD*%
M02*
