%TF.GenerationSoftware,KiCad,Pcbnew,9.0.8-9.0.8~ubuntu24.04.1*%
%TF.CreationDate,2026-04-18T20:03:31+02:00*%
%TF.ProjectId,pedal_proto_pcb,70656461-6c5f-4707-926f-746f5f706362,rev?*%
%TF.SameCoordinates,Original*%
%TF.FileFunction,Legend,Top*%
%TF.FilePolarity,Positive*%
%FSLAX46Y46*%
G04 Gerber Fmt 4.6, Leading zero omitted, Abs format (unit mm)*
G04 Created by KiCad (PCBNEW 9.0.8-9.0.8~ubuntu24.04.1) date 2026-04-18 20:03:31*
%MOMM*%
%LPD*%
G01*
G04 APERTURE LIST*
%ADD10C,0.200000*%
%ADD11C,0.550000*%
%ADD12C,0.545000*%
%ADD13C,0.100000*%
%ADD14C,0.150000*%
%ADD15C,0.120000*%
G04 APERTURE END LIST*
D10*
X159369673Y-77867219D02*
X159369673Y-76867219D01*
X159369673Y-76867219D02*
X159941101Y-77867219D01*
X159941101Y-77867219D02*
X159941101Y-76867219D01*
X160988720Y-77771980D02*
X160941101Y-77819600D01*
X160941101Y-77819600D02*
X160798244Y-77867219D01*
X160798244Y-77867219D02*
X160703006Y-77867219D01*
X160703006Y-77867219D02*
X160560149Y-77819600D01*
X160560149Y-77819600D02*
X160464911Y-77724361D01*
X160464911Y-77724361D02*
X160417292Y-77629123D01*
X160417292Y-77629123D02*
X160369673Y-77438647D01*
X160369673Y-77438647D02*
X160369673Y-77295790D01*
X160369673Y-77295790D02*
X160417292Y-77105314D01*
X160417292Y-77105314D02*
X160464911Y-77010076D01*
X160464911Y-77010076D02*
X160560149Y-76914838D01*
X160560149Y-76914838D02*
X160703006Y-76867219D01*
X160703006Y-76867219D02*
X160798244Y-76867219D01*
X160798244Y-76867219D02*
X160941101Y-76914838D01*
X160941101Y-76914838D02*
X160988720Y-76962457D01*
X159369673Y-87367219D02*
X159369673Y-86367219D01*
X159369673Y-86367219D02*
X159941101Y-87367219D01*
X159941101Y-87367219D02*
X159941101Y-86367219D01*
X160607768Y-86367219D02*
X160798244Y-86367219D01*
X160798244Y-86367219D02*
X160893482Y-86414838D01*
X160893482Y-86414838D02*
X160988720Y-86510076D01*
X160988720Y-86510076D02*
X161036339Y-86700552D01*
X161036339Y-86700552D02*
X161036339Y-87033885D01*
X161036339Y-87033885D02*
X160988720Y-87224361D01*
X160988720Y-87224361D02*
X160893482Y-87319600D01*
X160893482Y-87319600D02*
X160798244Y-87367219D01*
X160798244Y-87367219D02*
X160607768Y-87367219D01*
X160607768Y-87367219D02*
X160512530Y-87319600D01*
X160512530Y-87319600D02*
X160417292Y-87224361D01*
X160417292Y-87224361D02*
X160369673Y-87033885D01*
X160369673Y-87033885D02*
X160369673Y-86700552D01*
X160369673Y-86700552D02*
X160417292Y-86510076D01*
X160417292Y-86510076D02*
X160512530Y-86414838D01*
X160512530Y-86414838D02*
X160607768Y-86367219D01*
X162322054Y-90319600D02*
X162464911Y-90367219D01*
X162464911Y-90367219D02*
X162703006Y-90367219D01*
X162703006Y-90367219D02*
X162798244Y-90319600D01*
X162798244Y-90319600D02*
X162845863Y-90271980D01*
X162845863Y-90271980D02*
X162893482Y-90176742D01*
X162893482Y-90176742D02*
X162893482Y-90081504D01*
X162893482Y-90081504D02*
X162845863Y-89986266D01*
X162845863Y-89986266D02*
X162798244Y-89938647D01*
X162798244Y-89938647D02*
X162703006Y-89891028D01*
X162703006Y-89891028D02*
X162512530Y-89843409D01*
X162512530Y-89843409D02*
X162417292Y-89795790D01*
X162417292Y-89795790D02*
X162369673Y-89748171D01*
X162369673Y-89748171D02*
X162322054Y-89652933D01*
X162322054Y-89652933D02*
X162322054Y-89557695D01*
X162322054Y-89557695D02*
X162369673Y-89462457D01*
X162369673Y-89462457D02*
X162417292Y-89414838D01*
X162417292Y-89414838D02*
X162512530Y-89367219D01*
X162512530Y-89367219D02*
X162750625Y-89367219D01*
X162750625Y-89367219D02*
X162893482Y-89414838D01*
X163226816Y-89367219D02*
X163464911Y-90367219D01*
X163464911Y-90367219D02*
X163655387Y-89652933D01*
X163655387Y-89652933D02*
X163845863Y-90367219D01*
X163845863Y-90367219D02*
X164083959Y-89367219D01*
X164464911Y-90367219D02*
X164464911Y-89367219D01*
X164798244Y-89367219D02*
X165369672Y-89367219D01*
X165083958Y-90367219D02*
X165083958Y-89367219D01*
X166274434Y-90271980D02*
X166226815Y-90319600D01*
X166226815Y-90319600D02*
X166083958Y-90367219D01*
X166083958Y-90367219D02*
X165988720Y-90367219D01*
X165988720Y-90367219D02*
X165845863Y-90319600D01*
X165845863Y-90319600D02*
X165750625Y-90224361D01*
X165750625Y-90224361D02*
X165703006Y-90129123D01*
X165703006Y-90129123D02*
X165655387Y-89938647D01*
X165655387Y-89938647D02*
X165655387Y-89795790D01*
X165655387Y-89795790D02*
X165703006Y-89605314D01*
X165703006Y-89605314D02*
X165750625Y-89510076D01*
X165750625Y-89510076D02*
X165845863Y-89414838D01*
X165845863Y-89414838D02*
X165988720Y-89367219D01*
X165988720Y-89367219D02*
X166083958Y-89367219D01*
X166083958Y-89367219D02*
X166226815Y-89414838D01*
X166226815Y-89414838D02*
X166274434Y-89462457D01*
X166703006Y-90367219D02*
X166703006Y-89367219D01*
X166703006Y-89843409D02*
X167274434Y-89843409D01*
X167274434Y-90367219D02*
X167274434Y-89367219D01*
X137203006Y-91343409D02*
X136869673Y-91343409D01*
X136869673Y-91867219D02*
X136869673Y-90867219D01*
X136869673Y-90867219D02*
X137345863Y-90867219D01*
X137583959Y-90867219D02*
X138155387Y-90867219D01*
X137869673Y-91867219D02*
X137869673Y-90867219D01*
X121500000Y-143500000D02*
X123500000Y-143500000D01*
X123000000Y-144040000D02*
X123500000Y-143500000D01*
X123500000Y-143500000D02*
X123000000Y-143040000D01*
X127500000Y-138775000D02*
X129500000Y-138775000D01*
X129500000Y-143775000D01*
X127500000Y-143775000D01*
X127500000Y-138775000D01*
X128500000Y-133275000D02*
X131500000Y-133275000D01*
X128500000Y-138775000D02*
X128500000Y-133275000D01*
X128500000Y-143775000D02*
X128500000Y-149275000D01*
X128500000Y-149275000D02*
X131500000Y-149275000D01*
X130500000Y-140275000D02*
X129500000Y-141275000D01*
X130500000Y-142275000D02*
X129500000Y-141275000D01*
X131500000Y-141275000D02*
X129500000Y-141275000D01*
X153500000Y-138775000D02*
X155000000Y-138775000D01*
X153500000Y-141275000D02*
X153540000Y-141274980D01*
X154340000Y-141274580D02*
X154380000Y-141274560D01*
X155180000Y-141274160D02*
X155220000Y-141274140D01*
X156020000Y-141273740D02*
X156060000Y-141273720D01*
X156860000Y-141273320D02*
X156900000Y-141273300D01*
X157699999Y-141272900D02*
X157739999Y-141272880D01*
X153500000Y-143775000D02*
X153500000Y-138775000D01*
X153500000Y-143775000D02*
X155000000Y-143775000D01*
X156500000Y-133275000D02*
X160000000Y-133275000D01*
X156500000Y-139275000D02*
X156500000Y-133275000D01*
D11*
X156775000Y-139275000D02*
G75*
G02*
X156225000Y-139275000I-275000J0D01*
G01*
X156225000Y-139275000D02*
G75*
G02*
X156775000Y-139275000I275000J0D01*
G01*
D10*
X156500000Y-143275000D02*
X156500000Y-149775000D01*
D11*
X156775000Y-143275000D02*
G75*
G02*
X156225000Y-143275000I-275000J0D01*
G01*
X156225000Y-143275000D02*
G75*
G02*
X156775000Y-143275000I275000J0D01*
G01*
D10*
X156500000Y-149775000D02*
X160000000Y-149775000D01*
X158500000Y-141272500D02*
X156500000Y-143277500D01*
D12*
X158774994Y-141270000D02*
G75*
G02*
X158229994Y-141270000I-272500J0D01*
G01*
X158229994Y-141270000D02*
G75*
G02*
X158774994Y-141270000I272500J0D01*
G01*
D10*
X172000000Y-141270000D02*
X158500000Y-141272500D01*
X176500000Y-138775000D02*
X178000000Y-138775000D01*
X176500000Y-141275000D02*
X176540000Y-141274980D01*
X177340000Y-141274580D02*
X177380000Y-141274560D01*
X178180000Y-141274160D02*
X178220000Y-141274140D01*
X179020000Y-141273740D02*
X179060000Y-141273720D01*
X179860000Y-141273320D02*
X179900000Y-141273300D01*
X180699999Y-141272900D02*
X180739999Y-141272880D01*
X176500000Y-143775000D02*
X176500000Y-138775000D01*
X176500000Y-143775000D02*
X178000000Y-143775000D01*
X179500000Y-133275000D02*
X183000000Y-133275000D01*
X179500000Y-139275000D02*
X179500000Y-133275000D01*
D11*
X179775000Y-139275000D02*
G75*
G02*
X179225000Y-139275000I-275000J0D01*
G01*
X179225000Y-139275000D02*
G75*
G02*
X179775000Y-139275000I275000J0D01*
G01*
D10*
X179500000Y-143275000D02*
X179500000Y-149775000D01*
D11*
X179775000Y-143275000D02*
G75*
G02*
X179225000Y-143275000I-275000J0D01*
G01*
X179225000Y-143275000D02*
G75*
G02*
X179775000Y-143275000I275000J0D01*
G01*
D10*
X179500000Y-149775000D02*
X183000000Y-149775000D01*
X181500000Y-141272500D02*
X179500000Y-143277500D01*
D12*
X181774994Y-141270000D02*
G75*
G02*
X181229994Y-141270000I-272500J0D01*
G01*
X181229994Y-141270000D02*
G75*
G02*
X181774994Y-141270000I272500J0D01*
G01*
D10*
X183000000Y-141270000D02*
X181500000Y-141272500D01*
X193500000Y-143265000D02*
X193500000Y-144515000D01*
X195000000Y-141765000D02*
X197000000Y-143265000D01*
X195000000Y-143265000D02*
X193500000Y-143265000D01*
X195000000Y-144765000D02*
X195000000Y-141765000D01*
X196000000Y-141765000D02*
X197000000Y-140765000D01*
D13*
X196500000Y-140765000D02*
X197000000Y-140765000D01*
D10*
X196500000Y-142265000D02*
X197500000Y-141265000D01*
X197000000Y-140765000D02*
X196500000Y-140765000D01*
X197000000Y-141265000D02*
X197000000Y-140765000D01*
X197000000Y-142265000D02*
X197000000Y-144265000D01*
X197000000Y-143265000D02*
X195000000Y-144765000D01*
X197000000Y-143265000D02*
X198500000Y-143265000D01*
X197500000Y-141265000D02*
X197000000Y-141265000D01*
X197500000Y-141265000D02*
X197500000Y-141765000D01*
X198500000Y-143265000D02*
X198500000Y-144515000D01*
X203500000Y-143265000D02*
X203500000Y-144450000D01*
X204685000Y-143265000D02*
X203500000Y-143265000D01*
D13*
X205000000Y-143265000D02*
X205500000Y-143265000D01*
D10*
X207315000Y-143265000D02*
G75*
G02*
X204685000Y-143265000I-1315000J0D01*
G01*
X204685000Y-143265000D02*
G75*
G02*
X207315000Y-143265000I1315000J0D01*
G01*
D13*
X206500000Y-143265000D02*
X207000000Y-143265000D01*
X206750000Y-142950000D02*
X206749420Y-143531981D01*
D10*
X207315000Y-143265000D02*
X208500000Y-143265000D01*
X208500000Y-143265000D02*
X208500000Y-144450000D01*
X215000000Y-143500000D02*
X217000000Y-143500000D01*
X216500000Y-144040000D02*
X217000000Y-143500000D01*
X217000000Y-143500000D02*
X216500000Y-143040000D01*
X122369673Y-86367219D02*
X122369673Y-85367219D01*
X122845863Y-86367219D02*
X122845863Y-85367219D01*
X122845863Y-85367219D02*
X123417291Y-86367219D01*
X123417291Y-86367219D02*
X123417291Y-85367219D01*
X122369673Y-154367219D02*
X122369673Y-153367219D01*
X122845863Y-154367219D02*
X122845863Y-153367219D01*
X122845863Y-153367219D02*
X123417291Y-154367219D01*
X123417291Y-154367219D02*
X123417291Y-153367219D01*
X126393482Y-97414838D02*
X126298244Y-97367219D01*
X126298244Y-97367219D02*
X126155387Y-97367219D01*
X126155387Y-97367219D02*
X126012530Y-97414838D01*
X126012530Y-97414838D02*
X125917292Y-97510076D01*
X125917292Y-97510076D02*
X125869673Y-97605314D01*
X125869673Y-97605314D02*
X125822054Y-97795790D01*
X125822054Y-97795790D02*
X125822054Y-97938647D01*
X125822054Y-97938647D02*
X125869673Y-98129123D01*
X125869673Y-98129123D02*
X125917292Y-98224361D01*
X125917292Y-98224361D02*
X126012530Y-98319600D01*
X126012530Y-98319600D02*
X126155387Y-98367219D01*
X126155387Y-98367219D02*
X126250625Y-98367219D01*
X126250625Y-98367219D02*
X126393482Y-98319600D01*
X126393482Y-98319600D02*
X126441101Y-98271980D01*
X126441101Y-98271980D02*
X126441101Y-97938647D01*
X126441101Y-97938647D02*
X126250625Y-97938647D01*
X126869673Y-98367219D02*
X126869673Y-97367219D01*
X126869673Y-97367219D02*
X127441101Y-98367219D01*
X127441101Y-98367219D02*
X127441101Y-97367219D01*
X127917292Y-98367219D02*
X127917292Y-97367219D01*
X127917292Y-97367219D02*
X128155387Y-97367219D01*
X128155387Y-97367219D02*
X128298244Y-97414838D01*
X128298244Y-97414838D02*
X128393482Y-97510076D01*
X128393482Y-97510076D02*
X128441101Y-97605314D01*
X128441101Y-97605314D02*
X128488720Y-97795790D01*
X128488720Y-97795790D02*
X128488720Y-97938647D01*
X128488720Y-97938647D02*
X128441101Y-98129123D01*
X128441101Y-98129123D02*
X128393482Y-98224361D01*
X128393482Y-98224361D02*
X128298244Y-98319600D01*
X128298244Y-98319600D02*
X128155387Y-98367219D01*
X128155387Y-98367219D02*
X127917292Y-98367219D01*
X127345863Y-124367219D02*
X126869673Y-124367219D01*
X126869673Y-124367219D02*
X126869673Y-123367219D01*
X130369673Y-124367219D02*
X130369673Y-123367219D01*
X130369673Y-123367219D02*
X130750625Y-123367219D01*
X130750625Y-123367219D02*
X130845863Y-123414838D01*
X130845863Y-123414838D02*
X130893482Y-123462457D01*
X130893482Y-123462457D02*
X130941101Y-123557695D01*
X130941101Y-123557695D02*
X130941101Y-123700552D01*
X130941101Y-123700552D02*
X130893482Y-123795790D01*
X130893482Y-123795790D02*
X130845863Y-123843409D01*
X130845863Y-123843409D02*
X130750625Y-123891028D01*
X130750625Y-123891028D02*
X130369673Y-123891028D01*
X131560149Y-123367219D02*
X131750625Y-123367219D01*
X131750625Y-123367219D02*
X131845863Y-123414838D01*
X131845863Y-123414838D02*
X131941101Y-123510076D01*
X131941101Y-123510076D02*
X131988720Y-123700552D01*
X131988720Y-123700552D02*
X131988720Y-124033885D01*
X131988720Y-124033885D02*
X131941101Y-124224361D01*
X131941101Y-124224361D02*
X131845863Y-124319600D01*
X131845863Y-124319600D02*
X131750625Y-124367219D01*
X131750625Y-124367219D02*
X131560149Y-124367219D01*
X131560149Y-124367219D02*
X131464911Y-124319600D01*
X131464911Y-124319600D02*
X131369673Y-124224361D01*
X131369673Y-124224361D02*
X131322054Y-124033885D01*
X131322054Y-124033885D02*
X131322054Y-123700552D01*
X131322054Y-123700552D02*
X131369673Y-123510076D01*
X131369673Y-123510076D02*
X131464911Y-123414838D01*
X131464911Y-123414838D02*
X131560149Y-123367219D01*
X132274435Y-123367219D02*
X132845863Y-123367219D01*
X132560149Y-124367219D02*
X132560149Y-123367219D01*
X133703006Y-124367219D02*
X133131578Y-124367219D01*
X133417292Y-124367219D02*
X133417292Y-123367219D01*
X133417292Y-123367219D02*
X133322054Y-123510076D01*
X133322054Y-123510076D02*
X133226816Y-123605314D01*
X133226816Y-123605314D02*
X133131578Y-123652933D01*
X130893482Y-125867219D02*
X130322054Y-125867219D01*
X130607768Y-125867219D02*
X130607768Y-124867219D01*
X130607768Y-124867219D02*
X130512530Y-125010076D01*
X130512530Y-125010076D02*
X130417292Y-125105314D01*
X130417292Y-125105314D02*
X130322054Y-125152933D01*
X131512530Y-124867219D02*
X131607768Y-124867219D01*
X131607768Y-124867219D02*
X131703006Y-124914838D01*
X131703006Y-124914838D02*
X131750625Y-124962457D01*
X131750625Y-124962457D02*
X131798244Y-125057695D01*
X131798244Y-125057695D02*
X131845863Y-125248171D01*
X131845863Y-125248171D02*
X131845863Y-125486266D01*
X131845863Y-125486266D02*
X131798244Y-125676742D01*
X131798244Y-125676742D02*
X131750625Y-125771980D01*
X131750625Y-125771980D02*
X131703006Y-125819600D01*
X131703006Y-125819600D02*
X131607768Y-125867219D01*
X131607768Y-125867219D02*
X131512530Y-125867219D01*
X131512530Y-125867219D02*
X131417292Y-125819600D01*
X131417292Y-125819600D02*
X131369673Y-125771980D01*
X131369673Y-125771980D02*
X131322054Y-125676742D01*
X131322054Y-125676742D02*
X131274435Y-125486266D01*
X131274435Y-125486266D02*
X131274435Y-125248171D01*
X131274435Y-125248171D02*
X131322054Y-125057695D01*
X131322054Y-125057695D02*
X131369673Y-124962457D01*
X131369673Y-124962457D02*
X131417292Y-124914838D01*
X131417292Y-124914838D02*
X131512530Y-124867219D01*
X132464911Y-124867219D02*
X132560149Y-124867219D01*
X132560149Y-124867219D02*
X132655387Y-124914838D01*
X132655387Y-124914838D02*
X132703006Y-124962457D01*
X132703006Y-124962457D02*
X132750625Y-125057695D01*
X132750625Y-125057695D02*
X132798244Y-125248171D01*
X132798244Y-125248171D02*
X132798244Y-125486266D01*
X132798244Y-125486266D02*
X132750625Y-125676742D01*
X132750625Y-125676742D02*
X132703006Y-125771980D01*
X132703006Y-125771980D02*
X132655387Y-125819600D01*
X132655387Y-125819600D02*
X132560149Y-125867219D01*
X132560149Y-125867219D02*
X132464911Y-125867219D01*
X132464911Y-125867219D02*
X132369673Y-125819600D01*
X132369673Y-125819600D02*
X132322054Y-125771980D01*
X132322054Y-125771980D02*
X132274435Y-125676742D01*
X132274435Y-125676742D02*
X132226816Y-125486266D01*
X132226816Y-125486266D02*
X132226816Y-125248171D01*
X132226816Y-125248171D02*
X132274435Y-125057695D01*
X132274435Y-125057695D02*
X132322054Y-124962457D01*
X132322054Y-124962457D02*
X132369673Y-124914838D01*
X132369673Y-124914838D02*
X132464911Y-124867219D01*
X133226816Y-125867219D02*
X133226816Y-124867219D01*
X133798244Y-125867219D02*
X133369673Y-125295790D01*
X133798244Y-124867219D02*
X133226816Y-125438647D01*
X132345863Y-133642219D02*
X131869673Y-133642219D01*
X131869673Y-133642219D02*
X131869673Y-132642219D01*
X132441101Y-141546980D02*
X132393482Y-141594600D01*
X132393482Y-141594600D02*
X132250625Y-141642219D01*
X132250625Y-141642219D02*
X132155387Y-141642219D01*
X132155387Y-141642219D02*
X132012530Y-141594600D01*
X132012530Y-141594600D02*
X131917292Y-141499361D01*
X131917292Y-141499361D02*
X131869673Y-141404123D01*
X131869673Y-141404123D02*
X131822054Y-141213647D01*
X131822054Y-141213647D02*
X131822054Y-141070790D01*
X131822054Y-141070790D02*
X131869673Y-140880314D01*
X131869673Y-140880314D02*
X131917292Y-140785076D01*
X131917292Y-140785076D02*
X132012530Y-140689838D01*
X132012530Y-140689838D02*
X132155387Y-140642219D01*
X132155387Y-140642219D02*
X132250625Y-140642219D01*
X132250625Y-140642219D02*
X132393482Y-140689838D01*
X132393482Y-140689838D02*
X132441101Y-140737457D01*
X132441101Y-149642219D02*
X132107768Y-149166028D01*
X131869673Y-149642219D02*
X131869673Y-148642219D01*
X131869673Y-148642219D02*
X132250625Y-148642219D01*
X132250625Y-148642219D02*
X132345863Y-148689838D01*
X132345863Y-148689838D02*
X132393482Y-148737457D01*
X132393482Y-148737457D02*
X132441101Y-148832695D01*
X132441101Y-148832695D02*
X132441101Y-148975552D01*
X132441101Y-148975552D02*
X132393482Y-149070790D01*
X132393482Y-149070790D02*
X132345863Y-149118409D01*
X132345863Y-149118409D02*
X132250625Y-149166028D01*
X132250625Y-149166028D02*
X131869673Y-149166028D01*
X132869673Y-154367219D02*
X132869673Y-153367219D01*
X132869673Y-153367219D02*
X133250625Y-153367219D01*
X133250625Y-153367219D02*
X133345863Y-153414838D01*
X133345863Y-153414838D02*
X133393482Y-153462457D01*
X133393482Y-153462457D02*
X133441101Y-153557695D01*
X133441101Y-153557695D02*
X133441101Y-153700552D01*
X133441101Y-153700552D02*
X133393482Y-153795790D01*
X133393482Y-153795790D02*
X133345863Y-153843409D01*
X133345863Y-153843409D02*
X133250625Y-153891028D01*
X133250625Y-153891028D02*
X132869673Y-153891028D01*
X134060149Y-153367219D02*
X134250625Y-153367219D01*
X134250625Y-153367219D02*
X134345863Y-153414838D01*
X134345863Y-153414838D02*
X134441101Y-153510076D01*
X134441101Y-153510076D02*
X134488720Y-153700552D01*
X134488720Y-153700552D02*
X134488720Y-154033885D01*
X134488720Y-154033885D02*
X134441101Y-154224361D01*
X134441101Y-154224361D02*
X134345863Y-154319600D01*
X134345863Y-154319600D02*
X134250625Y-154367219D01*
X134250625Y-154367219D02*
X134060149Y-154367219D01*
X134060149Y-154367219D02*
X133964911Y-154319600D01*
X133964911Y-154319600D02*
X133869673Y-154224361D01*
X133869673Y-154224361D02*
X133822054Y-154033885D01*
X133822054Y-154033885D02*
X133822054Y-153700552D01*
X133822054Y-153700552D02*
X133869673Y-153510076D01*
X133869673Y-153510076D02*
X133964911Y-153414838D01*
X133964911Y-153414838D02*
X134060149Y-153367219D01*
X134774435Y-153367219D02*
X135345863Y-153367219D01*
X135060149Y-154367219D02*
X135060149Y-153367219D01*
X136203006Y-154367219D02*
X135631578Y-154367219D01*
X135917292Y-154367219D02*
X135917292Y-153367219D01*
X135917292Y-153367219D02*
X135822054Y-153510076D01*
X135822054Y-153510076D02*
X135726816Y-153605314D01*
X135726816Y-153605314D02*
X135631578Y-153652933D01*
X137441101Y-124367219D02*
X137107768Y-123891028D01*
X136869673Y-124367219D02*
X136869673Y-123367219D01*
X136869673Y-123367219D02*
X137250625Y-123367219D01*
X137250625Y-123367219D02*
X137345863Y-123414838D01*
X137345863Y-123414838D02*
X137393482Y-123462457D01*
X137393482Y-123462457D02*
X137441101Y-123557695D01*
X137441101Y-123557695D02*
X137441101Y-123700552D01*
X137441101Y-123700552D02*
X137393482Y-123795790D01*
X137393482Y-123795790D02*
X137345863Y-123843409D01*
X137345863Y-123843409D02*
X137250625Y-123891028D01*
X137250625Y-123891028D02*
X136869673Y-123891028D01*
X137869673Y-154367219D02*
X137869673Y-153367219D01*
X137869673Y-153367219D02*
X138250625Y-153367219D01*
X138250625Y-153367219D02*
X138345863Y-153414838D01*
X138345863Y-153414838D02*
X138393482Y-153462457D01*
X138393482Y-153462457D02*
X138441101Y-153557695D01*
X138441101Y-153557695D02*
X138441101Y-153700552D01*
X138441101Y-153700552D02*
X138393482Y-153795790D01*
X138393482Y-153795790D02*
X138345863Y-153843409D01*
X138345863Y-153843409D02*
X138250625Y-153891028D01*
X138250625Y-153891028D02*
X137869673Y-153891028D01*
X139060149Y-153367219D02*
X139250625Y-153367219D01*
X139250625Y-153367219D02*
X139345863Y-153414838D01*
X139345863Y-153414838D02*
X139441101Y-153510076D01*
X139441101Y-153510076D02*
X139488720Y-153700552D01*
X139488720Y-153700552D02*
X139488720Y-154033885D01*
X139488720Y-154033885D02*
X139441101Y-154224361D01*
X139441101Y-154224361D02*
X139345863Y-154319600D01*
X139345863Y-154319600D02*
X139250625Y-154367219D01*
X139250625Y-154367219D02*
X139060149Y-154367219D01*
X139060149Y-154367219D02*
X138964911Y-154319600D01*
X138964911Y-154319600D02*
X138869673Y-154224361D01*
X138869673Y-154224361D02*
X138822054Y-154033885D01*
X138822054Y-154033885D02*
X138822054Y-153700552D01*
X138822054Y-153700552D02*
X138869673Y-153510076D01*
X138869673Y-153510076D02*
X138964911Y-153414838D01*
X138964911Y-153414838D02*
X139060149Y-153367219D01*
X139774435Y-153367219D02*
X140345863Y-153367219D01*
X140060149Y-154367219D02*
X140060149Y-153367219D01*
X140631578Y-153462457D02*
X140679197Y-153414838D01*
X140679197Y-153414838D02*
X140774435Y-153367219D01*
X140774435Y-153367219D02*
X141012530Y-153367219D01*
X141012530Y-153367219D02*
X141107768Y-153414838D01*
X141107768Y-153414838D02*
X141155387Y-153462457D01*
X141155387Y-153462457D02*
X141203006Y-153557695D01*
X141203006Y-153557695D02*
X141203006Y-153652933D01*
X141203006Y-153652933D02*
X141155387Y-153795790D01*
X141155387Y-153795790D02*
X140583959Y-154367219D01*
X140583959Y-154367219D02*
X141203006Y-154367219D01*
X142869673Y-154367219D02*
X142869673Y-153367219D01*
X142869673Y-153367219D02*
X143250625Y-153367219D01*
X143250625Y-153367219D02*
X143345863Y-153414838D01*
X143345863Y-153414838D02*
X143393482Y-153462457D01*
X143393482Y-153462457D02*
X143441101Y-153557695D01*
X143441101Y-153557695D02*
X143441101Y-153700552D01*
X143441101Y-153700552D02*
X143393482Y-153795790D01*
X143393482Y-153795790D02*
X143345863Y-153843409D01*
X143345863Y-153843409D02*
X143250625Y-153891028D01*
X143250625Y-153891028D02*
X142869673Y-153891028D01*
X144060149Y-153367219D02*
X144250625Y-153367219D01*
X144250625Y-153367219D02*
X144345863Y-153414838D01*
X144345863Y-153414838D02*
X144441101Y-153510076D01*
X144441101Y-153510076D02*
X144488720Y-153700552D01*
X144488720Y-153700552D02*
X144488720Y-154033885D01*
X144488720Y-154033885D02*
X144441101Y-154224361D01*
X144441101Y-154224361D02*
X144345863Y-154319600D01*
X144345863Y-154319600D02*
X144250625Y-154367219D01*
X144250625Y-154367219D02*
X144060149Y-154367219D01*
X144060149Y-154367219D02*
X143964911Y-154319600D01*
X143964911Y-154319600D02*
X143869673Y-154224361D01*
X143869673Y-154224361D02*
X143822054Y-154033885D01*
X143822054Y-154033885D02*
X143822054Y-153700552D01*
X143822054Y-153700552D02*
X143869673Y-153510076D01*
X143869673Y-153510076D02*
X143964911Y-153414838D01*
X143964911Y-153414838D02*
X144060149Y-153367219D01*
X144774435Y-153367219D02*
X145345863Y-153367219D01*
X145060149Y-154367219D02*
X145060149Y-153367219D01*
X145583959Y-153367219D02*
X146203006Y-153367219D01*
X146203006Y-153367219D02*
X145869673Y-153748171D01*
X145869673Y-153748171D02*
X146012530Y-153748171D01*
X146012530Y-153748171D02*
X146107768Y-153795790D01*
X146107768Y-153795790D02*
X146155387Y-153843409D01*
X146155387Y-153843409D02*
X146203006Y-153938647D01*
X146203006Y-153938647D02*
X146203006Y-154176742D01*
X146203006Y-154176742D02*
X146155387Y-154271980D01*
X146155387Y-154271980D02*
X146107768Y-154319600D01*
X146107768Y-154319600D02*
X146012530Y-154367219D01*
X146012530Y-154367219D02*
X145726816Y-154367219D01*
X145726816Y-154367219D02*
X145631578Y-154319600D01*
X145631578Y-154319600D02*
X145583959Y-154271980D01*
X147869673Y-154367219D02*
X147869673Y-153367219D01*
X147869673Y-153367219D02*
X148250625Y-153367219D01*
X148250625Y-153367219D02*
X148345863Y-153414838D01*
X148345863Y-153414838D02*
X148393482Y-153462457D01*
X148393482Y-153462457D02*
X148441101Y-153557695D01*
X148441101Y-153557695D02*
X148441101Y-153700552D01*
X148441101Y-153700552D02*
X148393482Y-153795790D01*
X148393482Y-153795790D02*
X148345863Y-153843409D01*
X148345863Y-153843409D02*
X148250625Y-153891028D01*
X148250625Y-153891028D02*
X147869673Y-153891028D01*
X149060149Y-153367219D02*
X149250625Y-153367219D01*
X149250625Y-153367219D02*
X149345863Y-153414838D01*
X149345863Y-153414838D02*
X149441101Y-153510076D01*
X149441101Y-153510076D02*
X149488720Y-153700552D01*
X149488720Y-153700552D02*
X149488720Y-154033885D01*
X149488720Y-154033885D02*
X149441101Y-154224361D01*
X149441101Y-154224361D02*
X149345863Y-154319600D01*
X149345863Y-154319600D02*
X149250625Y-154367219D01*
X149250625Y-154367219D02*
X149060149Y-154367219D01*
X149060149Y-154367219D02*
X148964911Y-154319600D01*
X148964911Y-154319600D02*
X148869673Y-154224361D01*
X148869673Y-154224361D02*
X148822054Y-154033885D01*
X148822054Y-154033885D02*
X148822054Y-153700552D01*
X148822054Y-153700552D02*
X148869673Y-153510076D01*
X148869673Y-153510076D02*
X148964911Y-153414838D01*
X148964911Y-153414838D02*
X149060149Y-153367219D01*
X149774435Y-153367219D02*
X150345863Y-153367219D01*
X150060149Y-154367219D02*
X150060149Y-153367219D01*
X151107768Y-153700552D02*
X151107768Y-154367219D01*
X150869673Y-153319600D02*
X150631578Y-154033885D01*
X150631578Y-154033885D02*
X151250625Y-154033885D01*
X151393482Y-97414838D02*
X151298244Y-97367219D01*
X151298244Y-97367219D02*
X151155387Y-97367219D01*
X151155387Y-97367219D02*
X151012530Y-97414838D01*
X151012530Y-97414838D02*
X150917292Y-97510076D01*
X150917292Y-97510076D02*
X150869673Y-97605314D01*
X150869673Y-97605314D02*
X150822054Y-97795790D01*
X150822054Y-97795790D02*
X150822054Y-97938647D01*
X150822054Y-97938647D02*
X150869673Y-98129123D01*
X150869673Y-98129123D02*
X150917292Y-98224361D01*
X150917292Y-98224361D02*
X151012530Y-98319600D01*
X151012530Y-98319600D02*
X151155387Y-98367219D01*
X151155387Y-98367219D02*
X151250625Y-98367219D01*
X151250625Y-98367219D02*
X151393482Y-98319600D01*
X151393482Y-98319600D02*
X151441101Y-98271980D01*
X151441101Y-98271980D02*
X151441101Y-97938647D01*
X151441101Y-97938647D02*
X151250625Y-97938647D01*
X151869673Y-98367219D02*
X151869673Y-97367219D01*
X151869673Y-97367219D02*
X152441101Y-98367219D01*
X152441101Y-98367219D02*
X152441101Y-97367219D01*
X152917292Y-98367219D02*
X152917292Y-97367219D01*
X152917292Y-97367219D02*
X153155387Y-97367219D01*
X153155387Y-97367219D02*
X153298244Y-97414838D01*
X153298244Y-97414838D02*
X153393482Y-97510076D01*
X153393482Y-97510076D02*
X153441101Y-97605314D01*
X153441101Y-97605314D02*
X153488720Y-97795790D01*
X153488720Y-97795790D02*
X153488720Y-97938647D01*
X153488720Y-97938647D02*
X153441101Y-98129123D01*
X153441101Y-98129123D02*
X153393482Y-98224361D01*
X153393482Y-98224361D02*
X153298244Y-98319600D01*
X153298244Y-98319600D02*
X153155387Y-98367219D01*
X153155387Y-98367219D02*
X152917292Y-98367219D01*
X152345863Y-124367219D02*
X151869673Y-124367219D01*
X151869673Y-124367219D02*
X151869673Y-123367219D01*
X149893482Y-83914838D02*
X149798244Y-83867219D01*
X149798244Y-83867219D02*
X149655387Y-83867219D01*
X149655387Y-83867219D02*
X149512530Y-83914838D01*
X149512530Y-83914838D02*
X149417292Y-84010076D01*
X149417292Y-84010076D02*
X149369673Y-84105314D01*
X149369673Y-84105314D02*
X149322054Y-84295790D01*
X149322054Y-84295790D02*
X149322054Y-84438647D01*
X149322054Y-84438647D02*
X149369673Y-84629123D01*
X149369673Y-84629123D02*
X149417292Y-84724361D01*
X149417292Y-84724361D02*
X149512530Y-84819600D01*
X149512530Y-84819600D02*
X149655387Y-84867219D01*
X149655387Y-84867219D02*
X149750625Y-84867219D01*
X149750625Y-84867219D02*
X149893482Y-84819600D01*
X149893482Y-84819600D02*
X149941101Y-84771980D01*
X149941101Y-84771980D02*
X149941101Y-84438647D01*
X149941101Y-84438647D02*
X149750625Y-84438647D01*
X150369673Y-84867219D02*
X150369673Y-83867219D01*
X150369673Y-83867219D02*
X150941101Y-84867219D01*
X150941101Y-84867219D02*
X150941101Y-83867219D01*
X151417292Y-84867219D02*
X151417292Y-83867219D01*
X151417292Y-83867219D02*
X151655387Y-83867219D01*
X151655387Y-83867219D02*
X151798244Y-83914838D01*
X151798244Y-83914838D02*
X151893482Y-84010076D01*
X151893482Y-84010076D02*
X151941101Y-84105314D01*
X151941101Y-84105314D02*
X151988720Y-84295790D01*
X151988720Y-84295790D02*
X151988720Y-84438647D01*
X151988720Y-84438647D02*
X151941101Y-84629123D01*
X151941101Y-84629123D02*
X151893482Y-84724361D01*
X151893482Y-84724361D02*
X151798244Y-84819600D01*
X151798244Y-84819600D02*
X151655387Y-84867219D01*
X151655387Y-84867219D02*
X151417292Y-84867219D01*
X155369673Y-124367219D02*
X155369673Y-123367219D01*
X155369673Y-123367219D02*
X155750625Y-123367219D01*
X155750625Y-123367219D02*
X155845863Y-123414838D01*
X155845863Y-123414838D02*
X155893482Y-123462457D01*
X155893482Y-123462457D02*
X155941101Y-123557695D01*
X155941101Y-123557695D02*
X155941101Y-123700552D01*
X155941101Y-123700552D02*
X155893482Y-123795790D01*
X155893482Y-123795790D02*
X155845863Y-123843409D01*
X155845863Y-123843409D02*
X155750625Y-123891028D01*
X155750625Y-123891028D02*
X155369673Y-123891028D01*
X156560149Y-123367219D02*
X156750625Y-123367219D01*
X156750625Y-123367219D02*
X156845863Y-123414838D01*
X156845863Y-123414838D02*
X156941101Y-123510076D01*
X156941101Y-123510076D02*
X156988720Y-123700552D01*
X156988720Y-123700552D02*
X156988720Y-124033885D01*
X156988720Y-124033885D02*
X156941101Y-124224361D01*
X156941101Y-124224361D02*
X156845863Y-124319600D01*
X156845863Y-124319600D02*
X156750625Y-124367219D01*
X156750625Y-124367219D02*
X156560149Y-124367219D01*
X156560149Y-124367219D02*
X156464911Y-124319600D01*
X156464911Y-124319600D02*
X156369673Y-124224361D01*
X156369673Y-124224361D02*
X156322054Y-124033885D01*
X156322054Y-124033885D02*
X156322054Y-123700552D01*
X156322054Y-123700552D02*
X156369673Y-123510076D01*
X156369673Y-123510076D02*
X156464911Y-123414838D01*
X156464911Y-123414838D02*
X156560149Y-123367219D01*
X157274435Y-123367219D02*
X157845863Y-123367219D01*
X157560149Y-124367219D02*
X157560149Y-123367219D01*
X158131578Y-123462457D02*
X158179197Y-123414838D01*
X158179197Y-123414838D02*
X158274435Y-123367219D01*
X158274435Y-123367219D02*
X158512530Y-123367219D01*
X158512530Y-123367219D02*
X158607768Y-123414838D01*
X158607768Y-123414838D02*
X158655387Y-123462457D01*
X158655387Y-123462457D02*
X158703006Y-123557695D01*
X158703006Y-123557695D02*
X158703006Y-123652933D01*
X158703006Y-123652933D02*
X158655387Y-123795790D01*
X158655387Y-123795790D02*
X158083959Y-124367219D01*
X158083959Y-124367219D02*
X158703006Y-124367219D01*
X155893482Y-125867219D02*
X155322054Y-125867219D01*
X155607768Y-125867219D02*
X155607768Y-124867219D01*
X155607768Y-124867219D02*
X155512530Y-125010076D01*
X155512530Y-125010076D02*
X155417292Y-125105314D01*
X155417292Y-125105314D02*
X155322054Y-125152933D01*
X156512530Y-124867219D02*
X156607768Y-124867219D01*
X156607768Y-124867219D02*
X156703006Y-124914838D01*
X156703006Y-124914838D02*
X156750625Y-124962457D01*
X156750625Y-124962457D02*
X156798244Y-125057695D01*
X156798244Y-125057695D02*
X156845863Y-125248171D01*
X156845863Y-125248171D02*
X156845863Y-125486266D01*
X156845863Y-125486266D02*
X156798244Y-125676742D01*
X156798244Y-125676742D02*
X156750625Y-125771980D01*
X156750625Y-125771980D02*
X156703006Y-125819600D01*
X156703006Y-125819600D02*
X156607768Y-125867219D01*
X156607768Y-125867219D02*
X156512530Y-125867219D01*
X156512530Y-125867219D02*
X156417292Y-125819600D01*
X156417292Y-125819600D02*
X156369673Y-125771980D01*
X156369673Y-125771980D02*
X156322054Y-125676742D01*
X156322054Y-125676742D02*
X156274435Y-125486266D01*
X156274435Y-125486266D02*
X156274435Y-125248171D01*
X156274435Y-125248171D02*
X156322054Y-125057695D01*
X156322054Y-125057695D02*
X156369673Y-124962457D01*
X156369673Y-124962457D02*
X156417292Y-124914838D01*
X156417292Y-124914838D02*
X156512530Y-124867219D01*
X157464911Y-124867219D02*
X157560149Y-124867219D01*
X157560149Y-124867219D02*
X157655387Y-124914838D01*
X157655387Y-124914838D02*
X157703006Y-124962457D01*
X157703006Y-124962457D02*
X157750625Y-125057695D01*
X157750625Y-125057695D02*
X157798244Y-125248171D01*
X157798244Y-125248171D02*
X157798244Y-125486266D01*
X157798244Y-125486266D02*
X157750625Y-125676742D01*
X157750625Y-125676742D02*
X157703006Y-125771980D01*
X157703006Y-125771980D02*
X157655387Y-125819600D01*
X157655387Y-125819600D02*
X157560149Y-125867219D01*
X157560149Y-125867219D02*
X157464911Y-125867219D01*
X157464911Y-125867219D02*
X157369673Y-125819600D01*
X157369673Y-125819600D02*
X157322054Y-125771980D01*
X157322054Y-125771980D02*
X157274435Y-125676742D01*
X157274435Y-125676742D02*
X157226816Y-125486266D01*
X157226816Y-125486266D02*
X157226816Y-125248171D01*
X157226816Y-125248171D02*
X157274435Y-125057695D01*
X157274435Y-125057695D02*
X157322054Y-124962457D01*
X157322054Y-124962457D02*
X157369673Y-124914838D01*
X157369673Y-124914838D02*
X157464911Y-124867219D01*
X158226816Y-125867219D02*
X158226816Y-124867219D01*
X158798244Y-125867219D02*
X158369673Y-125295790D01*
X158798244Y-124867219D02*
X158226816Y-125438647D01*
X157893482Y-83914838D02*
X157798244Y-83867219D01*
X157798244Y-83867219D02*
X157655387Y-83867219D01*
X157655387Y-83867219D02*
X157512530Y-83914838D01*
X157512530Y-83914838D02*
X157417292Y-84010076D01*
X157417292Y-84010076D02*
X157369673Y-84105314D01*
X157369673Y-84105314D02*
X157322054Y-84295790D01*
X157322054Y-84295790D02*
X157322054Y-84438647D01*
X157322054Y-84438647D02*
X157369673Y-84629123D01*
X157369673Y-84629123D02*
X157417292Y-84724361D01*
X157417292Y-84724361D02*
X157512530Y-84819600D01*
X157512530Y-84819600D02*
X157655387Y-84867219D01*
X157655387Y-84867219D02*
X157750625Y-84867219D01*
X157750625Y-84867219D02*
X157893482Y-84819600D01*
X157893482Y-84819600D02*
X157941101Y-84771980D01*
X157941101Y-84771980D02*
X157941101Y-84438647D01*
X157941101Y-84438647D02*
X157750625Y-84438647D01*
X158369673Y-84867219D02*
X158369673Y-83867219D01*
X158369673Y-83867219D02*
X158941101Y-84867219D01*
X158941101Y-84867219D02*
X158941101Y-83867219D01*
X159417292Y-84867219D02*
X159417292Y-83867219D01*
X159417292Y-83867219D02*
X159655387Y-83867219D01*
X159655387Y-83867219D02*
X159798244Y-83914838D01*
X159798244Y-83914838D02*
X159893482Y-84010076D01*
X159893482Y-84010076D02*
X159941101Y-84105314D01*
X159941101Y-84105314D02*
X159988720Y-84295790D01*
X159988720Y-84295790D02*
X159988720Y-84438647D01*
X159988720Y-84438647D02*
X159941101Y-84629123D01*
X159941101Y-84629123D02*
X159893482Y-84724361D01*
X159893482Y-84724361D02*
X159798244Y-84819600D01*
X159798244Y-84819600D02*
X159655387Y-84867219D01*
X159655387Y-84867219D02*
X159417292Y-84867219D01*
X161203006Y-153843409D02*
X160869673Y-153843409D01*
X160869673Y-154367219D02*
X160869673Y-153367219D01*
X160869673Y-153367219D02*
X161345863Y-153367219D01*
X161583959Y-153367219D02*
X162155387Y-153367219D01*
X161869673Y-154367219D02*
X161869673Y-153367219D01*
X163012530Y-154367219D02*
X162441102Y-154367219D01*
X162726816Y-154367219D02*
X162726816Y-153367219D01*
X162726816Y-153367219D02*
X162631578Y-153510076D01*
X162631578Y-153510076D02*
X162536340Y-153605314D01*
X162536340Y-153605314D02*
X162441102Y-153652933D01*
X162441101Y-124367219D02*
X162107768Y-123891028D01*
X161869673Y-124367219D02*
X161869673Y-123367219D01*
X161869673Y-123367219D02*
X162250625Y-123367219D01*
X162250625Y-123367219D02*
X162345863Y-123414838D01*
X162345863Y-123414838D02*
X162393482Y-123462457D01*
X162393482Y-123462457D02*
X162441101Y-123557695D01*
X162441101Y-123557695D02*
X162441101Y-123700552D01*
X162441101Y-123700552D02*
X162393482Y-123795790D01*
X162393482Y-123795790D02*
X162345863Y-123843409D01*
X162345863Y-123843409D02*
X162250625Y-123891028D01*
X162250625Y-123891028D02*
X161869673Y-123891028D01*
X166203006Y-153843409D02*
X165869673Y-153843409D01*
X165869673Y-154367219D02*
X165869673Y-153367219D01*
X165869673Y-153367219D02*
X166345863Y-153367219D01*
X166583959Y-153367219D02*
X167155387Y-153367219D01*
X166869673Y-154367219D02*
X166869673Y-153367219D01*
X167441102Y-153462457D02*
X167488721Y-153414838D01*
X167488721Y-153414838D02*
X167583959Y-153367219D01*
X167583959Y-153367219D02*
X167822054Y-153367219D01*
X167822054Y-153367219D02*
X167917292Y-153414838D01*
X167917292Y-153414838D02*
X167964911Y-153462457D01*
X167964911Y-153462457D02*
X168012530Y-153557695D01*
X168012530Y-153557695D02*
X168012530Y-153652933D01*
X168012530Y-153652933D02*
X167964911Y-153795790D01*
X167964911Y-153795790D02*
X167393483Y-154367219D01*
X167393483Y-154367219D02*
X168012530Y-154367219D01*
X170893482Y-83914838D02*
X170798244Y-83867219D01*
X170798244Y-83867219D02*
X170655387Y-83867219D01*
X170655387Y-83867219D02*
X170512530Y-83914838D01*
X170512530Y-83914838D02*
X170417292Y-84010076D01*
X170417292Y-84010076D02*
X170369673Y-84105314D01*
X170369673Y-84105314D02*
X170322054Y-84295790D01*
X170322054Y-84295790D02*
X170322054Y-84438647D01*
X170322054Y-84438647D02*
X170369673Y-84629123D01*
X170369673Y-84629123D02*
X170417292Y-84724361D01*
X170417292Y-84724361D02*
X170512530Y-84819600D01*
X170512530Y-84819600D02*
X170655387Y-84867219D01*
X170655387Y-84867219D02*
X170750625Y-84867219D01*
X170750625Y-84867219D02*
X170893482Y-84819600D01*
X170893482Y-84819600D02*
X170941101Y-84771980D01*
X170941101Y-84771980D02*
X170941101Y-84438647D01*
X170941101Y-84438647D02*
X170750625Y-84438647D01*
X171369673Y-84867219D02*
X171369673Y-83867219D01*
X171369673Y-83867219D02*
X171941101Y-84867219D01*
X171941101Y-84867219D02*
X171941101Y-83867219D01*
X172417292Y-84867219D02*
X172417292Y-83867219D01*
X172417292Y-83867219D02*
X172655387Y-83867219D01*
X172655387Y-83867219D02*
X172798244Y-83914838D01*
X172798244Y-83914838D02*
X172893482Y-84010076D01*
X172893482Y-84010076D02*
X172941101Y-84105314D01*
X172941101Y-84105314D02*
X172988720Y-84295790D01*
X172988720Y-84295790D02*
X172988720Y-84438647D01*
X172988720Y-84438647D02*
X172941101Y-84629123D01*
X172941101Y-84629123D02*
X172893482Y-84724361D01*
X172893482Y-84724361D02*
X172798244Y-84819600D01*
X172798244Y-84819600D02*
X172655387Y-84867219D01*
X172655387Y-84867219D02*
X172417292Y-84867219D01*
X171203006Y-153843409D02*
X170869673Y-153843409D01*
X170869673Y-154367219D02*
X170869673Y-153367219D01*
X170869673Y-153367219D02*
X171345863Y-153367219D01*
X171583959Y-153367219D02*
X172155387Y-153367219D01*
X171869673Y-154367219D02*
X171869673Y-153367219D01*
X172393483Y-153367219D02*
X173012530Y-153367219D01*
X173012530Y-153367219D02*
X172679197Y-153748171D01*
X172679197Y-153748171D02*
X172822054Y-153748171D01*
X172822054Y-153748171D02*
X172917292Y-153795790D01*
X172917292Y-153795790D02*
X172964911Y-153843409D01*
X172964911Y-153843409D02*
X173012530Y-153938647D01*
X173012530Y-153938647D02*
X173012530Y-154176742D01*
X173012530Y-154176742D02*
X172964911Y-154271980D01*
X172964911Y-154271980D02*
X172917292Y-154319600D01*
X172917292Y-154319600D02*
X172822054Y-154367219D01*
X172822054Y-154367219D02*
X172536340Y-154367219D01*
X172536340Y-154367219D02*
X172441102Y-154319600D01*
X172441102Y-154319600D02*
X172393483Y-154271980D01*
X176393482Y-97414838D02*
X176298244Y-97367219D01*
X176298244Y-97367219D02*
X176155387Y-97367219D01*
X176155387Y-97367219D02*
X176012530Y-97414838D01*
X176012530Y-97414838D02*
X175917292Y-97510076D01*
X175917292Y-97510076D02*
X175869673Y-97605314D01*
X175869673Y-97605314D02*
X175822054Y-97795790D01*
X175822054Y-97795790D02*
X175822054Y-97938647D01*
X175822054Y-97938647D02*
X175869673Y-98129123D01*
X175869673Y-98129123D02*
X175917292Y-98224361D01*
X175917292Y-98224361D02*
X176012530Y-98319600D01*
X176012530Y-98319600D02*
X176155387Y-98367219D01*
X176155387Y-98367219D02*
X176250625Y-98367219D01*
X176250625Y-98367219D02*
X176393482Y-98319600D01*
X176393482Y-98319600D02*
X176441101Y-98271980D01*
X176441101Y-98271980D02*
X176441101Y-97938647D01*
X176441101Y-97938647D02*
X176250625Y-97938647D01*
X176869673Y-98367219D02*
X176869673Y-97367219D01*
X176869673Y-97367219D02*
X177441101Y-98367219D01*
X177441101Y-98367219D02*
X177441101Y-97367219D01*
X177917292Y-98367219D02*
X177917292Y-97367219D01*
X177917292Y-97367219D02*
X178155387Y-97367219D01*
X178155387Y-97367219D02*
X178298244Y-97414838D01*
X178298244Y-97414838D02*
X178393482Y-97510076D01*
X178393482Y-97510076D02*
X178441101Y-97605314D01*
X178441101Y-97605314D02*
X178488720Y-97795790D01*
X178488720Y-97795790D02*
X178488720Y-97938647D01*
X178488720Y-97938647D02*
X178441101Y-98129123D01*
X178441101Y-98129123D02*
X178393482Y-98224361D01*
X178393482Y-98224361D02*
X178298244Y-98319600D01*
X178298244Y-98319600D02*
X178155387Y-98367219D01*
X178155387Y-98367219D02*
X177917292Y-98367219D01*
X177345863Y-124367219D02*
X176869673Y-124367219D01*
X176869673Y-124367219D02*
X176869673Y-123367219D01*
X180369673Y-124367219D02*
X180369673Y-123367219D01*
X180369673Y-123367219D02*
X180750625Y-123367219D01*
X180750625Y-123367219D02*
X180845863Y-123414838D01*
X180845863Y-123414838D02*
X180893482Y-123462457D01*
X180893482Y-123462457D02*
X180941101Y-123557695D01*
X180941101Y-123557695D02*
X180941101Y-123700552D01*
X180941101Y-123700552D02*
X180893482Y-123795790D01*
X180893482Y-123795790D02*
X180845863Y-123843409D01*
X180845863Y-123843409D02*
X180750625Y-123891028D01*
X180750625Y-123891028D02*
X180369673Y-123891028D01*
X181560149Y-123367219D02*
X181750625Y-123367219D01*
X181750625Y-123367219D02*
X181845863Y-123414838D01*
X181845863Y-123414838D02*
X181941101Y-123510076D01*
X181941101Y-123510076D02*
X181988720Y-123700552D01*
X181988720Y-123700552D02*
X181988720Y-124033885D01*
X181988720Y-124033885D02*
X181941101Y-124224361D01*
X181941101Y-124224361D02*
X181845863Y-124319600D01*
X181845863Y-124319600D02*
X181750625Y-124367219D01*
X181750625Y-124367219D02*
X181560149Y-124367219D01*
X181560149Y-124367219D02*
X181464911Y-124319600D01*
X181464911Y-124319600D02*
X181369673Y-124224361D01*
X181369673Y-124224361D02*
X181322054Y-124033885D01*
X181322054Y-124033885D02*
X181322054Y-123700552D01*
X181322054Y-123700552D02*
X181369673Y-123510076D01*
X181369673Y-123510076D02*
X181464911Y-123414838D01*
X181464911Y-123414838D02*
X181560149Y-123367219D01*
X182274435Y-123367219D02*
X182845863Y-123367219D01*
X182560149Y-124367219D02*
X182560149Y-123367219D01*
X183083959Y-123367219D02*
X183703006Y-123367219D01*
X183703006Y-123367219D02*
X183369673Y-123748171D01*
X183369673Y-123748171D02*
X183512530Y-123748171D01*
X183512530Y-123748171D02*
X183607768Y-123795790D01*
X183607768Y-123795790D02*
X183655387Y-123843409D01*
X183655387Y-123843409D02*
X183703006Y-123938647D01*
X183703006Y-123938647D02*
X183703006Y-124176742D01*
X183703006Y-124176742D02*
X183655387Y-124271980D01*
X183655387Y-124271980D02*
X183607768Y-124319600D01*
X183607768Y-124319600D02*
X183512530Y-124367219D01*
X183512530Y-124367219D02*
X183226816Y-124367219D01*
X183226816Y-124367219D02*
X183131578Y-124319600D01*
X183131578Y-124319600D02*
X183083959Y-124271980D01*
X180322054Y-124962457D02*
X180369673Y-124914838D01*
X180369673Y-124914838D02*
X180464911Y-124867219D01*
X180464911Y-124867219D02*
X180703006Y-124867219D01*
X180703006Y-124867219D02*
X180798244Y-124914838D01*
X180798244Y-124914838D02*
X180845863Y-124962457D01*
X180845863Y-124962457D02*
X180893482Y-125057695D01*
X180893482Y-125057695D02*
X180893482Y-125152933D01*
X180893482Y-125152933D02*
X180845863Y-125295790D01*
X180845863Y-125295790D02*
X180274435Y-125867219D01*
X180274435Y-125867219D02*
X180893482Y-125867219D01*
X181798244Y-124867219D02*
X181322054Y-124867219D01*
X181322054Y-124867219D02*
X181274435Y-125343409D01*
X181274435Y-125343409D02*
X181322054Y-125295790D01*
X181322054Y-125295790D02*
X181417292Y-125248171D01*
X181417292Y-125248171D02*
X181655387Y-125248171D01*
X181655387Y-125248171D02*
X181750625Y-125295790D01*
X181750625Y-125295790D02*
X181798244Y-125343409D01*
X181798244Y-125343409D02*
X181845863Y-125438647D01*
X181845863Y-125438647D02*
X181845863Y-125676742D01*
X181845863Y-125676742D02*
X181798244Y-125771980D01*
X181798244Y-125771980D02*
X181750625Y-125819600D01*
X181750625Y-125819600D02*
X181655387Y-125867219D01*
X181655387Y-125867219D02*
X181417292Y-125867219D01*
X181417292Y-125867219D02*
X181322054Y-125819600D01*
X181322054Y-125819600D02*
X181274435Y-125771980D01*
X182464911Y-124867219D02*
X182560149Y-124867219D01*
X182560149Y-124867219D02*
X182655387Y-124914838D01*
X182655387Y-124914838D02*
X182703006Y-124962457D01*
X182703006Y-124962457D02*
X182750625Y-125057695D01*
X182750625Y-125057695D02*
X182798244Y-125248171D01*
X182798244Y-125248171D02*
X182798244Y-125486266D01*
X182798244Y-125486266D02*
X182750625Y-125676742D01*
X182750625Y-125676742D02*
X182703006Y-125771980D01*
X182703006Y-125771980D02*
X182655387Y-125819600D01*
X182655387Y-125819600D02*
X182560149Y-125867219D01*
X182560149Y-125867219D02*
X182464911Y-125867219D01*
X182464911Y-125867219D02*
X182369673Y-125819600D01*
X182369673Y-125819600D02*
X182322054Y-125771980D01*
X182322054Y-125771980D02*
X182274435Y-125676742D01*
X182274435Y-125676742D02*
X182226816Y-125486266D01*
X182226816Y-125486266D02*
X182226816Y-125248171D01*
X182226816Y-125248171D02*
X182274435Y-125057695D01*
X182274435Y-125057695D02*
X182322054Y-124962457D01*
X182322054Y-124962457D02*
X182369673Y-124914838D01*
X182369673Y-124914838D02*
X182464911Y-124867219D01*
X183226816Y-125867219D02*
X183226816Y-124867219D01*
X183798244Y-125867219D02*
X183369673Y-125295790D01*
X183798244Y-124867219D02*
X183226816Y-125438647D01*
X177060149Y-88867219D02*
X177250625Y-88867219D01*
X177250625Y-88867219D02*
X177345863Y-88914838D01*
X177345863Y-88914838D02*
X177441101Y-89010076D01*
X177441101Y-89010076D02*
X177488720Y-89200552D01*
X177488720Y-89200552D02*
X177488720Y-89533885D01*
X177488720Y-89533885D02*
X177441101Y-89724361D01*
X177441101Y-89724361D02*
X177345863Y-89819600D01*
X177345863Y-89819600D02*
X177250625Y-89867219D01*
X177250625Y-89867219D02*
X177060149Y-89867219D01*
X177060149Y-89867219D02*
X176964911Y-89819600D01*
X176964911Y-89819600D02*
X176869673Y-89724361D01*
X176869673Y-89724361D02*
X176822054Y-89533885D01*
X176822054Y-89533885D02*
X176822054Y-89200552D01*
X176822054Y-89200552D02*
X176869673Y-89010076D01*
X176869673Y-89010076D02*
X176964911Y-88914838D01*
X176964911Y-88914838D02*
X177060149Y-88867219D01*
X177917292Y-89867219D02*
X177917292Y-88867219D01*
X177917292Y-88867219D02*
X178488720Y-89867219D01*
X178488720Y-89867219D02*
X178488720Y-88867219D01*
X182322054Y-154319600D02*
X182464911Y-154367219D01*
X182464911Y-154367219D02*
X182703006Y-154367219D01*
X182703006Y-154367219D02*
X182798244Y-154319600D01*
X182798244Y-154319600D02*
X182845863Y-154271980D01*
X182845863Y-154271980D02*
X182893482Y-154176742D01*
X182893482Y-154176742D02*
X182893482Y-154081504D01*
X182893482Y-154081504D02*
X182845863Y-153986266D01*
X182845863Y-153986266D02*
X182798244Y-153938647D01*
X182798244Y-153938647D02*
X182703006Y-153891028D01*
X182703006Y-153891028D02*
X182512530Y-153843409D01*
X182512530Y-153843409D02*
X182417292Y-153795790D01*
X182417292Y-153795790D02*
X182369673Y-153748171D01*
X182369673Y-153748171D02*
X182322054Y-153652933D01*
X182322054Y-153652933D02*
X182322054Y-153557695D01*
X182322054Y-153557695D02*
X182369673Y-153462457D01*
X182369673Y-153462457D02*
X182417292Y-153414838D01*
X182417292Y-153414838D02*
X182512530Y-153367219D01*
X182512530Y-153367219D02*
X182750625Y-153367219D01*
X182750625Y-153367219D02*
X182893482Y-153414838D01*
X183226816Y-153367219D02*
X183464911Y-154367219D01*
X183464911Y-154367219D02*
X183655387Y-153652933D01*
X183655387Y-153652933D02*
X183845863Y-154367219D01*
X183845863Y-154367219D02*
X184083959Y-153367219D01*
X184464911Y-154367219D02*
X184464911Y-153367219D01*
X184798244Y-153367219D02*
X185369672Y-153367219D01*
X185083958Y-154367219D02*
X185083958Y-153367219D01*
X186274434Y-154271980D02*
X186226815Y-154319600D01*
X186226815Y-154319600D02*
X186083958Y-154367219D01*
X186083958Y-154367219D02*
X185988720Y-154367219D01*
X185988720Y-154367219D02*
X185845863Y-154319600D01*
X185845863Y-154319600D02*
X185750625Y-154224361D01*
X185750625Y-154224361D02*
X185703006Y-154129123D01*
X185703006Y-154129123D02*
X185655387Y-153938647D01*
X185655387Y-153938647D02*
X185655387Y-153795790D01*
X185655387Y-153795790D02*
X185703006Y-153605314D01*
X185703006Y-153605314D02*
X185750625Y-153510076D01*
X185750625Y-153510076D02*
X185845863Y-153414838D01*
X185845863Y-153414838D02*
X185988720Y-153367219D01*
X185988720Y-153367219D02*
X186083958Y-153367219D01*
X186083958Y-153367219D02*
X186226815Y-153414838D01*
X186226815Y-153414838D02*
X186274434Y-153462457D01*
X186703006Y-154367219D02*
X186703006Y-153367219D01*
X186703006Y-153843409D02*
X187274434Y-153843409D01*
X187274434Y-154367219D02*
X187274434Y-153367219D01*
X187441101Y-124367219D02*
X187107768Y-123891028D01*
X186869673Y-124367219D02*
X186869673Y-123367219D01*
X186869673Y-123367219D02*
X187250625Y-123367219D01*
X187250625Y-123367219D02*
X187345863Y-123414838D01*
X187345863Y-123414838D02*
X187393482Y-123462457D01*
X187393482Y-123462457D02*
X187441101Y-123557695D01*
X187441101Y-123557695D02*
X187441101Y-123700552D01*
X187441101Y-123700552D02*
X187393482Y-123795790D01*
X187393482Y-123795790D02*
X187345863Y-123843409D01*
X187345863Y-123843409D02*
X187250625Y-123891028D01*
X187250625Y-123891028D02*
X186869673Y-123891028D01*
X192345863Y-154367219D02*
X191869673Y-154367219D01*
X191869673Y-154367219D02*
X191869673Y-153367219D01*
X192679197Y-153843409D02*
X193012530Y-153843409D01*
X193155387Y-154367219D02*
X192679197Y-154367219D01*
X192679197Y-154367219D02*
X192679197Y-153367219D01*
X192679197Y-153367219D02*
X193155387Y-153367219D01*
X193583959Y-154367219D02*
X193583959Y-153367219D01*
X193583959Y-153367219D02*
X193822054Y-153367219D01*
X193822054Y-153367219D02*
X193964911Y-153414838D01*
X193964911Y-153414838D02*
X194060149Y-153510076D01*
X194060149Y-153510076D02*
X194107768Y-153605314D01*
X194107768Y-153605314D02*
X194155387Y-153795790D01*
X194155387Y-153795790D02*
X194155387Y-153938647D01*
X194155387Y-153938647D02*
X194107768Y-154129123D01*
X194107768Y-154129123D02*
X194060149Y-154224361D01*
X194060149Y-154224361D02*
X193964911Y-154319600D01*
X193964911Y-154319600D02*
X193822054Y-154367219D01*
X193822054Y-154367219D02*
X193583959Y-154367219D01*
X194583959Y-153986266D02*
X195345864Y-153986266D01*
X194964911Y-154367219D02*
X194964911Y-153605314D01*
X197845863Y-154367219D02*
X197369673Y-154367219D01*
X197369673Y-154367219D02*
X197369673Y-153367219D01*
X198179197Y-153843409D02*
X198512530Y-153843409D01*
X198655387Y-154367219D02*
X198179197Y-154367219D01*
X198179197Y-154367219D02*
X198179197Y-153367219D01*
X198179197Y-153367219D02*
X198655387Y-153367219D01*
X199083959Y-154367219D02*
X199083959Y-153367219D01*
X199083959Y-153367219D02*
X199322054Y-153367219D01*
X199322054Y-153367219D02*
X199464911Y-153414838D01*
X199464911Y-153414838D02*
X199560149Y-153510076D01*
X199560149Y-153510076D02*
X199607768Y-153605314D01*
X199607768Y-153605314D02*
X199655387Y-153795790D01*
X199655387Y-153795790D02*
X199655387Y-153938647D01*
X199655387Y-153938647D02*
X199607768Y-154129123D01*
X199607768Y-154129123D02*
X199560149Y-154224361D01*
X199560149Y-154224361D02*
X199464911Y-154319600D01*
X199464911Y-154319600D02*
X199322054Y-154367219D01*
X199322054Y-154367219D02*
X199083959Y-154367219D01*
X200083959Y-153986266D02*
X200845864Y-153986266D01*
X195345863Y-137367219D02*
X194869673Y-137367219D01*
X194869673Y-137367219D02*
X194869673Y-136367219D01*
X195679197Y-136843409D02*
X196012530Y-136843409D01*
X196155387Y-137367219D02*
X195679197Y-137367219D01*
X195679197Y-137367219D02*
X195679197Y-136367219D01*
X195679197Y-136367219D02*
X196155387Y-136367219D01*
X196583959Y-137367219D02*
X196583959Y-136367219D01*
X196583959Y-136367219D02*
X196822054Y-136367219D01*
X196822054Y-136367219D02*
X196964911Y-136414838D01*
X196964911Y-136414838D02*
X197060149Y-136510076D01*
X197060149Y-136510076D02*
X197107768Y-136605314D01*
X197107768Y-136605314D02*
X197155387Y-136795790D01*
X197155387Y-136795790D02*
X197155387Y-136938647D01*
X197155387Y-136938647D02*
X197107768Y-137129123D01*
X197107768Y-137129123D02*
X197060149Y-137224361D01*
X197060149Y-137224361D02*
X196964911Y-137319600D01*
X196964911Y-137319600D02*
X196822054Y-137367219D01*
X196822054Y-137367219D02*
X196583959Y-137367219D01*
X201393482Y-97414838D02*
X201298244Y-97367219D01*
X201298244Y-97367219D02*
X201155387Y-97367219D01*
X201155387Y-97367219D02*
X201012530Y-97414838D01*
X201012530Y-97414838D02*
X200917292Y-97510076D01*
X200917292Y-97510076D02*
X200869673Y-97605314D01*
X200869673Y-97605314D02*
X200822054Y-97795790D01*
X200822054Y-97795790D02*
X200822054Y-97938647D01*
X200822054Y-97938647D02*
X200869673Y-98129123D01*
X200869673Y-98129123D02*
X200917292Y-98224361D01*
X200917292Y-98224361D02*
X201012530Y-98319600D01*
X201012530Y-98319600D02*
X201155387Y-98367219D01*
X201155387Y-98367219D02*
X201250625Y-98367219D01*
X201250625Y-98367219D02*
X201393482Y-98319600D01*
X201393482Y-98319600D02*
X201441101Y-98271980D01*
X201441101Y-98271980D02*
X201441101Y-97938647D01*
X201441101Y-97938647D02*
X201250625Y-97938647D01*
X201869673Y-98367219D02*
X201869673Y-97367219D01*
X201869673Y-97367219D02*
X202441101Y-98367219D01*
X202441101Y-98367219D02*
X202441101Y-97367219D01*
X202917292Y-98367219D02*
X202917292Y-97367219D01*
X202917292Y-97367219D02*
X203155387Y-97367219D01*
X203155387Y-97367219D02*
X203298244Y-97414838D01*
X203298244Y-97414838D02*
X203393482Y-97510076D01*
X203393482Y-97510076D02*
X203441101Y-97605314D01*
X203441101Y-97605314D02*
X203488720Y-97795790D01*
X203488720Y-97795790D02*
X203488720Y-97938647D01*
X203488720Y-97938647D02*
X203441101Y-98129123D01*
X203441101Y-98129123D02*
X203393482Y-98224361D01*
X203393482Y-98224361D02*
X203298244Y-98319600D01*
X203298244Y-98319600D02*
X203155387Y-98367219D01*
X203155387Y-98367219D02*
X202917292Y-98367219D01*
X202345863Y-124367219D02*
X201869673Y-124367219D01*
X201869673Y-124367219D02*
X201869673Y-123367219D01*
X202893482Y-153414838D02*
X202798244Y-153367219D01*
X202798244Y-153367219D02*
X202655387Y-153367219D01*
X202655387Y-153367219D02*
X202512530Y-153414838D01*
X202512530Y-153414838D02*
X202417292Y-153510076D01*
X202417292Y-153510076D02*
X202369673Y-153605314D01*
X202369673Y-153605314D02*
X202322054Y-153795790D01*
X202322054Y-153795790D02*
X202322054Y-153938647D01*
X202322054Y-153938647D02*
X202369673Y-154129123D01*
X202369673Y-154129123D02*
X202417292Y-154224361D01*
X202417292Y-154224361D02*
X202512530Y-154319600D01*
X202512530Y-154319600D02*
X202655387Y-154367219D01*
X202655387Y-154367219D02*
X202750625Y-154367219D01*
X202750625Y-154367219D02*
X202893482Y-154319600D01*
X202893482Y-154319600D02*
X202941101Y-154271980D01*
X202941101Y-154271980D02*
X202941101Y-153938647D01*
X202941101Y-153938647D02*
X202750625Y-153938647D01*
X203369673Y-154367219D02*
X203369673Y-153367219D01*
X203369673Y-153367219D02*
X203941101Y-154367219D01*
X203941101Y-154367219D02*
X203941101Y-153367219D01*
X204417292Y-154367219D02*
X204417292Y-153367219D01*
X204417292Y-153367219D02*
X204655387Y-153367219D01*
X204655387Y-153367219D02*
X204798244Y-153414838D01*
X204798244Y-153414838D02*
X204893482Y-153510076D01*
X204893482Y-153510076D02*
X204941101Y-153605314D01*
X204941101Y-153605314D02*
X204988720Y-153795790D01*
X204988720Y-153795790D02*
X204988720Y-153938647D01*
X204988720Y-153938647D02*
X204941101Y-154129123D01*
X204941101Y-154129123D02*
X204893482Y-154224361D01*
X204893482Y-154224361D02*
X204798244Y-154319600D01*
X204798244Y-154319600D02*
X204655387Y-154367219D01*
X204655387Y-154367219D02*
X204417292Y-154367219D01*
X205369673Y-124367219D02*
X205369673Y-123367219D01*
X205369673Y-123367219D02*
X205750625Y-123367219D01*
X205750625Y-123367219D02*
X205845863Y-123414838D01*
X205845863Y-123414838D02*
X205893482Y-123462457D01*
X205893482Y-123462457D02*
X205941101Y-123557695D01*
X205941101Y-123557695D02*
X205941101Y-123700552D01*
X205941101Y-123700552D02*
X205893482Y-123795790D01*
X205893482Y-123795790D02*
X205845863Y-123843409D01*
X205845863Y-123843409D02*
X205750625Y-123891028D01*
X205750625Y-123891028D02*
X205369673Y-123891028D01*
X206560149Y-123367219D02*
X206750625Y-123367219D01*
X206750625Y-123367219D02*
X206845863Y-123414838D01*
X206845863Y-123414838D02*
X206941101Y-123510076D01*
X206941101Y-123510076D02*
X206988720Y-123700552D01*
X206988720Y-123700552D02*
X206988720Y-124033885D01*
X206988720Y-124033885D02*
X206941101Y-124224361D01*
X206941101Y-124224361D02*
X206845863Y-124319600D01*
X206845863Y-124319600D02*
X206750625Y-124367219D01*
X206750625Y-124367219D02*
X206560149Y-124367219D01*
X206560149Y-124367219D02*
X206464911Y-124319600D01*
X206464911Y-124319600D02*
X206369673Y-124224361D01*
X206369673Y-124224361D02*
X206322054Y-124033885D01*
X206322054Y-124033885D02*
X206322054Y-123700552D01*
X206322054Y-123700552D02*
X206369673Y-123510076D01*
X206369673Y-123510076D02*
X206464911Y-123414838D01*
X206464911Y-123414838D02*
X206560149Y-123367219D01*
X207274435Y-123367219D02*
X207845863Y-123367219D01*
X207560149Y-124367219D02*
X207560149Y-123367219D01*
X208607768Y-123700552D02*
X208607768Y-124367219D01*
X208369673Y-123319600D02*
X208131578Y-124033885D01*
X208131578Y-124033885D02*
X208750625Y-124033885D01*
X205322054Y-124962457D02*
X205369673Y-124914838D01*
X205369673Y-124914838D02*
X205464911Y-124867219D01*
X205464911Y-124867219D02*
X205703006Y-124867219D01*
X205703006Y-124867219D02*
X205798244Y-124914838D01*
X205798244Y-124914838D02*
X205845863Y-124962457D01*
X205845863Y-124962457D02*
X205893482Y-125057695D01*
X205893482Y-125057695D02*
X205893482Y-125152933D01*
X205893482Y-125152933D02*
X205845863Y-125295790D01*
X205845863Y-125295790D02*
X205274435Y-125867219D01*
X205274435Y-125867219D02*
X205893482Y-125867219D01*
X206798244Y-124867219D02*
X206322054Y-124867219D01*
X206322054Y-124867219D02*
X206274435Y-125343409D01*
X206274435Y-125343409D02*
X206322054Y-125295790D01*
X206322054Y-125295790D02*
X206417292Y-125248171D01*
X206417292Y-125248171D02*
X206655387Y-125248171D01*
X206655387Y-125248171D02*
X206750625Y-125295790D01*
X206750625Y-125295790D02*
X206798244Y-125343409D01*
X206798244Y-125343409D02*
X206845863Y-125438647D01*
X206845863Y-125438647D02*
X206845863Y-125676742D01*
X206845863Y-125676742D02*
X206798244Y-125771980D01*
X206798244Y-125771980D02*
X206750625Y-125819600D01*
X206750625Y-125819600D02*
X206655387Y-125867219D01*
X206655387Y-125867219D02*
X206417292Y-125867219D01*
X206417292Y-125867219D02*
X206322054Y-125819600D01*
X206322054Y-125819600D02*
X206274435Y-125771980D01*
X207464911Y-124867219D02*
X207560149Y-124867219D01*
X207560149Y-124867219D02*
X207655387Y-124914838D01*
X207655387Y-124914838D02*
X207703006Y-124962457D01*
X207703006Y-124962457D02*
X207750625Y-125057695D01*
X207750625Y-125057695D02*
X207798244Y-125248171D01*
X207798244Y-125248171D02*
X207798244Y-125486266D01*
X207798244Y-125486266D02*
X207750625Y-125676742D01*
X207750625Y-125676742D02*
X207703006Y-125771980D01*
X207703006Y-125771980D02*
X207655387Y-125819600D01*
X207655387Y-125819600D02*
X207560149Y-125867219D01*
X207560149Y-125867219D02*
X207464911Y-125867219D01*
X207464911Y-125867219D02*
X207369673Y-125819600D01*
X207369673Y-125819600D02*
X207322054Y-125771980D01*
X207322054Y-125771980D02*
X207274435Y-125676742D01*
X207274435Y-125676742D02*
X207226816Y-125486266D01*
X207226816Y-125486266D02*
X207226816Y-125248171D01*
X207226816Y-125248171D02*
X207274435Y-125057695D01*
X207274435Y-125057695D02*
X207322054Y-124962457D01*
X207322054Y-124962457D02*
X207369673Y-124914838D01*
X207369673Y-124914838D02*
X207464911Y-124867219D01*
X208226816Y-125867219D02*
X208226816Y-124867219D01*
X208798244Y-125867219D02*
X208369673Y-125295790D01*
X208798244Y-124867219D02*
X208226816Y-125438647D01*
X207226816Y-153367219D02*
X207560149Y-154367219D01*
X207560149Y-154367219D02*
X207893482Y-153367219D01*
X208226816Y-154367219D02*
X208226816Y-153367219D01*
X208226816Y-153367219D02*
X208464911Y-153367219D01*
X208464911Y-153367219D02*
X208607768Y-153414838D01*
X208607768Y-153414838D02*
X208703006Y-153510076D01*
X208703006Y-153510076D02*
X208750625Y-153605314D01*
X208750625Y-153605314D02*
X208798244Y-153795790D01*
X208798244Y-153795790D02*
X208798244Y-153938647D01*
X208798244Y-153938647D02*
X208750625Y-154129123D01*
X208750625Y-154129123D02*
X208703006Y-154224361D01*
X208703006Y-154224361D02*
X208607768Y-154319600D01*
X208607768Y-154319600D02*
X208464911Y-154367219D01*
X208464911Y-154367219D02*
X208226816Y-154367219D01*
X209226816Y-154367219D02*
X209226816Y-153367219D01*
X209226816Y-153367219D02*
X209464911Y-153367219D01*
X209464911Y-153367219D02*
X209607768Y-153414838D01*
X209607768Y-153414838D02*
X209703006Y-153510076D01*
X209703006Y-153510076D02*
X209750625Y-153605314D01*
X209750625Y-153605314D02*
X209798244Y-153795790D01*
X209798244Y-153795790D02*
X209798244Y-153938647D01*
X209798244Y-153938647D02*
X209750625Y-154129123D01*
X209750625Y-154129123D02*
X209703006Y-154224361D01*
X209703006Y-154224361D02*
X209607768Y-154319600D01*
X209607768Y-154319600D02*
X209464911Y-154367219D01*
X209464911Y-154367219D02*
X209226816Y-154367219D01*
X212441101Y-124367219D02*
X212107768Y-123891028D01*
X211869673Y-124367219D02*
X211869673Y-123367219D01*
X211869673Y-123367219D02*
X212250625Y-123367219D01*
X212250625Y-123367219D02*
X212345863Y-123414838D01*
X212345863Y-123414838D02*
X212393482Y-123462457D01*
X212393482Y-123462457D02*
X212441101Y-123557695D01*
X212441101Y-123557695D02*
X212441101Y-123700552D01*
X212441101Y-123700552D02*
X212393482Y-123795790D01*
X212393482Y-123795790D02*
X212345863Y-123843409D01*
X212345863Y-123843409D02*
X212250625Y-123891028D01*
X212250625Y-123891028D02*
X211869673Y-123891028D01*
X215060149Y-85367219D02*
X215250625Y-85367219D01*
X215250625Y-85367219D02*
X215345863Y-85414838D01*
X215345863Y-85414838D02*
X215441101Y-85510076D01*
X215441101Y-85510076D02*
X215488720Y-85700552D01*
X215488720Y-85700552D02*
X215488720Y-86033885D01*
X215488720Y-86033885D02*
X215441101Y-86224361D01*
X215441101Y-86224361D02*
X215345863Y-86319600D01*
X215345863Y-86319600D02*
X215250625Y-86367219D01*
X215250625Y-86367219D02*
X215060149Y-86367219D01*
X215060149Y-86367219D02*
X214964911Y-86319600D01*
X214964911Y-86319600D02*
X214869673Y-86224361D01*
X214869673Y-86224361D02*
X214822054Y-86033885D01*
X214822054Y-86033885D02*
X214822054Y-85700552D01*
X214822054Y-85700552D02*
X214869673Y-85510076D01*
X214869673Y-85510076D02*
X214964911Y-85414838D01*
X214964911Y-85414838D02*
X215060149Y-85367219D01*
X215917292Y-85367219D02*
X215917292Y-86176742D01*
X215917292Y-86176742D02*
X215964911Y-86271980D01*
X215964911Y-86271980D02*
X216012530Y-86319600D01*
X216012530Y-86319600D02*
X216107768Y-86367219D01*
X216107768Y-86367219D02*
X216298244Y-86367219D01*
X216298244Y-86367219D02*
X216393482Y-86319600D01*
X216393482Y-86319600D02*
X216441101Y-86271980D01*
X216441101Y-86271980D02*
X216488720Y-86176742D01*
X216488720Y-86176742D02*
X216488720Y-85367219D01*
X216822054Y-85367219D02*
X217393482Y-85367219D01*
X217107768Y-86367219D02*
X217107768Y-85367219D01*
X215060149Y-153367219D02*
X215250625Y-153367219D01*
X215250625Y-153367219D02*
X215345863Y-153414838D01*
X215345863Y-153414838D02*
X215441101Y-153510076D01*
X215441101Y-153510076D02*
X215488720Y-153700552D01*
X215488720Y-153700552D02*
X215488720Y-154033885D01*
X215488720Y-154033885D02*
X215441101Y-154224361D01*
X215441101Y-154224361D02*
X215345863Y-154319600D01*
X215345863Y-154319600D02*
X215250625Y-154367219D01*
X215250625Y-154367219D02*
X215060149Y-154367219D01*
X215060149Y-154367219D02*
X214964911Y-154319600D01*
X214964911Y-154319600D02*
X214869673Y-154224361D01*
X214869673Y-154224361D02*
X214822054Y-154033885D01*
X214822054Y-154033885D02*
X214822054Y-153700552D01*
X214822054Y-153700552D02*
X214869673Y-153510076D01*
X214869673Y-153510076D02*
X214964911Y-153414838D01*
X214964911Y-153414838D02*
X215060149Y-153367219D01*
X215917292Y-153367219D02*
X215917292Y-154176742D01*
X215917292Y-154176742D02*
X215964911Y-154271980D01*
X215964911Y-154271980D02*
X216012530Y-154319600D01*
X216012530Y-154319600D02*
X216107768Y-154367219D01*
X216107768Y-154367219D02*
X216298244Y-154367219D01*
X216298244Y-154367219D02*
X216393482Y-154319600D01*
X216393482Y-154319600D02*
X216441101Y-154271980D01*
X216441101Y-154271980D02*
X216488720Y-154176742D01*
X216488720Y-154176742D02*
X216488720Y-153367219D01*
X216822054Y-153367219D02*
X217393482Y-153367219D01*
X217107768Y-154367219D02*
X217107768Y-153367219D01*
D14*
X166190476Y-137074819D02*
X166190476Y-137789104D01*
X166190476Y-137789104D02*
X166142857Y-137931961D01*
X166142857Y-137931961D02*
X166047619Y-138027200D01*
X166047619Y-138027200D02*
X165904762Y-138074819D01*
X165904762Y-138074819D02*
X165809524Y-138074819D01*
X166619048Y-137170057D02*
X166666667Y-137122438D01*
X166666667Y-137122438D02*
X166761905Y-137074819D01*
X166761905Y-137074819D02*
X167000000Y-137074819D01*
X167000000Y-137074819D02*
X167095238Y-137122438D01*
X167095238Y-137122438D02*
X167142857Y-137170057D01*
X167142857Y-137170057D02*
X167190476Y-137265295D01*
X167190476Y-137265295D02*
X167190476Y-137360533D01*
X167190476Y-137360533D02*
X167142857Y-137503390D01*
X167142857Y-137503390D02*
X166571429Y-138074819D01*
X166571429Y-138074819D02*
X167190476Y-138074819D01*
X168095238Y-137074819D02*
X167619048Y-137074819D01*
X167619048Y-137074819D02*
X167571429Y-137551009D01*
X167571429Y-137551009D02*
X167619048Y-137503390D01*
X167619048Y-137503390D02*
X167714286Y-137455771D01*
X167714286Y-137455771D02*
X167952381Y-137455771D01*
X167952381Y-137455771D02*
X168047619Y-137503390D01*
X168047619Y-137503390D02*
X168095238Y-137551009D01*
X168095238Y-137551009D02*
X168142857Y-137646247D01*
X168142857Y-137646247D02*
X168142857Y-137884342D01*
X168142857Y-137884342D02*
X168095238Y-137979580D01*
X168095238Y-137979580D02*
X168047619Y-138027200D01*
X168047619Y-138027200D02*
X167952381Y-138074819D01*
X167952381Y-138074819D02*
X167714286Y-138074819D01*
X167714286Y-138074819D02*
X167619048Y-138027200D01*
X167619048Y-138027200D02*
X167571429Y-137979580D01*
X166190476Y-145299819D02*
X166190476Y-146014104D01*
X166190476Y-146014104D02*
X166142857Y-146156961D01*
X166142857Y-146156961D02*
X166047619Y-146252200D01*
X166047619Y-146252200D02*
X165904762Y-146299819D01*
X165904762Y-146299819D02*
X165809524Y-146299819D01*
X166619048Y-145395057D02*
X166666667Y-145347438D01*
X166666667Y-145347438D02*
X166761905Y-145299819D01*
X166761905Y-145299819D02*
X167000000Y-145299819D01*
X167000000Y-145299819D02*
X167095238Y-145347438D01*
X167095238Y-145347438D02*
X167142857Y-145395057D01*
X167142857Y-145395057D02*
X167190476Y-145490295D01*
X167190476Y-145490295D02*
X167190476Y-145585533D01*
X167190476Y-145585533D02*
X167142857Y-145728390D01*
X167142857Y-145728390D02*
X166571429Y-146299819D01*
X166571429Y-146299819D02*
X167190476Y-146299819D01*
X168047619Y-145633152D02*
X168047619Y-146299819D01*
X167809524Y-145252200D02*
X167571429Y-145966485D01*
X167571429Y-145966485D02*
X168190476Y-145966485D01*
X148690476Y-145349819D02*
X148690476Y-146064104D01*
X148690476Y-146064104D02*
X148642857Y-146206961D01*
X148642857Y-146206961D02*
X148547619Y-146302200D01*
X148547619Y-146302200D02*
X148404762Y-146349819D01*
X148404762Y-146349819D02*
X148309524Y-146349819D01*
X149119048Y-145445057D02*
X149166667Y-145397438D01*
X149166667Y-145397438D02*
X149261905Y-145349819D01*
X149261905Y-145349819D02*
X149500000Y-145349819D01*
X149500000Y-145349819D02*
X149595238Y-145397438D01*
X149595238Y-145397438D02*
X149642857Y-145445057D01*
X149642857Y-145445057D02*
X149690476Y-145540295D01*
X149690476Y-145540295D02*
X149690476Y-145635533D01*
X149690476Y-145635533D02*
X149642857Y-145778390D01*
X149642857Y-145778390D02*
X149071429Y-146349819D01*
X149071429Y-146349819D02*
X149690476Y-146349819D01*
X150309524Y-145349819D02*
X150404762Y-145349819D01*
X150404762Y-145349819D02*
X150500000Y-145397438D01*
X150500000Y-145397438D02*
X150547619Y-145445057D01*
X150547619Y-145445057D02*
X150595238Y-145540295D01*
X150595238Y-145540295D02*
X150642857Y-145730771D01*
X150642857Y-145730771D02*
X150642857Y-145968866D01*
X150642857Y-145968866D02*
X150595238Y-146159342D01*
X150595238Y-146159342D02*
X150547619Y-146254580D01*
X150547619Y-146254580D02*
X150500000Y-146302200D01*
X150500000Y-146302200D02*
X150404762Y-146349819D01*
X150404762Y-146349819D02*
X150309524Y-146349819D01*
X150309524Y-146349819D02*
X150214286Y-146302200D01*
X150214286Y-146302200D02*
X150166667Y-146254580D01*
X150166667Y-146254580D02*
X150119048Y-146159342D01*
X150119048Y-146159342D02*
X150071429Y-145968866D01*
X150071429Y-145968866D02*
X150071429Y-145730771D01*
X150071429Y-145730771D02*
X150119048Y-145540295D01*
X150119048Y-145540295D02*
X150166667Y-145445057D01*
X150166667Y-145445057D02*
X150214286Y-145397438D01*
X150214286Y-145397438D02*
X150309524Y-145349819D01*
X192690476Y-145249819D02*
X192690476Y-145964104D01*
X192690476Y-145964104D02*
X192642857Y-146106961D01*
X192642857Y-146106961D02*
X192547619Y-146202200D01*
X192547619Y-146202200D02*
X192404762Y-146249819D01*
X192404762Y-146249819D02*
X192309524Y-146249819D01*
X193071429Y-145249819D02*
X193690476Y-145249819D01*
X193690476Y-145249819D02*
X193357143Y-145630771D01*
X193357143Y-145630771D02*
X193500000Y-145630771D01*
X193500000Y-145630771D02*
X193595238Y-145678390D01*
X193595238Y-145678390D02*
X193642857Y-145726009D01*
X193642857Y-145726009D02*
X193690476Y-145821247D01*
X193690476Y-145821247D02*
X193690476Y-146059342D01*
X193690476Y-146059342D02*
X193642857Y-146154580D01*
X193642857Y-146154580D02*
X193595238Y-146202200D01*
X193595238Y-146202200D02*
X193500000Y-146249819D01*
X193500000Y-146249819D02*
X193214286Y-146249819D01*
X193214286Y-146249819D02*
X193119048Y-146202200D01*
X193119048Y-146202200D02*
X193071429Y-146154580D01*
X194547619Y-145249819D02*
X194357143Y-145249819D01*
X194357143Y-145249819D02*
X194261905Y-145297438D01*
X194261905Y-145297438D02*
X194214286Y-145345057D01*
X194214286Y-145345057D02*
X194119048Y-145487914D01*
X194119048Y-145487914D02*
X194071429Y-145678390D01*
X194071429Y-145678390D02*
X194071429Y-146059342D01*
X194071429Y-146059342D02*
X194119048Y-146154580D01*
X194119048Y-146154580D02*
X194166667Y-146202200D01*
X194166667Y-146202200D02*
X194261905Y-146249819D01*
X194261905Y-146249819D02*
X194452381Y-146249819D01*
X194452381Y-146249819D02*
X194547619Y-146202200D01*
X194547619Y-146202200D02*
X194595238Y-146154580D01*
X194595238Y-146154580D02*
X194642857Y-146059342D01*
X194642857Y-146059342D02*
X194642857Y-145821247D01*
X194642857Y-145821247D02*
X194595238Y-145726009D01*
X194595238Y-145726009D02*
X194547619Y-145678390D01*
X194547619Y-145678390D02*
X194452381Y-145630771D01*
X194452381Y-145630771D02*
X194261905Y-145630771D01*
X194261905Y-145630771D02*
X194166667Y-145678390D01*
X194166667Y-145678390D02*
X194119048Y-145726009D01*
X194119048Y-145726009D02*
X194071429Y-145821247D01*
X148690476Y-128809819D02*
X148690476Y-129524104D01*
X148690476Y-129524104D02*
X148642857Y-129666961D01*
X148642857Y-129666961D02*
X148547619Y-129762200D01*
X148547619Y-129762200D02*
X148404762Y-129809819D01*
X148404762Y-129809819D02*
X148309524Y-129809819D01*
X149690476Y-129809819D02*
X149119048Y-129809819D01*
X149404762Y-129809819D02*
X149404762Y-128809819D01*
X149404762Y-128809819D02*
X149309524Y-128952676D01*
X149309524Y-128952676D02*
X149214286Y-129047914D01*
X149214286Y-129047914D02*
X149119048Y-129095533D01*
X150261905Y-129238390D02*
X150166667Y-129190771D01*
X150166667Y-129190771D02*
X150119048Y-129143152D01*
X150119048Y-129143152D02*
X150071429Y-129047914D01*
X150071429Y-129047914D02*
X150071429Y-129000295D01*
X150071429Y-129000295D02*
X150119048Y-128905057D01*
X150119048Y-128905057D02*
X150166667Y-128857438D01*
X150166667Y-128857438D02*
X150261905Y-128809819D01*
X150261905Y-128809819D02*
X150452381Y-128809819D01*
X150452381Y-128809819D02*
X150547619Y-128857438D01*
X150547619Y-128857438D02*
X150595238Y-128905057D01*
X150595238Y-128905057D02*
X150642857Y-129000295D01*
X150642857Y-129000295D02*
X150642857Y-129047914D01*
X150642857Y-129047914D02*
X150595238Y-129143152D01*
X150595238Y-129143152D02*
X150547619Y-129190771D01*
X150547619Y-129190771D02*
X150452381Y-129238390D01*
X150452381Y-129238390D02*
X150261905Y-129238390D01*
X150261905Y-129238390D02*
X150166667Y-129286009D01*
X150166667Y-129286009D02*
X150119048Y-129333628D01*
X150119048Y-129333628D02*
X150071429Y-129428866D01*
X150071429Y-129428866D02*
X150071429Y-129619342D01*
X150071429Y-129619342D02*
X150119048Y-129714580D01*
X150119048Y-129714580D02*
X150166667Y-129762200D01*
X150166667Y-129762200D02*
X150261905Y-129809819D01*
X150261905Y-129809819D02*
X150452381Y-129809819D01*
X150452381Y-129809819D02*
X150547619Y-129762200D01*
X150547619Y-129762200D02*
X150595238Y-129714580D01*
X150595238Y-129714580D02*
X150642857Y-129619342D01*
X150642857Y-129619342D02*
X150642857Y-129428866D01*
X150642857Y-129428866D02*
X150595238Y-129333628D01*
X150595238Y-129333628D02*
X150547619Y-129286009D01*
X150547619Y-129286009D02*
X150452381Y-129238390D01*
X206761905Y-78954819D02*
X206761905Y-77954819D01*
X206761905Y-77954819D02*
X207000000Y-77954819D01*
X207000000Y-77954819D02*
X207142857Y-78002438D01*
X207142857Y-78002438D02*
X207238095Y-78097676D01*
X207238095Y-78097676D02*
X207285714Y-78192914D01*
X207285714Y-78192914D02*
X207333333Y-78383390D01*
X207333333Y-78383390D02*
X207333333Y-78526247D01*
X207333333Y-78526247D02*
X207285714Y-78716723D01*
X207285714Y-78716723D02*
X207238095Y-78811961D01*
X207238095Y-78811961D02*
X207142857Y-78907200D01*
X207142857Y-78907200D02*
X207000000Y-78954819D01*
X207000000Y-78954819D02*
X206761905Y-78954819D01*
X207714286Y-78050057D02*
X207761905Y-78002438D01*
X207761905Y-78002438D02*
X207857143Y-77954819D01*
X207857143Y-77954819D02*
X208095238Y-77954819D01*
X208095238Y-77954819D02*
X208190476Y-78002438D01*
X208190476Y-78002438D02*
X208238095Y-78050057D01*
X208238095Y-78050057D02*
X208285714Y-78145295D01*
X208285714Y-78145295D02*
X208285714Y-78240533D01*
X208285714Y-78240533D02*
X208238095Y-78383390D01*
X208238095Y-78383390D02*
X207666667Y-78954819D01*
X207666667Y-78954819D02*
X208285714Y-78954819D01*
X143690476Y-128809819D02*
X143690476Y-129524104D01*
X143690476Y-129524104D02*
X143642857Y-129666961D01*
X143642857Y-129666961D02*
X143547619Y-129762200D01*
X143547619Y-129762200D02*
X143404762Y-129809819D01*
X143404762Y-129809819D02*
X143309524Y-129809819D01*
X144690476Y-129809819D02*
X144119048Y-129809819D01*
X144404762Y-129809819D02*
X144404762Y-128809819D01*
X144404762Y-128809819D02*
X144309524Y-128952676D01*
X144309524Y-128952676D02*
X144214286Y-129047914D01*
X144214286Y-129047914D02*
X144119048Y-129095533D01*
X145595238Y-128809819D02*
X145119048Y-128809819D01*
X145119048Y-128809819D02*
X145071429Y-129286009D01*
X145071429Y-129286009D02*
X145119048Y-129238390D01*
X145119048Y-129238390D02*
X145214286Y-129190771D01*
X145214286Y-129190771D02*
X145452381Y-129190771D01*
X145452381Y-129190771D02*
X145547619Y-129238390D01*
X145547619Y-129238390D02*
X145595238Y-129286009D01*
X145595238Y-129286009D02*
X145642857Y-129381247D01*
X145642857Y-129381247D02*
X145642857Y-129619342D01*
X145642857Y-129619342D02*
X145595238Y-129714580D01*
X145595238Y-129714580D02*
X145547619Y-129762200D01*
X145547619Y-129762200D02*
X145452381Y-129809819D01*
X145452381Y-129809819D02*
X145214286Y-129809819D01*
X145214286Y-129809819D02*
X145119048Y-129762200D01*
X145119048Y-129762200D02*
X145071429Y-129714580D01*
X161190476Y-145349819D02*
X161190476Y-146064104D01*
X161190476Y-146064104D02*
X161142857Y-146206961D01*
X161142857Y-146206961D02*
X161047619Y-146302200D01*
X161047619Y-146302200D02*
X160904762Y-146349819D01*
X160904762Y-146349819D02*
X160809524Y-146349819D01*
X161619048Y-145445057D02*
X161666667Y-145397438D01*
X161666667Y-145397438D02*
X161761905Y-145349819D01*
X161761905Y-145349819D02*
X162000000Y-145349819D01*
X162000000Y-145349819D02*
X162095238Y-145397438D01*
X162095238Y-145397438D02*
X162142857Y-145445057D01*
X162142857Y-145445057D02*
X162190476Y-145540295D01*
X162190476Y-145540295D02*
X162190476Y-145635533D01*
X162190476Y-145635533D02*
X162142857Y-145778390D01*
X162142857Y-145778390D02*
X161571429Y-146349819D01*
X161571429Y-146349819D02*
X162190476Y-146349819D01*
X163142857Y-146349819D02*
X162571429Y-146349819D01*
X162857143Y-146349819D02*
X162857143Y-145349819D01*
X162857143Y-145349819D02*
X162761905Y-145492676D01*
X162761905Y-145492676D02*
X162666667Y-145587914D01*
X162666667Y-145587914D02*
X162571429Y-145635533D01*
X143690476Y-137074819D02*
X143690476Y-137789104D01*
X143690476Y-137789104D02*
X143642857Y-137931961D01*
X143642857Y-137931961D02*
X143547619Y-138027200D01*
X143547619Y-138027200D02*
X143404762Y-138074819D01*
X143404762Y-138074819D02*
X143309524Y-138074819D01*
X144690476Y-138074819D02*
X144119048Y-138074819D01*
X144404762Y-138074819D02*
X144404762Y-137074819D01*
X144404762Y-137074819D02*
X144309524Y-137217676D01*
X144309524Y-137217676D02*
X144214286Y-137312914D01*
X144214286Y-137312914D02*
X144119048Y-137360533D01*
X145547619Y-137074819D02*
X145357143Y-137074819D01*
X145357143Y-137074819D02*
X145261905Y-137122438D01*
X145261905Y-137122438D02*
X145214286Y-137170057D01*
X145214286Y-137170057D02*
X145119048Y-137312914D01*
X145119048Y-137312914D02*
X145071429Y-137503390D01*
X145071429Y-137503390D02*
X145071429Y-137884342D01*
X145071429Y-137884342D02*
X145119048Y-137979580D01*
X145119048Y-137979580D02*
X145166667Y-138027200D01*
X145166667Y-138027200D02*
X145261905Y-138074819D01*
X145261905Y-138074819D02*
X145452381Y-138074819D01*
X145452381Y-138074819D02*
X145547619Y-138027200D01*
X145547619Y-138027200D02*
X145595238Y-137979580D01*
X145595238Y-137979580D02*
X145642857Y-137884342D01*
X145642857Y-137884342D02*
X145642857Y-137646247D01*
X145642857Y-137646247D02*
X145595238Y-137551009D01*
X145595238Y-137551009D02*
X145547619Y-137503390D01*
X145547619Y-137503390D02*
X145452381Y-137455771D01*
X145452381Y-137455771D02*
X145261905Y-137455771D01*
X145261905Y-137455771D02*
X145166667Y-137503390D01*
X145166667Y-137503390D02*
X145119048Y-137551009D01*
X145119048Y-137551009D02*
X145071429Y-137646247D01*
X185983333Y-95674819D02*
X185650000Y-95198628D01*
X185411905Y-95674819D02*
X185411905Y-94674819D01*
X185411905Y-94674819D02*
X185792857Y-94674819D01*
X185792857Y-94674819D02*
X185888095Y-94722438D01*
X185888095Y-94722438D02*
X185935714Y-94770057D01*
X185935714Y-94770057D02*
X185983333Y-94865295D01*
X185983333Y-94865295D02*
X185983333Y-95008152D01*
X185983333Y-95008152D02*
X185935714Y-95103390D01*
X185935714Y-95103390D02*
X185888095Y-95151009D01*
X185888095Y-95151009D02*
X185792857Y-95198628D01*
X185792857Y-95198628D02*
X185411905Y-95198628D01*
X186935714Y-95674819D02*
X186364286Y-95674819D01*
X186650000Y-95674819D02*
X186650000Y-94674819D01*
X186650000Y-94674819D02*
X186554762Y-94817676D01*
X186554762Y-94817676D02*
X186459524Y-94912914D01*
X186459524Y-94912914D02*
X186364286Y-94960533D01*
X123666666Y-95074819D02*
X123666666Y-95789104D01*
X123666666Y-95789104D02*
X123619047Y-95931961D01*
X123619047Y-95931961D02*
X123523809Y-96027200D01*
X123523809Y-96027200D02*
X123380952Y-96074819D01*
X123380952Y-96074819D02*
X123285714Y-96074819D01*
X124666666Y-96074819D02*
X124095238Y-96074819D01*
X124380952Y-96074819D02*
X124380952Y-95074819D01*
X124380952Y-95074819D02*
X124285714Y-95217676D01*
X124285714Y-95217676D02*
X124190476Y-95312914D01*
X124190476Y-95312914D02*
X124095238Y-95360533D01*
X171190476Y-128824819D02*
X171190476Y-129539104D01*
X171190476Y-129539104D02*
X171142857Y-129681961D01*
X171142857Y-129681961D02*
X171047619Y-129777200D01*
X171047619Y-129777200D02*
X170904762Y-129824819D01*
X170904762Y-129824819D02*
X170809524Y-129824819D01*
X171619048Y-128920057D02*
X171666667Y-128872438D01*
X171666667Y-128872438D02*
X171761905Y-128824819D01*
X171761905Y-128824819D02*
X172000000Y-128824819D01*
X172000000Y-128824819D02*
X172095238Y-128872438D01*
X172095238Y-128872438D02*
X172142857Y-128920057D01*
X172142857Y-128920057D02*
X172190476Y-129015295D01*
X172190476Y-129015295D02*
X172190476Y-129110533D01*
X172190476Y-129110533D02*
X172142857Y-129253390D01*
X172142857Y-129253390D02*
X171571429Y-129824819D01*
X171571429Y-129824819D02*
X172190476Y-129824819D01*
X172666667Y-129824819D02*
X172857143Y-129824819D01*
X172857143Y-129824819D02*
X172952381Y-129777200D01*
X172952381Y-129777200D02*
X173000000Y-129729580D01*
X173000000Y-129729580D02*
X173095238Y-129586723D01*
X173095238Y-129586723D02*
X173142857Y-129396247D01*
X173142857Y-129396247D02*
X173142857Y-129015295D01*
X173142857Y-129015295D02*
X173095238Y-128920057D01*
X173095238Y-128920057D02*
X173047619Y-128872438D01*
X173047619Y-128872438D02*
X172952381Y-128824819D01*
X172952381Y-128824819D02*
X172761905Y-128824819D01*
X172761905Y-128824819D02*
X172666667Y-128872438D01*
X172666667Y-128872438D02*
X172619048Y-128920057D01*
X172619048Y-128920057D02*
X172571429Y-129015295D01*
X172571429Y-129015295D02*
X172571429Y-129253390D01*
X172571429Y-129253390D02*
X172619048Y-129348628D01*
X172619048Y-129348628D02*
X172666667Y-129396247D01*
X172666667Y-129396247D02*
X172761905Y-129443866D01*
X172761905Y-129443866D02*
X172952381Y-129443866D01*
X172952381Y-129443866D02*
X173047619Y-129396247D01*
X173047619Y-129396247D02*
X173095238Y-129348628D01*
X173095238Y-129348628D02*
X173142857Y-129253390D01*
X122190476Y-145299819D02*
X122190476Y-146014104D01*
X122190476Y-146014104D02*
X122142857Y-146156961D01*
X122142857Y-146156961D02*
X122047619Y-146252200D01*
X122047619Y-146252200D02*
X121904762Y-146299819D01*
X121904762Y-146299819D02*
X121809524Y-146299819D01*
X122571429Y-145299819D02*
X123190476Y-145299819D01*
X123190476Y-145299819D02*
X122857143Y-145680771D01*
X122857143Y-145680771D02*
X123000000Y-145680771D01*
X123000000Y-145680771D02*
X123095238Y-145728390D01*
X123095238Y-145728390D02*
X123142857Y-145776009D01*
X123142857Y-145776009D02*
X123190476Y-145871247D01*
X123190476Y-145871247D02*
X123190476Y-146109342D01*
X123190476Y-146109342D02*
X123142857Y-146204580D01*
X123142857Y-146204580D02*
X123095238Y-146252200D01*
X123095238Y-146252200D02*
X123000000Y-146299819D01*
X123000000Y-146299819D02*
X122714286Y-146299819D01*
X122714286Y-146299819D02*
X122619048Y-146252200D01*
X122619048Y-146252200D02*
X122571429Y-146204580D01*
X123761905Y-145728390D02*
X123666667Y-145680771D01*
X123666667Y-145680771D02*
X123619048Y-145633152D01*
X123619048Y-145633152D02*
X123571429Y-145537914D01*
X123571429Y-145537914D02*
X123571429Y-145490295D01*
X123571429Y-145490295D02*
X123619048Y-145395057D01*
X123619048Y-145395057D02*
X123666667Y-145347438D01*
X123666667Y-145347438D02*
X123761905Y-145299819D01*
X123761905Y-145299819D02*
X123952381Y-145299819D01*
X123952381Y-145299819D02*
X124047619Y-145347438D01*
X124047619Y-145347438D02*
X124095238Y-145395057D01*
X124095238Y-145395057D02*
X124142857Y-145490295D01*
X124142857Y-145490295D02*
X124142857Y-145537914D01*
X124142857Y-145537914D02*
X124095238Y-145633152D01*
X124095238Y-145633152D02*
X124047619Y-145680771D01*
X124047619Y-145680771D02*
X123952381Y-145728390D01*
X123952381Y-145728390D02*
X123761905Y-145728390D01*
X123761905Y-145728390D02*
X123666667Y-145776009D01*
X123666667Y-145776009D02*
X123619048Y-145823628D01*
X123619048Y-145823628D02*
X123571429Y-145918866D01*
X123571429Y-145918866D02*
X123571429Y-146109342D01*
X123571429Y-146109342D02*
X123619048Y-146204580D01*
X123619048Y-146204580D02*
X123666667Y-146252200D01*
X123666667Y-146252200D02*
X123761905Y-146299819D01*
X123761905Y-146299819D02*
X123952381Y-146299819D01*
X123952381Y-146299819D02*
X124047619Y-146252200D01*
X124047619Y-146252200D02*
X124095238Y-146204580D01*
X124095238Y-146204580D02*
X124142857Y-146109342D01*
X124142857Y-146109342D02*
X124142857Y-145918866D01*
X124142857Y-145918866D02*
X124095238Y-145823628D01*
X124095238Y-145823628D02*
X124047619Y-145776009D01*
X124047619Y-145776009D02*
X123952381Y-145728390D01*
X184190476Y-137074819D02*
X184190476Y-137789104D01*
X184190476Y-137789104D02*
X184142857Y-137931961D01*
X184142857Y-137931961D02*
X184047619Y-138027200D01*
X184047619Y-138027200D02*
X183904762Y-138074819D01*
X183904762Y-138074819D02*
X183809524Y-138074819D01*
X184571429Y-137074819D02*
X185190476Y-137074819D01*
X185190476Y-137074819D02*
X184857143Y-137455771D01*
X184857143Y-137455771D02*
X185000000Y-137455771D01*
X185000000Y-137455771D02*
X185095238Y-137503390D01*
X185095238Y-137503390D02*
X185142857Y-137551009D01*
X185142857Y-137551009D02*
X185190476Y-137646247D01*
X185190476Y-137646247D02*
X185190476Y-137884342D01*
X185190476Y-137884342D02*
X185142857Y-137979580D01*
X185142857Y-137979580D02*
X185095238Y-138027200D01*
X185095238Y-138027200D02*
X185000000Y-138074819D01*
X185000000Y-138074819D02*
X184714286Y-138074819D01*
X184714286Y-138074819D02*
X184619048Y-138027200D01*
X184619048Y-138027200D02*
X184571429Y-137979580D01*
X186142857Y-138074819D02*
X185571429Y-138074819D01*
X185857143Y-138074819D02*
X185857143Y-137074819D01*
X185857143Y-137074819D02*
X185761905Y-137217676D01*
X185761905Y-137217676D02*
X185666667Y-137312914D01*
X185666667Y-137312914D02*
X185571429Y-137360533D01*
X198666666Y-95074819D02*
X198666666Y-95789104D01*
X198666666Y-95789104D02*
X198619047Y-95931961D01*
X198619047Y-95931961D02*
X198523809Y-96027200D01*
X198523809Y-96027200D02*
X198380952Y-96074819D01*
X198380952Y-96074819D02*
X198285714Y-96074819D01*
X199571428Y-95408152D02*
X199571428Y-96074819D01*
X199333333Y-95027200D02*
X199095238Y-95741485D01*
X199095238Y-95741485D02*
X199714285Y-95741485D01*
X171190476Y-137074819D02*
X171190476Y-137789104D01*
X171190476Y-137789104D02*
X171142857Y-137931961D01*
X171142857Y-137931961D02*
X171047619Y-138027200D01*
X171047619Y-138027200D02*
X170904762Y-138074819D01*
X170904762Y-138074819D02*
X170809524Y-138074819D01*
X171619048Y-137170057D02*
X171666667Y-137122438D01*
X171666667Y-137122438D02*
X171761905Y-137074819D01*
X171761905Y-137074819D02*
X172000000Y-137074819D01*
X172000000Y-137074819D02*
X172095238Y-137122438D01*
X172095238Y-137122438D02*
X172142857Y-137170057D01*
X172142857Y-137170057D02*
X172190476Y-137265295D01*
X172190476Y-137265295D02*
X172190476Y-137360533D01*
X172190476Y-137360533D02*
X172142857Y-137503390D01*
X172142857Y-137503390D02*
X171571429Y-138074819D01*
X171571429Y-138074819D02*
X172190476Y-138074819D01*
X172761905Y-137503390D02*
X172666667Y-137455771D01*
X172666667Y-137455771D02*
X172619048Y-137408152D01*
X172619048Y-137408152D02*
X172571429Y-137312914D01*
X172571429Y-137312914D02*
X172571429Y-137265295D01*
X172571429Y-137265295D02*
X172619048Y-137170057D01*
X172619048Y-137170057D02*
X172666667Y-137122438D01*
X172666667Y-137122438D02*
X172761905Y-137074819D01*
X172761905Y-137074819D02*
X172952381Y-137074819D01*
X172952381Y-137074819D02*
X173047619Y-137122438D01*
X173047619Y-137122438D02*
X173095238Y-137170057D01*
X173095238Y-137170057D02*
X173142857Y-137265295D01*
X173142857Y-137265295D02*
X173142857Y-137312914D01*
X173142857Y-137312914D02*
X173095238Y-137408152D01*
X173095238Y-137408152D02*
X173047619Y-137455771D01*
X173047619Y-137455771D02*
X172952381Y-137503390D01*
X172952381Y-137503390D02*
X172761905Y-137503390D01*
X172761905Y-137503390D02*
X172666667Y-137551009D01*
X172666667Y-137551009D02*
X172619048Y-137598628D01*
X172619048Y-137598628D02*
X172571429Y-137693866D01*
X172571429Y-137693866D02*
X172571429Y-137884342D01*
X172571429Y-137884342D02*
X172619048Y-137979580D01*
X172619048Y-137979580D02*
X172666667Y-138027200D01*
X172666667Y-138027200D02*
X172761905Y-138074819D01*
X172761905Y-138074819D02*
X172952381Y-138074819D01*
X172952381Y-138074819D02*
X173047619Y-138027200D01*
X173047619Y-138027200D02*
X173095238Y-137979580D01*
X173095238Y-137979580D02*
X173142857Y-137884342D01*
X173142857Y-137884342D02*
X173142857Y-137693866D01*
X173142857Y-137693866D02*
X173095238Y-137598628D01*
X173095238Y-137598628D02*
X173047619Y-137551009D01*
X173047619Y-137551009D02*
X172952381Y-137503390D01*
X195261905Y-129954819D02*
X195261905Y-128954819D01*
X195261905Y-128954819D02*
X195500000Y-128954819D01*
X195500000Y-128954819D02*
X195642857Y-129002438D01*
X195642857Y-129002438D02*
X195738095Y-129097676D01*
X195738095Y-129097676D02*
X195785714Y-129192914D01*
X195785714Y-129192914D02*
X195833333Y-129383390D01*
X195833333Y-129383390D02*
X195833333Y-129526247D01*
X195833333Y-129526247D02*
X195785714Y-129716723D01*
X195785714Y-129716723D02*
X195738095Y-129811961D01*
X195738095Y-129811961D02*
X195642857Y-129907200D01*
X195642857Y-129907200D02*
X195500000Y-129954819D01*
X195500000Y-129954819D02*
X195261905Y-129954819D01*
X196785714Y-129954819D02*
X196214286Y-129954819D01*
X196500000Y-129954819D02*
X196500000Y-128954819D01*
X196500000Y-128954819D02*
X196404762Y-129097676D01*
X196404762Y-129097676D02*
X196309524Y-129192914D01*
X196309524Y-129192914D02*
X196214286Y-129240533D01*
X138690476Y-128809819D02*
X138690476Y-129524104D01*
X138690476Y-129524104D02*
X138642857Y-129666961D01*
X138642857Y-129666961D02*
X138547619Y-129762200D01*
X138547619Y-129762200D02*
X138404762Y-129809819D01*
X138404762Y-129809819D02*
X138309524Y-129809819D01*
X139690476Y-129809819D02*
X139119048Y-129809819D01*
X139404762Y-129809819D02*
X139404762Y-128809819D01*
X139404762Y-128809819D02*
X139309524Y-128952676D01*
X139309524Y-128952676D02*
X139214286Y-129047914D01*
X139214286Y-129047914D02*
X139119048Y-129095533D01*
X140071429Y-128905057D02*
X140119048Y-128857438D01*
X140119048Y-128857438D02*
X140214286Y-128809819D01*
X140214286Y-128809819D02*
X140452381Y-128809819D01*
X140452381Y-128809819D02*
X140547619Y-128857438D01*
X140547619Y-128857438D02*
X140595238Y-128905057D01*
X140595238Y-128905057D02*
X140642857Y-129000295D01*
X140642857Y-129000295D02*
X140642857Y-129095533D01*
X140642857Y-129095533D02*
X140595238Y-129238390D01*
X140595238Y-129238390D02*
X140023810Y-129809819D01*
X140023810Y-129809819D02*
X140642857Y-129809819D01*
X207690476Y-145299819D02*
X207690476Y-146014104D01*
X207690476Y-146014104D02*
X207642857Y-146156961D01*
X207642857Y-146156961D02*
X207547619Y-146252200D01*
X207547619Y-146252200D02*
X207404762Y-146299819D01*
X207404762Y-146299819D02*
X207309524Y-146299819D01*
X208071429Y-145299819D02*
X208690476Y-145299819D01*
X208690476Y-145299819D02*
X208357143Y-145680771D01*
X208357143Y-145680771D02*
X208500000Y-145680771D01*
X208500000Y-145680771D02*
X208595238Y-145728390D01*
X208595238Y-145728390D02*
X208642857Y-145776009D01*
X208642857Y-145776009D02*
X208690476Y-145871247D01*
X208690476Y-145871247D02*
X208690476Y-146109342D01*
X208690476Y-146109342D02*
X208642857Y-146204580D01*
X208642857Y-146204580D02*
X208595238Y-146252200D01*
X208595238Y-146252200D02*
X208500000Y-146299819D01*
X208500000Y-146299819D02*
X208214286Y-146299819D01*
X208214286Y-146299819D02*
X208119048Y-146252200D01*
X208119048Y-146252200D02*
X208071429Y-146204580D01*
X209547619Y-145633152D02*
X209547619Y-146299819D01*
X209309524Y-145252200D02*
X209071429Y-145966485D01*
X209071429Y-145966485D02*
X209690476Y-145966485D01*
X161190476Y-128849819D02*
X161190476Y-129564104D01*
X161190476Y-129564104D02*
X161142857Y-129706961D01*
X161142857Y-129706961D02*
X161047619Y-129802200D01*
X161047619Y-129802200D02*
X160904762Y-129849819D01*
X160904762Y-129849819D02*
X160809524Y-129849819D01*
X161619048Y-128945057D02*
X161666667Y-128897438D01*
X161666667Y-128897438D02*
X161761905Y-128849819D01*
X161761905Y-128849819D02*
X162000000Y-128849819D01*
X162000000Y-128849819D02*
X162095238Y-128897438D01*
X162095238Y-128897438D02*
X162142857Y-128945057D01*
X162142857Y-128945057D02*
X162190476Y-129040295D01*
X162190476Y-129040295D02*
X162190476Y-129135533D01*
X162190476Y-129135533D02*
X162142857Y-129278390D01*
X162142857Y-129278390D02*
X161571429Y-129849819D01*
X161571429Y-129849819D02*
X162190476Y-129849819D01*
X162523810Y-128849819D02*
X163142857Y-128849819D01*
X163142857Y-128849819D02*
X162809524Y-129230771D01*
X162809524Y-129230771D02*
X162952381Y-129230771D01*
X162952381Y-129230771D02*
X163047619Y-129278390D01*
X163047619Y-129278390D02*
X163095238Y-129326009D01*
X163095238Y-129326009D02*
X163142857Y-129421247D01*
X163142857Y-129421247D02*
X163142857Y-129659342D01*
X163142857Y-129659342D02*
X163095238Y-129754580D01*
X163095238Y-129754580D02*
X163047619Y-129802200D01*
X163047619Y-129802200D02*
X162952381Y-129849819D01*
X162952381Y-129849819D02*
X162666667Y-129849819D01*
X162666667Y-129849819D02*
X162571429Y-129802200D01*
X162571429Y-129802200D02*
X162523810Y-129754580D01*
X161190476Y-137074819D02*
X161190476Y-137789104D01*
X161190476Y-137789104D02*
X161142857Y-137931961D01*
X161142857Y-137931961D02*
X161047619Y-138027200D01*
X161047619Y-138027200D02*
X160904762Y-138074819D01*
X160904762Y-138074819D02*
X160809524Y-138074819D01*
X161619048Y-137170057D02*
X161666667Y-137122438D01*
X161666667Y-137122438D02*
X161761905Y-137074819D01*
X161761905Y-137074819D02*
X162000000Y-137074819D01*
X162000000Y-137074819D02*
X162095238Y-137122438D01*
X162095238Y-137122438D02*
X162142857Y-137170057D01*
X162142857Y-137170057D02*
X162190476Y-137265295D01*
X162190476Y-137265295D02*
X162190476Y-137360533D01*
X162190476Y-137360533D02*
X162142857Y-137503390D01*
X162142857Y-137503390D02*
X161571429Y-138074819D01*
X161571429Y-138074819D02*
X162190476Y-138074819D01*
X162571429Y-137170057D02*
X162619048Y-137122438D01*
X162619048Y-137122438D02*
X162714286Y-137074819D01*
X162714286Y-137074819D02*
X162952381Y-137074819D01*
X162952381Y-137074819D02*
X163047619Y-137122438D01*
X163047619Y-137122438D02*
X163095238Y-137170057D01*
X163095238Y-137170057D02*
X163142857Y-137265295D01*
X163142857Y-137265295D02*
X163142857Y-137360533D01*
X163142857Y-137360533D02*
X163095238Y-137503390D01*
X163095238Y-137503390D02*
X162523810Y-138074819D01*
X162523810Y-138074819D02*
X163142857Y-138074819D01*
X170690476Y-79074819D02*
X170690476Y-79789104D01*
X170690476Y-79789104D02*
X170642857Y-79931961D01*
X170642857Y-79931961D02*
X170547619Y-80027200D01*
X170547619Y-80027200D02*
X170404762Y-80074819D01*
X170404762Y-80074819D02*
X170309524Y-80074819D01*
X171595238Y-79408152D02*
X171595238Y-80074819D01*
X171357143Y-79027200D02*
X171119048Y-79741485D01*
X171119048Y-79741485D02*
X171738095Y-79741485D01*
X172309524Y-79074819D02*
X172404762Y-79074819D01*
X172404762Y-79074819D02*
X172500000Y-79122438D01*
X172500000Y-79122438D02*
X172547619Y-79170057D01*
X172547619Y-79170057D02*
X172595238Y-79265295D01*
X172595238Y-79265295D02*
X172642857Y-79455771D01*
X172642857Y-79455771D02*
X172642857Y-79693866D01*
X172642857Y-79693866D02*
X172595238Y-79884342D01*
X172595238Y-79884342D02*
X172547619Y-79979580D01*
X172547619Y-79979580D02*
X172500000Y-80027200D01*
X172500000Y-80027200D02*
X172404762Y-80074819D01*
X172404762Y-80074819D02*
X172309524Y-80074819D01*
X172309524Y-80074819D02*
X172214286Y-80027200D01*
X172214286Y-80027200D02*
X172166667Y-79979580D01*
X172166667Y-79979580D02*
X172119048Y-79884342D01*
X172119048Y-79884342D02*
X172071429Y-79693866D01*
X172071429Y-79693866D02*
X172071429Y-79455771D01*
X172071429Y-79455771D02*
X172119048Y-79265295D01*
X172119048Y-79265295D02*
X172166667Y-79170057D01*
X172166667Y-79170057D02*
X172214286Y-79122438D01*
X172214286Y-79122438D02*
X172309524Y-79074819D01*
X133690476Y-145349819D02*
X133690476Y-146064104D01*
X133690476Y-146064104D02*
X133642857Y-146206961D01*
X133642857Y-146206961D02*
X133547619Y-146302200D01*
X133547619Y-146302200D02*
X133404762Y-146349819D01*
X133404762Y-146349819D02*
X133309524Y-146349819D01*
X134690476Y-146349819D02*
X134119048Y-146349819D01*
X134404762Y-146349819D02*
X134404762Y-145349819D01*
X134404762Y-145349819D02*
X134309524Y-145492676D01*
X134309524Y-145492676D02*
X134214286Y-145587914D01*
X134214286Y-145587914D02*
X134119048Y-145635533D01*
X135642857Y-146349819D02*
X135071429Y-146349819D01*
X135357143Y-146349819D02*
X135357143Y-145349819D01*
X135357143Y-145349819D02*
X135261905Y-145492676D01*
X135261905Y-145492676D02*
X135166667Y-145587914D01*
X135166667Y-145587914D02*
X135071429Y-145635533D01*
X171190476Y-145299819D02*
X171190476Y-146014104D01*
X171190476Y-146014104D02*
X171142857Y-146156961D01*
X171142857Y-146156961D02*
X171047619Y-146252200D01*
X171047619Y-146252200D02*
X170904762Y-146299819D01*
X170904762Y-146299819D02*
X170809524Y-146299819D01*
X171619048Y-145395057D02*
X171666667Y-145347438D01*
X171666667Y-145347438D02*
X171761905Y-145299819D01*
X171761905Y-145299819D02*
X172000000Y-145299819D01*
X172000000Y-145299819D02*
X172095238Y-145347438D01*
X172095238Y-145347438D02*
X172142857Y-145395057D01*
X172142857Y-145395057D02*
X172190476Y-145490295D01*
X172190476Y-145490295D02*
X172190476Y-145585533D01*
X172190476Y-145585533D02*
X172142857Y-145728390D01*
X172142857Y-145728390D02*
X171571429Y-146299819D01*
X171571429Y-146299819D02*
X172190476Y-146299819D01*
X172523810Y-145299819D02*
X173190476Y-145299819D01*
X173190476Y-145299819D02*
X172761905Y-146299819D01*
X202683333Y-90234819D02*
X202350000Y-89758628D01*
X202111905Y-90234819D02*
X202111905Y-89234819D01*
X202111905Y-89234819D02*
X202492857Y-89234819D01*
X202492857Y-89234819D02*
X202588095Y-89282438D01*
X202588095Y-89282438D02*
X202635714Y-89330057D01*
X202635714Y-89330057D02*
X202683333Y-89425295D01*
X202683333Y-89425295D02*
X202683333Y-89568152D01*
X202683333Y-89568152D02*
X202635714Y-89663390D01*
X202635714Y-89663390D02*
X202588095Y-89711009D01*
X202588095Y-89711009D02*
X202492857Y-89758628D01*
X202492857Y-89758628D02*
X202111905Y-89758628D01*
X203064286Y-89330057D02*
X203111905Y-89282438D01*
X203111905Y-89282438D02*
X203207143Y-89234819D01*
X203207143Y-89234819D02*
X203445238Y-89234819D01*
X203445238Y-89234819D02*
X203540476Y-89282438D01*
X203540476Y-89282438D02*
X203588095Y-89330057D01*
X203588095Y-89330057D02*
X203635714Y-89425295D01*
X203635714Y-89425295D02*
X203635714Y-89520533D01*
X203635714Y-89520533D02*
X203588095Y-89663390D01*
X203588095Y-89663390D02*
X203016667Y-90234819D01*
X203016667Y-90234819D02*
X203635714Y-90234819D01*
D13*
X176166667Y-74409800D02*
X176309524Y-74457419D01*
X176309524Y-74457419D02*
X176547619Y-74457419D01*
X176547619Y-74457419D02*
X176642857Y-74409800D01*
X176642857Y-74409800D02*
X176690476Y-74362180D01*
X176690476Y-74362180D02*
X176738095Y-74266942D01*
X176738095Y-74266942D02*
X176738095Y-74171704D01*
X176738095Y-74171704D02*
X176690476Y-74076466D01*
X176690476Y-74076466D02*
X176642857Y-74028847D01*
X176642857Y-74028847D02*
X176547619Y-73981228D01*
X176547619Y-73981228D02*
X176357143Y-73933609D01*
X176357143Y-73933609D02*
X176261905Y-73885990D01*
X176261905Y-73885990D02*
X176214286Y-73838371D01*
X176214286Y-73838371D02*
X176166667Y-73743133D01*
X176166667Y-73743133D02*
X176166667Y-73647895D01*
X176166667Y-73647895D02*
X176214286Y-73552657D01*
X176214286Y-73552657D02*
X176261905Y-73505038D01*
X176261905Y-73505038D02*
X176357143Y-73457419D01*
X176357143Y-73457419D02*
X176595238Y-73457419D01*
X176595238Y-73457419D02*
X176738095Y-73505038D01*
X177071429Y-73457419D02*
X177309524Y-74457419D01*
X177309524Y-74457419D02*
X177500000Y-73743133D01*
X177500000Y-73743133D02*
X177690476Y-74457419D01*
X177690476Y-74457419D02*
X177928572Y-73457419D01*
X178214286Y-73457419D02*
X178833333Y-73457419D01*
X178833333Y-73457419D02*
X178500000Y-73838371D01*
X178500000Y-73838371D02*
X178642857Y-73838371D01*
X178642857Y-73838371D02*
X178738095Y-73885990D01*
X178738095Y-73885990D02*
X178785714Y-73933609D01*
X178785714Y-73933609D02*
X178833333Y-74028847D01*
X178833333Y-74028847D02*
X178833333Y-74266942D01*
X178833333Y-74266942D02*
X178785714Y-74362180D01*
X178785714Y-74362180D02*
X178738095Y-74409800D01*
X178738095Y-74409800D02*
X178642857Y-74457419D01*
X178642857Y-74457419D02*
X178357143Y-74457419D01*
X178357143Y-74457419D02*
X178261905Y-74409800D01*
X178261905Y-74409800D02*
X178214286Y-74362180D01*
X194166666Y-73457419D02*
X194166666Y-74171704D01*
X194166666Y-74171704D02*
X194119047Y-74314561D01*
X194119047Y-74314561D02*
X194023809Y-74409800D01*
X194023809Y-74409800D02*
X193880952Y-74457419D01*
X193880952Y-74457419D02*
X193785714Y-74457419D01*
X195119047Y-73457419D02*
X194642857Y-73457419D01*
X194642857Y-73457419D02*
X194595238Y-73933609D01*
X194595238Y-73933609D02*
X194642857Y-73885990D01*
X194642857Y-73885990D02*
X194738095Y-73838371D01*
X194738095Y-73838371D02*
X194976190Y-73838371D01*
X194976190Y-73838371D02*
X195071428Y-73885990D01*
X195071428Y-73885990D02*
X195119047Y-73933609D01*
X195119047Y-73933609D02*
X195166666Y-74028847D01*
X195166666Y-74028847D02*
X195166666Y-74266942D01*
X195166666Y-74266942D02*
X195119047Y-74362180D01*
X195119047Y-74362180D02*
X195071428Y-74409800D01*
X195071428Y-74409800D02*
X194976190Y-74457419D01*
X194976190Y-74457419D02*
X194738095Y-74457419D01*
X194738095Y-74457419D02*
X194642857Y-74409800D01*
X194642857Y-74409800D02*
X194595238Y-74362180D01*
X131404761Y-97457419D02*
X131071428Y-96981228D01*
X130833333Y-97457419D02*
X130833333Y-96457419D01*
X130833333Y-96457419D02*
X131214285Y-96457419D01*
X131214285Y-96457419D02*
X131309523Y-96505038D01*
X131309523Y-96505038D02*
X131357142Y-96552657D01*
X131357142Y-96552657D02*
X131404761Y-96647895D01*
X131404761Y-96647895D02*
X131404761Y-96790752D01*
X131404761Y-96790752D02*
X131357142Y-96885990D01*
X131357142Y-96885990D02*
X131309523Y-96933609D01*
X131309523Y-96933609D02*
X131214285Y-96981228D01*
X131214285Y-96981228D02*
X130833333Y-96981228D01*
X131690476Y-96457419D02*
X132023809Y-97457419D01*
X132023809Y-97457419D02*
X132357142Y-96457419D01*
X133214285Y-97457419D02*
X132642857Y-97457419D01*
X132928571Y-97457419D02*
X132928571Y-96457419D01*
X132928571Y-96457419D02*
X132833333Y-96600276D01*
X132833333Y-96600276D02*
X132738095Y-96695514D01*
X132738095Y-96695514D02*
X132642857Y-96743133D01*
D14*
X158166666Y-79074819D02*
X158166666Y-79789104D01*
X158166666Y-79789104D02*
X158119047Y-79931961D01*
X158119047Y-79931961D02*
X158023809Y-80027200D01*
X158023809Y-80027200D02*
X157880952Y-80074819D01*
X157880952Y-80074819D02*
X157785714Y-80074819D01*
X158785714Y-79503390D02*
X158690476Y-79455771D01*
X158690476Y-79455771D02*
X158642857Y-79408152D01*
X158642857Y-79408152D02*
X158595238Y-79312914D01*
X158595238Y-79312914D02*
X158595238Y-79265295D01*
X158595238Y-79265295D02*
X158642857Y-79170057D01*
X158642857Y-79170057D02*
X158690476Y-79122438D01*
X158690476Y-79122438D02*
X158785714Y-79074819D01*
X158785714Y-79074819D02*
X158976190Y-79074819D01*
X158976190Y-79074819D02*
X159071428Y-79122438D01*
X159071428Y-79122438D02*
X159119047Y-79170057D01*
X159119047Y-79170057D02*
X159166666Y-79265295D01*
X159166666Y-79265295D02*
X159166666Y-79312914D01*
X159166666Y-79312914D02*
X159119047Y-79408152D01*
X159119047Y-79408152D02*
X159071428Y-79455771D01*
X159071428Y-79455771D02*
X158976190Y-79503390D01*
X158976190Y-79503390D02*
X158785714Y-79503390D01*
X158785714Y-79503390D02*
X158690476Y-79551009D01*
X158690476Y-79551009D02*
X158642857Y-79598628D01*
X158642857Y-79598628D02*
X158595238Y-79693866D01*
X158595238Y-79693866D02*
X158595238Y-79884342D01*
X158595238Y-79884342D02*
X158642857Y-79979580D01*
X158642857Y-79979580D02*
X158690476Y-80027200D01*
X158690476Y-80027200D02*
X158785714Y-80074819D01*
X158785714Y-80074819D02*
X158976190Y-80074819D01*
X158976190Y-80074819D02*
X159071428Y-80027200D01*
X159071428Y-80027200D02*
X159119047Y-79979580D01*
X159119047Y-79979580D02*
X159166666Y-79884342D01*
X159166666Y-79884342D02*
X159166666Y-79693866D01*
X159166666Y-79693866D02*
X159119047Y-79598628D01*
X159119047Y-79598628D02*
X159071428Y-79551009D01*
X159071428Y-79551009D02*
X158976190Y-79503390D01*
X215666666Y-77799819D02*
X215666666Y-78514104D01*
X215666666Y-78514104D02*
X215619047Y-78656961D01*
X215619047Y-78656961D02*
X215523809Y-78752200D01*
X215523809Y-78752200D02*
X215380952Y-78799819D01*
X215380952Y-78799819D02*
X215285714Y-78799819D01*
X216571428Y-77799819D02*
X216380952Y-77799819D01*
X216380952Y-77799819D02*
X216285714Y-77847438D01*
X216285714Y-77847438D02*
X216238095Y-77895057D01*
X216238095Y-77895057D02*
X216142857Y-78037914D01*
X216142857Y-78037914D02*
X216095238Y-78228390D01*
X216095238Y-78228390D02*
X216095238Y-78609342D01*
X216095238Y-78609342D02*
X216142857Y-78704580D01*
X216142857Y-78704580D02*
X216190476Y-78752200D01*
X216190476Y-78752200D02*
X216285714Y-78799819D01*
X216285714Y-78799819D02*
X216476190Y-78799819D01*
X216476190Y-78799819D02*
X216571428Y-78752200D01*
X216571428Y-78752200D02*
X216619047Y-78704580D01*
X216619047Y-78704580D02*
X216666666Y-78609342D01*
X216666666Y-78609342D02*
X216666666Y-78371247D01*
X216666666Y-78371247D02*
X216619047Y-78276009D01*
X216619047Y-78276009D02*
X216571428Y-78228390D01*
X216571428Y-78228390D02*
X216476190Y-78180771D01*
X216476190Y-78180771D02*
X216285714Y-78180771D01*
X216285714Y-78180771D02*
X216190476Y-78228390D01*
X216190476Y-78228390D02*
X216142857Y-78276009D01*
X216142857Y-78276009D02*
X216095238Y-78371247D01*
X202690476Y-145299819D02*
X202690476Y-146014104D01*
X202690476Y-146014104D02*
X202642857Y-146156961D01*
X202642857Y-146156961D02*
X202547619Y-146252200D01*
X202547619Y-146252200D02*
X202404762Y-146299819D01*
X202404762Y-146299819D02*
X202309524Y-146299819D01*
X203071429Y-145299819D02*
X203690476Y-145299819D01*
X203690476Y-145299819D02*
X203357143Y-145680771D01*
X203357143Y-145680771D02*
X203500000Y-145680771D01*
X203500000Y-145680771D02*
X203595238Y-145728390D01*
X203595238Y-145728390D02*
X203642857Y-145776009D01*
X203642857Y-145776009D02*
X203690476Y-145871247D01*
X203690476Y-145871247D02*
X203690476Y-146109342D01*
X203690476Y-146109342D02*
X203642857Y-146204580D01*
X203642857Y-146204580D02*
X203595238Y-146252200D01*
X203595238Y-146252200D02*
X203500000Y-146299819D01*
X203500000Y-146299819D02*
X203214286Y-146299819D01*
X203214286Y-146299819D02*
X203119048Y-146252200D01*
X203119048Y-146252200D02*
X203071429Y-146204580D01*
X204023810Y-145299819D02*
X204642857Y-145299819D01*
X204642857Y-145299819D02*
X204309524Y-145680771D01*
X204309524Y-145680771D02*
X204452381Y-145680771D01*
X204452381Y-145680771D02*
X204547619Y-145728390D01*
X204547619Y-145728390D02*
X204595238Y-145776009D01*
X204595238Y-145776009D02*
X204642857Y-145871247D01*
X204642857Y-145871247D02*
X204642857Y-146109342D01*
X204642857Y-146109342D02*
X204595238Y-146204580D01*
X204595238Y-146204580D02*
X204547619Y-146252200D01*
X204547619Y-146252200D02*
X204452381Y-146299819D01*
X204452381Y-146299819D02*
X204166667Y-146299819D01*
X204166667Y-146299819D02*
X204071429Y-146252200D01*
X204071429Y-146252200D02*
X204023810Y-146204580D01*
X148666666Y-95074819D02*
X148666666Y-95789104D01*
X148666666Y-95789104D02*
X148619047Y-95931961D01*
X148619047Y-95931961D02*
X148523809Y-96027200D01*
X148523809Y-96027200D02*
X148380952Y-96074819D01*
X148380952Y-96074819D02*
X148285714Y-96074819D01*
X149095238Y-95170057D02*
X149142857Y-95122438D01*
X149142857Y-95122438D02*
X149238095Y-95074819D01*
X149238095Y-95074819D02*
X149476190Y-95074819D01*
X149476190Y-95074819D02*
X149571428Y-95122438D01*
X149571428Y-95122438D02*
X149619047Y-95170057D01*
X149619047Y-95170057D02*
X149666666Y-95265295D01*
X149666666Y-95265295D02*
X149666666Y-95360533D01*
X149666666Y-95360533D02*
X149619047Y-95503390D01*
X149619047Y-95503390D02*
X149047619Y-96074819D01*
X149047619Y-96074819D02*
X149666666Y-96074819D01*
X184190476Y-145299819D02*
X184190476Y-146014104D01*
X184190476Y-146014104D02*
X184142857Y-146156961D01*
X184142857Y-146156961D02*
X184047619Y-146252200D01*
X184047619Y-146252200D02*
X183904762Y-146299819D01*
X183904762Y-146299819D02*
X183809524Y-146299819D01*
X184571429Y-145299819D02*
X185190476Y-145299819D01*
X185190476Y-145299819D02*
X184857143Y-145680771D01*
X184857143Y-145680771D02*
X185000000Y-145680771D01*
X185000000Y-145680771D02*
X185095238Y-145728390D01*
X185095238Y-145728390D02*
X185142857Y-145776009D01*
X185142857Y-145776009D02*
X185190476Y-145871247D01*
X185190476Y-145871247D02*
X185190476Y-146109342D01*
X185190476Y-146109342D02*
X185142857Y-146204580D01*
X185142857Y-146204580D02*
X185095238Y-146252200D01*
X185095238Y-146252200D02*
X185000000Y-146299819D01*
X185000000Y-146299819D02*
X184714286Y-146299819D01*
X184714286Y-146299819D02*
X184619048Y-146252200D01*
X184619048Y-146252200D02*
X184571429Y-146204580D01*
X185809524Y-145299819D02*
X185904762Y-145299819D01*
X185904762Y-145299819D02*
X186000000Y-145347438D01*
X186000000Y-145347438D02*
X186047619Y-145395057D01*
X186047619Y-145395057D02*
X186095238Y-145490295D01*
X186095238Y-145490295D02*
X186142857Y-145680771D01*
X186142857Y-145680771D02*
X186142857Y-145918866D01*
X186142857Y-145918866D02*
X186095238Y-146109342D01*
X186095238Y-146109342D02*
X186047619Y-146204580D01*
X186047619Y-146204580D02*
X186000000Y-146252200D01*
X186000000Y-146252200D02*
X185904762Y-146299819D01*
X185904762Y-146299819D02*
X185809524Y-146299819D01*
X185809524Y-146299819D02*
X185714286Y-146252200D01*
X185714286Y-146252200D02*
X185666667Y-146204580D01*
X185666667Y-146204580D02*
X185619048Y-146109342D01*
X185619048Y-146109342D02*
X185571429Y-145918866D01*
X185571429Y-145918866D02*
X185571429Y-145680771D01*
X185571429Y-145680771D02*
X185619048Y-145490295D01*
X185619048Y-145490295D02*
X185666667Y-145395057D01*
X185666667Y-145395057D02*
X185714286Y-145347438D01*
X185714286Y-145347438D02*
X185809524Y-145299819D01*
D13*
X156404761Y-97457419D02*
X156071428Y-96981228D01*
X155833333Y-97457419D02*
X155833333Y-96457419D01*
X155833333Y-96457419D02*
X156214285Y-96457419D01*
X156214285Y-96457419D02*
X156309523Y-96505038D01*
X156309523Y-96505038D02*
X156357142Y-96552657D01*
X156357142Y-96552657D02*
X156404761Y-96647895D01*
X156404761Y-96647895D02*
X156404761Y-96790752D01*
X156404761Y-96790752D02*
X156357142Y-96885990D01*
X156357142Y-96885990D02*
X156309523Y-96933609D01*
X156309523Y-96933609D02*
X156214285Y-96981228D01*
X156214285Y-96981228D02*
X155833333Y-96981228D01*
X156690476Y-96457419D02*
X157023809Y-97457419D01*
X157023809Y-97457419D02*
X157357142Y-96457419D01*
X157642857Y-96552657D02*
X157690476Y-96505038D01*
X157690476Y-96505038D02*
X157785714Y-96457419D01*
X157785714Y-96457419D02*
X158023809Y-96457419D01*
X158023809Y-96457419D02*
X158119047Y-96505038D01*
X158119047Y-96505038D02*
X158166666Y-96552657D01*
X158166666Y-96552657D02*
X158214285Y-96647895D01*
X158214285Y-96647895D02*
X158214285Y-96743133D01*
X158214285Y-96743133D02*
X158166666Y-96885990D01*
X158166666Y-96885990D02*
X157595238Y-97457419D01*
X157595238Y-97457419D02*
X158214285Y-97457419D01*
X206404761Y-97457419D02*
X206071428Y-96981228D01*
X205833333Y-97457419D02*
X205833333Y-96457419D01*
X205833333Y-96457419D02*
X206214285Y-96457419D01*
X206214285Y-96457419D02*
X206309523Y-96505038D01*
X206309523Y-96505038D02*
X206357142Y-96552657D01*
X206357142Y-96552657D02*
X206404761Y-96647895D01*
X206404761Y-96647895D02*
X206404761Y-96790752D01*
X206404761Y-96790752D02*
X206357142Y-96885990D01*
X206357142Y-96885990D02*
X206309523Y-96933609D01*
X206309523Y-96933609D02*
X206214285Y-96981228D01*
X206214285Y-96981228D02*
X205833333Y-96981228D01*
X206690476Y-96457419D02*
X207023809Y-97457419D01*
X207023809Y-97457419D02*
X207357142Y-96457419D01*
X208119047Y-96790752D02*
X208119047Y-97457419D01*
X207880952Y-96409800D02*
X207642857Y-97124085D01*
X207642857Y-97124085D02*
X208261904Y-97124085D01*
D14*
X134166666Y-128809819D02*
X134166666Y-129524104D01*
X134166666Y-129524104D02*
X134119047Y-129666961D01*
X134119047Y-129666961D02*
X134023809Y-129762200D01*
X134023809Y-129762200D02*
X133880952Y-129809819D01*
X133880952Y-129809819D02*
X133785714Y-129809819D01*
X134690476Y-129809819D02*
X134880952Y-129809819D01*
X134880952Y-129809819D02*
X134976190Y-129762200D01*
X134976190Y-129762200D02*
X135023809Y-129714580D01*
X135023809Y-129714580D02*
X135119047Y-129571723D01*
X135119047Y-129571723D02*
X135166666Y-129381247D01*
X135166666Y-129381247D02*
X135166666Y-129000295D01*
X135166666Y-129000295D02*
X135119047Y-128905057D01*
X135119047Y-128905057D02*
X135071428Y-128857438D01*
X135071428Y-128857438D02*
X134976190Y-128809819D01*
X134976190Y-128809819D02*
X134785714Y-128809819D01*
X134785714Y-128809819D02*
X134690476Y-128857438D01*
X134690476Y-128857438D02*
X134642857Y-128905057D01*
X134642857Y-128905057D02*
X134595238Y-129000295D01*
X134595238Y-129000295D02*
X134595238Y-129238390D01*
X134595238Y-129238390D02*
X134642857Y-129333628D01*
X134642857Y-129333628D02*
X134690476Y-129381247D01*
X134690476Y-129381247D02*
X134785714Y-129428866D01*
X134785714Y-129428866D02*
X134976190Y-129428866D01*
X134976190Y-129428866D02*
X135071428Y-129381247D01*
X135071428Y-129381247D02*
X135119047Y-129333628D01*
X135119047Y-129333628D02*
X135166666Y-129238390D01*
X197690476Y-145249819D02*
X197690476Y-145964104D01*
X197690476Y-145964104D02*
X197642857Y-146106961D01*
X197642857Y-146106961D02*
X197547619Y-146202200D01*
X197547619Y-146202200D02*
X197404762Y-146249819D01*
X197404762Y-146249819D02*
X197309524Y-146249819D01*
X198071429Y-145249819D02*
X198690476Y-145249819D01*
X198690476Y-145249819D02*
X198357143Y-145630771D01*
X198357143Y-145630771D02*
X198500000Y-145630771D01*
X198500000Y-145630771D02*
X198595238Y-145678390D01*
X198595238Y-145678390D02*
X198642857Y-145726009D01*
X198642857Y-145726009D02*
X198690476Y-145821247D01*
X198690476Y-145821247D02*
X198690476Y-146059342D01*
X198690476Y-146059342D02*
X198642857Y-146154580D01*
X198642857Y-146154580D02*
X198595238Y-146202200D01*
X198595238Y-146202200D02*
X198500000Y-146249819D01*
X198500000Y-146249819D02*
X198214286Y-146249819D01*
X198214286Y-146249819D02*
X198119048Y-146202200D01*
X198119048Y-146202200D02*
X198071429Y-146154580D01*
X199595238Y-145249819D02*
X199119048Y-145249819D01*
X199119048Y-145249819D02*
X199071429Y-145726009D01*
X199071429Y-145726009D02*
X199119048Y-145678390D01*
X199119048Y-145678390D02*
X199214286Y-145630771D01*
X199214286Y-145630771D02*
X199452381Y-145630771D01*
X199452381Y-145630771D02*
X199547619Y-145678390D01*
X199547619Y-145678390D02*
X199595238Y-145726009D01*
X199595238Y-145726009D02*
X199642857Y-145821247D01*
X199642857Y-145821247D02*
X199642857Y-146059342D01*
X199642857Y-146059342D02*
X199595238Y-146154580D01*
X199595238Y-146154580D02*
X199547619Y-146202200D01*
X199547619Y-146202200D02*
X199452381Y-146249819D01*
X199452381Y-146249819D02*
X199214286Y-146249819D01*
X199214286Y-146249819D02*
X199119048Y-146202200D01*
X199119048Y-146202200D02*
X199071429Y-146154580D01*
D13*
X136666667Y-72909800D02*
X136809524Y-72957419D01*
X136809524Y-72957419D02*
X137047619Y-72957419D01*
X137047619Y-72957419D02*
X137142857Y-72909800D01*
X137142857Y-72909800D02*
X137190476Y-72862180D01*
X137190476Y-72862180D02*
X137238095Y-72766942D01*
X137238095Y-72766942D02*
X137238095Y-72671704D01*
X137238095Y-72671704D02*
X137190476Y-72576466D01*
X137190476Y-72576466D02*
X137142857Y-72528847D01*
X137142857Y-72528847D02*
X137047619Y-72481228D01*
X137047619Y-72481228D02*
X136857143Y-72433609D01*
X136857143Y-72433609D02*
X136761905Y-72385990D01*
X136761905Y-72385990D02*
X136714286Y-72338371D01*
X136714286Y-72338371D02*
X136666667Y-72243133D01*
X136666667Y-72243133D02*
X136666667Y-72147895D01*
X136666667Y-72147895D02*
X136714286Y-72052657D01*
X136714286Y-72052657D02*
X136761905Y-72005038D01*
X136761905Y-72005038D02*
X136857143Y-71957419D01*
X136857143Y-71957419D02*
X137095238Y-71957419D01*
X137095238Y-71957419D02*
X137238095Y-72005038D01*
X137571429Y-71957419D02*
X137809524Y-72957419D01*
X137809524Y-72957419D02*
X138000000Y-72243133D01*
X138000000Y-72243133D02*
X138190476Y-72957419D01*
X138190476Y-72957419D02*
X138428572Y-71957419D01*
X139333333Y-72957419D02*
X138761905Y-72957419D01*
X139047619Y-72957419D02*
X139047619Y-71957419D01*
X139047619Y-71957419D02*
X138952381Y-72100276D01*
X138952381Y-72100276D02*
X138857143Y-72195514D01*
X138857143Y-72195514D02*
X138761905Y-72243133D01*
D14*
X173666666Y-95074819D02*
X173666666Y-95789104D01*
X173666666Y-95789104D02*
X173619047Y-95931961D01*
X173619047Y-95931961D02*
X173523809Y-96027200D01*
X173523809Y-96027200D02*
X173380952Y-96074819D01*
X173380952Y-96074819D02*
X173285714Y-96074819D01*
X174047619Y-95074819D02*
X174666666Y-95074819D01*
X174666666Y-95074819D02*
X174333333Y-95455771D01*
X174333333Y-95455771D02*
X174476190Y-95455771D01*
X174476190Y-95455771D02*
X174571428Y-95503390D01*
X174571428Y-95503390D02*
X174619047Y-95551009D01*
X174619047Y-95551009D02*
X174666666Y-95646247D01*
X174666666Y-95646247D02*
X174666666Y-95884342D01*
X174666666Y-95884342D02*
X174619047Y-95979580D01*
X174619047Y-95979580D02*
X174571428Y-96027200D01*
X174571428Y-96027200D02*
X174476190Y-96074819D01*
X174476190Y-96074819D02*
X174190476Y-96074819D01*
X174190476Y-96074819D02*
X174095238Y-96027200D01*
X174095238Y-96027200D02*
X174047619Y-95979580D01*
X143690476Y-145349819D02*
X143690476Y-146064104D01*
X143690476Y-146064104D02*
X143642857Y-146206961D01*
X143642857Y-146206961D02*
X143547619Y-146302200D01*
X143547619Y-146302200D02*
X143404762Y-146349819D01*
X143404762Y-146349819D02*
X143309524Y-146349819D01*
X144690476Y-146349819D02*
X144119048Y-146349819D01*
X144404762Y-146349819D02*
X144404762Y-145349819D01*
X144404762Y-145349819D02*
X144309524Y-145492676D01*
X144309524Y-145492676D02*
X144214286Y-145587914D01*
X144214286Y-145587914D02*
X144119048Y-145635533D01*
X145023810Y-145349819D02*
X145690476Y-145349819D01*
X145690476Y-145349819D02*
X145261905Y-146349819D01*
X148690476Y-137074819D02*
X148690476Y-137789104D01*
X148690476Y-137789104D02*
X148642857Y-137931961D01*
X148642857Y-137931961D02*
X148547619Y-138027200D01*
X148547619Y-138027200D02*
X148404762Y-138074819D01*
X148404762Y-138074819D02*
X148309524Y-138074819D01*
X149690476Y-138074819D02*
X149119048Y-138074819D01*
X149404762Y-138074819D02*
X149404762Y-137074819D01*
X149404762Y-137074819D02*
X149309524Y-137217676D01*
X149309524Y-137217676D02*
X149214286Y-137312914D01*
X149214286Y-137312914D02*
X149119048Y-137360533D01*
X150166667Y-138074819D02*
X150357143Y-138074819D01*
X150357143Y-138074819D02*
X150452381Y-138027200D01*
X150452381Y-138027200D02*
X150500000Y-137979580D01*
X150500000Y-137979580D02*
X150595238Y-137836723D01*
X150595238Y-137836723D02*
X150642857Y-137646247D01*
X150642857Y-137646247D02*
X150642857Y-137265295D01*
X150642857Y-137265295D02*
X150595238Y-137170057D01*
X150595238Y-137170057D02*
X150547619Y-137122438D01*
X150547619Y-137122438D02*
X150452381Y-137074819D01*
X150452381Y-137074819D02*
X150261905Y-137074819D01*
X150261905Y-137074819D02*
X150166667Y-137122438D01*
X150166667Y-137122438D02*
X150119048Y-137170057D01*
X150119048Y-137170057D02*
X150071429Y-137265295D01*
X150071429Y-137265295D02*
X150071429Y-137503390D01*
X150071429Y-137503390D02*
X150119048Y-137598628D01*
X150119048Y-137598628D02*
X150166667Y-137646247D01*
X150166667Y-137646247D02*
X150261905Y-137693866D01*
X150261905Y-137693866D02*
X150452381Y-137693866D01*
X150452381Y-137693866D02*
X150547619Y-137646247D01*
X150547619Y-137646247D02*
X150595238Y-137598628D01*
X150595238Y-137598628D02*
X150642857Y-137503390D01*
X138690476Y-145349819D02*
X138690476Y-146064104D01*
X138690476Y-146064104D02*
X138642857Y-146206961D01*
X138642857Y-146206961D02*
X138547619Y-146302200D01*
X138547619Y-146302200D02*
X138404762Y-146349819D01*
X138404762Y-146349819D02*
X138309524Y-146349819D01*
X139690476Y-146349819D02*
X139119048Y-146349819D01*
X139404762Y-146349819D02*
X139404762Y-145349819D01*
X139404762Y-145349819D02*
X139309524Y-145492676D01*
X139309524Y-145492676D02*
X139214286Y-145587914D01*
X139214286Y-145587914D02*
X139119048Y-145635533D01*
X140547619Y-145683152D02*
X140547619Y-146349819D01*
X140309524Y-145302200D02*
X140071429Y-146016485D01*
X140071429Y-146016485D02*
X140690476Y-146016485D01*
X166190476Y-128799819D02*
X166190476Y-129514104D01*
X166190476Y-129514104D02*
X166142857Y-129656961D01*
X166142857Y-129656961D02*
X166047619Y-129752200D01*
X166047619Y-129752200D02*
X165904762Y-129799819D01*
X165904762Y-129799819D02*
X165809524Y-129799819D01*
X166619048Y-128895057D02*
X166666667Y-128847438D01*
X166666667Y-128847438D02*
X166761905Y-128799819D01*
X166761905Y-128799819D02*
X167000000Y-128799819D01*
X167000000Y-128799819D02*
X167095238Y-128847438D01*
X167095238Y-128847438D02*
X167142857Y-128895057D01*
X167142857Y-128895057D02*
X167190476Y-128990295D01*
X167190476Y-128990295D02*
X167190476Y-129085533D01*
X167190476Y-129085533D02*
X167142857Y-129228390D01*
X167142857Y-129228390D02*
X166571429Y-129799819D01*
X166571429Y-129799819D02*
X167190476Y-129799819D01*
X168047619Y-128799819D02*
X167857143Y-128799819D01*
X167857143Y-128799819D02*
X167761905Y-128847438D01*
X167761905Y-128847438D02*
X167714286Y-128895057D01*
X167714286Y-128895057D02*
X167619048Y-129037914D01*
X167619048Y-129037914D02*
X167571429Y-129228390D01*
X167571429Y-129228390D02*
X167571429Y-129609342D01*
X167571429Y-129609342D02*
X167619048Y-129704580D01*
X167619048Y-129704580D02*
X167666667Y-129752200D01*
X167666667Y-129752200D02*
X167761905Y-129799819D01*
X167761905Y-129799819D02*
X167952381Y-129799819D01*
X167952381Y-129799819D02*
X168047619Y-129752200D01*
X168047619Y-129752200D02*
X168095238Y-129704580D01*
X168095238Y-129704580D02*
X168142857Y-129609342D01*
X168142857Y-129609342D02*
X168142857Y-129371247D01*
X168142857Y-129371247D02*
X168095238Y-129276009D01*
X168095238Y-129276009D02*
X168047619Y-129228390D01*
X168047619Y-129228390D02*
X167952381Y-129180771D01*
X167952381Y-129180771D02*
X167761905Y-129180771D01*
X167761905Y-129180771D02*
X167666667Y-129228390D01*
X167666667Y-129228390D02*
X167619048Y-129276009D01*
X167619048Y-129276009D02*
X167571429Y-129371247D01*
X184190476Y-128849819D02*
X184190476Y-129564104D01*
X184190476Y-129564104D02*
X184142857Y-129706961D01*
X184142857Y-129706961D02*
X184047619Y-129802200D01*
X184047619Y-129802200D02*
X183904762Y-129849819D01*
X183904762Y-129849819D02*
X183809524Y-129849819D01*
X184571429Y-128849819D02*
X185190476Y-128849819D01*
X185190476Y-128849819D02*
X184857143Y-129230771D01*
X184857143Y-129230771D02*
X185000000Y-129230771D01*
X185000000Y-129230771D02*
X185095238Y-129278390D01*
X185095238Y-129278390D02*
X185142857Y-129326009D01*
X185142857Y-129326009D02*
X185190476Y-129421247D01*
X185190476Y-129421247D02*
X185190476Y-129659342D01*
X185190476Y-129659342D02*
X185142857Y-129754580D01*
X185142857Y-129754580D02*
X185095238Y-129802200D01*
X185095238Y-129802200D02*
X185000000Y-129849819D01*
X185000000Y-129849819D02*
X184714286Y-129849819D01*
X184714286Y-129849819D02*
X184619048Y-129802200D01*
X184619048Y-129802200D02*
X184571429Y-129754580D01*
X185571429Y-128945057D02*
X185619048Y-128897438D01*
X185619048Y-128897438D02*
X185714286Y-128849819D01*
X185714286Y-128849819D02*
X185952381Y-128849819D01*
X185952381Y-128849819D02*
X186047619Y-128897438D01*
X186047619Y-128897438D02*
X186095238Y-128945057D01*
X186095238Y-128945057D02*
X186142857Y-129040295D01*
X186142857Y-129040295D02*
X186142857Y-129135533D01*
X186142857Y-129135533D02*
X186095238Y-129278390D01*
X186095238Y-129278390D02*
X185523810Y-129849819D01*
X185523810Y-129849819D02*
X186142857Y-129849819D01*
D13*
X163666667Y-74409800D02*
X163809524Y-74457419D01*
X163809524Y-74457419D02*
X164047619Y-74457419D01*
X164047619Y-74457419D02*
X164142857Y-74409800D01*
X164142857Y-74409800D02*
X164190476Y-74362180D01*
X164190476Y-74362180D02*
X164238095Y-74266942D01*
X164238095Y-74266942D02*
X164238095Y-74171704D01*
X164238095Y-74171704D02*
X164190476Y-74076466D01*
X164190476Y-74076466D02*
X164142857Y-74028847D01*
X164142857Y-74028847D02*
X164047619Y-73981228D01*
X164047619Y-73981228D02*
X163857143Y-73933609D01*
X163857143Y-73933609D02*
X163761905Y-73885990D01*
X163761905Y-73885990D02*
X163714286Y-73838371D01*
X163714286Y-73838371D02*
X163666667Y-73743133D01*
X163666667Y-73743133D02*
X163666667Y-73647895D01*
X163666667Y-73647895D02*
X163714286Y-73552657D01*
X163714286Y-73552657D02*
X163761905Y-73505038D01*
X163761905Y-73505038D02*
X163857143Y-73457419D01*
X163857143Y-73457419D02*
X164095238Y-73457419D01*
X164095238Y-73457419D02*
X164238095Y-73505038D01*
X164571429Y-73457419D02*
X164809524Y-74457419D01*
X164809524Y-74457419D02*
X165000000Y-73743133D01*
X165000000Y-73743133D02*
X165190476Y-74457419D01*
X165190476Y-74457419D02*
X165428572Y-73457419D01*
X165761905Y-73552657D02*
X165809524Y-73505038D01*
X165809524Y-73505038D02*
X165904762Y-73457419D01*
X165904762Y-73457419D02*
X166142857Y-73457419D01*
X166142857Y-73457419D02*
X166238095Y-73505038D01*
X166238095Y-73505038D02*
X166285714Y-73552657D01*
X166285714Y-73552657D02*
X166333333Y-73647895D01*
X166333333Y-73647895D02*
X166333333Y-73743133D01*
X166333333Y-73743133D02*
X166285714Y-73885990D01*
X166285714Y-73885990D02*
X165714286Y-74457419D01*
X165714286Y-74457419D02*
X166333333Y-74457419D01*
D14*
X122666666Y-77799819D02*
X122666666Y-78514104D01*
X122666666Y-78514104D02*
X122619047Y-78656961D01*
X122619047Y-78656961D02*
X122523809Y-78752200D01*
X122523809Y-78752200D02*
X122380952Y-78799819D01*
X122380952Y-78799819D02*
X122285714Y-78799819D01*
X123047619Y-77799819D02*
X123714285Y-77799819D01*
X123714285Y-77799819D02*
X123285714Y-78799819D01*
X133690476Y-137074819D02*
X133690476Y-137789104D01*
X133690476Y-137789104D02*
X133642857Y-137931961D01*
X133642857Y-137931961D02*
X133547619Y-138027200D01*
X133547619Y-138027200D02*
X133404762Y-138074819D01*
X133404762Y-138074819D02*
X133309524Y-138074819D01*
X134690476Y-138074819D02*
X134119048Y-138074819D01*
X134404762Y-138074819D02*
X134404762Y-137074819D01*
X134404762Y-137074819D02*
X134309524Y-137217676D01*
X134309524Y-137217676D02*
X134214286Y-137312914D01*
X134214286Y-137312914D02*
X134119048Y-137360533D01*
X135309524Y-137074819D02*
X135404762Y-137074819D01*
X135404762Y-137074819D02*
X135500000Y-137122438D01*
X135500000Y-137122438D02*
X135547619Y-137170057D01*
X135547619Y-137170057D02*
X135595238Y-137265295D01*
X135595238Y-137265295D02*
X135642857Y-137455771D01*
X135642857Y-137455771D02*
X135642857Y-137693866D01*
X135642857Y-137693866D02*
X135595238Y-137884342D01*
X135595238Y-137884342D02*
X135547619Y-137979580D01*
X135547619Y-137979580D02*
X135500000Y-138027200D01*
X135500000Y-138027200D02*
X135404762Y-138074819D01*
X135404762Y-138074819D02*
X135309524Y-138074819D01*
X135309524Y-138074819D02*
X135214286Y-138027200D01*
X135214286Y-138027200D02*
X135166667Y-137979580D01*
X135166667Y-137979580D02*
X135119048Y-137884342D01*
X135119048Y-137884342D02*
X135071429Y-137693866D01*
X135071429Y-137693866D02*
X135071429Y-137455771D01*
X135071429Y-137455771D02*
X135119048Y-137265295D01*
X135119048Y-137265295D02*
X135166667Y-137170057D01*
X135166667Y-137170057D02*
X135214286Y-137122438D01*
X135214286Y-137122438D02*
X135309524Y-137074819D01*
X138690476Y-137074819D02*
X138690476Y-137789104D01*
X138690476Y-137789104D02*
X138642857Y-137931961D01*
X138642857Y-137931961D02*
X138547619Y-138027200D01*
X138547619Y-138027200D02*
X138404762Y-138074819D01*
X138404762Y-138074819D02*
X138309524Y-138074819D01*
X139690476Y-138074819D02*
X139119048Y-138074819D01*
X139404762Y-138074819D02*
X139404762Y-137074819D01*
X139404762Y-137074819D02*
X139309524Y-137217676D01*
X139309524Y-137217676D02*
X139214286Y-137312914D01*
X139214286Y-137312914D02*
X139119048Y-137360533D01*
X140023810Y-137074819D02*
X140642857Y-137074819D01*
X140642857Y-137074819D02*
X140309524Y-137455771D01*
X140309524Y-137455771D02*
X140452381Y-137455771D01*
X140452381Y-137455771D02*
X140547619Y-137503390D01*
X140547619Y-137503390D02*
X140595238Y-137551009D01*
X140595238Y-137551009D02*
X140642857Y-137646247D01*
X140642857Y-137646247D02*
X140642857Y-137884342D01*
X140642857Y-137884342D02*
X140595238Y-137979580D01*
X140595238Y-137979580D02*
X140547619Y-138027200D01*
X140547619Y-138027200D02*
X140452381Y-138074819D01*
X140452381Y-138074819D02*
X140166667Y-138074819D01*
X140166667Y-138074819D02*
X140071429Y-138027200D01*
X140071429Y-138027200D02*
X140023810Y-137979580D01*
X149690476Y-79074819D02*
X149690476Y-79789104D01*
X149690476Y-79789104D02*
X149642857Y-79931961D01*
X149642857Y-79931961D02*
X149547619Y-80027200D01*
X149547619Y-80027200D02*
X149404762Y-80074819D01*
X149404762Y-80074819D02*
X149309524Y-80074819D01*
X150071429Y-79074819D02*
X150690476Y-79074819D01*
X150690476Y-79074819D02*
X150357143Y-79455771D01*
X150357143Y-79455771D02*
X150500000Y-79455771D01*
X150500000Y-79455771D02*
X150595238Y-79503390D01*
X150595238Y-79503390D02*
X150642857Y-79551009D01*
X150642857Y-79551009D02*
X150690476Y-79646247D01*
X150690476Y-79646247D02*
X150690476Y-79884342D01*
X150690476Y-79884342D02*
X150642857Y-79979580D01*
X150642857Y-79979580D02*
X150595238Y-80027200D01*
X150595238Y-80027200D02*
X150500000Y-80074819D01*
X150500000Y-80074819D02*
X150214286Y-80074819D01*
X150214286Y-80074819D02*
X150119048Y-80027200D01*
X150119048Y-80027200D02*
X150071429Y-79979580D01*
X151023810Y-79074819D02*
X151690476Y-79074819D01*
X151690476Y-79074819D02*
X151261905Y-80074819D01*
D13*
X181404761Y-97457419D02*
X181071428Y-96981228D01*
X180833333Y-97457419D02*
X180833333Y-96457419D01*
X180833333Y-96457419D02*
X181214285Y-96457419D01*
X181214285Y-96457419D02*
X181309523Y-96505038D01*
X181309523Y-96505038D02*
X181357142Y-96552657D01*
X181357142Y-96552657D02*
X181404761Y-96647895D01*
X181404761Y-96647895D02*
X181404761Y-96790752D01*
X181404761Y-96790752D02*
X181357142Y-96885990D01*
X181357142Y-96885990D02*
X181309523Y-96933609D01*
X181309523Y-96933609D02*
X181214285Y-96981228D01*
X181214285Y-96981228D02*
X180833333Y-96981228D01*
X181690476Y-96457419D02*
X182023809Y-97457419D01*
X182023809Y-97457419D02*
X182357142Y-96457419D01*
X182595238Y-96457419D02*
X183214285Y-96457419D01*
X183214285Y-96457419D02*
X182880952Y-96838371D01*
X182880952Y-96838371D02*
X183023809Y-96838371D01*
X183023809Y-96838371D02*
X183119047Y-96885990D01*
X183119047Y-96885990D02*
X183166666Y-96933609D01*
X183166666Y-96933609D02*
X183214285Y-97028847D01*
X183214285Y-97028847D02*
X183214285Y-97266942D01*
X183214285Y-97266942D02*
X183166666Y-97362180D01*
X183166666Y-97362180D02*
X183119047Y-97409800D01*
X183119047Y-97409800D02*
X183023809Y-97457419D01*
X183023809Y-97457419D02*
X182738095Y-97457419D01*
X182738095Y-97457419D02*
X182642857Y-97409800D01*
X182642857Y-97409800D02*
X182595238Y-97362180D01*
D14*
X215190476Y-145389819D02*
X215190476Y-146104104D01*
X215190476Y-146104104D02*
X215142857Y-146246961D01*
X215142857Y-146246961D02*
X215047619Y-146342200D01*
X215047619Y-146342200D02*
X214904762Y-146389819D01*
X214904762Y-146389819D02*
X214809524Y-146389819D01*
X215571429Y-145389819D02*
X216190476Y-145389819D01*
X216190476Y-145389819D02*
X215857143Y-145770771D01*
X215857143Y-145770771D02*
X216000000Y-145770771D01*
X216000000Y-145770771D02*
X216095238Y-145818390D01*
X216095238Y-145818390D02*
X216142857Y-145866009D01*
X216142857Y-145866009D02*
X216190476Y-145961247D01*
X216190476Y-145961247D02*
X216190476Y-146199342D01*
X216190476Y-146199342D02*
X216142857Y-146294580D01*
X216142857Y-146294580D02*
X216095238Y-146342200D01*
X216095238Y-146342200D02*
X216000000Y-146389819D01*
X216000000Y-146389819D02*
X215714286Y-146389819D01*
X215714286Y-146389819D02*
X215619048Y-146342200D01*
X215619048Y-146342200D02*
X215571429Y-146294580D01*
X216666667Y-146389819D02*
X216857143Y-146389819D01*
X216857143Y-146389819D02*
X216952381Y-146342200D01*
X216952381Y-146342200D02*
X217000000Y-146294580D01*
X217000000Y-146294580D02*
X217095238Y-146151723D01*
X217095238Y-146151723D02*
X217142857Y-145961247D01*
X217142857Y-145961247D02*
X217142857Y-145580295D01*
X217142857Y-145580295D02*
X217095238Y-145485057D01*
X217095238Y-145485057D02*
X217047619Y-145437438D01*
X217047619Y-145437438D02*
X216952381Y-145389819D01*
X216952381Y-145389819D02*
X216761905Y-145389819D01*
X216761905Y-145389819D02*
X216666667Y-145437438D01*
X216666667Y-145437438D02*
X216619048Y-145485057D01*
X216619048Y-145485057D02*
X216571429Y-145580295D01*
X216571429Y-145580295D02*
X216571429Y-145818390D01*
X216571429Y-145818390D02*
X216619048Y-145913628D01*
X216619048Y-145913628D02*
X216666667Y-145961247D01*
X216666667Y-145961247D02*
X216761905Y-146008866D01*
X216761905Y-146008866D02*
X216952381Y-146008866D01*
X216952381Y-146008866D02*
X217047619Y-145961247D01*
X217047619Y-145961247D02*
X217095238Y-145913628D01*
X217095238Y-145913628D02*
X217142857Y-145818390D01*
D15*
%TO.C,J25*%
X165620000Y-138620000D02*
X167000000Y-138620000D01*
X165620000Y-140000000D02*
X165620000Y-138620000D01*
X165620000Y-141270000D02*
X165620000Y-143920000D01*
X165620000Y-141270000D02*
X168380000Y-141270000D01*
X165620000Y-143920000D02*
X168380000Y-143920000D01*
X168380000Y-141270000D02*
X168380000Y-143920000D01*
%TO.C,J24*%
X165620000Y-146845000D02*
X167000000Y-146845000D01*
X165620000Y-148225000D02*
X165620000Y-146845000D01*
X165620000Y-149495000D02*
X165620000Y-152145000D01*
X165620000Y-149495000D02*
X168380000Y-149495000D01*
X165620000Y-152145000D02*
X168380000Y-152145000D01*
X168380000Y-149495000D02*
X168380000Y-152145000D01*
%TO.C,J20*%
X148120000Y-146895000D02*
X149500000Y-146895000D01*
X148120000Y-148275000D02*
X148120000Y-146895000D01*
X148120000Y-149545000D02*
X148120000Y-152195000D01*
X148120000Y-149545000D02*
X150880000Y-149545000D01*
X148120000Y-152195000D02*
X150880000Y-152195000D01*
X150880000Y-149545000D02*
X150880000Y-152195000D01*
%TO.C,J36*%
X192120000Y-146795000D02*
X193500000Y-146795000D01*
X192120000Y-148175000D02*
X192120000Y-146795000D01*
X192120000Y-149445000D02*
X192120000Y-152095000D01*
X192120000Y-149445000D02*
X194880000Y-149445000D01*
X192120000Y-152095000D02*
X194880000Y-152095000D01*
X194880000Y-149445000D02*
X194880000Y-152095000D01*
%TO.C,J18*%
X148120000Y-130355000D02*
X149500000Y-130355000D01*
X148120000Y-131735000D02*
X148120000Y-130355000D01*
X148120000Y-133005000D02*
X148120000Y-135655000D01*
X148120000Y-133005000D02*
X150880000Y-133005000D01*
X148120000Y-135655000D02*
X150880000Y-135655000D01*
X150880000Y-133005000D02*
X150880000Y-135655000D01*
%TO.C,D2*%
X209560000Y-80920000D02*
X209560000Y-80601000D01*
X209560000Y-83399000D02*
X209560000Y-83080000D01*
X205256409Y-80920000D02*
G75*
G02*
X209560000Y-80601251I2243591J-1080000D01*
G01*
X205816670Y-80920000D02*
G75*
G02*
X209183330Y-80920000I1683330J-1080000D01*
G01*
X209183330Y-83080000D02*
G75*
G02*
X205816670Y-83080000I-1683330J1080000D01*
G01*
X209560000Y-83398749D02*
G75*
G02*
X205256409Y-83080000I-2060000J1398749D01*
G01*
%TO.C,J15*%
X143120000Y-130355000D02*
X144500000Y-130355000D01*
X143120000Y-131735000D02*
X143120000Y-130355000D01*
X143120000Y-133005000D02*
X143120000Y-135655000D01*
X143120000Y-133005000D02*
X145880000Y-133005000D01*
X143120000Y-135655000D02*
X145880000Y-135655000D01*
X145880000Y-133005000D02*
X145880000Y-135655000D01*
%TO.C,J21*%
X160620000Y-146895000D02*
X162000000Y-146895000D01*
X160620000Y-148275000D02*
X160620000Y-146895000D01*
X160620000Y-149545000D02*
X160620000Y-152195000D01*
X160620000Y-149545000D02*
X163380000Y-149545000D01*
X160620000Y-152195000D02*
X163380000Y-152195000D01*
X163380000Y-149545000D02*
X163380000Y-152195000D01*
%TO.C,J16*%
X143120000Y-138620000D02*
X144500000Y-138620000D01*
X143120000Y-140000000D02*
X143120000Y-138620000D01*
X143120000Y-141270000D02*
X143120000Y-143920000D01*
X143120000Y-141270000D02*
X145880000Y-141270000D01*
X143120000Y-143920000D02*
X145880000Y-143920000D01*
X145880000Y-141270000D02*
X145880000Y-143920000D01*
%TO.C,R1*%
X180840000Y-92500000D02*
X181530000Y-92500000D01*
X191460000Y-92500000D02*
X190770000Y-92500000D01*
X190770000Y-94220000D02*
X181530000Y-94220000D01*
X181530000Y-90780000D01*
X190770000Y-90780000D01*
X190770000Y-94220000D01*
%TO.C,J1*%
X122620000Y-96620000D02*
X124000000Y-96620000D01*
X122620000Y-98000000D02*
X122620000Y-96620000D01*
X122620000Y-99270000D02*
X122620000Y-99380000D01*
X122620000Y-99270000D02*
X125380000Y-99270000D01*
X122620000Y-99380000D02*
X125380000Y-99380000D01*
X125380000Y-99270000D02*
X125380000Y-99380000D01*
%TO.C,J29*%
X170620000Y-130370000D02*
X172000000Y-130370000D01*
X170620000Y-131750000D02*
X170620000Y-130370000D01*
X170620000Y-133020000D02*
X170620000Y-135670000D01*
X170620000Y-133020000D02*
X173380000Y-133020000D01*
X170620000Y-135670000D02*
X173380000Y-135670000D01*
X173380000Y-133020000D02*
X173380000Y-135670000D01*
%TO.C,J38*%
X121620000Y-146845000D02*
X123000000Y-146845000D01*
X121620000Y-148225000D02*
X121620000Y-146845000D01*
X121620000Y-149495000D02*
X121620000Y-152145000D01*
X121620000Y-149495000D02*
X124380000Y-149495000D01*
X121620000Y-152145000D02*
X124380000Y-152145000D01*
X124380000Y-149495000D02*
X124380000Y-152145000D01*
%TO.C,J31*%
X183620000Y-138620000D02*
X185000000Y-138620000D01*
X183620000Y-140000000D02*
X183620000Y-138620000D01*
X183620000Y-141270000D02*
X183620000Y-143920000D01*
X183620000Y-141270000D02*
X186380000Y-141270000D01*
X183620000Y-143920000D02*
X186380000Y-143920000D01*
X186380000Y-141270000D02*
X186380000Y-143920000D01*
%TO.C,J4*%
X197620000Y-96620000D02*
X199000000Y-96620000D01*
X197620000Y-98000000D02*
X197620000Y-96620000D01*
X197620000Y-99270000D02*
X197620000Y-99380000D01*
X197620000Y-99270000D02*
X200380000Y-99270000D01*
X197620000Y-99380000D02*
X200380000Y-99380000D01*
X200380000Y-99270000D02*
X200380000Y-99380000D01*
%TO.C,J28*%
X170620000Y-138620000D02*
X172000000Y-138620000D01*
X170620000Y-140000000D02*
X170620000Y-138620000D01*
X170620000Y-141270000D02*
X170620000Y-143920000D01*
X170620000Y-141270000D02*
X173380000Y-141270000D01*
X170620000Y-143920000D02*
X173380000Y-143920000D01*
X173380000Y-141270000D02*
X173380000Y-143920000D01*
%TO.C,D1*%
X198060000Y-131920000D02*
X198060000Y-131601000D01*
X198060000Y-134399000D02*
X198060000Y-134080000D01*
X193756409Y-131920000D02*
G75*
G02*
X198060000Y-131601251I2243591J-1080000D01*
G01*
X194316670Y-131920000D02*
G75*
G02*
X197683330Y-131920000I1683330J-1080000D01*
G01*
X197683330Y-134080000D02*
G75*
G02*
X194316670Y-134080000I-1683330J1080000D01*
G01*
X198060000Y-134398749D02*
G75*
G02*
X193756409Y-134080000I-2060000J1398749D01*
G01*
%TO.C,J12*%
X138120000Y-130355000D02*
X139500000Y-130355000D01*
X138120000Y-131735000D02*
X138120000Y-130355000D01*
X138120000Y-133005000D02*
X138120000Y-135655000D01*
X138120000Y-133005000D02*
X140880000Y-133005000D01*
X138120000Y-135655000D02*
X140880000Y-135655000D01*
X140880000Y-133005000D02*
X140880000Y-135655000D01*
%TO.C,J34*%
X207120000Y-146845000D02*
X208500000Y-146845000D01*
X207120000Y-148225000D02*
X207120000Y-146845000D01*
X207120000Y-149495000D02*
X207120000Y-152145000D01*
X207120000Y-149495000D02*
X209880000Y-149495000D01*
X207120000Y-152145000D02*
X209880000Y-152145000D01*
X209880000Y-149495000D02*
X209880000Y-152145000D01*
%TO.C,J23*%
X160620000Y-130395000D02*
X162000000Y-130395000D01*
X160620000Y-131775000D02*
X160620000Y-130395000D01*
X160620000Y-133045000D02*
X160620000Y-135695000D01*
X160620000Y-133045000D02*
X163380000Y-133045000D01*
X160620000Y-135695000D02*
X163380000Y-135695000D01*
X163380000Y-133045000D02*
X163380000Y-135695000D01*
%TO.C,J22*%
X160620000Y-138620000D02*
X162000000Y-138620000D01*
X160620000Y-140000000D02*
X160620000Y-138620000D01*
X160620000Y-141270000D02*
X160620000Y-143920000D01*
X160620000Y-141270000D02*
X163380000Y-141270000D01*
X160620000Y-143920000D02*
X163380000Y-143920000D01*
X163380000Y-141270000D02*
X163380000Y-143920000D01*
%TO.C,J40*%
X170120000Y-80620000D02*
X171500000Y-80620000D01*
X170120000Y-82000000D02*
X170120000Y-80620000D01*
X170120000Y-83270000D02*
X170120000Y-83380000D01*
X170120000Y-83270000D02*
X172880000Y-83270000D01*
X170120000Y-83380000D02*
X172880000Y-83380000D01*
X172880000Y-83270000D02*
X172880000Y-83380000D01*
%TO.C,J11*%
X133120000Y-146895000D02*
X134500000Y-146895000D01*
X133120000Y-148275000D02*
X133120000Y-146895000D01*
X133120000Y-149545000D02*
X133120000Y-152195000D01*
X133120000Y-149545000D02*
X135880000Y-149545000D01*
X133120000Y-152195000D02*
X135880000Y-152195000D01*
X135880000Y-149545000D02*
X135880000Y-152195000D01*
%TO.C,J27*%
X170620000Y-146845000D02*
X172000000Y-146845000D01*
X170620000Y-148225000D02*
X170620000Y-146845000D01*
X170620000Y-149495000D02*
X170620000Y-152145000D01*
X170620000Y-149495000D02*
X173380000Y-149495000D01*
X170620000Y-152145000D02*
X173380000Y-152145000D01*
X173380000Y-149495000D02*
X173380000Y-152145000D01*
%TO.C,R2*%
X197540000Y-92500000D02*
X198230000Y-92500000D01*
X208160000Y-92500000D02*
X207470000Y-92500000D01*
X198230000Y-90780000D02*
X207470000Y-90780000D01*
X207470000Y-94220000D01*
X198230000Y-94220000D01*
X198230000Y-90780000D01*
%TO.C,SW3*%
D13*
X174000000Y-88500000D02*
X181000000Y-88500000D01*
X181000000Y-75500000D01*
X174000000Y-75500000D01*
X174000000Y-88500000D01*
%TO.C,J5*%
X191500000Y-78000000D02*
X192500000Y-78000000D01*
X191901924Y-75500000D02*
X197098076Y-75500000D01*
X191901924Y-88500000D02*
X197098076Y-88500000D01*
X196500000Y-78000000D02*
X197500000Y-78000000D01*
X197000000Y-77500000D02*
X197000000Y-78500000D01*
X201500000Y-82000000D02*
G75*
G02*
X187500000Y-82000000I-7000000J0D01*
G01*
X187500000Y-82000000D02*
G75*
G02*
X201500000Y-82000000I7000000J0D01*
G01*
D10*
%TO.C,RV1*%
X124500000Y-120000000D02*
X124500000Y-116000000D01*
X124500000Y-120000000D02*
X139500000Y-120000000D01*
X139500000Y-120000000D02*
X139500000Y-116000000D01*
X142500000Y-108500000D02*
G75*
G02*
X121500000Y-108500000I-10500000J0D01*
G01*
X121500000Y-108500000D02*
G75*
G02*
X142500000Y-108500000I10500000J0D01*
G01*
D15*
%TO.C,J8*%
X157120000Y-80620000D02*
X158500000Y-80620000D01*
X157120000Y-82000000D02*
X157120000Y-80620000D01*
X157120000Y-83270000D02*
X157120000Y-83380000D01*
X157120000Y-83270000D02*
X159880000Y-83270000D01*
X157120000Y-83380000D02*
X159880000Y-83380000D01*
X159880000Y-83270000D02*
X159880000Y-83380000D01*
%TO.C,J6*%
X214620000Y-79345000D02*
X216000000Y-79345000D01*
X214620000Y-80725000D02*
X214620000Y-79345000D01*
X214620000Y-81995000D02*
X214620000Y-84645000D01*
X214620000Y-81995000D02*
X217380000Y-81995000D01*
X214620000Y-84645000D02*
X217380000Y-84645000D01*
X217380000Y-81995000D02*
X217380000Y-84645000D01*
%TO.C,J33*%
X202120000Y-146845000D02*
X203500000Y-146845000D01*
X202120000Y-148225000D02*
X202120000Y-146845000D01*
X202120000Y-149495000D02*
X202120000Y-152145000D01*
X202120000Y-149495000D02*
X204880000Y-149495000D01*
X202120000Y-152145000D02*
X204880000Y-152145000D01*
X204880000Y-149495000D02*
X204880000Y-152145000D01*
%TO.C,J2*%
X147620000Y-96620000D02*
X149000000Y-96620000D01*
X147620000Y-98000000D02*
X147620000Y-96620000D01*
X147620000Y-99270000D02*
X147620000Y-99380000D01*
X147620000Y-99270000D02*
X150380000Y-99270000D01*
X147620000Y-99380000D02*
X150380000Y-99380000D01*
X150380000Y-99270000D02*
X150380000Y-99380000D01*
%TO.C,J30*%
X183620000Y-146845000D02*
X185000000Y-146845000D01*
X183620000Y-148225000D02*
X183620000Y-146845000D01*
X183620000Y-149495000D02*
X183620000Y-152145000D01*
X183620000Y-149495000D02*
X186380000Y-149495000D01*
X183620000Y-152145000D02*
X186380000Y-152145000D01*
X186380000Y-149495000D02*
X186380000Y-152145000D01*
D10*
%TO.C,RV2*%
X149500000Y-120000000D02*
X149500000Y-116000000D01*
X149500000Y-120000000D02*
X164500000Y-120000000D01*
X164500000Y-120000000D02*
X164500000Y-116000000D01*
X167500000Y-108500000D02*
G75*
G02*
X146500000Y-108500000I-10500000J0D01*
G01*
X146500000Y-108500000D02*
G75*
G02*
X167500000Y-108500000I10500000J0D01*
G01*
%TO.C,RV4*%
X199500000Y-120000000D02*
X199500000Y-116000000D01*
X199500000Y-120000000D02*
X214500000Y-120000000D01*
X214500000Y-120000000D02*
X214500000Y-116000000D01*
X217500000Y-108500000D02*
G75*
G02*
X196500000Y-108500000I-10500000J0D01*
G01*
X196500000Y-108500000D02*
G75*
G02*
X217500000Y-108500000I10500000J0D01*
G01*
D15*
%TO.C,J9*%
X133120000Y-130355000D02*
X134500000Y-130355000D01*
X133120000Y-131735000D02*
X133120000Y-130355000D01*
X133120000Y-133005000D02*
X133120000Y-135655000D01*
X133120000Y-133005000D02*
X135880000Y-133005000D01*
X133120000Y-135655000D02*
X135880000Y-135655000D01*
X135880000Y-133005000D02*
X135880000Y-135655000D01*
%TO.C,J35*%
X197120000Y-146795000D02*
X198500000Y-146795000D01*
X197120000Y-148175000D02*
X197120000Y-146795000D01*
X197120000Y-149445000D02*
X197120000Y-152095000D01*
X197120000Y-149445000D02*
X199880000Y-149445000D01*
X197120000Y-152095000D02*
X199880000Y-152095000D01*
X199880000Y-149445000D02*
X199880000Y-152095000D01*
%TO.C,SW1*%
D13*
X129000000Y-73500000D02*
X147000000Y-73500000D01*
X147000000Y-90500000D01*
X129000000Y-90500000D01*
X129000000Y-73500000D01*
D15*
%TO.C,J3*%
X172620000Y-96620000D02*
X174000000Y-96620000D01*
X172620000Y-98000000D02*
X172620000Y-96620000D01*
X172620000Y-99270000D02*
X172620000Y-99380000D01*
X172620000Y-99270000D02*
X175380000Y-99270000D01*
X172620000Y-99380000D02*
X175380000Y-99380000D01*
X175380000Y-99270000D02*
X175380000Y-99380000D01*
%TO.C,J17*%
X143120000Y-146895000D02*
X144500000Y-146895000D01*
X143120000Y-148275000D02*
X143120000Y-146895000D01*
X143120000Y-149545000D02*
X143120000Y-152195000D01*
X143120000Y-149545000D02*
X145880000Y-149545000D01*
X143120000Y-152195000D02*
X145880000Y-152195000D01*
X145880000Y-149545000D02*
X145880000Y-152195000D01*
%TO.C,J19*%
X148120000Y-138620000D02*
X149500000Y-138620000D01*
X148120000Y-140000000D02*
X148120000Y-138620000D01*
X148120000Y-141270000D02*
X148120000Y-143920000D01*
X148120000Y-141270000D02*
X150880000Y-141270000D01*
X148120000Y-143920000D02*
X150880000Y-143920000D01*
X150880000Y-141270000D02*
X150880000Y-143920000D01*
%TO.C,J14*%
X138120000Y-146895000D02*
X139500000Y-146895000D01*
X138120000Y-148275000D02*
X138120000Y-146895000D01*
X138120000Y-149545000D02*
X138120000Y-152195000D01*
X138120000Y-149545000D02*
X140880000Y-149545000D01*
X138120000Y-152195000D02*
X140880000Y-152195000D01*
X140880000Y-149545000D02*
X140880000Y-152195000D01*
%TO.C,J26*%
X165620000Y-130345000D02*
X167000000Y-130345000D01*
X165620000Y-131725000D02*
X165620000Y-130345000D01*
X165620000Y-132995000D02*
X165620000Y-135645000D01*
X165620000Y-132995000D02*
X168380000Y-132995000D01*
X165620000Y-135645000D02*
X168380000Y-135645000D01*
X168380000Y-132995000D02*
X168380000Y-135645000D01*
%TO.C,J32*%
X183620000Y-130395000D02*
X185000000Y-130395000D01*
X183620000Y-131775000D02*
X183620000Y-130395000D01*
X183620000Y-133045000D02*
X183620000Y-135695000D01*
X183620000Y-133045000D02*
X186380000Y-133045000D01*
X183620000Y-135695000D02*
X186380000Y-135695000D01*
X186380000Y-133045000D02*
X186380000Y-135695000D01*
%TO.C,SW2*%
D13*
X168500000Y-75500000D02*
X161500000Y-75500000D01*
X161500000Y-88500000D01*
X168500000Y-88500000D01*
X168500000Y-75500000D01*
D15*
%TO.C,J7*%
X121620000Y-79345000D02*
X123000000Y-79345000D01*
X121620000Y-80725000D02*
X121620000Y-79345000D01*
X121620000Y-81995000D02*
X121620000Y-84645000D01*
X121620000Y-81995000D02*
X124380000Y-81995000D01*
X121620000Y-84645000D02*
X124380000Y-84645000D01*
X124380000Y-81995000D02*
X124380000Y-84645000D01*
%TO.C,J10*%
X133120000Y-138620000D02*
X134500000Y-138620000D01*
X133120000Y-140000000D02*
X133120000Y-138620000D01*
X133120000Y-141270000D02*
X133120000Y-143920000D01*
X133120000Y-141270000D02*
X135880000Y-141270000D01*
X133120000Y-143920000D02*
X135880000Y-143920000D01*
X135880000Y-141270000D02*
X135880000Y-143920000D01*
%TO.C,J13*%
X138120000Y-138620000D02*
X139500000Y-138620000D01*
X138120000Y-140000000D02*
X138120000Y-138620000D01*
X138120000Y-141270000D02*
X138120000Y-143920000D01*
X138120000Y-141270000D02*
X140880000Y-141270000D01*
X138120000Y-143920000D02*
X140880000Y-143920000D01*
X140880000Y-141270000D02*
X140880000Y-143920000D01*
%TO.C,J37*%
X149120000Y-80620000D02*
X150500000Y-80620000D01*
X149120000Y-82000000D02*
X149120000Y-80620000D01*
X149120000Y-83270000D02*
X149120000Y-83380000D01*
X149120000Y-83270000D02*
X151880000Y-83270000D01*
X149120000Y-83380000D02*
X151880000Y-83380000D01*
X151880000Y-83270000D02*
X151880000Y-83380000D01*
D10*
%TO.C,RV3*%
X174500000Y-120000000D02*
X174500000Y-116000000D01*
X174500000Y-120000000D02*
X189500000Y-120000000D01*
X189500000Y-120000000D02*
X189500000Y-116000000D01*
X192500000Y-108500000D02*
G75*
G02*
X171500000Y-108500000I-10500000J0D01*
G01*
X171500000Y-108500000D02*
G75*
G02*
X192500000Y-108500000I10500000J0D01*
G01*
D15*
%TO.C,J39*%
X214620000Y-146935000D02*
X216000000Y-146935000D01*
X214620000Y-148315000D02*
X214620000Y-146935000D01*
X214620000Y-149585000D02*
X214620000Y-152235000D01*
X214620000Y-149585000D02*
X217380000Y-149585000D01*
X214620000Y-152235000D02*
X217380000Y-152235000D01*
X217380000Y-149585000D02*
X217380000Y-152235000D01*
%TD*%
M02*
