%TF.GenerationSoftware,KiCad,Pcbnew,9.0.8-9.0.8~ubuntu24.04.1*%
%TF.CreationDate,2026-04-18T20:03:39+02:00*%
%TF.ProjectId,pedal_proto_pcb,70656461-6c5f-4707-926f-746f5f706362,rev?*%
%TF.SameCoordinates,Original*%
%TF.FileFunction,Drillmap*%
%TF.FilePolarity,Positive*%
%FSLAX45Y45*%
G04 Gerber Fmt 4.5, Leading zero omitted, Abs format (unit mm)*
G04 Created by KiCad (PCBNEW 9.0.8-9.0.8~ubuntu24.04.1) date 2026-04-18 20:03:39*
%MOMM*%
%LPD*%
G01*
G04 APERTURE LIST*
%ADD10C,0.050000*%
%ADD11C,0.200000*%
G04 APERTURE END LIST*
D10*
X21750000Y-7150000D02*
G75*
G02*
X21950000Y-7350000I0J-200000D01*
G01*
X21950000Y-15450000D02*
G75*
G02*
X21750000Y-15650000I-200000J0D01*
G01*
X11950000Y-7350000D02*
G75*
G02*
X12150000Y-7150000I200000J0D01*
G01*
X12150000Y-15650000D02*
G75*
G02*
X11950000Y-15450000I0J200000D01*
G01*
X12150000Y-7150000D02*
X21750000Y-7150000D01*
X21950000Y-7350000D02*
X21950000Y-15450000D01*
X21750000Y-15650000D02*
X12150000Y-15650000D01*
X11950000Y-15450000D02*
X11950000Y-7350000D01*
X14150000Y-10850000D02*
G75*
G02*
X12250000Y-10850000I-950000J0D01*
G01*
X12250000Y-10850000D02*
G75*
G02*
X14150000Y-10850000I950000J0D01*
G01*
X16650000Y-10850000D02*
G75*
G02*
X14750000Y-10850000I-950000J0D01*
G01*
X14750000Y-10850000D02*
G75*
G02*
X16650000Y-10850000I950000J0D01*
G01*
X21650000Y-10850000D02*
G75*
G02*
X19750000Y-10850000I-950000J0D01*
G01*
X19750000Y-10850000D02*
G75*
G02*
X21650000Y-10850000I950000J0D01*
G01*
X19150000Y-10850000D02*
G75*
G02*
X17250000Y-10850000I-950000J0D01*
G01*
X17250000Y-10850000D02*
G75*
G02*
X19150000Y-10850000I950000J0D01*
G01*
D11*
X12208277Y-15963984D02*
X12208277Y-15763984D01*
X12208277Y-15763984D02*
X12255896Y-15763984D01*
X12255896Y-15763984D02*
X12284467Y-15773508D01*
X12284467Y-15773508D02*
X12303515Y-15792555D01*
X12303515Y-15792555D02*
X12313039Y-15811603D01*
X12313039Y-15811603D02*
X12322562Y-15849698D01*
X12322562Y-15849698D02*
X12322562Y-15878269D01*
X12322562Y-15878269D02*
X12313039Y-15916365D01*
X12313039Y-15916365D02*
X12303515Y-15935412D01*
X12303515Y-15935412D02*
X12284467Y-15954460D01*
X12284467Y-15954460D02*
X12255896Y-15963984D01*
X12255896Y-15963984D02*
X12208277Y-15963984D01*
X12408277Y-15963984D02*
X12408277Y-15830650D01*
X12408277Y-15868746D02*
X12417801Y-15849698D01*
X12417801Y-15849698D02*
X12427324Y-15840174D01*
X12427324Y-15840174D02*
X12446372Y-15830650D01*
X12446372Y-15830650D02*
X12465420Y-15830650D01*
X12532086Y-15963984D02*
X12532086Y-15830650D01*
X12532086Y-15763984D02*
X12522562Y-15773508D01*
X12522562Y-15773508D02*
X12532086Y-15783031D01*
X12532086Y-15783031D02*
X12541610Y-15773508D01*
X12541610Y-15773508D02*
X12532086Y-15763984D01*
X12532086Y-15763984D02*
X12532086Y-15783031D01*
X12655896Y-15963984D02*
X12636848Y-15954460D01*
X12636848Y-15954460D02*
X12627324Y-15935412D01*
X12627324Y-15935412D02*
X12627324Y-15763984D01*
X12760658Y-15963984D02*
X12741610Y-15954460D01*
X12741610Y-15954460D02*
X12732086Y-15935412D01*
X12732086Y-15935412D02*
X12732086Y-15763984D01*
X12989229Y-15963984D02*
X12989229Y-15763984D01*
X12989229Y-15763984D02*
X13055896Y-15906841D01*
X13055896Y-15906841D02*
X13122562Y-15763984D01*
X13122562Y-15763984D02*
X13122562Y-15963984D01*
X13303515Y-15963984D02*
X13303515Y-15859222D01*
X13303515Y-15859222D02*
X13293991Y-15840174D01*
X13293991Y-15840174D02*
X13274943Y-15830650D01*
X13274943Y-15830650D02*
X13236848Y-15830650D01*
X13236848Y-15830650D02*
X13217801Y-15840174D01*
X13303515Y-15954460D02*
X13284467Y-15963984D01*
X13284467Y-15963984D02*
X13236848Y-15963984D01*
X13236848Y-15963984D02*
X13217801Y-15954460D01*
X13217801Y-15954460D02*
X13208277Y-15935412D01*
X13208277Y-15935412D02*
X13208277Y-15916365D01*
X13208277Y-15916365D02*
X13217801Y-15897317D01*
X13217801Y-15897317D02*
X13236848Y-15887793D01*
X13236848Y-15887793D02*
X13284467Y-15887793D01*
X13284467Y-15887793D02*
X13303515Y-15878269D01*
X13398753Y-15830650D02*
X13398753Y-16030650D01*
X13398753Y-15840174D02*
X13417801Y-15830650D01*
X13417801Y-15830650D02*
X13455896Y-15830650D01*
X13455896Y-15830650D02*
X13474943Y-15840174D01*
X13474943Y-15840174D02*
X13484467Y-15849698D01*
X13484467Y-15849698D02*
X13493991Y-15868746D01*
X13493991Y-15868746D02*
X13493991Y-15925888D01*
X13493991Y-15925888D02*
X13484467Y-15944936D01*
X13484467Y-15944936D02*
X13474943Y-15954460D01*
X13474943Y-15954460D02*
X13455896Y-15963984D01*
X13455896Y-15963984D02*
X13417801Y-15963984D01*
X13417801Y-15963984D02*
X13398753Y-15954460D01*
X13579705Y-15944936D02*
X13589229Y-15954460D01*
X13589229Y-15954460D02*
X13579705Y-15963984D01*
X13579705Y-15963984D02*
X13570182Y-15954460D01*
X13570182Y-15954460D02*
X13579705Y-15944936D01*
X13579705Y-15944936D02*
X13579705Y-15963984D01*
X13579705Y-15840174D02*
X13589229Y-15849698D01*
X13589229Y-15849698D02*
X13579705Y-15859222D01*
X13579705Y-15859222D02*
X13570182Y-15849698D01*
X13570182Y-15849698D02*
X13579705Y-15840174D01*
X13579705Y-15840174D02*
X13579705Y-15859222D01*
M02*
