%TF.GenerationSoftware,KiCad,Pcbnew,9.0.8-9.0.8~ubuntu24.04.1*%
%TF.CreationDate,2026-04-18T20:03:31+02:00*%
%TF.ProjectId,pedal_proto_pcb,70656461-6c5f-4707-926f-746f5f706362,rev?*%
%TF.SameCoordinates,Original*%
%TF.FileFunction,Copper,L1,Top*%
%TF.FilePolarity,Positive*%
%FSLAX46Y46*%
G04 Gerber Fmt 4.6, Leading zero omitted, Abs format (unit mm)*
G04 Created by KiCad (PCBNEW 9.0.8-9.0.8~ubuntu24.04.1) date 2026-04-18 20:03:31*
%MOMM*%
%LPD*%
G01*
G04 APERTURE LIST*
%TA.AperFunction,ComponentPad*%
%ADD10R,1.700000X1.700000*%
%TD*%
%TA.AperFunction,ComponentPad*%
%ADD11C,1.700000*%
%TD*%
%TA.AperFunction,ComponentPad*%
%ADD12R,1.800000X1.800000*%
%TD*%
%TA.AperFunction,ComponentPad*%
%ADD13C,1.800000*%
%TD*%
%TA.AperFunction,ComponentPad*%
%ADD14C,1.600000*%
%TD*%
%TA.AperFunction,ComponentPad*%
%ADD15O,3.380000X1.880000*%
%TD*%
%TA.AperFunction,ComponentPad*%
%ADD16O,1.380000X3.380000*%
%TD*%
%TA.AperFunction,ComponentPad*%
%ADD17O,4.380000X1.880000*%
%TD*%
%TA.AperFunction,ComponentPad*%
%ADD18O,4.380000X2.380000*%
%TD*%
%TA.AperFunction,ViaPad*%
%ADD19C,0.600000*%
%TD*%
%TA.AperFunction,Conductor*%
%ADD20C,0.200000*%
%TD*%
%TA.AperFunction,Conductor*%
%ADD21C,2.000000*%
%TD*%
G04 APERTURE END LIST*
D10*
%TO.P,J25,1,Pin_1*%
%TO.N,Net-(J25-Pin_1)*%
X167000000Y-140000000D03*
D11*
%TO.P,J25,2,Pin_2*%
X167000000Y-142540000D03*
%TD*%
D10*
%TO.P,J24,1,Pin_1*%
%TO.N,Net-(J24-Pin_1)*%
X167000000Y-148225000D03*
D11*
%TO.P,J24,2,Pin_2*%
X167000000Y-150765000D03*
%TD*%
D10*
%TO.P,J20,1,Pin_1*%
%TO.N,Net-(J20-Pin_1)*%
X149500000Y-148275000D03*
D11*
%TO.P,J20,2,Pin_2*%
X149500000Y-150815000D03*
%TD*%
D10*
%TO.P,J36,1,Pin_1*%
%TO.N,Net-(J36-Pin_1)*%
X193500000Y-148175000D03*
D11*
%TO.P,J36,2,Pin_2*%
X193500000Y-150715000D03*
%TD*%
D10*
%TO.P,J18,1,Pin_1*%
%TO.N,Net-(J18-Pin_1)*%
X149500000Y-131735000D03*
D11*
%TO.P,J18,2,Pin_2*%
X149500000Y-134275000D03*
%TD*%
D12*
%TO.P,D2,1,K*%
%TO.N,0*%
X208770000Y-82000000D03*
D13*
%TO.P,D2,2,A*%
%TO.N,Net-(D2-A)*%
X206230000Y-82000000D03*
%TD*%
D10*
%TO.P,J15,1,Pin_1*%
%TO.N,Net-(J15-Pin_1)*%
X144500000Y-131735000D03*
D11*
%TO.P,J15,2,Pin_2*%
X144500000Y-134275000D03*
%TD*%
D10*
%TO.P,J21,1,Pin_1*%
%TO.N,Net-(J21-Pin_1)*%
X162000000Y-148275000D03*
D11*
%TO.P,J21,2,Pin_2*%
X162000000Y-150815000D03*
%TD*%
D10*
%TO.P,J16,1,Pin_1*%
%TO.N,Net-(J16-Pin_1)*%
X144500000Y-140000000D03*
D11*
%TO.P,J16,2,Pin_2*%
X144500000Y-142540000D03*
%TD*%
D14*
%TO.P,R1,1*%
%TO.N,Net-(D2-A)*%
X192500000Y-92500000D03*
%TO.P,R1,2*%
%TO.N,Net-(J34-Pin_1)*%
X179800000Y-92500000D03*
%TD*%
D10*
%TO.P,J1,1,Pin_1*%
%TO.N,0*%
X124000000Y-98000000D03*
%TD*%
%TO.P,J29,1,Pin_1*%
%TO.N,Net-(J29-Pin_1)*%
X172000000Y-131750000D03*
D11*
%TO.P,J29,2,Pin_2*%
X172000000Y-134290000D03*
%TD*%
D10*
%TO.P,J38,1,Pin_1*%
%TO.N,Net-(J38-Pin_1)*%
X123000000Y-148225000D03*
D11*
%TO.P,J38,2,Pin_2*%
X123000000Y-150765000D03*
%TD*%
D10*
%TO.P,J31,1,Pin_1*%
%TO.N,Net-(J31-Pin_1)*%
X185000000Y-140000000D03*
D11*
%TO.P,J31,2,Pin_2*%
X185000000Y-142540000D03*
%TD*%
D10*
%TO.P,J4,1,Pin_1*%
%TO.N,0*%
X199000000Y-98000000D03*
%TD*%
%TO.P,J28,1,Pin_1*%
%TO.N,Net-(J28-Pin_1)*%
X172000000Y-140000000D03*
D11*
%TO.P,J28,2,Pin_2*%
X172000000Y-142540000D03*
%TD*%
D12*
%TO.P,D1,1,K*%
%TO.N,Net-(D1-K)*%
X197270000Y-133000000D03*
D13*
%TO.P,D1,2,A*%
%TO.N,Net-(D1-A)*%
X194730000Y-133000000D03*
%TD*%
D10*
%TO.P,J12,1,Pin_1*%
%TO.N,Net-(J12-Pin_1)*%
X139500000Y-131735000D03*
D11*
%TO.P,J12,2,Pin_2*%
X139500000Y-134275000D03*
%TD*%
D10*
%TO.P,J34,1,Pin_1*%
%TO.N,Net-(J34-Pin_1)*%
X208500000Y-148225000D03*
D11*
%TO.P,J34,2,Pin_2*%
X208500000Y-150765000D03*
%TD*%
D10*
%TO.P,J23,1,Pin_1*%
%TO.N,Net-(J23-Pin_1)*%
X162000000Y-131775000D03*
D11*
%TO.P,J23,2,Pin_2*%
X162000000Y-134315000D03*
%TD*%
D10*
%TO.P,J22,1,Pin_1*%
%TO.N,Net-(J22-Pin_1)*%
X162000000Y-140000000D03*
D11*
%TO.P,J22,2,Pin_2*%
X162000000Y-142540000D03*
%TD*%
D10*
%TO.P,J40,1,Pin_1*%
%TO.N,0*%
X171500000Y-82000000D03*
%TD*%
%TO.P,J11,1,Pin_1*%
%TO.N,Net-(J11-Pin_1)*%
X134500000Y-148275000D03*
D11*
%TO.P,J11,2,Pin_2*%
X134500000Y-150815000D03*
%TD*%
D10*
%TO.P,J27,1,Pin_1*%
%TO.N,Net-(J27-Pin_1)*%
X172000000Y-148225000D03*
D11*
%TO.P,J27,2,Pin_2*%
X172000000Y-150765000D03*
%TD*%
D14*
%TO.P,R2,1*%
%TO.N,Net-(J36-Pin_1)*%
X196500000Y-92500000D03*
%TO.P,R2,2*%
%TO.N,Net-(D1-A)*%
X209200000Y-92500000D03*
%TD*%
D15*
%TO.P,SW3,1,A*%
%TO.N,Net-(J34-Pin_1)*%
X177500000Y-86650000D03*
%TO.P,SW3,2,B*%
%TO.N,Net-(SW3-B)*%
X177500000Y-82000000D03*
%TO.P,SW3,3,C*%
%TO.N,unconnected-(SW3-C-Pad3)*%
X177500000Y-77350000D03*
%TD*%
D16*
%TO.P,J5,1*%
%TO.N,Net-(SW3-B)*%
X192000000Y-82000000D03*
%TO.P,J5,2*%
%TO.N,0*%
X197000000Y-82000000D03*
%TD*%
D17*
%TO.P,RV1,1,1*%
%TO.N,Net-(J11-Pin_1)*%
X137200000Y-121500000D03*
%TO.P,RV1,2,2*%
%TO.N,Net-(J10-Pin_1)*%
X132000000Y-121500000D03*
%TO.P,RV1,3,3*%
%TO.N,Net-(J9-Pin_1)*%
X126800000Y-121500000D03*
%TD*%
D10*
%TO.P,J8,1,Pin_1*%
%TO.N,0*%
X158500000Y-82000000D03*
%TD*%
%TO.P,J6,1*%
%TO.N,0*%
X216000000Y-80725000D03*
D11*
%TO.P,J6,2*%
%TO.N,Net-(J39-Pin_1)*%
X216000000Y-83265000D03*
%TD*%
D10*
%TO.P,J33,1,Pin_1*%
%TO.N,0*%
X203500000Y-148225000D03*
D11*
%TO.P,J33,2,Pin_2*%
X203500000Y-150765000D03*
%TD*%
D10*
%TO.P,J2,1,Pin_1*%
%TO.N,0*%
X149000000Y-98000000D03*
%TD*%
%TO.P,J30,1,Pin_1*%
%TO.N,Net-(J30-Pin_1)*%
X185000000Y-148225000D03*
D11*
%TO.P,J30,2,Pin_2*%
X185000000Y-150765000D03*
%TD*%
D17*
%TO.P,RV2,1,1*%
%TO.N,Net-(J14-Pin_1)*%
X162200000Y-121500000D03*
%TO.P,RV2,2,2*%
%TO.N,Net-(J13-Pin_1)*%
X157000000Y-121500000D03*
%TO.P,RV2,3,3*%
%TO.N,Net-(J12-Pin_1)*%
X151800000Y-121500000D03*
%TD*%
%TO.P,RV4,1,1*%
%TO.N,Net-(J20-Pin_1)*%
X212200000Y-121500000D03*
%TO.P,RV4,2,2*%
%TO.N,Net-(J19-Pin_1)*%
X207000000Y-121500000D03*
%TO.P,RV4,3,3*%
%TO.N,Net-(J18-Pin_1)*%
X201800000Y-121500000D03*
%TD*%
D10*
%TO.P,J9,1,Pin_1*%
%TO.N,Net-(J9-Pin_1)*%
X134500000Y-131735000D03*
D11*
%TO.P,J9,2,Pin_2*%
X134500000Y-134275000D03*
%TD*%
D10*
%TO.P,J35,1,Pin_1*%
%TO.N,Net-(D1-K)*%
X198500000Y-148175000D03*
D11*
%TO.P,J35,2,Pin_2*%
X198500000Y-150715000D03*
%TD*%
D18*
%TO.P,SW1,1,A1*%
%TO.N,Net-(J21-Pin_1)*%
X133000000Y-77500000D03*
%TO.P,SW1,2,A2*%
%TO.N,Net-(J22-Pin_1)*%
X133000000Y-82000000D03*
%TO.P,SW1,3,A3*%
%TO.N,Net-(J23-Pin_1)*%
X133000000Y-86500000D03*
%TO.P,SW1,4,B1*%
%TO.N,Net-(J24-Pin_1)*%
X138000000Y-77500000D03*
%TO.P,SW1,5,B2*%
%TO.N,Net-(J25-Pin_1)*%
X138000000Y-82000000D03*
%TO.P,SW1,6,B3*%
%TO.N,Net-(J26-Pin_1)*%
X138000000Y-86500000D03*
%TO.P,SW1,7,C1*%
%TO.N,Net-(J27-Pin_1)*%
X143000000Y-77500000D03*
%TO.P,SW1,8,C2*%
%TO.N,Net-(J28-Pin_1)*%
X143000000Y-82000000D03*
%TO.P,SW1,9,C3*%
%TO.N,Net-(J29-Pin_1)*%
X143000000Y-86500000D03*
%TD*%
D10*
%TO.P,J3,1,Pin_1*%
%TO.N,0*%
X174000000Y-98000000D03*
%TD*%
%TO.P,J17,1,Pin_1*%
%TO.N,Net-(J17-Pin_1)*%
X144500000Y-148275000D03*
D11*
%TO.P,J17,2,Pin_2*%
X144500000Y-150815000D03*
%TD*%
D10*
%TO.P,J19,1,Pin_1*%
%TO.N,Net-(J19-Pin_1)*%
X149500000Y-140000000D03*
D11*
%TO.P,J19,2,Pin_2*%
X149500000Y-142540000D03*
%TD*%
D10*
%TO.P,J14,1,Pin_1*%
%TO.N,Net-(J14-Pin_1)*%
X139500000Y-148275000D03*
D11*
%TO.P,J14,2,Pin_2*%
X139500000Y-150815000D03*
%TD*%
D10*
%TO.P,J26,1,Pin_1*%
%TO.N,Net-(J26-Pin_1)*%
X167000000Y-131725000D03*
D11*
%TO.P,J26,2,Pin_2*%
X167000000Y-134265000D03*
%TD*%
D10*
%TO.P,J32,1,Pin_1*%
%TO.N,Net-(J32-Pin_1)*%
X185000000Y-131775000D03*
D11*
%TO.P,J32,2,Pin_2*%
X185000000Y-134315000D03*
%TD*%
D15*
%TO.P,SW2,1,A*%
%TO.N,Net-(J30-Pin_1)*%
X165000000Y-77350000D03*
%TO.P,SW2,2,B*%
%TO.N,Net-(J31-Pin_1)*%
X165000000Y-82000000D03*
%TO.P,SW2,3,C*%
%TO.N,Net-(J32-Pin_1)*%
X165000000Y-86650000D03*
%TD*%
D10*
%TO.P,J7,1*%
%TO.N,0*%
X123000000Y-80725000D03*
D11*
%TO.P,J7,2*%
%TO.N,Net-(J38-Pin_1)*%
X123000000Y-83265000D03*
%TD*%
D10*
%TO.P,J10,1,Pin_1*%
%TO.N,Net-(J10-Pin_1)*%
X134500000Y-140000000D03*
D11*
%TO.P,J10,2,Pin_2*%
X134500000Y-142540000D03*
%TD*%
D10*
%TO.P,J13,1,Pin_1*%
%TO.N,Net-(J13-Pin_1)*%
X139500000Y-140000000D03*
D11*
%TO.P,J13,2,Pin_2*%
X139500000Y-142540000D03*
%TD*%
D10*
%TO.P,J37,1,Pin_1*%
%TO.N,0*%
X150500000Y-82000000D03*
%TD*%
D17*
%TO.P,RV3,1,1*%
%TO.N,Net-(J17-Pin_1)*%
X187200000Y-121500000D03*
%TO.P,RV3,2,2*%
%TO.N,Net-(J16-Pin_1)*%
X182000000Y-121500000D03*
%TO.P,RV3,3,3*%
%TO.N,Net-(J15-Pin_1)*%
X176800000Y-121500000D03*
%TD*%
D10*
%TO.P,J39,1,Pin_1*%
%TO.N,Net-(J39-Pin_1)*%
X216000000Y-148315000D03*
D11*
%TO.P,J39,2,Pin_2*%
X216000000Y-150855000D03*
%TD*%
D19*
%TO.N,Net-(D1-A)*%
X194000000Y-124142895D03*
X194000000Y-126577208D03*
%TO.N,Net-(J36-Pin_1)*%
X193000000Y-124142895D03*
X193000000Y-126577208D03*
%TO.N,Net-(J20-Pin_1)*%
X165219937Y-128304144D03*
X173000000Y-128237530D03*
X157716509Y-130716188D03*
X175522792Y-125977208D03*
%TO.N,Net-(J19-Pin_1)*%
X174888477Y-125342895D03*
X164552672Y-127704144D03*
X157150403Y-130150920D03*
X172565687Y-127565687D03*
%TO.N,Net-(J18-Pin_1)*%
X174288478Y-124742895D03*
X172000000Y-127000000D03*
X164000000Y-127125735D03*
X156585688Y-129584263D03*
%TO.N,Net-(J17-Pin_1)*%
X163374262Y-126525735D03*
X156015276Y-129023341D03*
X173688478Y-124142896D03*
X171391423Y-126371325D03*
%TO.N,Net-(J16-Pin_1)*%
X173088479Y-123542896D03*
X162774263Y-125925735D03*
X155577178Y-128353958D03*
X170825736Y-125805638D03*
%TO.N,Net-(J15-Pin_1)*%
X170260049Y-125239951D03*
X172522792Y-122977208D03*
X162174265Y-125325735D03*
X155000000Y-127800000D03*
%TO.N,Net-(J14-Pin_1)*%
X146532847Y-126229902D03*
X148838482Y-123924266D03*
%TO.N,Net-(J13-Pin_1)*%
X145967159Y-125664215D03*
X148272795Y-123358579D03*
%TO.N,Net-(J12-Pin_1)*%
X145401472Y-125098528D03*
X147707108Y-122792892D03*
%TO.N,Net-(J24-Pin_1)*%
X135500000Y-83500000D03*
X135500000Y-88500000D03*
%TD*%
D20*
%TO.N,Net-(J34-Pin_1)*%
X179800000Y-92500000D02*
X179800000Y-93300000D01*
X215600000Y-92600000D02*
X215600000Y-101100001D01*
X179800000Y-93300000D02*
X181500000Y-95000000D01*
X213000000Y-90000000D02*
X215600000Y-92600000D01*
X218000000Y-103500001D02*
X218000000Y-138725000D01*
X218000000Y-138725000D02*
X208500000Y-148225000D01*
X181500000Y-95000000D02*
X192500000Y-95000000D01*
X192500000Y-95000000D02*
X194500000Y-93000000D01*
X215600000Y-101100001D02*
X218000000Y-103500001D01*
X194500000Y-93000000D02*
X194500000Y-91500000D01*
X196000000Y-90000000D02*
X213000000Y-90000000D01*
X194500000Y-91500000D02*
X196000000Y-90000000D01*
%TO.N,Net-(D1-A)*%
X193800003Y-124142895D02*
X194000000Y-123942898D01*
X194000000Y-123942898D02*
X194000000Y-97500000D01*
X194000000Y-97500000D02*
X199000000Y-92500000D01*
X199000000Y-92500000D02*
X209200000Y-92500000D01*
X194730000Y-133000000D02*
X194730000Y-127507205D01*
X194730000Y-127507205D02*
X193800003Y-126577208D01*
%TO.N,Net-(J36-Pin_1)*%
X193500000Y-148175000D02*
X193000000Y-147675000D01*
X193000000Y-147675000D02*
X193000000Y-126577208D01*
X193000000Y-124142895D02*
X193000000Y-96065685D01*
X193000000Y-96065685D02*
X196500000Y-92565685D01*
X196500000Y-92565685D02*
X196500000Y-92500000D01*
%TO.N,Net-(D1-A)*%
X194730000Y-133000000D02*
X194500000Y-132770000D01*
%TO.N,Net-(D2-A)*%
X192500000Y-92500000D02*
X203000000Y-82000000D01*
X203000000Y-82000000D02*
X206230000Y-82000000D01*
%TO.N,Net-(J34-Pin_1)*%
X177500000Y-86650000D02*
X177500000Y-90200000D01*
X177500000Y-90200000D02*
X179800000Y-92500000D01*
%TO.N,Net-(D1-K)*%
X197270000Y-133000000D02*
X198500000Y-134230000D01*
X198500000Y-134230000D02*
X198500000Y-148175000D01*
%TO.N,Net-(SW3-B)*%
X177500000Y-82000000D02*
X192000000Y-82000000D01*
%TO.N,Net-(J21-Pin_1)*%
X133000000Y-77500000D02*
X129500000Y-81000000D01*
X129500000Y-81000000D02*
X129500000Y-88500000D01*
X129500000Y-88500000D02*
X143500000Y-102500000D01*
X143500000Y-102500000D02*
X143500000Y-122348526D01*
X143500000Y-122348526D02*
X148351474Y-127200000D01*
X148351474Y-127200000D02*
X159500000Y-127200000D01*
X159500000Y-127200000D02*
X159500000Y-146825000D01*
X159500000Y-146825000D02*
X160950000Y-148275000D01*
X160950000Y-148275000D02*
X162000000Y-148275000D01*
%TO.N,Net-(J22-Pin_1)*%
X133000000Y-82000000D02*
X130000000Y-85000000D01*
X160000000Y-138000000D02*
X162000000Y-140000000D01*
X130000000Y-85000000D02*
X130000000Y-88434315D01*
X130000000Y-88434315D02*
X144000000Y-102434315D01*
X144000000Y-102434315D02*
X144000000Y-122282841D01*
X144000000Y-122282841D02*
X148517159Y-126800000D01*
X148517159Y-126800000D02*
X160000000Y-126800000D01*
X160000000Y-126800000D02*
X160000000Y-138000000D01*
%TO.N,Net-(J23-Pin_1)*%
X133000000Y-86500000D02*
X133000000Y-90868628D01*
X144500000Y-102368628D02*
X144500000Y-122217156D01*
X133000000Y-90868628D02*
X144500000Y-102368628D01*
X144500000Y-122217156D02*
X148682844Y-126400000D01*
X148682844Y-126400000D02*
X160702942Y-126400000D01*
X160702942Y-126400000D02*
X162000000Y-127697058D01*
X162000000Y-127697058D02*
X162000000Y-131775000D01*
%TO.N,Net-(J24-Pin_1)*%
X135500000Y-88500000D02*
X145000000Y-98000000D01*
X145000000Y-98000000D02*
X145000000Y-122065686D01*
X145000000Y-122065686D02*
X148934314Y-126000000D01*
X148934314Y-126000000D02*
X160868628Y-126000000D01*
X160868628Y-126000000D02*
X164500000Y-129631372D01*
X164500000Y-129631372D02*
X164500000Y-145725000D01*
X164500000Y-145725000D02*
X167000000Y-148225000D01*
%TO.N,Net-(J32-Pin_1)*%
X165000000Y-86650000D02*
X165000000Y-97802946D01*
X170500000Y-103302946D02*
X170500000Y-121802946D01*
X165000000Y-97802946D02*
X170500000Y-103302946D01*
X170500000Y-121802946D02*
X175600000Y-126902946D01*
X175600000Y-126902946D02*
X175600000Y-130600000D01*
X175600000Y-130600000D02*
X176775000Y-131775000D01*
X176775000Y-131775000D02*
X185000000Y-131775000D01*
%TO.N,Net-(J31-Pin_1)*%
X165000000Y-82000000D02*
X162500000Y-84500000D01*
X175200000Y-127068631D02*
X175200000Y-137700000D01*
X162500000Y-84500000D02*
X162500000Y-89000000D01*
X162500000Y-89000000D02*
X162400000Y-89100000D01*
X170000000Y-121868631D02*
X175200000Y-127068631D01*
X175200000Y-137700000D02*
X177400000Y-139900000D01*
X162400000Y-89100000D02*
X162400000Y-95768630D01*
X162400000Y-95768630D02*
X170000000Y-103368630D01*
X170000000Y-103368630D02*
X170000000Y-121868631D01*
X177400000Y-139900000D02*
X177400000Y-140000000D01*
X177400000Y-140000000D02*
X185000000Y-140000000D01*
%TO.N,Net-(J30-Pin_1)*%
X165000000Y-77350000D02*
X162000000Y-80350000D01*
X162000000Y-80350000D02*
X162000000Y-95934316D01*
X162000000Y-95934316D02*
X169500000Y-103434316D01*
X169500000Y-121934316D02*
X174800000Y-127234316D01*
X169500000Y-103434316D02*
X169500000Y-121934316D01*
X174800000Y-127234316D02*
X174800000Y-138025000D01*
X174800000Y-138025000D02*
X185000000Y-148225000D01*
%TO.N,Net-(J27-Pin_1)*%
X143000000Y-77500000D02*
X169000000Y-103500000D01*
X169000000Y-103500000D02*
X169000000Y-122000001D01*
X169000000Y-122000001D02*
X174400000Y-127400001D01*
X174400000Y-127400001D02*
X174400000Y-145825000D01*
X174400000Y-145825000D02*
X172000000Y-148225000D01*
%TO.N,Net-(J29-Pin_1)*%
X143000000Y-86500000D02*
X150868628Y-86500000D01*
X150868628Y-86500000D02*
X168200000Y-103831372D01*
X168200000Y-103831372D02*
X168200000Y-122331373D01*
X168200000Y-122331373D02*
X173600000Y-127731372D01*
X173600000Y-127731372D02*
X173600000Y-130150000D01*
X173600000Y-130150000D02*
X172000000Y-131750000D01*
%TO.N,Net-(J28-Pin_1)*%
X143000000Y-82000000D02*
X146934314Y-82000000D01*
X146934314Y-82000000D02*
X168600000Y-103665686D01*
X174000000Y-127565686D02*
X174000000Y-138000000D01*
X168600000Y-103665686D02*
X168600000Y-122165687D01*
X168600000Y-122165687D02*
X174000000Y-127565686D01*
X174000000Y-138000000D02*
X172000000Y-140000000D01*
%TO.N,Net-(J20-Pin_1)*%
X153250000Y-130750000D02*
X152000000Y-132000000D01*
X152000000Y-132000000D02*
X152000000Y-145775000D01*
X152000000Y-145775000D02*
X149500000Y-148275000D01*
X165286551Y-128237530D02*
X165219937Y-128304144D01*
X173000000Y-128237530D02*
X165286551Y-128237530D01*
X212200000Y-121500000D02*
X207722792Y-125977208D01*
X207722792Y-125977208D02*
X175522792Y-125977208D01*
%TO.N,Net-(J19-Pin_1)*%
X156834217Y-130184263D02*
X152815737Y-130184263D01*
X152815737Y-130184263D02*
X151500000Y-131500000D01*
X151500000Y-131500000D02*
X151500000Y-138000000D01*
X151500000Y-138000000D02*
X149500000Y-140000000D01*
X207000000Y-121500000D02*
X203157105Y-125342895D01*
X172565687Y-127565687D02*
X172427230Y-127704144D01*
X203157105Y-125342895D02*
X174888477Y-125342895D01*
X172427230Y-127704144D02*
X164552672Y-127704144D01*
%TO.N,Net-(J18-Pin_1)*%
X156585688Y-129584263D02*
X156501425Y-129500000D01*
X156501425Y-129500000D02*
X156387146Y-129500000D01*
X156387146Y-129500000D02*
X156263805Y-129623341D01*
X156263805Y-129623341D02*
X149876659Y-129623341D01*
X149876659Y-129623341D02*
X149500000Y-130000000D01*
X149500000Y-130000000D02*
X149500000Y-131735000D01*
X172000000Y-127000000D02*
X164125735Y-127000000D01*
X198557105Y-124742895D02*
X174288478Y-124742895D01*
X201800000Y-121500000D02*
X198557105Y-124742895D01*
X164125735Y-127000000D02*
X164000000Y-127125735D01*
%TO.N,Net-(J17-Pin_1)*%
X146900000Y-130500000D02*
X146900000Y-145875000D01*
X171391423Y-126371325D02*
X171237013Y-126525735D01*
X171237013Y-126525735D02*
X163374262Y-126525735D01*
X156015276Y-129023341D02*
X148376659Y-129023341D01*
X148376659Y-129023341D02*
X146900000Y-130500000D01*
X184557104Y-124142896D02*
X173688478Y-124142896D01*
X187200000Y-121500000D02*
X184557104Y-124142896D01*
X146900000Y-145875000D02*
X144500000Y-148275000D01*
%TO.N,Net-(J16-Pin_1)*%
X155577178Y-128353958D02*
X155512713Y-128353958D01*
X155512713Y-128353958D02*
X155366671Y-128500000D01*
X155366671Y-128500000D02*
X148300686Y-128500000D01*
X148300686Y-128500000D02*
X146500000Y-130300686D01*
X146500000Y-130300686D02*
X146500000Y-138000000D01*
X146500000Y-138000000D02*
X144500000Y-140000000D01*
X170705639Y-125925735D02*
X162774263Y-125925735D01*
X182000000Y-121500000D02*
X179957104Y-123542896D01*
X170825736Y-125805638D02*
X170705639Y-125925735D01*
X179957104Y-123542896D02*
X173088479Y-123542896D01*
%TO.N,Net-(J15-Pin_1)*%
X176800000Y-121500000D02*
X174000000Y-121500000D01*
X170260049Y-125239951D02*
X170174265Y-125325735D01*
X170174265Y-125325735D02*
X162174265Y-125325735D01*
X174000000Y-121500000D02*
X172522792Y-122977208D01*
%TO.N,Net-(J14-Pin_1)*%
X146532847Y-126229902D02*
X142000000Y-130762749D01*
X142000000Y-130762749D02*
X142000000Y-145775000D01*
X142000000Y-145775000D02*
X139500000Y-148275000D01*
X162200000Y-121500000D02*
X160200000Y-123500000D01*
X160200000Y-123500000D02*
X149262748Y-123500000D01*
X149262748Y-123500000D02*
X148838482Y-123924266D01*
%TO.N,Net-(J13-Pin_1)*%
X155500000Y-123000000D02*
X148631374Y-123000000D01*
X148631374Y-123000000D02*
X148272795Y-123358579D01*
X157000000Y-121500000D02*
X155500000Y-123000000D01*
%TO.N,Net-(J12-Pin_1)*%
X145401472Y-125098528D02*
X139500000Y-131000000D01*
X139500000Y-131000000D02*
X139500000Y-131735000D01*
X151800000Y-121500000D02*
X149000000Y-121500000D01*
X149000000Y-121500000D02*
X147707108Y-122792892D01*
%TO.N,Net-(J39-Pin_1)*%
X216000000Y-83265000D02*
X216000000Y-100934315D01*
X216000000Y-100934315D02*
X218400000Y-103334315D01*
X218400000Y-103334315D02*
X218400000Y-138890686D01*
X218400000Y-138890686D02*
X216000000Y-141290686D01*
X216000000Y-141290686D02*
X216000000Y-148315000D01*
D21*
X216000000Y-148315000D02*
X216000000Y-150855000D01*
D20*
%TO.N,Net-(J26-Pin_1)*%
X138000000Y-86500000D02*
X138000000Y-89868629D01*
X146000000Y-97868629D02*
X146000000Y-121934314D01*
X138000000Y-89868629D02*
X146000000Y-97868629D01*
X149165686Y-125100000D02*
X161100000Y-125100000D01*
X161100000Y-125100000D02*
X167000000Y-131000000D01*
X167000000Y-131000000D02*
X167000000Y-131725000D01*
X146000000Y-121934314D02*
X149165686Y-125100000D01*
%TO.N,Net-(J9-Pin_1)*%
X126800000Y-121500000D02*
X128750000Y-121500000D01*
X128750000Y-121500000D02*
X134500000Y-127250000D01*
X134500000Y-127250000D02*
X134500000Y-131735000D01*
%TO.N,Net-(J24-Pin_1)*%
X135500000Y-80000000D02*
X135500000Y-83500000D01*
X138000000Y-77500000D02*
X135500000Y-80000000D01*
%TO.N,Net-(J10-Pin_1)*%
X132000000Y-121500000D02*
X133500000Y-121500000D01*
X133500000Y-121500000D02*
X136600000Y-124600000D01*
X136600000Y-124600000D02*
X136600000Y-137900000D01*
X136600000Y-137900000D02*
X134500000Y-140000000D01*
%TO.N,Net-(J11-Pin_1)*%
X137200000Y-121500000D02*
X137000000Y-121700000D01*
X137000000Y-121700000D02*
X137000000Y-145775000D01*
X137000000Y-145775000D02*
X134500000Y-148275000D01*
D21*
%TO.N,Net-(D1-K)*%
X198500000Y-148175000D02*
X198500000Y-150715000D01*
%TO.N,0*%
X203500000Y-148225000D02*
X203500000Y-150765000D01*
%TO.N,Net-(J34-Pin_1)*%
X208500000Y-148225000D02*
X208500000Y-150765000D01*
%TO.N,Net-(J14-Pin_1)*%
X139500000Y-148275000D02*
X139500000Y-150815000D01*
%TO.N,Net-(J12-Pin_1)*%
X139500000Y-131735000D02*
X139500000Y-134275000D01*
%TO.N,Net-(J13-Pin_1)*%
X139500000Y-140000000D02*
X139500000Y-142540000D01*
%TO.N,Net-(J15-Pin_1)*%
X144500000Y-131735000D02*
X144500000Y-134275000D01*
%TO.N,Net-(J16-Pin_1)*%
X144500000Y-140000000D02*
X144500000Y-142540000D01*
%TO.N,Net-(J17-Pin_1)*%
X144500000Y-148275000D02*
X144500000Y-150815000D01*
%TO.N,Net-(J20-Pin_1)*%
X149500000Y-148275000D02*
X149500000Y-150815000D01*
%TO.N,Net-(J19-Pin_1)*%
X149500000Y-140000000D02*
X149500000Y-142540000D01*
%TO.N,Net-(J18-Pin_1)*%
X149500000Y-131735000D02*
X149500000Y-134275000D01*
%TO.N,Net-(J23-Pin_1)*%
X162000000Y-131775000D02*
X162000000Y-134315000D01*
%TO.N,Net-(J26-Pin_1)*%
X167000000Y-131725000D02*
X167000000Y-134265000D01*
%TO.N,Net-(J25-Pin_1)*%
X167000000Y-140000000D02*
X167000000Y-142540000D01*
%TO.N,Net-(J24-Pin_1)*%
X167000000Y-148500000D02*
X167000000Y-151040000D01*
%TO.N,Net-(J27-Pin_1)*%
X172000000Y-148500000D02*
X172000000Y-151040000D01*
%TO.N,Net-(J21-Pin_1)*%
X162000000Y-148275000D02*
X162000000Y-150815000D01*
%TO.N,Net-(J29-Pin_1)*%
X172000000Y-131750000D02*
X172000000Y-134290000D01*
%TO.N,Net-(J28-Pin_1)*%
X172000000Y-140000000D02*
X172000000Y-142540000D01*
D20*
%TO.N,Net-(J22-Pin_1)*%
X162000000Y-139500000D02*
X162000000Y-140000000D01*
D21*
X162000000Y-140000000D02*
X162000000Y-142540000D01*
%TO.N,Net-(J32-Pin_1)*%
X185000000Y-131775000D02*
X185000000Y-134315000D01*
%TO.N,Net-(J31-Pin_1)*%
X185000000Y-140000000D02*
X185000000Y-142540000D01*
%TO.N,Net-(J30-Pin_1)*%
X185000000Y-148500000D02*
X185000000Y-151040000D01*
%TO.N,Net-(J38-Pin_1)*%
X123000000Y-148225000D02*
X123000000Y-150765000D01*
D20*
X123000000Y-83265000D02*
X121000000Y-85265000D01*
X121000000Y-85265000D02*
X121000000Y-146225000D01*
X121000000Y-146225000D02*
X123000000Y-148225000D01*
D21*
%TO.N,Net-(J9-Pin_1)*%
X134500000Y-131735000D02*
X134500000Y-134275000D01*
%TO.N,Net-(J10-Pin_1)*%
X134500000Y-140000000D02*
X134500000Y-142540000D01*
%TO.N,Net-(J11-Pin_1)*%
X134500000Y-148275000D02*
X134500000Y-150815000D01*
%TO.N,Net-(J36-Pin_1)*%
X193500000Y-148175000D02*
X193500000Y-150715000D01*
D20*
%TO.N,Net-(J13-Pin_1)*%
X145967159Y-125664215D02*
X141500000Y-130131374D01*
X141500000Y-130131374D02*
X141500000Y-138000000D01*
X141500000Y-138000000D02*
X139500000Y-140000000D01*
%TO.N,Net-(J25-Pin_1)*%
X138000000Y-82000000D02*
X135510000Y-84490000D01*
X135510000Y-84490000D02*
X135510000Y-87510000D01*
X135510000Y-87510000D02*
X136500000Y-88500000D01*
X136500000Y-88500000D02*
X136500000Y-88934314D01*
X136500000Y-88934314D02*
X145500000Y-97934315D01*
X145500000Y-97934315D02*
X145500000Y-122000000D01*
X145500000Y-122000000D02*
X149000001Y-125500000D01*
X160934314Y-125500000D02*
X164900000Y-129465687D01*
X149000001Y-125500000D02*
X160934314Y-125500000D01*
X164900000Y-129465687D02*
X164900000Y-137900000D01*
X164900000Y-137900000D02*
X167000000Y-140000000D01*
%TO.N,Net-(J15-Pin_1)*%
X155000000Y-127800000D02*
X148435000Y-127800000D01*
X148435000Y-127800000D02*
X144500000Y-131735000D01*
%TO.N,Net-(J20-Pin_1)*%
X153250920Y-130750920D02*
X157681777Y-130750920D01*
X157681777Y-130750920D02*
X157716509Y-130716188D01*
%TD*%
M02*
