%TF.GenerationSoftware,KiCad,Pcbnew,9.0.8-9.0.8~ubuntu24.04.1*%
%TF.CreationDate,2026-04-18T20:03:39+02:00*%
%TF.ProjectId,pedal_proto_pcb,70656461-6c5f-4707-926f-746f5f706362,rev?*%
%TF.SameCoordinates,Original*%
%TF.FileFunction,Drillmap*%
%TF.FilePolarity,Positive*%
%FSLAX45Y45*%
G04 Gerber Fmt 4.5, Leading zero omitted, Abs format (unit mm)*
G04 Created by KiCad (PCBNEW 9.0.8-9.0.8~ubuntu24.04.1) date 2026-04-18 20:03:39*
%MOMM*%
%LPD*%
G01*
G04 APERTURE LIST*
%ADD10C,0.050000*%
%ADD11C,0.200000*%
%ADD12C,0.100000*%
%ADD13C,0.150000*%
G04 APERTURE END LIST*
D10*
X21750000Y-7150000D02*
G75*
G02*
X21950000Y-7350000I0J-200000D01*
G01*
X21950000Y-15450000D02*
G75*
G02*
X21750000Y-15650000I-200000J0D01*
G01*
X11950000Y-7350000D02*
G75*
G02*
X12150000Y-7150000I200000J0D01*
G01*
X12150000Y-15650000D02*
G75*
G02*
X11950000Y-15450000I0J200000D01*
G01*
X12150000Y-7150000D02*
X21750000Y-7150000D01*
X21950000Y-7350000D02*
X21950000Y-15450000D01*
X21750000Y-15650000D02*
X12150000Y-15650000D01*
X11950000Y-15450000D02*
X11950000Y-7350000D01*
X14150000Y-10850000D02*
G75*
G02*
X12250000Y-10850000I-950000J0D01*
G01*
X12250000Y-10850000D02*
G75*
G02*
X14150000Y-10850000I950000J0D01*
G01*
X16650000Y-10850000D02*
G75*
G02*
X14750000Y-10850000I-950000J0D01*
G01*
X14750000Y-10850000D02*
G75*
G02*
X16650000Y-10850000I950000J0D01*
G01*
X21650000Y-10850000D02*
G75*
G02*
X19750000Y-10850000I-950000J0D01*
G01*
X19750000Y-10850000D02*
G75*
G02*
X21650000Y-10850000I950000J0D01*
G01*
X19150000Y-10850000D02*
G75*
G02*
X17250000Y-10850000I-950000J0D01*
G01*
X17250000Y-10850000D02*
G75*
G02*
X19150000Y-10850000I950000J0D01*
G01*
D11*
D12*
X13535000Y-8335000D02*
X13565000Y-8365000D01*
X13565000Y-8335000D02*
X13535000Y-8365000D01*
X13535000Y-8835000D02*
X13565000Y-8865000D01*
X13565000Y-8835000D02*
X13535000Y-8865000D01*
X14525147Y-12494853D02*
X14555147Y-12524853D01*
X14555147Y-12494853D02*
X14525147Y-12524853D01*
X14581716Y-12551421D02*
X14611716Y-12581421D01*
X14611716Y-12551421D02*
X14581716Y-12581421D01*
X14638285Y-12607990D02*
X14668285Y-12637990D01*
X14668285Y-12607990D02*
X14638285Y-12637990D01*
X14755711Y-12264289D02*
X14785711Y-12294289D01*
X14785711Y-12264289D02*
X14755711Y-12294289D01*
X14812279Y-12320858D02*
X14842279Y-12350858D01*
X14842279Y-12320858D02*
X14812279Y-12350858D01*
X14868848Y-12377427D02*
X14898848Y-12407427D01*
X14898848Y-12377427D02*
X14868848Y-12407427D01*
X15485000Y-12765000D02*
X15515000Y-12795000D01*
X15515000Y-12765000D02*
X15485000Y-12795000D01*
X15542718Y-12820396D02*
X15572718Y-12850396D01*
X15572718Y-12820396D02*
X15542718Y-12850396D01*
X15586528Y-12887334D02*
X15616528Y-12917334D01*
X15616528Y-12887334D02*
X15586528Y-12917334D01*
X15643569Y-12943426D02*
X15673569Y-12973426D01*
X15673569Y-12943426D02*
X15643569Y-12973426D01*
X15700040Y-13000092D02*
X15730040Y-13030092D01*
X15730040Y-13000092D02*
X15700040Y-13030092D01*
X15756651Y-13056619D02*
X15786651Y-13086619D01*
X15786651Y-13056619D02*
X15756651Y-13086619D01*
X16202426Y-12517573D02*
X16232426Y-12547573D01*
X16232426Y-12517573D02*
X16202426Y-12547573D01*
X16262426Y-12577573D02*
X16292426Y-12607573D01*
X16292426Y-12577573D02*
X16262426Y-12607573D01*
X16322426Y-12637573D02*
X16352426Y-12667573D01*
X16352426Y-12637573D02*
X16322426Y-12667573D01*
X16385000Y-12697573D02*
X16415000Y-12727573D01*
X16415000Y-12697573D02*
X16385000Y-12727573D01*
X16440267Y-12755414D02*
X16470267Y-12785414D01*
X16470267Y-12755414D02*
X16440267Y-12785414D01*
X16506994Y-12815414D02*
X16536994Y-12845414D01*
X16536994Y-12815414D02*
X16506994Y-12845414D01*
X17011005Y-12508995D02*
X17041005Y-12538995D01*
X17041005Y-12508995D02*
X17011005Y-12538995D01*
X17067574Y-12565564D02*
X17097574Y-12595564D01*
X17097574Y-12565564D02*
X17067574Y-12595564D01*
X17124142Y-12622132D02*
X17154142Y-12652132D01*
X17154142Y-12622132D02*
X17124142Y-12652132D01*
X17185000Y-12685000D02*
X17215000Y-12715000D01*
X17215000Y-12685000D02*
X17185000Y-12715000D01*
X17237279Y-12282721D02*
X17267279Y-12312721D01*
X17267279Y-12282721D02*
X17237279Y-12312721D01*
X17241569Y-12741569D02*
X17271569Y-12771569D01*
X17271569Y-12741569D02*
X17241569Y-12771569D01*
X17285000Y-12808753D02*
X17315000Y-12838753D01*
X17315000Y-12808753D02*
X17285000Y-12838753D01*
X17293848Y-12339290D02*
X17323848Y-12369290D01*
X17323848Y-12339290D02*
X17293848Y-12369290D01*
X17353848Y-12399290D02*
X17383848Y-12429290D01*
X17383848Y-12399290D02*
X17353848Y-12429290D01*
X17413848Y-12459289D02*
X17443848Y-12489289D01*
X17443848Y-12459289D02*
X17413848Y-12489289D01*
X17473848Y-12519289D02*
X17503848Y-12549289D01*
X17503848Y-12519289D02*
X17473848Y-12549289D01*
X17537279Y-12582721D02*
X17567279Y-12612721D01*
X17567279Y-12582721D02*
X17537279Y-12612721D01*
X19285000Y-12399289D02*
X19315000Y-12429289D01*
X19315000Y-12399289D02*
X19285000Y-12429289D01*
X19285000Y-12642721D02*
X19315000Y-12672721D01*
X19315000Y-12642721D02*
X19285000Y-12672721D01*
X19385000Y-12399289D02*
X19415000Y-12429289D01*
X19415000Y-12399289D02*
X19385000Y-12429289D01*
X19385000Y-12642721D02*
X19415000Y-12672721D01*
X19415000Y-12642721D02*
X19385000Y-12672721D01*
X18020000Y-9250000D02*
G75*
G02*
X17940000Y-9250000I-40000J0D01*
G01*
X17940000Y-9250000D02*
G75*
G02*
X18020000Y-9250000I40000J0D01*
G01*
X19290000Y-9250000D02*
G75*
G02*
X19210000Y-9250000I-40000J0D01*
G01*
X19210000Y-9250000D02*
G75*
G02*
X19290000Y-9250000I40000J0D01*
G01*
X19690000Y-9250000D02*
G75*
G02*
X19610000Y-9250000I-40000J0D01*
G01*
X19610000Y-9250000D02*
G75*
G02*
X19690000Y-9250000I40000J0D01*
G01*
X20960000Y-9250000D02*
G75*
G02*
X20880000Y-9250000I-40000J0D01*
G01*
X20880000Y-9250000D02*
G75*
G02*
X20960000Y-9250000I40000J0D01*
G01*
X19473000Y-13255000D02*
X19473000Y-13345000D01*
X19428000Y-13300000D02*
X19518000Y-13300000D01*
X19727000Y-13255000D02*
X19727000Y-13345000D01*
X19682000Y-13300000D02*
X19772000Y-13300000D01*
X20623000Y-8155000D02*
X20623000Y-8245000D01*
X20578000Y-8200000D02*
X20668000Y-8200000D01*
X20877000Y-8155000D02*
X20877000Y-8245000D01*
X20832000Y-8200000D02*
X20922000Y-8200000D01*
X12335356Y-8107856D02*
X12335356Y-8037144D01*
X12264644Y-8037144D01*
X12264644Y-8107856D01*
X12335356Y-8107856D01*
X12335356Y-8361856D02*
X12335356Y-8291144D01*
X12264644Y-8291144D01*
X12264644Y-8361856D01*
X12335356Y-8361856D01*
X12335356Y-14857856D02*
X12335356Y-14787144D01*
X12264644Y-14787144D01*
X12264644Y-14857856D01*
X12335356Y-14857856D01*
X12335356Y-15111856D02*
X12335356Y-15041144D01*
X12264644Y-15041144D01*
X12264644Y-15111856D01*
X12335356Y-15111856D01*
X12435356Y-9835356D02*
X12435356Y-9764644D01*
X12364644Y-9764644D01*
X12364644Y-9835356D01*
X12435356Y-9835356D01*
X13485356Y-13208856D02*
X13485356Y-13138144D01*
X13414644Y-13138144D01*
X13414644Y-13208856D01*
X13485356Y-13208856D01*
X13485356Y-13462856D02*
X13485356Y-13392144D01*
X13414644Y-13392144D01*
X13414644Y-13462856D01*
X13485356Y-13462856D01*
X13485356Y-14035356D02*
X13485356Y-13964644D01*
X13414644Y-13964644D01*
X13414644Y-14035356D01*
X13485356Y-14035356D01*
X13485356Y-14289356D02*
X13485356Y-14218644D01*
X13414644Y-14218644D01*
X13414644Y-14289356D01*
X13485356Y-14289356D01*
X13485356Y-14862856D02*
X13485356Y-14792144D01*
X13414644Y-14792144D01*
X13414644Y-14862856D01*
X13485356Y-14862856D01*
X13485356Y-15116856D02*
X13485356Y-15046144D01*
X13414644Y-15046144D01*
X13414644Y-15116856D01*
X13485356Y-15116856D01*
X13985356Y-13208856D02*
X13985356Y-13138144D01*
X13914644Y-13138144D01*
X13914644Y-13208856D01*
X13985356Y-13208856D01*
X13985356Y-13462856D02*
X13985356Y-13392144D01*
X13914644Y-13392144D01*
X13914644Y-13462856D01*
X13985356Y-13462856D01*
X13985356Y-14035356D02*
X13985356Y-13964644D01*
X13914644Y-13964644D01*
X13914644Y-14035356D01*
X13985356Y-14035356D01*
X13985356Y-14289356D02*
X13985356Y-14218644D01*
X13914644Y-14218644D01*
X13914644Y-14289356D01*
X13985356Y-14289356D01*
X13985356Y-14862856D02*
X13985356Y-14792144D01*
X13914644Y-14792144D01*
X13914644Y-14862856D01*
X13985356Y-14862856D01*
X13985356Y-15116856D02*
X13985356Y-15046144D01*
X13914644Y-15046144D01*
X13914644Y-15116856D01*
X13985356Y-15116856D01*
X14485356Y-13208856D02*
X14485356Y-13138144D01*
X14414644Y-13138144D01*
X14414644Y-13208856D01*
X14485356Y-13208856D01*
X14485356Y-13462856D02*
X14485356Y-13392144D01*
X14414644Y-13392144D01*
X14414644Y-13462856D01*
X14485356Y-13462856D01*
X14485356Y-14035356D02*
X14485356Y-13964644D01*
X14414644Y-13964644D01*
X14414644Y-14035356D01*
X14485356Y-14035356D01*
X14485356Y-14289356D02*
X14485356Y-14218644D01*
X14414644Y-14218644D01*
X14414644Y-14289356D01*
X14485356Y-14289356D01*
X14485356Y-14862856D02*
X14485356Y-14792144D01*
X14414644Y-14792144D01*
X14414644Y-14862856D01*
X14485356Y-14862856D01*
X14485356Y-15116856D02*
X14485356Y-15046144D01*
X14414644Y-15046144D01*
X14414644Y-15116856D01*
X14485356Y-15116856D01*
X14935356Y-9835356D02*
X14935356Y-9764644D01*
X14864644Y-9764644D01*
X14864644Y-9835356D01*
X14935356Y-9835356D01*
X14985356Y-13208856D02*
X14985356Y-13138144D01*
X14914644Y-13138144D01*
X14914644Y-13208856D01*
X14985356Y-13208856D01*
X14985356Y-13462856D02*
X14985356Y-13392144D01*
X14914644Y-13392144D01*
X14914644Y-13462856D01*
X14985356Y-13462856D01*
X14985356Y-14035356D02*
X14985356Y-13964644D01*
X14914644Y-13964644D01*
X14914644Y-14035356D01*
X14985356Y-14035356D01*
X14985356Y-14289356D02*
X14985356Y-14218644D01*
X14914644Y-14218644D01*
X14914644Y-14289356D01*
X14985356Y-14289356D01*
X14985356Y-14862856D02*
X14985356Y-14792144D01*
X14914644Y-14792144D01*
X14914644Y-14862856D01*
X14985356Y-14862856D01*
X14985356Y-15116856D02*
X14985356Y-15046144D01*
X14914644Y-15046144D01*
X14914644Y-15116856D01*
X14985356Y-15116856D01*
X15085356Y-8235356D02*
X15085356Y-8164644D01*
X15014644Y-8164644D01*
X15014644Y-8235356D01*
X15085356Y-8235356D01*
X15885356Y-8235356D02*
X15885356Y-8164644D01*
X15814644Y-8164644D01*
X15814644Y-8235356D01*
X15885356Y-8235356D01*
X16235356Y-13212856D02*
X16235356Y-13142144D01*
X16164644Y-13142144D01*
X16164644Y-13212856D01*
X16235356Y-13212856D01*
X16235356Y-13466856D02*
X16235356Y-13396144D01*
X16164644Y-13396144D01*
X16164644Y-13466856D01*
X16235356Y-13466856D01*
X16235356Y-14035356D02*
X16235356Y-13964644D01*
X16164644Y-13964644D01*
X16164644Y-14035356D01*
X16235356Y-14035356D01*
X16235356Y-14289356D02*
X16235356Y-14218644D01*
X16164644Y-14218644D01*
X16164644Y-14289356D01*
X16235356Y-14289356D01*
X16235356Y-14862856D02*
X16235356Y-14792144D01*
X16164644Y-14792144D01*
X16164644Y-14862856D01*
X16235356Y-14862856D01*
X16235356Y-15116856D02*
X16235356Y-15046144D01*
X16164644Y-15046144D01*
X16164644Y-15116856D01*
X16235356Y-15116856D01*
X16735356Y-13207856D02*
X16735356Y-13137144D01*
X16664644Y-13137144D01*
X16664644Y-13207856D01*
X16735356Y-13207856D01*
X16735356Y-13461856D02*
X16735356Y-13391144D01*
X16664644Y-13391144D01*
X16664644Y-13461856D01*
X16735356Y-13461856D01*
X16735356Y-14035356D02*
X16735356Y-13964644D01*
X16664644Y-13964644D01*
X16664644Y-14035356D01*
X16735356Y-14035356D01*
X16735356Y-14289356D02*
X16735356Y-14218644D01*
X16664644Y-14218644D01*
X16664644Y-14289356D01*
X16735356Y-14289356D01*
X16735356Y-14857856D02*
X16735356Y-14787144D01*
X16664644Y-14787144D01*
X16664644Y-14857856D01*
X16735356Y-14857856D01*
X16735356Y-15111856D02*
X16735356Y-15041144D01*
X16664644Y-15041144D01*
X16664644Y-15111856D01*
X16735356Y-15111856D01*
X17185356Y-8235356D02*
X17185356Y-8164644D01*
X17114644Y-8164644D01*
X17114644Y-8235356D01*
X17185356Y-8235356D01*
X17235356Y-13210356D02*
X17235356Y-13139644D01*
X17164644Y-13139644D01*
X17164644Y-13210356D01*
X17235356Y-13210356D01*
X17235356Y-13464356D02*
X17235356Y-13393644D01*
X17164644Y-13393644D01*
X17164644Y-13464356D01*
X17235356Y-13464356D01*
X17235356Y-14035356D02*
X17235356Y-13964644D01*
X17164644Y-13964644D01*
X17164644Y-14035356D01*
X17235356Y-14035356D01*
X17235356Y-14289356D02*
X17235356Y-14218644D01*
X17164644Y-14218644D01*
X17164644Y-14289356D01*
X17235356Y-14289356D01*
X17235356Y-14857856D02*
X17235356Y-14787144D01*
X17164644Y-14787144D01*
X17164644Y-14857856D01*
X17235356Y-14857856D01*
X17235356Y-15111856D02*
X17235356Y-15041144D01*
X17164644Y-15041144D01*
X17164644Y-15111856D01*
X17235356Y-15111856D01*
X17435356Y-9835356D02*
X17435356Y-9764644D01*
X17364644Y-9764644D01*
X17364644Y-9835356D01*
X17435356Y-9835356D01*
X18535356Y-13212856D02*
X18535356Y-13142144D01*
X18464644Y-13142144D01*
X18464644Y-13212856D01*
X18535356Y-13212856D01*
X18535356Y-13466856D02*
X18535356Y-13396144D01*
X18464644Y-13396144D01*
X18464644Y-13466856D01*
X18535356Y-13466856D01*
X18535356Y-14035356D02*
X18535356Y-13964644D01*
X18464644Y-13964644D01*
X18464644Y-14035356D01*
X18535356Y-14035356D01*
X18535356Y-14289356D02*
X18535356Y-14218644D01*
X18464644Y-14218644D01*
X18464644Y-14289356D01*
X18535356Y-14289356D01*
X18535356Y-14857856D02*
X18535356Y-14787144D01*
X18464644Y-14787144D01*
X18464644Y-14857856D01*
X18535356Y-14857856D01*
X18535356Y-15111856D02*
X18535356Y-15041144D01*
X18464644Y-15041144D01*
X18464644Y-15111856D01*
X18535356Y-15111856D01*
X19235356Y-8235356D02*
X19235356Y-8164644D01*
X19164644Y-8164644D01*
X19164644Y-8235356D01*
X19235356Y-8235356D01*
X19250000Y-8300000D02*
X19250000Y-8100000D01*
X19150000Y-8100000D02*
G75*
G02*
X19250000Y-8100000I50000J0D01*
G01*
X19150000Y-8100000D02*
X19150000Y-8300000D01*
X19150000Y-8300000D02*
G75*
G03*
X19250000Y-8300000I50000J0D01*
G01*
X19385356Y-14852856D02*
X19385356Y-14782144D01*
X19314644Y-14782144D01*
X19314644Y-14852856D01*
X19385356Y-14852856D01*
X19385356Y-15106856D02*
X19385356Y-15036144D01*
X19314644Y-15036144D01*
X19314644Y-15106856D01*
X19385356Y-15106856D01*
X19735356Y-8235356D02*
X19735356Y-8164644D01*
X19664644Y-8164644D01*
X19664644Y-8235356D01*
X19735356Y-8235356D01*
X19750000Y-8300000D02*
X19750000Y-8100000D01*
X19650000Y-8100000D02*
G75*
G02*
X19750000Y-8100000I50000J0D01*
G01*
X19650000Y-8100000D02*
X19650000Y-8300000D01*
X19650000Y-8300000D02*
G75*
G03*
X19750000Y-8300000I50000J0D01*
G01*
X19885356Y-14852856D02*
X19885356Y-14782144D01*
X19814644Y-14782144D01*
X19814644Y-14852856D01*
X19885356Y-14852856D01*
X19885356Y-15106856D02*
X19885356Y-15036144D01*
X19814644Y-15036144D01*
X19814644Y-15106856D01*
X19885356Y-15106856D01*
X19935356Y-9835356D02*
X19935356Y-9764644D01*
X19864644Y-9764644D01*
X19864644Y-9835356D01*
X19935356Y-9835356D01*
X20385356Y-14857856D02*
X20385356Y-14787144D01*
X20314644Y-14787144D01*
X20314644Y-14857856D01*
X20385356Y-14857856D01*
X20385356Y-15111856D02*
X20385356Y-15041144D01*
X20314644Y-15041144D01*
X20314644Y-15111856D01*
X20385356Y-15111856D01*
X20885356Y-14857856D02*
X20885356Y-14787144D01*
X20814644Y-14787144D01*
X20814644Y-14857856D01*
X20885356Y-14857856D01*
X20885356Y-15111856D02*
X20885356Y-15041144D01*
X20814644Y-15041144D01*
X20814644Y-15111856D01*
X20885356Y-15111856D01*
X21635356Y-8107856D02*
X21635356Y-8037144D01*
X21564644Y-8037144D01*
X21564644Y-8107856D01*
X21635356Y-8107856D01*
X21635356Y-8361856D02*
X21635356Y-8291144D01*
X21564644Y-8291144D01*
X21564644Y-8361856D01*
X21635356Y-8361856D01*
X21635356Y-14866856D02*
X21635356Y-14796144D01*
X21564644Y-14796144D01*
X21564644Y-14866856D01*
X21635356Y-14866856D01*
X21635356Y-15120856D02*
X21635356Y-15050144D01*
X21564644Y-15050144D01*
X21564644Y-15120856D01*
X21635356Y-15120856D01*
D13*
X12680000Y-12225000D02*
X12755000Y-12150000D01*
X12680000Y-12075000D01*
X12605000Y-12150000D01*
X12680000Y-12225000D01*
D12*
X12805000Y-12075000D02*
X12555000Y-12075000D01*
X12555000Y-12225000D02*
G75*
G02*
X12555000Y-12075000I0J75000D01*
G01*
X12555000Y-12225000D02*
X12805000Y-12225000D01*
X12805000Y-12225000D02*
G75*
G03*
X12805000Y-12075000I0J75000D01*
G01*
D13*
X13200000Y-12225000D02*
X13275000Y-12150000D01*
X13200000Y-12075000D01*
X13125000Y-12150000D01*
X13200000Y-12225000D01*
D12*
X13325000Y-12075000D02*
X13075000Y-12075000D01*
X13075000Y-12225000D02*
G75*
G02*
X13075000Y-12075000I0J75000D01*
G01*
X13075000Y-12225000D02*
X13325000Y-12225000D01*
X13325000Y-12225000D02*
G75*
G03*
X13325000Y-12075000I0J75000D01*
G01*
D13*
X13720000Y-12225000D02*
X13795000Y-12150000D01*
X13720000Y-12075000D01*
X13645000Y-12150000D01*
X13720000Y-12225000D01*
D12*
X13845000Y-12075000D02*
X13595000Y-12075000D01*
X13595000Y-12225000D02*
G75*
G02*
X13595000Y-12075000I0J75000D01*
G01*
X13595000Y-12225000D02*
X13845000Y-12225000D01*
X13845000Y-12225000D02*
G75*
G03*
X13845000Y-12075000I0J75000D01*
G01*
D13*
X15180000Y-12225000D02*
X15255000Y-12150000D01*
X15180000Y-12075000D01*
X15105000Y-12150000D01*
X15180000Y-12225000D01*
D12*
X15305000Y-12075000D02*
X15055000Y-12075000D01*
X15055000Y-12225000D02*
G75*
G02*
X15055000Y-12075000I0J75000D01*
G01*
X15055000Y-12225000D02*
X15305000Y-12225000D01*
X15305000Y-12225000D02*
G75*
G03*
X15305000Y-12075000I0J75000D01*
G01*
D13*
X15700000Y-12225000D02*
X15775000Y-12150000D01*
X15700000Y-12075000D01*
X15625000Y-12150000D01*
X15700000Y-12225000D01*
D12*
X15825000Y-12075000D02*
X15575000Y-12075000D01*
X15575000Y-12225000D02*
G75*
G02*
X15575000Y-12075000I0J75000D01*
G01*
X15575000Y-12225000D02*
X15825000Y-12225000D01*
X15825000Y-12225000D02*
G75*
G03*
X15825000Y-12075000I0J75000D01*
G01*
D13*
X16220000Y-12225000D02*
X16295000Y-12150000D01*
X16220000Y-12075000D01*
X16145000Y-12150000D01*
X16220000Y-12225000D01*
D12*
X16345000Y-12075000D02*
X16095000Y-12075000D01*
X16095000Y-12225000D02*
G75*
G02*
X16095000Y-12075000I0J75000D01*
G01*
X16095000Y-12225000D02*
X16345000Y-12225000D01*
X16345000Y-12225000D02*
G75*
G03*
X16345000Y-12075000I0J75000D01*
G01*
D13*
X16500000Y-7810000D02*
X16575000Y-7735000D01*
X16500000Y-7660000D01*
X16425000Y-7735000D01*
X16500000Y-7810000D01*
D12*
X16425000Y-7810000D02*
X16575000Y-7810000D01*
X16575000Y-7660000D02*
G75*
G02*
X16575000Y-7810000I0J-75000D01*
G01*
X16575000Y-7660000D02*
X16425000Y-7660000D01*
X16425000Y-7660000D02*
G75*
G03*
X16425000Y-7810000I0J-75000D01*
G01*
D13*
X16500000Y-8275000D02*
X16575000Y-8200000D01*
X16500000Y-8125000D01*
X16425000Y-8200000D01*
X16500000Y-8275000D01*
D12*
X16425000Y-8275000D02*
X16575000Y-8275000D01*
X16575000Y-8125000D02*
G75*
G02*
X16575000Y-8275000I0J-75000D01*
G01*
X16575000Y-8125000D02*
X16425000Y-8125000D01*
X16425000Y-8125000D02*
G75*
G03*
X16425000Y-8275000I0J-75000D01*
G01*
D13*
X16500000Y-8740000D02*
X16575000Y-8665000D01*
X16500000Y-8590000D01*
X16425000Y-8665000D01*
X16500000Y-8740000D01*
D12*
X16425000Y-8740000D02*
X16575000Y-8740000D01*
X16575000Y-8590000D02*
G75*
G02*
X16575000Y-8740000I0J-75000D01*
G01*
X16575000Y-8590000D02*
X16425000Y-8590000D01*
X16425000Y-8590000D02*
G75*
G03*
X16425000Y-8740000I0J-75000D01*
G01*
D13*
X17680000Y-12225000D02*
X17755000Y-12150000D01*
X17680000Y-12075000D01*
X17605000Y-12150000D01*
X17680000Y-12225000D01*
D12*
X17805000Y-12075000D02*
X17555000Y-12075000D01*
X17555000Y-12225000D02*
G75*
G02*
X17555000Y-12075000I0J75000D01*
G01*
X17555000Y-12225000D02*
X17805000Y-12225000D01*
X17805000Y-12225000D02*
G75*
G03*
X17805000Y-12075000I0J75000D01*
G01*
D13*
X17750000Y-7810000D02*
X17825000Y-7735000D01*
X17750000Y-7660000D01*
X17675000Y-7735000D01*
X17750000Y-7810000D01*
D12*
X17825000Y-7660000D02*
X17675000Y-7660000D01*
X17675000Y-7810000D02*
G75*
G02*
X17675000Y-7660000I0J75000D01*
G01*
X17675000Y-7810000D02*
X17825000Y-7810000D01*
X17825000Y-7810000D02*
G75*
G03*
X17825000Y-7660000I0J75000D01*
G01*
D13*
X17750000Y-8275000D02*
X17825000Y-8200000D01*
X17750000Y-8125000D01*
X17675000Y-8200000D01*
X17750000Y-8275000D01*
D12*
X17825000Y-8125000D02*
X17675000Y-8125000D01*
X17675000Y-8275000D02*
G75*
G02*
X17675000Y-8125000I0J75000D01*
G01*
X17675000Y-8275000D02*
X17825000Y-8275000D01*
X17825000Y-8275000D02*
G75*
G03*
X17825000Y-8125000I0J75000D01*
G01*
D13*
X17750000Y-8740000D02*
X17825000Y-8665000D01*
X17750000Y-8590000D01*
X17675000Y-8665000D01*
X17750000Y-8740000D01*
D12*
X17825000Y-8590000D02*
X17675000Y-8590000D01*
X17675000Y-8740000D02*
G75*
G02*
X17675000Y-8590000I0J75000D01*
G01*
X17675000Y-8740000D02*
X17825000Y-8740000D01*
X17825000Y-8740000D02*
G75*
G03*
X17825000Y-8590000I0J75000D01*
G01*
D13*
X18200000Y-12225000D02*
X18275000Y-12150000D01*
X18200000Y-12075000D01*
X18125000Y-12150000D01*
X18200000Y-12225000D01*
D12*
X18325000Y-12075000D02*
X18075000Y-12075000D01*
X18075000Y-12225000D02*
G75*
G02*
X18075000Y-12075000I0J75000D01*
G01*
X18075000Y-12225000D02*
X18325000Y-12225000D01*
X18325000Y-12225000D02*
G75*
G03*
X18325000Y-12075000I0J75000D01*
G01*
D13*
X18720000Y-12225000D02*
X18795000Y-12150000D01*
X18720000Y-12075000D01*
X18645000Y-12150000D01*
X18720000Y-12225000D01*
D12*
X18845000Y-12075000D02*
X18595000Y-12075000D01*
X18595000Y-12225000D02*
G75*
G02*
X18595000Y-12075000I0J75000D01*
G01*
X18595000Y-12225000D02*
X18845000Y-12225000D01*
X18845000Y-12225000D02*
G75*
G03*
X18845000Y-12075000I0J75000D01*
G01*
D13*
X20180000Y-12225000D02*
X20255000Y-12150000D01*
X20180000Y-12075000D01*
X20105000Y-12150000D01*
X20180000Y-12225000D01*
D12*
X20305000Y-12075000D02*
X20055000Y-12075000D01*
X20055000Y-12225000D02*
G75*
G02*
X20055000Y-12075000I0J75000D01*
G01*
X20055000Y-12225000D02*
X20305000Y-12225000D01*
X20305000Y-12225000D02*
G75*
G03*
X20305000Y-12075000I0J75000D01*
G01*
D13*
X20700000Y-12225000D02*
X20775000Y-12150000D01*
X20700000Y-12075000D01*
X20625000Y-12150000D01*
X20700000Y-12225000D01*
D12*
X20825000Y-12075000D02*
X20575000Y-12075000D01*
X20575000Y-12225000D02*
G75*
G02*
X20575000Y-12075000I0J75000D01*
G01*
X20575000Y-12225000D02*
X20825000Y-12225000D01*
X20825000Y-12225000D02*
G75*
G03*
X20825000Y-12075000I0J75000D01*
G01*
D13*
X21220000Y-12225000D02*
X21295000Y-12150000D01*
X21220000Y-12075000D01*
X21145000Y-12150000D01*
X21220000Y-12225000D01*
D12*
X21345000Y-12075000D02*
X21095000Y-12075000D01*
X21095000Y-12225000D02*
G75*
G02*
X21095000Y-12075000I0J75000D01*
G01*
X21095000Y-12225000D02*
X21345000Y-12225000D01*
X21345000Y-12225000D02*
G75*
G03*
X21345000Y-12075000I0J75000D01*
G01*
D11*
X13200000Y-7650000D02*
X13400000Y-7850000D01*
X13400000Y-7650000D02*
X13200000Y-7850000D01*
X13400000Y-7750000D02*
G75*
G02*
X13200000Y-7750000I-100000J0D01*
G01*
X13200000Y-7750000D02*
G75*
G02*
X13400000Y-7750000I100000J0D01*
G01*
D12*
X13200000Y-7850000D02*
X13400000Y-7850000D01*
X13400000Y-7650000D02*
G75*
G02*
X13400000Y-7850000I0J-100000D01*
G01*
X13400000Y-7650000D02*
X13200000Y-7650000D01*
X13200000Y-7650000D02*
G75*
G03*
X13200000Y-7850000I0J-100000D01*
G01*
D11*
X13200000Y-8100000D02*
X13400000Y-8300000D01*
X13400000Y-8100000D02*
X13200000Y-8300000D01*
X13400000Y-8200000D02*
G75*
G02*
X13200000Y-8200000I-100000J0D01*
G01*
X13200000Y-8200000D02*
G75*
G02*
X13400000Y-8200000I100000J0D01*
G01*
D12*
X13200000Y-8300000D02*
X13400000Y-8300000D01*
X13400000Y-8100000D02*
G75*
G02*
X13400000Y-8300000I0J-100000D01*
G01*
X13400000Y-8100000D02*
X13200000Y-8100000D01*
X13200000Y-8100000D02*
G75*
G03*
X13200000Y-8300000I0J-100000D01*
G01*
D11*
X13200000Y-8550000D02*
X13400000Y-8750000D01*
X13400000Y-8550000D02*
X13200000Y-8750000D01*
X13400000Y-8650000D02*
G75*
G02*
X13200000Y-8650000I-100000J0D01*
G01*
X13200000Y-8650000D02*
G75*
G02*
X13400000Y-8650000I100000J0D01*
G01*
D12*
X13200000Y-8750000D02*
X13400000Y-8750000D01*
X13400000Y-8550000D02*
G75*
G02*
X13400000Y-8750000I0J-100000D01*
G01*
X13400000Y-8550000D02*
X13200000Y-8550000D01*
X13200000Y-8550000D02*
G75*
G03*
X13200000Y-8750000I0J-100000D01*
G01*
D11*
X13700000Y-7650000D02*
X13900000Y-7850000D01*
X13900000Y-7650000D02*
X13700000Y-7850000D01*
X13900000Y-7750000D02*
G75*
G02*
X13700000Y-7750000I-100000J0D01*
G01*
X13700000Y-7750000D02*
G75*
G02*
X13900000Y-7750000I100000J0D01*
G01*
D12*
X13700000Y-7850000D02*
X13900000Y-7850000D01*
X13900000Y-7650000D02*
G75*
G02*
X13900000Y-7850000I0J-100000D01*
G01*
X13900000Y-7650000D02*
X13700000Y-7650000D01*
X13700000Y-7650000D02*
G75*
G03*
X13700000Y-7850000I0J-100000D01*
G01*
D11*
X13700000Y-8100000D02*
X13900000Y-8300000D01*
X13900000Y-8100000D02*
X13700000Y-8300000D01*
X13900000Y-8200000D02*
G75*
G02*
X13700000Y-8200000I-100000J0D01*
G01*
X13700000Y-8200000D02*
G75*
G02*
X13900000Y-8200000I100000J0D01*
G01*
D12*
X13700000Y-8300000D02*
X13900000Y-8300000D01*
X13900000Y-8100000D02*
G75*
G02*
X13900000Y-8300000I0J-100000D01*
G01*
X13900000Y-8100000D02*
X13700000Y-8100000D01*
X13700000Y-8100000D02*
G75*
G03*
X13700000Y-8300000I0J-100000D01*
G01*
D11*
X13700000Y-8550000D02*
X13900000Y-8750000D01*
X13900000Y-8550000D02*
X13700000Y-8750000D01*
X13900000Y-8650000D02*
G75*
G02*
X13700000Y-8650000I-100000J0D01*
G01*
X13700000Y-8650000D02*
G75*
G02*
X13900000Y-8650000I100000J0D01*
G01*
D12*
X13700000Y-8750000D02*
X13900000Y-8750000D01*
X13900000Y-8550000D02*
G75*
G02*
X13900000Y-8750000I0J-100000D01*
G01*
X13900000Y-8550000D02*
X13700000Y-8550000D01*
X13700000Y-8550000D02*
G75*
G03*
X13700000Y-8750000I0J-100000D01*
G01*
D11*
X14200000Y-7650000D02*
X14400000Y-7850000D01*
X14400000Y-7650000D02*
X14200000Y-7850000D01*
X14400000Y-7750000D02*
G75*
G02*
X14200000Y-7750000I-100000J0D01*
G01*
X14200000Y-7750000D02*
G75*
G02*
X14400000Y-7750000I100000J0D01*
G01*
D12*
X14200000Y-7850000D02*
X14400000Y-7850000D01*
X14400000Y-7650000D02*
G75*
G02*
X14400000Y-7850000I0J-100000D01*
G01*
X14400000Y-7650000D02*
X14200000Y-7650000D01*
X14200000Y-7650000D02*
G75*
G03*
X14200000Y-7850000I0J-100000D01*
G01*
D11*
X14200000Y-8100000D02*
X14400000Y-8300000D01*
X14400000Y-8100000D02*
X14200000Y-8300000D01*
X14400000Y-8200000D02*
G75*
G02*
X14200000Y-8200000I-100000J0D01*
G01*
X14200000Y-8200000D02*
G75*
G02*
X14400000Y-8200000I100000J0D01*
G01*
D12*
X14200000Y-8300000D02*
X14400000Y-8300000D01*
X14400000Y-8100000D02*
G75*
G02*
X14400000Y-8300000I0J-100000D01*
G01*
X14400000Y-8100000D02*
X14200000Y-8100000D01*
X14200000Y-8100000D02*
G75*
G03*
X14200000Y-8300000I0J-100000D01*
G01*
D11*
X14200000Y-8550000D02*
X14400000Y-8750000D01*
X14400000Y-8550000D02*
X14200000Y-8750000D01*
X14400000Y-8650000D02*
G75*
G02*
X14200000Y-8650000I-100000J0D01*
G01*
X14200000Y-8650000D02*
G75*
G02*
X14400000Y-8650000I100000J0D01*
G01*
D12*
X14200000Y-8750000D02*
X14400000Y-8750000D01*
X14400000Y-8550000D02*
G75*
G02*
X14400000Y-8750000I0J-100000D01*
G01*
X14400000Y-8550000D02*
X14200000Y-8550000D01*
X14200000Y-8550000D02*
G75*
G03*
X14200000Y-8750000I0J-100000D01*
G01*
D11*
X12208277Y-15963984D02*
X12208277Y-15763984D01*
X12208277Y-15763984D02*
X12255896Y-15763984D01*
X12255896Y-15763984D02*
X12284467Y-15773508D01*
X12284467Y-15773508D02*
X12303515Y-15792555D01*
X12303515Y-15792555D02*
X12313039Y-15811603D01*
X12313039Y-15811603D02*
X12322562Y-15849698D01*
X12322562Y-15849698D02*
X12322562Y-15878269D01*
X12322562Y-15878269D02*
X12313039Y-15916365D01*
X12313039Y-15916365D02*
X12303515Y-15935412D01*
X12303515Y-15935412D02*
X12284467Y-15954460D01*
X12284467Y-15954460D02*
X12255896Y-15963984D01*
X12255896Y-15963984D02*
X12208277Y-15963984D01*
X12408277Y-15963984D02*
X12408277Y-15830650D01*
X12408277Y-15868746D02*
X12417801Y-15849698D01*
X12417801Y-15849698D02*
X12427324Y-15840174D01*
X12427324Y-15840174D02*
X12446372Y-15830650D01*
X12446372Y-15830650D02*
X12465420Y-15830650D01*
X12532086Y-15963984D02*
X12532086Y-15830650D01*
X12532086Y-15763984D02*
X12522562Y-15773508D01*
X12522562Y-15773508D02*
X12532086Y-15783031D01*
X12532086Y-15783031D02*
X12541610Y-15773508D01*
X12541610Y-15773508D02*
X12532086Y-15763984D01*
X12532086Y-15763984D02*
X12532086Y-15783031D01*
X12655896Y-15963984D02*
X12636848Y-15954460D01*
X12636848Y-15954460D02*
X12627324Y-15935412D01*
X12627324Y-15935412D02*
X12627324Y-15763984D01*
X12760658Y-15963984D02*
X12741610Y-15954460D01*
X12741610Y-15954460D02*
X12732086Y-15935412D01*
X12732086Y-15935412D02*
X12732086Y-15763984D01*
X12989229Y-15963984D02*
X12989229Y-15763984D01*
X12989229Y-15763984D02*
X13055896Y-15906841D01*
X13055896Y-15906841D02*
X13122562Y-15763984D01*
X13122562Y-15763984D02*
X13122562Y-15963984D01*
X13303515Y-15963984D02*
X13303515Y-15859222D01*
X13303515Y-15859222D02*
X13293991Y-15840174D01*
X13293991Y-15840174D02*
X13274943Y-15830650D01*
X13274943Y-15830650D02*
X13236848Y-15830650D01*
X13236848Y-15830650D02*
X13217801Y-15840174D01*
X13303515Y-15954460D02*
X13284467Y-15963984D01*
X13284467Y-15963984D02*
X13236848Y-15963984D01*
X13236848Y-15963984D02*
X13217801Y-15954460D01*
X13217801Y-15954460D02*
X13208277Y-15935412D01*
X13208277Y-15935412D02*
X13208277Y-15916365D01*
X13208277Y-15916365D02*
X13217801Y-15897317D01*
X13217801Y-15897317D02*
X13236848Y-15887793D01*
X13236848Y-15887793D02*
X13284467Y-15887793D01*
X13284467Y-15887793D02*
X13303515Y-15878269D01*
X13398753Y-15830650D02*
X13398753Y-16030650D01*
X13398753Y-15840174D02*
X13417801Y-15830650D01*
X13417801Y-15830650D02*
X13455896Y-15830650D01*
X13455896Y-15830650D02*
X13474943Y-15840174D01*
X13474943Y-15840174D02*
X13484467Y-15849698D01*
X13484467Y-15849698D02*
X13493991Y-15868746D01*
X13493991Y-15868746D02*
X13493991Y-15925888D01*
X13493991Y-15925888D02*
X13484467Y-15944936D01*
X13484467Y-15944936D02*
X13474943Y-15954460D01*
X13474943Y-15954460D02*
X13455896Y-15963984D01*
X13455896Y-15963984D02*
X13417801Y-15963984D01*
X13417801Y-15963984D02*
X13398753Y-15954460D01*
X13579705Y-15944936D02*
X13589229Y-15954460D01*
X13589229Y-15954460D02*
X13579705Y-15963984D01*
X13579705Y-15963984D02*
X13570182Y-15954460D01*
X13570182Y-15954460D02*
X13579705Y-15944936D01*
X13579705Y-15944936D02*
X13579705Y-15963984D01*
X13579705Y-15840174D02*
X13589229Y-15849698D01*
X13589229Y-15849698D02*
X13579705Y-15859222D01*
X13579705Y-15859222D02*
X13570182Y-15849698D01*
X13570182Y-15849698D02*
X13579705Y-15840174D01*
X13579705Y-15840174D02*
X13579705Y-15859222D01*
D12*
X11917500Y-16277500D02*
X11947500Y-16307500D01*
X11947500Y-16277500D02*
X11917500Y-16307500D01*
D11*
X12246372Y-16183984D02*
X12265420Y-16183984D01*
X12265420Y-16183984D02*
X12284467Y-16193508D01*
X12284467Y-16193508D02*
X12293991Y-16203031D01*
X12293991Y-16203031D02*
X12303515Y-16222079D01*
X12303515Y-16222079D02*
X12313039Y-16260174D01*
X12313039Y-16260174D02*
X12313039Y-16307793D01*
X12313039Y-16307793D02*
X12303515Y-16345888D01*
X12303515Y-16345888D02*
X12293991Y-16364936D01*
X12293991Y-16364936D02*
X12284467Y-16374460D01*
X12284467Y-16374460D02*
X12265420Y-16383984D01*
X12265420Y-16383984D02*
X12246372Y-16383984D01*
X12246372Y-16383984D02*
X12227324Y-16374460D01*
X12227324Y-16374460D02*
X12217801Y-16364936D01*
X12217801Y-16364936D02*
X12208277Y-16345888D01*
X12208277Y-16345888D02*
X12198753Y-16307793D01*
X12198753Y-16307793D02*
X12198753Y-16260174D01*
X12198753Y-16260174D02*
X12208277Y-16222079D01*
X12208277Y-16222079D02*
X12217801Y-16203031D01*
X12217801Y-16203031D02*
X12227324Y-16193508D01*
X12227324Y-16193508D02*
X12246372Y-16183984D01*
X12398753Y-16364936D02*
X12408277Y-16374460D01*
X12408277Y-16374460D02*
X12398753Y-16383984D01*
X12398753Y-16383984D02*
X12389229Y-16374460D01*
X12389229Y-16374460D02*
X12398753Y-16364936D01*
X12398753Y-16364936D02*
X12398753Y-16383984D01*
X12474943Y-16183984D02*
X12598753Y-16183984D01*
X12598753Y-16183984D02*
X12532086Y-16260174D01*
X12532086Y-16260174D02*
X12560658Y-16260174D01*
X12560658Y-16260174D02*
X12579705Y-16269698D01*
X12579705Y-16269698D02*
X12589229Y-16279222D01*
X12589229Y-16279222D02*
X12598753Y-16298269D01*
X12598753Y-16298269D02*
X12598753Y-16345888D01*
X12598753Y-16345888D02*
X12589229Y-16364936D01*
X12589229Y-16364936D02*
X12579705Y-16374460D01*
X12579705Y-16374460D02*
X12560658Y-16383984D01*
X12560658Y-16383984D02*
X12503515Y-16383984D01*
X12503515Y-16383984D02*
X12484467Y-16374460D01*
X12484467Y-16374460D02*
X12474943Y-16364936D01*
X12722562Y-16183984D02*
X12741610Y-16183984D01*
X12741610Y-16183984D02*
X12760658Y-16193508D01*
X12760658Y-16193508D02*
X12770182Y-16203031D01*
X12770182Y-16203031D02*
X12779705Y-16222079D01*
X12779705Y-16222079D02*
X12789229Y-16260174D01*
X12789229Y-16260174D02*
X12789229Y-16307793D01*
X12789229Y-16307793D02*
X12779705Y-16345888D01*
X12779705Y-16345888D02*
X12770182Y-16364936D01*
X12770182Y-16364936D02*
X12760658Y-16374460D01*
X12760658Y-16374460D02*
X12741610Y-16383984D01*
X12741610Y-16383984D02*
X12722562Y-16383984D01*
X12722562Y-16383984D02*
X12703515Y-16374460D01*
X12703515Y-16374460D02*
X12693991Y-16364936D01*
X12693991Y-16364936D02*
X12684467Y-16345888D01*
X12684467Y-16345888D02*
X12674943Y-16307793D01*
X12674943Y-16307793D02*
X12674943Y-16260174D01*
X12674943Y-16260174D02*
X12684467Y-16222079D01*
X12684467Y-16222079D02*
X12693991Y-16203031D01*
X12693991Y-16203031D02*
X12703515Y-16193508D01*
X12703515Y-16193508D02*
X12722562Y-16183984D01*
X12913039Y-16183984D02*
X12932086Y-16183984D01*
X12932086Y-16183984D02*
X12951134Y-16193508D01*
X12951134Y-16193508D02*
X12960658Y-16203031D01*
X12960658Y-16203031D02*
X12970182Y-16222079D01*
X12970182Y-16222079D02*
X12979705Y-16260174D01*
X12979705Y-16260174D02*
X12979705Y-16307793D01*
X12979705Y-16307793D02*
X12970182Y-16345888D01*
X12970182Y-16345888D02*
X12960658Y-16364936D01*
X12960658Y-16364936D02*
X12951134Y-16374460D01*
X12951134Y-16374460D02*
X12932086Y-16383984D01*
X12932086Y-16383984D02*
X12913039Y-16383984D01*
X12913039Y-16383984D02*
X12893991Y-16374460D01*
X12893991Y-16374460D02*
X12884467Y-16364936D01*
X12884467Y-16364936D02*
X12874943Y-16345888D01*
X12874943Y-16345888D02*
X12865420Y-16307793D01*
X12865420Y-16307793D02*
X12865420Y-16260174D01*
X12865420Y-16260174D02*
X12874943Y-16222079D01*
X12874943Y-16222079D02*
X12884467Y-16203031D01*
X12884467Y-16203031D02*
X12893991Y-16193508D01*
X12893991Y-16193508D02*
X12913039Y-16183984D01*
X13065420Y-16383984D02*
X13065420Y-16250650D01*
X13065420Y-16269698D02*
X13074943Y-16260174D01*
X13074943Y-16260174D02*
X13093991Y-16250650D01*
X13093991Y-16250650D02*
X13122563Y-16250650D01*
X13122563Y-16250650D02*
X13141610Y-16260174D01*
X13141610Y-16260174D02*
X13151134Y-16279222D01*
X13151134Y-16279222D02*
X13151134Y-16383984D01*
X13151134Y-16279222D02*
X13160658Y-16260174D01*
X13160658Y-16260174D02*
X13179705Y-16250650D01*
X13179705Y-16250650D02*
X13208277Y-16250650D01*
X13208277Y-16250650D02*
X13227324Y-16260174D01*
X13227324Y-16260174D02*
X13236848Y-16279222D01*
X13236848Y-16279222D02*
X13236848Y-16383984D01*
X13332086Y-16383984D02*
X13332086Y-16250650D01*
X13332086Y-16269698D02*
X13341610Y-16260174D01*
X13341610Y-16260174D02*
X13360658Y-16250650D01*
X13360658Y-16250650D02*
X13389229Y-16250650D01*
X13389229Y-16250650D02*
X13408277Y-16260174D01*
X13408277Y-16260174D02*
X13417801Y-16279222D01*
X13417801Y-16279222D02*
X13417801Y-16383984D01*
X13417801Y-16279222D02*
X13427324Y-16260174D01*
X13427324Y-16260174D02*
X13446372Y-16250650D01*
X13446372Y-16250650D02*
X13474943Y-16250650D01*
X13474943Y-16250650D02*
X13493991Y-16260174D01*
X13493991Y-16260174D02*
X13503515Y-16279222D01*
X13503515Y-16279222D02*
X13503515Y-16383984D01*
X13893991Y-16174460D02*
X13722563Y-16431603D01*
X14151134Y-16183984D02*
X14170182Y-16183984D01*
X14170182Y-16183984D02*
X14189229Y-16193508D01*
X14189229Y-16193508D02*
X14198753Y-16203031D01*
X14198753Y-16203031D02*
X14208277Y-16222079D01*
X14208277Y-16222079D02*
X14217801Y-16260174D01*
X14217801Y-16260174D02*
X14217801Y-16307793D01*
X14217801Y-16307793D02*
X14208277Y-16345888D01*
X14208277Y-16345888D02*
X14198753Y-16364936D01*
X14198753Y-16364936D02*
X14189229Y-16374460D01*
X14189229Y-16374460D02*
X14170182Y-16383984D01*
X14170182Y-16383984D02*
X14151134Y-16383984D01*
X14151134Y-16383984D02*
X14132086Y-16374460D01*
X14132086Y-16374460D02*
X14122563Y-16364936D01*
X14122563Y-16364936D02*
X14113039Y-16345888D01*
X14113039Y-16345888D02*
X14103515Y-16307793D01*
X14103515Y-16307793D02*
X14103515Y-16260174D01*
X14103515Y-16260174D02*
X14113039Y-16222079D01*
X14113039Y-16222079D02*
X14122563Y-16203031D01*
X14122563Y-16203031D02*
X14132086Y-16193508D01*
X14132086Y-16193508D02*
X14151134Y-16183984D01*
X14303515Y-16364936D02*
X14313039Y-16374460D01*
X14313039Y-16374460D02*
X14303515Y-16383984D01*
X14303515Y-16383984D02*
X14293991Y-16374460D01*
X14293991Y-16374460D02*
X14303515Y-16364936D01*
X14303515Y-16364936D02*
X14303515Y-16383984D01*
X14436848Y-16183984D02*
X14455896Y-16183984D01*
X14455896Y-16183984D02*
X14474944Y-16193508D01*
X14474944Y-16193508D02*
X14484467Y-16203031D01*
X14484467Y-16203031D02*
X14493991Y-16222079D01*
X14493991Y-16222079D02*
X14503515Y-16260174D01*
X14503515Y-16260174D02*
X14503515Y-16307793D01*
X14503515Y-16307793D02*
X14493991Y-16345888D01*
X14493991Y-16345888D02*
X14484467Y-16364936D01*
X14484467Y-16364936D02*
X14474944Y-16374460D01*
X14474944Y-16374460D02*
X14455896Y-16383984D01*
X14455896Y-16383984D02*
X14436848Y-16383984D01*
X14436848Y-16383984D02*
X14417801Y-16374460D01*
X14417801Y-16374460D02*
X14408277Y-16364936D01*
X14408277Y-16364936D02*
X14398753Y-16345888D01*
X14398753Y-16345888D02*
X14389229Y-16307793D01*
X14389229Y-16307793D02*
X14389229Y-16260174D01*
X14389229Y-16260174D02*
X14398753Y-16222079D01*
X14398753Y-16222079D02*
X14408277Y-16203031D01*
X14408277Y-16203031D02*
X14417801Y-16193508D01*
X14417801Y-16193508D02*
X14436848Y-16183984D01*
X14693991Y-16383984D02*
X14579706Y-16383984D01*
X14636848Y-16383984D02*
X14636848Y-16183984D01*
X14636848Y-16183984D02*
X14617801Y-16212555D01*
X14617801Y-16212555D02*
X14598753Y-16231603D01*
X14598753Y-16231603D02*
X14579706Y-16241127D01*
X14884467Y-16383984D02*
X14770182Y-16383984D01*
X14827325Y-16383984D02*
X14827325Y-16183984D01*
X14827325Y-16183984D02*
X14808277Y-16212555D01*
X14808277Y-16212555D02*
X14789229Y-16231603D01*
X14789229Y-16231603D02*
X14770182Y-16241127D01*
X14998753Y-16269698D02*
X14979706Y-16260174D01*
X14979706Y-16260174D02*
X14970182Y-16250650D01*
X14970182Y-16250650D02*
X14960658Y-16231603D01*
X14960658Y-16231603D02*
X14960658Y-16222079D01*
X14960658Y-16222079D02*
X14970182Y-16203031D01*
X14970182Y-16203031D02*
X14979706Y-16193508D01*
X14979706Y-16193508D02*
X14998753Y-16183984D01*
X14998753Y-16183984D02*
X15036848Y-16183984D01*
X15036848Y-16183984D02*
X15055896Y-16193508D01*
X15055896Y-16193508D02*
X15065420Y-16203031D01*
X15065420Y-16203031D02*
X15074944Y-16222079D01*
X15074944Y-16222079D02*
X15074944Y-16231603D01*
X15074944Y-16231603D02*
X15065420Y-16250650D01*
X15065420Y-16250650D02*
X15055896Y-16260174D01*
X15055896Y-16260174D02*
X15036848Y-16269698D01*
X15036848Y-16269698D02*
X14998753Y-16269698D01*
X14998753Y-16269698D02*
X14979706Y-16279222D01*
X14979706Y-16279222D02*
X14970182Y-16288746D01*
X14970182Y-16288746D02*
X14960658Y-16307793D01*
X14960658Y-16307793D02*
X14960658Y-16345888D01*
X14960658Y-16345888D02*
X14970182Y-16364936D01*
X14970182Y-16364936D02*
X14979706Y-16374460D01*
X14979706Y-16374460D02*
X14998753Y-16383984D01*
X14998753Y-16383984D02*
X15036848Y-16383984D01*
X15036848Y-16383984D02*
X15055896Y-16374460D01*
X15055896Y-16374460D02*
X15065420Y-16364936D01*
X15065420Y-16364936D02*
X15074944Y-16345888D01*
X15074944Y-16345888D02*
X15074944Y-16307793D01*
X15074944Y-16307793D02*
X15065420Y-16288746D01*
X15065420Y-16288746D02*
X15055896Y-16279222D01*
X15055896Y-16279222D02*
X15036848Y-16269698D01*
X15151134Y-16183984D02*
X15151134Y-16222079D01*
X15227325Y-16183984D02*
X15227325Y-16222079D01*
X15522563Y-16460174D02*
X15513039Y-16450650D01*
X15513039Y-16450650D02*
X15493991Y-16422079D01*
X15493991Y-16422079D02*
X15484468Y-16403031D01*
X15484468Y-16403031D02*
X15474944Y-16374460D01*
X15474944Y-16374460D02*
X15465420Y-16326841D01*
X15465420Y-16326841D02*
X15465420Y-16288746D01*
X15465420Y-16288746D02*
X15474944Y-16241127D01*
X15474944Y-16241127D02*
X15484468Y-16212555D01*
X15484468Y-16212555D02*
X15493991Y-16193508D01*
X15493991Y-16193508D02*
X15513039Y-16164936D01*
X15513039Y-16164936D02*
X15522563Y-16155412D01*
X15579706Y-16183984D02*
X15703515Y-16183984D01*
X15703515Y-16183984D02*
X15636848Y-16260174D01*
X15636848Y-16260174D02*
X15665420Y-16260174D01*
X15665420Y-16260174D02*
X15684468Y-16269698D01*
X15684468Y-16269698D02*
X15693991Y-16279222D01*
X15693991Y-16279222D02*
X15703515Y-16298269D01*
X15703515Y-16298269D02*
X15703515Y-16345888D01*
X15703515Y-16345888D02*
X15693991Y-16364936D01*
X15693991Y-16364936D02*
X15684468Y-16374460D01*
X15684468Y-16374460D02*
X15665420Y-16383984D01*
X15665420Y-16383984D02*
X15608277Y-16383984D01*
X15608277Y-16383984D02*
X15589229Y-16374460D01*
X15589229Y-16374460D02*
X15579706Y-16364936D01*
X15874944Y-16183984D02*
X15836848Y-16183984D01*
X15836848Y-16183984D02*
X15817801Y-16193508D01*
X15817801Y-16193508D02*
X15808277Y-16203031D01*
X15808277Y-16203031D02*
X15789229Y-16231603D01*
X15789229Y-16231603D02*
X15779706Y-16269698D01*
X15779706Y-16269698D02*
X15779706Y-16345888D01*
X15779706Y-16345888D02*
X15789229Y-16364936D01*
X15789229Y-16364936D02*
X15798753Y-16374460D01*
X15798753Y-16374460D02*
X15817801Y-16383984D01*
X15817801Y-16383984D02*
X15855896Y-16383984D01*
X15855896Y-16383984D02*
X15874944Y-16374460D01*
X15874944Y-16374460D02*
X15884468Y-16364936D01*
X15884468Y-16364936D02*
X15893991Y-16345888D01*
X15893991Y-16345888D02*
X15893991Y-16298269D01*
X15893991Y-16298269D02*
X15884468Y-16279222D01*
X15884468Y-16279222D02*
X15874944Y-16269698D01*
X15874944Y-16269698D02*
X15855896Y-16260174D01*
X15855896Y-16260174D02*
X15817801Y-16260174D01*
X15817801Y-16260174D02*
X15798753Y-16269698D01*
X15798753Y-16269698D02*
X15789229Y-16279222D01*
X15789229Y-16279222D02*
X15779706Y-16298269D01*
X16132087Y-16383984D02*
X16132087Y-16183984D01*
X16217801Y-16383984D02*
X16217801Y-16279222D01*
X16217801Y-16279222D02*
X16208277Y-16260174D01*
X16208277Y-16260174D02*
X16189230Y-16250650D01*
X16189230Y-16250650D02*
X16160658Y-16250650D01*
X16160658Y-16250650D02*
X16141610Y-16260174D01*
X16141610Y-16260174D02*
X16132087Y-16269698D01*
X16341610Y-16383984D02*
X16322563Y-16374460D01*
X16322563Y-16374460D02*
X16313039Y-16364936D01*
X16313039Y-16364936D02*
X16303515Y-16345888D01*
X16303515Y-16345888D02*
X16303515Y-16288746D01*
X16303515Y-16288746D02*
X16313039Y-16269698D01*
X16313039Y-16269698D02*
X16322563Y-16260174D01*
X16322563Y-16260174D02*
X16341610Y-16250650D01*
X16341610Y-16250650D02*
X16370182Y-16250650D01*
X16370182Y-16250650D02*
X16389230Y-16260174D01*
X16389230Y-16260174D02*
X16398753Y-16269698D01*
X16398753Y-16269698D02*
X16408277Y-16288746D01*
X16408277Y-16288746D02*
X16408277Y-16345888D01*
X16408277Y-16345888D02*
X16398753Y-16364936D01*
X16398753Y-16364936D02*
X16389230Y-16374460D01*
X16389230Y-16374460D02*
X16370182Y-16383984D01*
X16370182Y-16383984D02*
X16341610Y-16383984D01*
X16522563Y-16383984D02*
X16503515Y-16374460D01*
X16503515Y-16374460D02*
X16493991Y-16355412D01*
X16493991Y-16355412D02*
X16493991Y-16183984D01*
X16674944Y-16374460D02*
X16655896Y-16383984D01*
X16655896Y-16383984D02*
X16617801Y-16383984D01*
X16617801Y-16383984D02*
X16598753Y-16374460D01*
X16598753Y-16374460D02*
X16589230Y-16355412D01*
X16589230Y-16355412D02*
X16589230Y-16279222D01*
X16589230Y-16279222D02*
X16598753Y-16260174D01*
X16598753Y-16260174D02*
X16617801Y-16250650D01*
X16617801Y-16250650D02*
X16655896Y-16250650D01*
X16655896Y-16250650D02*
X16674944Y-16260174D01*
X16674944Y-16260174D02*
X16684468Y-16279222D01*
X16684468Y-16279222D02*
X16684468Y-16298269D01*
X16684468Y-16298269D02*
X16589230Y-16317317D01*
X16760658Y-16374460D02*
X16779706Y-16383984D01*
X16779706Y-16383984D02*
X16817801Y-16383984D01*
X16817801Y-16383984D02*
X16836849Y-16374460D01*
X16836849Y-16374460D02*
X16846373Y-16355412D01*
X16846373Y-16355412D02*
X16846373Y-16345888D01*
X16846373Y-16345888D02*
X16836849Y-16326841D01*
X16836849Y-16326841D02*
X16817801Y-16317317D01*
X16817801Y-16317317D02*
X16789230Y-16317317D01*
X16789230Y-16317317D02*
X16770182Y-16307793D01*
X16770182Y-16307793D02*
X16760658Y-16288746D01*
X16760658Y-16288746D02*
X16760658Y-16279222D01*
X16760658Y-16279222D02*
X16770182Y-16260174D01*
X16770182Y-16260174D02*
X16789230Y-16250650D01*
X16789230Y-16250650D02*
X16817801Y-16250650D01*
X16817801Y-16250650D02*
X16836849Y-16260174D01*
X16913039Y-16460174D02*
X16922563Y-16450650D01*
X16922563Y-16450650D02*
X16941611Y-16422079D01*
X16941611Y-16422079D02*
X16951134Y-16403031D01*
X16951134Y-16403031D02*
X16960658Y-16374460D01*
X16960658Y-16374460D02*
X16970182Y-16326841D01*
X16970182Y-16326841D02*
X16970182Y-16288746D01*
X16970182Y-16288746D02*
X16960658Y-16241127D01*
X16960658Y-16241127D02*
X16951134Y-16212555D01*
X16951134Y-16212555D02*
X16941611Y-16193508D01*
X16941611Y-16193508D02*
X16922563Y-16164936D01*
X16922563Y-16164936D02*
X16913039Y-16155412D01*
D12*
X11947500Y-16556500D02*
G75*
G02*
X11867500Y-16556500I-40000J0D01*
G01*
X11867500Y-16556500D02*
G75*
G02*
X11947500Y-16556500I40000J0D01*
G01*
D11*
X12246372Y-16447984D02*
X12265420Y-16447984D01*
X12265420Y-16447984D02*
X12284467Y-16457508D01*
X12284467Y-16457508D02*
X12293991Y-16467031D01*
X12293991Y-16467031D02*
X12303515Y-16486079D01*
X12303515Y-16486079D02*
X12313039Y-16524174D01*
X12313039Y-16524174D02*
X12313039Y-16571793D01*
X12313039Y-16571793D02*
X12303515Y-16609888D01*
X12303515Y-16609888D02*
X12293991Y-16628936D01*
X12293991Y-16628936D02*
X12284467Y-16638460D01*
X12284467Y-16638460D02*
X12265420Y-16647984D01*
X12265420Y-16647984D02*
X12246372Y-16647984D01*
X12246372Y-16647984D02*
X12227324Y-16638460D01*
X12227324Y-16638460D02*
X12217801Y-16628936D01*
X12217801Y-16628936D02*
X12208277Y-16609888D01*
X12208277Y-16609888D02*
X12198753Y-16571793D01*
X12198753Y-16571793D02*
X12198753Y-16524174D01*
X12198753Y-16524174D02*
X12208277Y-16486079D01*
X12208277Y-16486079D02*
X12217801Y-16467031D01*
X12217801Y-16467031D02*
X12227324Y-16457508D01*
X12227324Y-16457508D02*
X12246372Y-16447984D01*
X12398753Y-16628936D02*
X12408277Y-16638460D01*
X12408277Y-16638460D02*
X12398753Y-16647984D01*
X12398753Y-16647984D02*
X12389229Y-16638460D01*
X12389229Y-16638460D02*
X12398753Y-16628936D01*
X12398753Y-16628936D02*
X12398753Y-16647984D01*
X12522562Y-16533698D02*
X12503515Y-16524174D01*
X12503515Y-16524174D02*
X12493991Y-16514650D01*
X12493991Y-16514650D02*
X12484467Y-16495603D01*
X12484467Y-16495603D02*
X12484467Y-16486079D01*
X12484467Y-16486079D02*
X12493991Y-16467031D01*
X12493991Y-16467031D02*
X12503515Y-16457508D01*
X12503515Y-16457508D02*
X12522562Y-16447984D01*
X12522562Y-16447984D02*
X12560658Y-16447984D01*
X12560658Y-16447984D02*
X12579705Y-16457508D01*
X12579705Y-16457508D02*
X12589229Y-16467031D01*
X12589229Y-16467031D02*
X12598753Y-16486079D01*
X12598753Y-16486079D02*
X12598753Y-16495603D01*
X12598753Y-16495603D02*
X12589229Y-16514650D01*
X12589229Y-16514650D02*
X12579705Y-16524174D01*
X12579705Y-16524174D02*
X12560658Y-16533698D01*
X12560658Y-16533698D02*
X12522562Y-16533698D01*
X12522562Y-16533698D02*
X12503515Y-16543222D01*
X12503515Y-16543222D02*
X12493991Y-16552746D01*
X12493991Y-16552746D02*
X12484467Y-16571793D01*
X12484467Y-16571793D02*
X12484467Y-16609888D01*
X12484467Y-16609888D02*
X12493991Y-16628936D01*
X12493991Y-16628936D02*
X12503515Y-16638460D01*
X12503515Y-16638460D02*
X12522562Y-16647984D01*
X12522562Y-16647984D02*
X12560658Y-16647984D01*
X12560658Y-16647984D02*
X12579705Y-16638460D01*
X12579705Y-16638460D02*
X12589229Y-16628936D01*
X12589229Y-16628936D02*
X12598753Y-16609888D01*
X12598753Y-16609888D02*
X12598753Y-16571793D01*
X12598753Y-16571793D02*
X12589229Y-16552746D01*
X12589229Y-16552746D02*
X12579705Y-16543222D01*
X12579705Y-16543222D02*
X12560658Y-16533698D01*
X12722562Y-16447984D02*
X12741610Y-16447984D01*
X12741610Y-16447984D02*
X12760658Y-16457508D01*
X12760658Y-16457508D02*
X12770182Y-16467031D01*
X12770182Y-16467031D02*
X12779705Y-16486079D01*
X12779705Y-16486079D02*
X12789229Y-16524174D01*
X12789229Y-16524174D02*
X12789229Y-16571793D01*
X12789229Y-16571793D02*
X12779705Y-16609888D01*
X12779705Y-16609888D02*
X12770182Y-16628936D01*
X12770182Y-16628936D02*
X12760658Y-16638460D01*
X12760658Y-16638460D02*
X12741610Y-16647984D01*
X12741610Y-16647984D02*
X12722562Y-16647984D01*
X12722562Y-16647984D02*
X12703515Y-16638460D01*
X12703515Y-16638460D02*
X12693991Y-16628936D01*
X12693991Y-16628936D02*
X12684467Y-16609888D01*
X12684467Y-16609888D02*
X12674943Y-16571793D01*
X12674943Y-16571793D02*
X12674943Y-16524174D01*
X12674943Y-16524174D02*
X12684467Y-16486079D01*
X12684467Y-16486079D02*
X12693991Y-16467031D01*
X12693991Y-16467031D02*
X12703515Y-16457508D01*
X12703515Y-16457508D02*
X12722562Y-16447984D01*
X12913039Y-16447984D02*
X12932086Y-16447984D01*
X12932086Y-16447984D02*
X12951134Y-16457508D01*
X12951134Y-16457508D02*
X12960658Y-16467031D01*
X12960658Y-16467031D02*
X12970182Y-16486079D01*
X12970182Y-16486079D02*
X12979705Y-16524174D01*
X12979705Y-16524174D02*
X12979705Y-16571793D01*
X12979705Y-16571793D02*
X12970182Y-16609888D01*
X12970182Y-16609888D02*
X12960658Y-16628936D01*
X12960658Y-16628936D02*
X12951134Y-16638460D01*
X12951134Y-16638460D02*
X12932086Y-16647984D01*
X12932086Y-16647984D02*
X12913039Y-16647984D01*
X12913039Y-16647984D02*
X12893991Y-16638460D01*
X12893991Y-16638460D02*
X12884467Y-16628936D01*
X12884467Y-16628936D02*
X12874943Y-16609888D01*
X12874943Y-16609888D02*
X12865420Y-16571793D01*
X12865420Y-16571793D02*
X12865420Y-16524174D01*
X12865420Y-16524174D02*
X12874943Y-16486079D01*
X12874943Y-16486079D02*
X12884467Y-16467031D01*
X12884467Y-16467031D02*
X12893991Y-16457508D01*
X12893991Y-16457508D02*
X12913039Y-16447984D01*
X13065420Y-16647984D02*
X13065420Y-16514650D01*
X13065420Y-16533698D02*
X13074943Y-16524174D01*
X13074943Y-16524174D02*
X13093991Y-16514650D01*
X13093991Y-16514650D02*
X13122563Y-16514650D01*
X13122563Y-16514650D02*
X13141610Y-16524174D01*
X13141610Y-16524174D02*
X13151134Y-16543222D01*
X13151134Y-16543222D02*
X13151134Y-16647984D01*
X13151134Y-16543222D02*
X13160658Y-16524174D01*
X13160658Y-16524174D02*
X13179705Y-16514650D01*
X13179705Y-16514650D02*
X13208277Y-16514650D01*
X13208277Y-16514650D02*
X13227324Y-16524174D01*
X13227324Y-16524174D02*
X13236848Y-16543222D01*
X13236848Y-16543222D02*
X13236848Y-16647984D01*
X13332086Y-16647984D02*
X13332086Y-16514650D01*
X13332086Y-16533698D02*
X13341610Y-16524174D01*
X13341610Y-16524174D02*
X13360658Y-16514650D01*
X13360658Y-16514650D02*
X13389229Y-16514650D01*
X13389229Y-16514650D02*
X13408277Y-16524174D01*
X13408277Y-16524174D02*
X13417801Y-16543222D01*
X13417801Y-16543222D02*
X13417801Y-16647984D01*
X13417801Y-16543222D02*
X13427324Y-16524174D01*
X13427324Y-16524174D02*
X13446372Y-16514650D01*
X13446372Y-16514650D02*
X13474943Y-16514650D01*
X13474943Y-16514650D02*
X13493991Y-16524174D01*
X13493991Y-16524174D02*
X13503515Y-16543222D01*
X13503515Y-16543222D02*
X13503515Y-16647984D01*
X13893991Y-16438460D02*
X13722563Y-16695603D01*
X14151134Y-16447984D02*
X14170182Y-16447984D01*
X14170182Y-16447984D02*
X14189229Y-16457508D01*
X14189229Y-16457508D02*
X14198753Y-16467031D01*
X14198753Y-16467031D02*
X14208277Y-16486079D01*
X14208277Y-16486079D02*
X14217801Y-16524174D01*
X14217801Y-16524174D02*
X14217801Y-16571793D01*
X14217801Y-16571793D02*
X14208277Y-16609888D01*
X14208277Y-16609888D02*
X14198753Y-16628936D01*
X14198753Y-16628936D02*
X14189229Y-16638460D01*
X14189229Y-16638460D02*
X14170182Y-16647984D01*
X14170182Y-16647984D02*
X14151134Y-16647984D01*
X14151134Y-16647984D02*
X14132086Y-16638460D01*
X14132086Y-16638460D02*
X14122563Y-16628936D01*
X14122563Y-16628936D02*
X14113039Y-16609888D01*
X14113039Y-16609888D02*
X14103515Y-16571793D01*
X14103515Y-16571793D02*
X14103515Y-16524174D01*
X14103515Y-16524174D02*
X14113039Y-16486079D01*
X14113039Y-16486079D02*
X14122563Y-16467031D01*
X14122563Y-16467031D02*
X14132086Y-16457508D01*
X14132086Y-16457508D02*
X14151134Y-16447984D01*
X14303515Y-16628936D02*
X14313039Y-16638460D01*
X14313039Y-16638460D02*
X14303515Y-16647984D01*
X14303515Y-16647984D02*
X14293991Y-16638460D01*
X14293991Y-16638460D02*
X14303515Y-16628936D01*
X14303515Y-16628936D02*
X14303515Y-16647984D01*
X14436848Y-16447984D02*
X14455896Y-16447984D01*
X14455896Y-16447984D02*
X14474944Y-16457508D01*
X14474944Y-16457508D02*
X14484467Y-16467031D01*
X14484467Y-16467031D02*
X14493991Y-16486079D01*
X14493991Y-16486079D02*
X14503515Y-16524174D01*
X14503515Y-16524174D02*
X14503515Y-16571793D01*
X14503515Y-16571793D02*
X14493991Y-16609888D01*
X14493991Y-16609888D02*
X14484467Y-16628936D01*
X14484467Y-16628936D02*
X14474944Y-16638460D01*
X14474944Y-16638460D02*
X14455896Y-16647984D01*
X14455896Y-16647984D02*
X14436848Y-16647984D01*
X14436848Y-16647984D02*
X14417801Y-16638460D01*
X14417801Y-16638460D02*
X14408277Y-16628936D01*
X14408277Y-16628936D02*
X14398753Y-16609888D01*
X14398753Y-16609888D02*
X14389229Y-16571793D01*
X14389229Y-16571793D02*
X14389229Y-16524174D01*
X14389229Y-16524174D02*
X14398753Y-16486079D01*
X14398753Y-16486079D02*
X14408277Y-16467031D01*
X14408277Y-16467031D02*
X14417801Y-16457508D01*
X14417801Y-16457508D02*
X14436848Y-16447984D01*
X14570182Y-16447984D02*
X14693991Y-16447984D01*
X14693991Y-16447984D02*
X14627325Y-16524174D01*
X14627325Y-16524174D02*
X14655896Y-16524174D01*
X14655896Y-16524174D02*
X14674944Y-16533698D01*
X14674944Y-16533698D02*
X14684467Y-16543222D01*
X14684467Y-16543222D02*
X14693991Y-16562269D01*
X14693991Y-16562269D02*
X14693991Y-16609888D01*
X14693991Y-16609888D02*
X14684467Y-16628936D01*
X14684467Y-16628936D02*
X14674944Y-16638460D01*
X14674944Y-16638460D02*
X14655896Y-16647984D01*
X14655896Y-16647984D02*
X14598753Y-16647984D01*
X14598753Y-16647984D02*
X14579706Y-16638460D01*
X14579706Y-16638460D02*
X14570182Y-16628936D01*
X14884467Y-16647984D02*
X14770182Y-16647984D01*
X14827325Y-16647984D02*
X14827325Y-16447984D01*
X14827325Y-16447984D02*
X14808277Y-16476555D01*
X14808277Y-16476555D02*
X14789229Y-16495603D01*
X14789229Y-16495603D02*
X14770182Y-16505127D01*
X15065420Y-16447984D02*
X14970182Y-16447984D01*
X14970182Y-16447984D02*
X14960658Y-16543222D01*
X14960658Y-16543222D02*
X14970182Y-16533698D01*
X14970182Y-16533698D02*
X14989229Y-16524174D01*
X14989229Y-16524174D02*
X15036848Y-16524174D01*
X15036848Y-16524174D02*
X15055896Y-16533698D01*
X15055896Y-16533698D02*
X15065420Y-16543222D01*
X15065420Y-16543222D02*
X15074944Y-16562269D01*
X15074944Y-16562269D02*
X15074944Y-16609888D01*
X15074944Y-16609888D02*
X15065420Y-16628936D01*
X15065420Y-16628936D02*
X15055896Y-16638460D01*
X15055896Y-16638460D02*
X15036848Y-16647984D01*
X15036848Y-16647984D02*
X14989229Y-16647984D01*
X14989229Y-16647984D02*
X14970182Y-16638460D01*
X14970182Y-16638460D02*
X14960658Y-16628936D01*
X15151134Y-16447984D02*
X15151134Y-16486079D01*
X15227325Y-16447984D02*
X15227325Y-16486079D01*
X15522563Y-16724174D02*
X15513039Y-16714650D01*
X15513039Y-16714650D02*
X15493991Y-16686079D01*
X15493991Y-16686079D02*
X15484468Y-16667031D01*
X15484468Y-16667031D02*
X15474944Y-16638460D01*
X15474944Y-16638460D02*
X15465420Y-16590841D01*
X15465420Y-16590841D02*
X15465420Y-16552746D01*
X15465420Y-16552746D02*
X15474944Y-16505127D01*
X15474944Y-16505127D02*
X15484468Y-16476555D01*
X15484468Y-16476555D02*
X15493991Y-16457508D01*
X15493991Y-16457508D02*
X15513039Y-16428936D01*
X15513039Y-16428936D02*
X15522563Y-16419412D01*
X15684468Y-16514650D02*
X15684468Y-16647984D01*
X15636848Y-16438460D02*
X15589229Y-16581317D01*
X15589229Y-16581317D02*
X15713039Y-16581317D01*
X15941610Y-16647984D02*
X15941610Y-16447984D01*
X16027325Y-16647984D02*
X16027325Y-16543222D01*
X16027325Y-16543222D02*
X16017801Y-16524174D01*
X16017801Y-16524174D02*
X15998753Y-16514650D01*
X15998753Y-16514650D02*
X15970182Y-16514650D01*
X15970182Y-16514650D02*
X15951134Y-16524174D01*
X15951134Y-16524174D02*
X15941610Y-16533698D01*
X16151134Y-16647984D02*
X16132087Y-16638460D01*
X16132087Y-16638460D02*
X16122563Y-16628936D01*
X16122563Y-16628936D02*
X16113039Y-16609888D01*
X16113039Y-16609888D02*
X16113039Y-16552746D01*
X16113039Y-16552746D02*
X16122563Y-16533698D01*
X16122563Y-16533698D02*
X16132087Y-16524174D01*
X16132087Y-16524174D02*
X16151134Y-16514650D01*
X16151134Y-16514650D02*
X16179706Y-16514650D01*
X16179706Y-16514650D02*
X16198753Y-16524174D01*
X16198753Y-16524174D02*
X16208277Y-16533698D01*
X16208277Y-16533698D02*
X16217801Y-16552746D01*
X16217801Y-16552746D02*
X16217801Y-16609888D01*
X16217801Y-16609888D02*
X16208277Y-16628936D01*
X16208277Y-16628936D02*
X16198753Y-16638460D01*
X16198753Y-16638460D02*
X16179706Y-16647984D01*
X16179706Y-16647984D02*
X16151134Y-16647984D01*
X16332087Y-16647984D02*
X16313039Y-16638460D01*
X16313039Y-16638460D02*
X16303515Y-16619412D01*
X16303515Y-16619412D02*
X16303515Y-16447984D01*
X16484468Y-16638460D02*
X16465420Y-16647984D01*
X16465420Y-16647984D02*
X16427325Y-16647984D01*
X16427325Y-16647984D02*
X16408277Y-16638460D01*
X16408277Y-16638460D02*
X16398753Y-16619412D01*
X16398753Y-16619412D02*
X16398753Y-16543222D01*
X16398753Y-16543222D02*
X16408277Y-16524174D01*
X16408277Y-16524174D02*
X16427325Y-16514650D01*
X16427325Y-16514650D02*
X16465420Y-16514650D01*
X16465420Y-16514650D02*
X16484468Y-16524174D01*
X16484468Y-16524174D02*
X16493991Y-16543222D01*
X16493991Y-16543222D02*
X16493991Y-16562269D01*
X16493991Y-16562269D02*
X16398753Y-16581317D01*
X16570182Y-16638460D02*
X16589230Y-16647984D01*
X16589230Y-16647984D02*
X16627325Y-16647984D01*
X16627325Y-16647984D02*
X16646372Y-16638460D01*
X16646372Y-16638460D02*
X16655896Y-16619412D01*
X16655896Y-16619412D02*
X16655896Y-16609888D01*
X16655896Y-16609888D02*
X16646372Y-16590841D01*
X16646372Y-16590841D02*
X16627325Y-16581317D01*
X16627325Y-16581317D02*
X16598753Y-16581317D01*
X16598753Y-16581317D02*
X16579706Y-16571793D01*
X16579706Y-16571793D02*
X16570182Y-16552746D01*
X16570182Y-16552746D02*
X16570182Y-16543222D01*
X16570182Y-16543222D02*
X16579706Y-16524174D01*
X16579706Y-16524174D02*
X16598753Y-16514650D01*
X16598753Y-16514650D02*
X16627325Y-16514650D01*
X16627325Y-16514650D02*
X16646372Y-16524174D01*
X16722563Y-16724174D02*
X16732087Y-16714650D01*
X16732087Y-16714650D02*
X16751134Y-16686079D01*
X16751134Y-16686079D02*
X16760658Y-16667031D01*
X16760658Y-16667031D02*
X16770182Y-16638460D01*
X16770182Y-16638460D02*
X16779706Y-16590841D01*
X16779706Y-16590841D02*
X16779706Y-16552746D01*
X16779706Y-16552746D02*
X16770182Y-16505127D01*
X16770182Y-16505127D02*
X16760658Y-16476555D01*
X16760658Y-16476555D02*
X16751134Y-16457508D01*
X16751134Y-16457508D02*
X16732087Y-16428936D01*
X16732087Y-16428936D02*
X16722563Y-16419412D01*
D12*
X11902500Y-16775500D02*
X11902500Y-16865500D01*
X11857500Y-16820500D02*
X11947500Y-16820500D01*
D11*
X12246372Y-16711984D02*
X12265420Y-16711984D01*
X12265420Y-16711984D02*
X12284467Y-16721508D01*
X12284467Y-16721508D02*
X12293991Y-16731031D01*
X12293991Y-16731031D02*
X12303515Y-16750079D01*
X12303515Y-16750079D02*
X12313039Y-16788174D01*
X12313039Y-16788174D02*
X12313039Y-16835793D01*
X12313039Y-16835793D02*
X12303515Y-16873889D01*
X12303515Y-16873889D02*
X12293991Y-16892936D01*
X12293991Y-16892936D02*
X12284467Y-16902460D01*
X12284467Y-16902460D02*
X12265420Y-16911984D01*
X12265420Y-16911984D02*
X12246372Y-16911984D01*
X12246372Y-16911984D02*
X12227324Y-16902460D01*
X12227324Y-16902460D02*
X12217801Y-16892936D01*
X12217801Y-16892936D02*
X12208277Y-16873889D01*
X12208277Y-16873889D02*
X12198753Y-16835793D01*
X12198753Y-16835793D02*
X12198753Y-16788174D01*
X12198753Y-16788174D02*
X12208277Y-16750079D01*
X12208277Y-16750079D02*
X12217801Y-16731031D01*
X12217801Y-16731031D02*
X12227324Y-16721508D01*
X12227324Y-16721508D02*
X12246372Y-16711984D01*
X12398753Y-16892936D02*
X12408277Y-16902460D01*
X12408277Y-16902460D02*
X12398753Y-16911984D01*
X12398753Y-16911984D02*
X12389229Y-16902460D01*
X12389229Y-16902460D02*
X12398753Y-16892936D01*
X12398753Y-16892936D02*
X12398753Y-16911984D01*
X12503515Y-16911984D02*
X12541610Y-16911984D01*
X12541610Y-16911984D02*
X12560658Y-16902460D01*
X12560658Y-16902460D02*
X12570182Y-16892936D01*
X12570182Y-16892936D02*
X12589229Y-16864365D01*
X12589229Y-16864365D02*
X12598753Y-16826270D01*
X12598753Y-16826270D02*
X12598753Y-16750079D01*
X12598753Y-16750079D02*
X12589229Y-16731031D01*
X12589229Y-16731031D02*
X12579705Y-16721508D01*
X12579705Y-16721508D02*
X12560658Y-16711984D01*
X12560658Y-16711984D02*
X12522562Y-16711984D01*
X12522562Y-16711984D02*
X12503515Y-16721508D01*
X12503515Y-16721508D02*
X12493991Y-16731031D01*
X12493991Y-16731031D02*
X12484467Y-16750079D01*
X12484467Y-16750079D02*
X12484467Y-16797698D01*
X12484467Y-16797698D02*
X12493991Y-16816746D01*
X12493991Y-16816746D02*
X12503515Y-16826270D01*
X12503515Y-16826270D02*
X12522562Y-16835793D01*
X12522562Y-16835793D02*
X12560658Y-16835793D01*
X12560658Y-16835793D02*
X12579705Y-16826270D01*
X12579705Y-16826270D02*
X12589229Y-16816746D01*
X12589229Y-16816746D02*
X12598753Y-16797698D01*
X12722562Y-16711984D02*
X12741610Y-16711984D01*
X12741610Y-16711984D02*
X12760658Y-16721508D01*
X12760658Y-16721508D02*
X12770182Y-16731031D01*
X12770182Y-16731031D02*
X12779705Y-16750079D01*
X12779705Y-16750079D02*
X12789229Y-16788174D01*
X12789229Y-16788174D02*
X12789229Y-16835793D01*
X12789229Y-16835793D02*
X12779705Y-16873889D01*
X12779705Y-16873889D02*
X12770182Y-16892936D01*
X12770182Y-16892936D02*
X12760658Y-16902460D01*
X12760658Y-16902460D02*
X12741610Y-16911984D01*
X12741610Y-16911984D02*
X12722562Y-16911984D01*
X12722562Y-16911984D02*
X12703515Y-16902460D01*
X12703515Y-16902460D02*
X12693991Y-16892936D01*
X12693991Y-16892936D02*
X12684467Y-16873889D01*
X12684467Y-16873889D02*
X12674943Y-16835793D01*
X12674943Y-16835793D02*
X12674943Y-16788174D01*
X12674943Y-16788174D02*
X12684467Y-16750079D01*
X12684467Y-16750079D02*
X12693991Y-16731031D01*
X12693991Y-16731031D02*
X12703515Y-16721508D01*
X12703515Y-16721508D02*
X12722562Y-16711984D01*
X12913039Y-16711984D02*
X12932086Y-16711984D01*
X12932086Y-16711984D02*
X12951134Y-16721508D01*
X12951134Y-16721508D02*
X12960658Y-16731031D01*
X12960658Y-16731031D02*
X12970182Y-16750079D01*
X12970182Y-16750079D02*
X12979705Y-16788174D01*
X12979705Y-16788174D02*
X12979705Y-16835793D01*
X12979705Y-16835793D02*
X12970182Y-16873889D01*
X12970182Y-16873889D02*
X12960658Y-16892936D01*
X12960658Y-16892936D02*
X12951134Y-16902460D01*
X12951134Y-16902460D02*
X12932086Y-16911984D01*
X12932086Y-16911984D02*
X12913039Y-16911984D01*
X12913039Y-16911984D02*
X12893991Y-16902460D01*
X12893991Y-16902460D02*
X12884467Y-16892936D01*
X12884467Y-16892936D02*
X12874943Y-16873889D01*
X12874943Y-16873889D02*
X12865420Y-16835793D01*
X12865420Y-16835793D02*
X12865420Y-16788174D01*
X12865420Y-16788174D02*
X12874943Y-16750079D01*
X12874943Y-16750079D02*
X12884467Y-16731031D01*
X12884467Y-16731031D02*
X12893991Y-16721508D01*
X12893991Y-16721508D02*
X12913039Y-16711984D01*
X13065420Y-16911984D02*
X13065420Y-16778650D01*
X13065420Y-16797698D02*
X13074943Y-16788174D01*
X13074943Y-16788174D02*
X13093991Y-16778650D01*
X13093991Y-16778650D02*
X13122563Y-16778650D01*
X13122563Y-16778650D02*
X13141610Y-16788174D01*
X13141610Y-16788174D02*
X13151134Y-16807222D01*
X13151134Y-16807222D02*
X13151134Y-16911984D01*
X13151134Y-16807222D02*
X13160658Y-16788174D01*
X13160658Y-16788174D02*
X13179705Y-16778650D01*
X13179705Y-16778650D02*
X13208277Y-16778650D01*
X13208277Y-16778650D02*
X13227324Y-16788174D01*
X13227324Y-16788174D02*
X13236848Y-16807222D01*
X13236848Y-16807222D02*
X13236848Y-16911984D01*
X13332086Y-16911984D02*
X13332086Y-16778650D01*
X13332086Y-16797698D02*
X13341610Y-16788174D01*
X13341610Y-16788174D02*
X13360658Y-16778650D01*
X13360658Y-16778650D02*
X13389229Y-16778650D01*
X13389229Y-16778650D02*
X13408277Y-16788174D01*
X13408277Y-16788174D02*
X13417801Y-16807222D01*
X13417801Y-16807222D02*
X13417801Y-16911984D01*
X13417801Y-16807222D02*
X13427324Y-16788174D01*
X13427324Y-16788174D02*
X13446372Y-16778650D01*
X13446372Y-16778650D02*
X13474943Y-16778650D01*
X13474943Y-16778650D02*
X13493991Y-16788174D01*
X13493991Y-16788174D02*
X13503515Y-16807222D01*
X13503515Y-16807222D02*
X13503515Y-16911984D01*
X13893991Y-16702460D02*
X13722563Y-16959603D01*
X14151134Y-16711984D02*
X14170182Y-16711984D01*
X14170182Y-16711984D02*
X14189229Y-16721508D01*
X14189229Y-16721508D02*
X14198753Y-16731031D01*
X14198753Y-16731031D02*
X14208277Y-16750079D01*
X14208277Y-16750079D02*
X14217801Y-16788174D01*
X14217801Y-16788174D02*
X14217801Y-16835793D01*
X14217801Y-16835793D02*
X14208277Y-16873889D01*
X14208277Y-16873889D02*
X14198753Y-16892936D01*
X14198753Y-16892936D02*
X14189229Y-16902460D01*
X14189229Y-16902460D02*
X14170182Y-16911984D01*
X14170182Y-16911984D02*
X14151134Y-16911984D01*
X14151134Y-16911984D02*
X14132086Y-16902460D01*
X14132086Y-16902460D02*
X14122563Y-16892936D01*
X14122563Y-16892936D02*
X14113039Y-16873889D01*
X14113039Y-16873889D02*
X14103515Y-16835793D01*
X14103515Y-16835793D02*
X14103515Y-16788174D01*
X14103515Y-16788174D02*
X14113039Y-16750079D01*
X14113039Y-16750079D02*
X14122563Y-16731031D01*
X14122563Y-16731031D02*
X14132086Y-16721508D01*
X14132086Y-16721508D02*
X14151134Y-16711984D01*
X14303515Y-16892936D02*
X14313039Y-16902460D01*
X14313039Y-16902460D02*
X14303515Y-16911984D01*
X14303515Y-16911984D02*
X14293991Y-16902460D01*
X14293991Y-16902460D02*
X14303515Y-16892936D01*
X14303515Y-16892936D02*
X14303515Y-16911984D01*
X14436848Y-16711984D02*
X14455896Y-16711984D01*
X14455896Y-16711984D02*
X14474944Y-16721508D01*
X14474944Y-16721508D02*
X14484467Y-16731031D01*
X14484467Y-16731031D02*
X14493991Y-16750079D01*
X14493991Y-16750079D02*
X14503515Y-16788174D01*
X14503515Y-16788174D02*
X14503515Y-16835793D01*
X14503515Y-16835793D02*
X14493991Y-16873889D01*
X14493991Y-16873889D02*
X14484467Y-16892936D01*
X14484467Y-16892936D02*
X14474944Y-16902460D01*
X14474944Y-16902460D02*
X14455896Y-16911984D01*
X14455896Y-16911984D02*
X14436848Y-16911984D01*
X14436848Y-16911984D02*
X14417801Y-16902460D01*
X14417801Y-16902460D02*
X14408277Y-16892936D01*
X14408277Y-16892936D02*
X14398753Y-16873889D01*
X14398753Y-16873889D02*
X14389229Y-16835793D01*
X14389229Y-16835793D02*
X14389229Y-16788174D01*
X14389229Y-16788174D02*
X14398753Y-16750079D01*
X14398753Y-16750079D02*
X14408277Y-16731031D01*
X14408277Y-16731031D02*
X14417801Y-16721508D01*
X14417801Y-16721508D02*
X14436848Y-16711984D01*
X14570182Y-16711984D02*
X14693991Y-16711984D01*
X14693991Y-16711984D02*
X14627325Y-16788174D01*
X14627325Y-16788174D02*
X14655896Y-16788174D01*
X14655896Y-16788174D02*
X14674944Y-16797698D01*
X14674944Y-16797698D02*
X14684467Y-16807222D01*
X14684467Y-16807222D02*
X14693991Y-16826270D01*
X14693991Y-16826270D02*
X14693991Y-16873889D01*
X14693991Y-16873889D02*
X14684467Y-16892936D01*
X14684467Y-16892936D02*
X14674944Y-16902460D01*
X14674944Y-16902460D02*
X14655896Y-16911984D01*
X14655896Y-16911984D02*
X14598753Y-16911984D01*
X14598753Y-16911984D02*
X14579706Y-16902460D01*
X14579706Y-16902460D02*
X14570182Y-16892936D01*
X14874944Y-16711984D02*
X14779706Y-16711984D01*
X14779706Y-16711984D02*
X14770182Y-16807222D01*
X14770182Y-16807222D02*
X14779706Y-16797698D01*
X14779706Y-16797698D02*
X14798753Y-16788174D01*
X14798753Y-16788174D02*
X14846372Y-16788174D01*
X14846372Y-16788174D02*
X14865420Y-16797698D01*
X14865420Y-16797698D02*
X14874944Y-16807222D01*
X14874944Y-16807222D02*
X14884467Y-16826270D01*
X14884467Y-16826270D02*
X14884467Y-16873889D01*
X14884467Y-16873889D02*
X14874944Y-16892936D01*
X14874944Y-16892936D02*
X14865420Y-16902460D01*
X14865420Y-16902460D02*
X14846372Y-16911984D01*
X14846372Y-16911984D02*
X14798753Y-16911984D01*
X14798753Y-16911984D02*
X14779706Y-16902460D01*
X14779706Y-16902460D02*
X14770182Y-16892936D01*
X15055896Y-16778650D02*
X15055896Y-16911984D01*
X15008277Y-16702460D02*
X14960658Y-16845317D01*
X14960658Y-16845317D02*
X15084467Y-16845317D01*
X15151134Y-16711984D02*
X15151134Y-16750079D01*
X15227325Y-16711984D02*
X15227325Y-16750079D01*
X15522563Y-16988174D02*
X15513039Y-16978650D01*
X15513039Y-16978650D02*
X15493991Y-16950079D01*
X15493991Y-16950079D02*
X15484468Y-16931031D01*
X15484468Y-16931031D02*
X15474944Y-16902460D01*
X15474944Y-16902460D02*
X15465420Y-16854841D01*
X15465420Y-16854841D02*
X15465420Y-16816746D01*
X15465420Y-16816746D02*
X15474944Y-16769127D01*
X15474944Y-16769127D02*
X15484468Y-16740555D01*
X15484468Y-16740555D02*
X15493991Y-16721508D01*
X15493991Y-16721508D02*
X15513039Y-16692936D01*
X15513039Y-16692936D02*
X15522563Y-16683412D01*
X15684468Y-16778650D02*
X15684468Y-16911984D01*
X15636848Y-16702460D02*
X15589229Y-16845317D01*
X15589229Y-16845317D02*
X15713039Y-16845317D01*
X15941610Y-16911984D02*
X15941610Y-16711984D01*
X16027325Y-16911984D02*
X16027325Y-16807222D01*
X16027325Y-16807222D02*
X16017801Y-16788174D01*
X16017801Y-16788174D02*
X15998753Y-16778650D01*
X15998753Y-16778650D02*
X15970182Y-16778650D01*
X15970182Y-16778650D02*
X15951134Y-16788174D01*
X15951134Y-16788174D02*
X15941610Y-16797698D01*
X16151134Y-16911984D02*
X16132087Y-16902460D01*
X16132087Y-16902460D02*
X16122563Y-16892936D01*
X16122563Y-16892936D02*
X16113039Y-16873889D01*
X16113039Y-16873889D02*
X16113039Y-16816746D01*
X16113039Y-16816746D02*
X16122563Y-16797698D01*
X16122563Y-16797698D02*
X16132087Y-16788174D01*
X16132087Y-16788174D02*
X16151134Y-16778650D01*
X16151134Y-16778650D02*
X16179706Y-16778650D01*
X16179706Y-16778650D02*
X16198753Y-16788174D01*
X16198753Y-16788174D02*
X16208277Y-16797698D01*
X16208277Y-16797698D02*
X16217801Y-16816746D01*
X16217801Y-16816746D02*
X16217801Y-16873889D01*
X16217801Y-16873889D02*
X16208277Y-16892936D01*
X16208277Y-16892936D02*
X16198753Y-16902460D01*
X16198753Y-16902460D02*
X16179706Y-16911984D01*
X16179706Y-16911984D02*
X16151134Y-16911984D01*
X16332087Y-16911984D02*
X16313039Y-16902460D01*
X16313039Y-16902460D02*
X16303515Y-16883412D01*
X16303515Y-16883412D02*
X16303515Y-16711984D01*
X16484468Y-16902460D02*
X16465420Y-16911984D01*
X16465420Y-16911984D02*
X16427325Y-16911984D01*
X16427325Y-16911984D02*
X16408277Y-16902460D01*
X16408277Y-16902460D02*
X16398753Y-16883412D01*
X16398753Y-16883412D02*
X16398753Y-16807222D01*
X16398753Y-16807222D02*
X16408277Y-16788174D01*
X16408277Y-16788174D02*
X16427325Y-16778650D01*
X16427325Y-16778650D02*
X16465420Y-16778650D01*
X16465420Y-16778650D02*
X16484468Y-16788174D01*
X16484468Y-16788174D02*
X16493991Y-16807222D01*
X16493991Y-16807222D02*
X16493991Y-16826270D01*
X16493991Y-16826270D02*
X16398753Y-16845317D01*
X16570182Y-16902460D02*
X16589230Y-16911984D01*
X16589230Y-16911984D02*
X16627325Y-16911984D01*
X16627325Y-16911984D02*
X16646372Y-16902460D01*
X16646372Y-16902460D02*
X16655896Y-16883412D01*
X16655896Y-16883412D02*
X16655896Y-16873889D01*
X16655896Y-16873889D02*
X16646372Y-16854841D01*
X16646372Y-16854841D02*
X16627325Y-16845317D01*
X16627325Y-16845317D02*
X16598753Y-16845317D01*
X16598753Y-16845317D02*
X16579706Y-16835793D01*
X16579706Y-16835793D02*
X16570182Y-16816746D01*
X16570182Y-16816746D02*
X16570182Y-16807222D01*
X16570182Y-16807222D02*
X16579706Y-16788174D01*
X16579706Y-16788174D02*
X16598753Y-16778650D01*
X16598753Y-16778650D02*
X16627325Y-16778650D01*
X16627325Y-16778650D02*
X16646372Y-16788174D01*
X16722563Y-16988174D02*
X16732087Y-16978650D01*
X16732087Y-16978650D02*
X16751134Y-16950079D01*
X16751134Y-16950079D02*
X16760658Y-16931031D01*
X16760658Y-16931031D02*
X16770182Y-16902460D01*
X16770182Y-16902460D02*
X16779706Y-16854841D01*
X16779706Y-16854841D02*
X16779706Y-16816746D01*
X16779706Y-16816746D02*
X16770182Y-16769127D01*
X16770182Y-16769127D02*
X16760658Y-16740555D01*
X16760658Y-16740555D02*
X16751134Y-16721508D01*
X16751134Y-16721508D02*
X16732087Y-16692936D01*
X16732087Y-16692936D02*
X16722563Y-16683412D01*
D12*
X11932856Y-17119856D02*
X11932856Y-17049144D01*
X11862144Y-17049144D01*
X11862144Y-17119856D01*
X11932856Y-17119856D01*
D11*
X12313039Y-17175984D02*
X12198753Y-17175984D01*
X12255896Y-17175984D02*
X12255896Y-16975984D01*
X12255896Y-16975984D02*
X12236848Y-17004555D01*
X12236848Y-17004555D02*
X12217801Y-17023603D01*
X12217801Y-17023603D02*
X12198753Y-17033127D01*
X12398753Y-17156936D02*
X12408277Y-17166460D01*
X12408277Y-17166460D02*
X12398753Y-17175984D01*
X12398753Y-17175984D02*
X12389229Y-17166460D01*
X12389229Y-17166460D02*
X12398753Y-17156936D01*
X12398753Y-17156936D02*
X12398753Y-17175984D01*
X12532086Y-16975984D02*
X12551134Y-16975984D01*
X12551134Y-16975984D02*
X12570182Y-16985508D01*
X12570182Y-16985508D02*
X12579705Y-16995031D01*
X12579705Y-16995031D02*
X12589229Y-17014079D01*
X12589229Y-17014079D02*
X12598753Y-17052174D01*
X12598753Y-17052174D02*
X12598753Y-17099793D01*
X12598753Y-17099793D02*
X12589229Y-17137889D01*
X12589229Y-17137889D02*
X12579705Y-17156936D01*
X12579705Y-17156936D02*
X12570182Y-17166460D01*
X12570182Y-17166460D02*
X12551134Y-17175984D01*
X12551134Y-17175984D02*
X12532086Y-17175984D01*
X12532086Y-17175984D02*
X12513039Y-17166460D01*
X12513039Y-17166460D02*
X12503515Y-17156936D01*
X12503515Y-17156936D02*
X12493991Y-17137889D01*
X12493991Y-17137889D02*
X12484467Y-17099793D01*
X12484467Y-17099793D02*
X12484467Y-17052174D01*
X12484467Y-17052174D02*
X12493991Y-17014079D01*
X12493991Y-17014079D02*
X12503515Y-16995031D01*
X12503515Y-16995031D02*
X12513039Y-16985508D01*
X12513039Y-16985508D02*
X12532086Y-16975984D01*
X12722562Y-16975984D02*
X12741610Y-16975984D01*
X12741610Y-16975984D02*
X12760658Y-16985508D01*
X12760658Y-16985508D02*
X12770182Y-16995031D01*
X12770182Y-16995031D02*
X12779705Y-17014079D01*
X12779705Y-17014079D02*
X12789229Y-17052174D01*
X12789229Y-17052174D02*
X12789229Y-17099793D01*
X12789229Y-17099793D02*
X12779705Y-17137889D01*
X12779705Y-17137889D02*
X12770182Y-17156936D01*
X12770182Y-17156936D02*
X12760658Y-17166460D01*
X12760658Y-17166460D02*
X12741610Y-17175984D01*
X12741610Y-17175984D02*
X12722562Y-17175984D01*
X12722562Y-17175984D02*
X12703515Y-17166460D01*
X12703515Y-17166460D02*
X12693991Y-17156936D01*
X12693991Y-17156936D02*
X12684467Y-17137889D01*
X12684467Y-17137889D02*
X12674943Y-17099793D01*
X12674943Y-17099793D02*
X12674943Y-17052174D01*
X12674943Y-17052174D02*
X12684467Y-17014079D01*
X12684467Y-17014079D02*
X12693991Y-16995031D01*
X12693991Y-16995031D02*
X12703515Y-16985508D01*
X12703515Y-16985508D02*
X12722562Y-16975984D01*
X12913039Y-16975984D02*
X12932086Y-16975984D01*
X12932086Y-16975984D02*
X12951134Y-16985508D01*
X12951134Y-16985508D02*
X12960658Y-16995031D01*
X12960658Y-16995031D02*
X12970182Y-17014079D01*
X12970182Y-17014079D02*
X12979705Y-17052174D01*
X12979705Y-17052174D02*
X12979705Y-17099793D01*
X12979705Y-17099793D02*
X12970182Y-17137889D01*
X12970182Y-17137889D02*
X12960658Y-17156936D01*
X12960658Y-17156936D02*
X12951134Y-17166460D01*
X12951134Y-17166460D02*
X12932086Y-17175984D01*
X12932086Y-17175984D02*
X12913039Y-17175984D01*
X12913039Y-17175984D02*
X12893991Y-17166460D01*
X12893991Y-17166460D02*
X12884467Y-17156936D01*
X12884467Y-17156936D02*
X12874943Y-17137889D01*
X12874943Y-17137889D02*
X12865420Y-17099793D01*
X12865420Y-17099793D02*
X12865420Y-17052174D01*
X12865420Y-17052174D02*
X12874943Y-17014079D01*
X12874943Y-17014079D02*
X12884467Y-16995031D01*
X12884467Y-16995031D02*
X12893991Y-16985508D01*
X12893991Y-16985508D02*
X12913039Y-16975984D01*
X13065420Y-17175984D02*
X13065420Y-17042650D01*
X13065420Y-17061698D02*
X13074943Y-17052174D01*
X13074943Y-17052174D02*
X13093991Y-17042650D01*
X13093991Y-17042650D02*
X13122563Y-17042650D01*
X13122563Y-17042650D02*
X13141610Y-17052174D01*
X13141610Y-17052174D02*
X13151134Y-17071222D01*
X13151134Y-17071222D02*
X13151134Y-17175984D01*
X13151134Y-17071222D02*
X13160658Y-17052174D01*
X13160658Y-17052174D02*
X13179705Y-17042650D01*
X13179705Y-17042650D02*
X13208277Y-17042650D01*
X13208277Y-17042650D02*
X13227324Y-17052174D01*
X13227324Y-17052174D02*
X13236848Y-17071222D01*
X13236848Y-17071222D02*
X13236848Y-17175984D01*
X13332086Y-17175984D02*
X13332086Y-17042650D01*
X13332086Y-17061698D02*
X13341610Y-17052174D01*
X13341610Y-17052174D02*
X13360658Y-17042650D01*
X13360658Y-17042650D02*
X13389229Y-17042650D01*
X13389229Y-17042650D02*
X13408277Y-17052174D01*
X13408277Y-17052174D02*
X13417801Y-17071222D01*
X13417801Y-17071222D02*
X13417801Y-17175984D01*
X13417801Y-17071222D02*
X13427324Y-17052174D01*
X13427324Y-17052174D02*
X13446372Y-17042650D01*
X13446372Y-17042650D02*
X13474943Y-17042650D01*
X13474943Y-17042650D02*
X13493991Y-17052174D01*
X13493991Y-17052174D02*
X13503515Y-17071222D01*
X13503515Y-17071222D02*
X13503515Y-17175984D01*
X13893991Y-16966460D02*
X13722563Y-17223603D01*
X14151134Y-16975984D02*
X14170182Y-16975984D01*
X14170182Y-16975984D02*
X14189229Y-16985508D01*
X14189229Y-16985508D02*
X14198753Y-16995031D01*
X14198753Y-16995031D02*
X14208277Y-17014079D01*
X14208277Y-17014079D02*
X14217801Y-17052174D01*
X14217801Y-17052174D02*
X14217801Y-17099793D01*
X14217801Y-17099793D02*
X14208277Y-17137889D01*
X14208277Y-17137889D02*
X14198753Y-17156936D01*
X14198753Y-17156936D02*
X14189229Y-17166460D01*
X14189229Y-17166460D02*
X14170182Y-17175984D01*
X14170182Y-17175984D02*
X14151134Y-17175984D01*
X14151134Y-17175984D02*
X14132086Y-17166460D01*
X14132086Y-17166460D02*
X14122563Y-17156936D01*
X14122563Y-17156936D02*
X14113039Y-17137889D01*
X14113039Y-17137889D02*
X14103515Y-17099793D01*
X14103515Y-17099793D02*
X14103515Y-17052174D01*
X14103515Y-17052174D02*
X14113039Y-17014079D01*
X14113039Y-17014079D02*
X14122563Y-16995031D01*
X14122563Y-16995031D02*
X14132086Y-16985508D01*
X14132086Y-16985508D02*
X14151134Y-16975984D01*
X14303515Y-17156936D02*
X14313039Y-17166460D01*
X14313039Y-17166460D02*
X14303515Y-17175984D01*
X14303515Y-17175984D02*
X14293991Y-17166460D01*
X14293991Y-17166460D02*
X14303515Y-17156936D01*
X14303515Y-17156936D02*
X14303515Y-17175984D01*
X14436848Y-16975984D02*
X14455896Y-16975984D01*
X14455896Y-16975984D02*
X14474944Y-16985508D01*
X14474944Y-16985508D02*
X14484467Y-16995031D01*
X14484467Y-16995031D02*
X14493991Y-17014079D01*
X14493991Y-17014079D02*
X14503515Y-17052174D01*
X14503515Y-17052174D02*
X14503515Y-17099793D01*
X14503515Y-17099793D02*
X14493991Y-17137889D01*
X14493991Y-17137889D02*
X14484467Y-17156936D01*
X14484467Y-17156936D02*
X14474944Y-17166460D01*
X14474944Y-17166460D02*
X14455896Y-17175984D01*
X14455896Y-17175984D02*
X14436848Y-17175984D01*
X14436848Y-17175984D02*
X14417801Y-17166460D01*
X14417801Y-17166460D02*
X14408277Y-17156936D01*
X14408277Y-17156936D02*
X14398753Y-17137889D01*
X14398753Y-17137889D02*
X14389229Y-17099793D01*
X14389229Y-17099793D02*
X14389229Y-17052174D01*
X14389229Y-17052174D02*
X14398753Y-17014079D01*
X14398753Y-17014079D02*
X14408277Y-16995031D01*
X14408277Y-16995031D02*
X14417801Y-16985508D01*
X14417801Y-16985508D02*
X14436848Y-16975984D01*
X14570182Y-16975984D02*
X14693991Y-16975984D01*
X14693991Y-16975984D02*
X14627325Y-17052174D01*
X14627325Y-17052174D02*
X14655896Y-17052174D01*
X14655896Y-17052174D02*
X14674944Y-17061698D01*
X14674944Y-17061698D02*
X14684467Y-17071222D01*
X14684467Y-17071222D02*
X14693991Y-17090270D01*
X14693991Y-17090270D02*
X14693991Y-17137889D01*
X14693991Y-17137889D02*
X14684467Y-17156936D01*
X14684467Y-17156936D02*
X14674944Y-17166460D01*
X14674944Y-17166460D02*
X14655896Y-17175984D01*
X14655896Y-17175984D02*
X14598753Y-17175984D01*
X14598753Y-17175984D02*
X14579706Y-17166460D01*
X14579706Y-17166460D02*
X14570182Y-17156936D01*
X14789229Y-17175984D02*
X14827325Y-17175984D01*
X14827325Y-17175984D02*
X14846372Y-17166460D01*
X14846372Y-17166460D02*
X14855896Y-17156936D01*
X14855896Y-17156936D02*
X14874944Y-17128365D01*
X14874944Y-17128365D02*
X14884467Y-17090270D01*
X14884467Y-17090270D02*
X14884467Y-17014079D01*
X14884467Y-17014079D02*
X14874944Y-16995031D01*
X14874944Y-16995031D02*
X14865420Y-16985508D01*
X14865420Y-16985508D02*
X14846372Y-16975984D01*
X14846372Y-16975984D02*
X14808277Y-16975984D01*
X14808277Y-16975984D02*
X14789229Y-16985508D01*
X14789229Y-16985508D02*
X14779706Y-16995031D01*
X14779706Y-16995031D02*
X14770182Y-17014079D01*
X14770182Y-17014079D02*
X14770182Y-17061698D01*
X14770182Y-17061698D02*
X14779706Y-17080746D01*
X14779706Y-17080746D02*
X14789229Y-17090270D01*
X14789229Y-17090270D02*
X14808277Y-17099793D01*
X14808277Y-17099793D02*
X14846372Y-17099793D01*
X14846372Y-17099793D02*
X14865420Y-17090270D01*
X14865420Y-17090270D02*
X14874944Y-17080746D01*
X14874944Y-17080746D02*
X14884467Y-17061698D01*
X15055896Y-17042650D02*
X15055896Y-17175984D01*
X15008277Y-16966460D02*
X14960658Y-17109317D01*
X14960658Y-17109317D02*
X15084467Y-17109317D01*
X15151134Y-16975984D02*
X15151134Y-17014079D01*
X15227325Y-16975984D02*
X15227325Y-17014079D01*
X15522563Y-17252174D02*
X15513039Y-17242650D01*
X15513039Y-17242650D02*
X15493991Y-17214079D01*
X15493991Y-17214079D02*
X15484468Y-17195031D01*
X15484468Y-17195031D02*
X15474944Y-17166460D01*
X15474944Y-17166460D02*
X15465420Y-17118841D01*
X15465420Y-17118841D02*
X15465420Y-17080746D01*
X15465420Y-17080746D02*
X15474944Y-17033127D01*
X15474944Y-17033127D02*
X15484468Y-17004555D01*
X15484468Y-17004555D02*
X15493991Y-16985508D01*
X15493991Y-16985508D02*
X15513039Y-16956936D01*
X15513039Y-16956936D02*
X15522563Y-16947412D01*
X15579706Y-16975984D02*
X15713039Y-16975984D01*
X15713039Y-16975984D02*
X15627325Y-17175984D01*
X15893991Y-17175984D02*
X15779706Y-17175984D01*
X15836848Y-17175984D02*
X15836848Y-16975984D01*
X15836848Y-16975984D02*
X15817801Y-17004555D01*
X15817801Y-17004555D02*
X15798753Y-17023603D01*
X15798753Y-17023603D02*
X15779706Y-17033127D01*
X16132087Y-17175984D02*
X16132087Y-16975984D01*
X16217801Y-17175984D02*
X16217801Y-17071222D01*
X16217801Y-17071222D02*
X16208277Y-17052174D01*
X16208277Y-17052174D02*
X16189230Y-17042650D01*
X16189230Y-17042650D02*
X16160658Y-17042650D01*
X16160658Y-17042650D02*
X16141610Y-17052174D01*
X16141610Y-17052174D02*
X16132087Y-17061698D01*
X16341610Y-17175984D02*
X16322563Y-17166460D01*
X16322563Y-17166460D02*
X16313039Y-17156936D01*
X16313039Y-17156936D02*
X16303515Y-17137889D01*
X16303515Y-17137889D02*
X16303515Y-17080746D01*
X16303515Y-17080746D02*
X16313039Y-17061698D01*
X16313039Y-17061698D02*
X16322563Y-17052174D01*
X16322563Y-17052174D02*
X16341610Y-17042650D01*
X16341610Y-17042650D02*
X16370182Y-17042650D01*
X16370182Y-17042650D02*
X16389230Y-17052174D01*
X16389230Y-17052174D02*
X16398753Y-17061698D01*
X16398753Y-17061698D02*
X16408277Y-17080746D01*
X16408277Y-17080746D02*
X16408277Y-17137889D01*
X16408277Y-17137889D02*
X16398753Y-17156936D01*
X16398753Y-17156936D02*
X16389230Y-17166460D01*
X16389230Y-17166460D02*
X16370182Y-17175984D01*
X16370182Y-17175984D02*
X16341610Y-17175984D01*
X16522563Y-17175984D02*
X16503515Y-17166460D01*
X16503515Y-17166460D02*
X16493991Y-17147412D01*
X16493991Y-17147412D02*
X16493991Y-16975984D01*
X16674944Y-17166460D02*
X16655896Y-17175984D01*
X16655896Y-17175984D02*
X16617801Y-17175984D01*
X16617801Y-17175984D02*
X16598753Y-17166460D01*
X16598753Y-17166460D02*
X16589230Y-17147412D01*
X16589230Y-17147412D02*
X16589230Y-17071222D01*
X16589230Y-17071222D02*
X16598753Y-17052174D01*
X16598753Y-17052174D02*
X16617801Y-17042650D01*
X16617801Y-17042650D02*
X16655896Y-17042650D01*
X16655896Y-17042650D02*
X16674944Y-17052174D01*
X16674944Y-17052174D02*
X16684468Y-17071222D01*
X16684468Y-17071222D02*
X16684468Y-17090270D01*
X16684468Y-17090270D02*
X16589230Y-17109317D01*
X16760658Y-17166460D02*
X16779706Y-17175984D01*
X16779706Y-17175984D02*
X16817801Y-17175984D01*
X16817801Y-17175984D02*
X16836849Y-17166460D01*
X16836849Y-17166460D02*
X16846373Y-17147412D01*
X16846373Y-17147412D02*
X16846373Y-17137889D01*
X16846373Y-17137889D02*
X16836849Y-17118841D01*
X16836849Y-17118841D02*
X16817801Y-17109317D01*
X16817801Y-17109317D02*
X16789230Y-17109317D01*
X16789230Y-17109317D02*
X16770182Y-17099793D01*
X16770182Y-17099793D02*
X16760658Y-17080746D01*
X16760658Y-17080746D02*
X16760658Y-17071222D01*
X16760658Y-17071222D02*
X16770182Y-17052174D01*
X16770182Y-17052174D02*
X16789230Y-17042650D01*
X16789230Y-17042650D02*
X16817801Y-17042650D01*
X16817801Y-17042650D02*
X16836849Y-17052174D01*
X17084468Y-17099793D02*
X17236849Y-17099793D01*
X17160658Y-17175984D02*
X17160658Y-17023603D01*
X17474944Y-16995031D02*
X17484468Y-16985508D01*
X17484468Y-16985508D02*
X17503515Y-16975984D01*
X17503515Y-16975984D02*
X17551135Y-16975984D01*
X17551135Y-16975984D02*
X17570182Y-16985508D01*
X17570182Y-16985508D02*
X17579706Y-16995031D01*
X17579706Y-16995031D02*
X17589230Y-17014079D01*
X17589230Y-17014079D02*
X17589230Y-17033127D01*
X17589230Y-17033127D02*
X17579706Y-17061698D01*
X17579706Y-17061698D02*
X17465420Y-17175984D01*
X17465420Y-17175984D02*
X17589230Y-17175984D01*
X17817801Y-17166460D02*
X17836849Y-17175984D01*
X17836849Y-17175984D02*
X17874944Y-17175984D01*
X17874944Y-17175984D02*
X17893992Y-17166460D01*
X17893992Y-17166460D02*
X17903516Y-17147412D01*
X17903516Y-17147412D02*
X17903516Y-17137889D01*
X17903516Y-17137889D02*
X17893992Y-17118841D01*
X17893992Y-17118841D02*
X17874944Y-17109317D01*
X17874944Y-17109317D02*
X17846373Y-17109317D01*
X17846373Y-17109317D02*
X17827325Y-17099793D01*
X17827325Y-17099793D02*
X17817801Y-17080746D01*
X17817801Y-17080746D02*
X17817801Y-17071222D01*
X17817801Y-17071222D02*
X17827325Y-17052174D01*
X17827325Y-17052174D02*
X17846373Y-17042650D01*
X17846373Y-17042650D02*
X17874944Y-17042650D01*
X17874944Y-17042650D02*
X17893992Y-17052174D01*
X18017801Y-17175984D02*
X17998754Y-17166460D01*
X17998754Y-17166460D02*
X17989230Y-17147412D01*
X17989230Y-17147412D02*
X17989230Y-16975984D01*
X18122563Y-17175984D02*
X18103516Y-17166460D01*
X18103516Y-17166460D02*
X18093992Y-17156936D01*
X18093992Y-17156936D02*
X18084468Y-17137889D01*
X18084468Y-17137889D02*
X18084468Y-17080746D01*
X18084468Y-17080746D02*
X18093992Y-17061698D01*
X18093992Y-17061698D02*
X18103516Y-17052174D01*
X18103516Y-17052174D02*
X18122563Y-17042650D01*
X18122563Y-17042650D02*
X18151135Y-17042650D01*
X18151135Y-17042650D02*
X18170182Y-17052174D01*
X18170182Y-17052174D02*
X18179706Y-17061698D01*
X18179706Y-17061698D02*
X18189230Y-17080746D01*
X18189230Y-17080746D02*
X18189230Y-17137889D01*
X18189230Y-17137889D02*
X18179706Y-17156936D01*
X18179706Y-17156936D02*
X18170182Y-17166460D01*
X18170182Y-17166460D02*
X18151135Y-17175984D01*
X18151135Y-17175984D02*
X18122563Y-17175984D01*
X18246373Y-17042650D02*
X18322563Y-17042650D01*
X18274944Y-16975984D02*
X18274944Y-17147412D01*
X18274944Y-17147412D02*
X18284468Y-17166460D01*
X18284468Y-17166460D02*
X18303516Y-17175984D01*
X18303516Y-17175984D02*
X18322563Y-17175984D01*
X18379706Y-17166460D02*
X18398754Y-17175984D01*
X18398754Y-17175984D02*
X18436849Y-17175984D01*
X18436849Y-17175984D02*
X18455897Y-17166460D01*
X18455897Y-17166460D02*
X18465420Y-17147412D01*
X18465420Y-17147412D02*
X18465420Y-17137889D01*
X18465420Y-17137889D02*
X18455897Y-17118841D01*
X18455897Y-17118841D02*
X18436849Y-17109317D01*
X18436849Y-17109317D02*
X18408277Y-17109317D01*
X18408277Y-17109317D02*
X18389230Y-17099793D01*
X18389230Y-17099793D02*
X18379706Y-17080746D01*
X18379706Y-17080746D02*
X18379706Y-17071222D01*
X18379706Y-17071222D02*
X18389230Y-17052174D01*
X18389230Y-17052174D02*
X18408277Y-17042650D01*
X18408277Y-17042650D02*
X18436849Y-17042650D01*
X18436849Y-17042650D02*
X18455897Y-17052174D01*
X18532087Y-17252174D02*
X18541611Y-17242650D01*
X18541611Y-17242650D02*
X18560658Y-17214079D01*
X18560658Y-17214079D02*
X18570182Y-17195031D01*
X18570182Y-17195031D02*
X18579706Y-17166460D01*
X18579706Y-17166460D02*
X18589230Y-17118841D01*
X18589230Y-17118841D02*
X18589230Y-17080746D01*
X18589230Y-17080746D02*
X18579706Y-17033127D01*
X18579706Y-17033127D02*
X18570182Y-17004555D01*
X18570182Y-17004555D02*
X18560658Y-16985508D01*
X18560658Y-16985508D02*
X18541611Y-16956936D01*
X18541611Y-16956936D02*
X18532087Y-16947412D01*
D13*
X11872500Y-17423500D02*
X11947500Y-17348500D01*
X11872500Y-17273500D01*
X11797500Y-17348500D01*
X11872500Y-17423500D01*
D11*
X12313039Y-17439984D02*
X12198753Y-17439984D01*
X12255896Y-17439984D02*
X12255896Y-17239984D01*
X12255896Y-17239984D02*
X12236848Y-17268555D01*
X12236848Y-17268555D02*
X12217801Y-17287603D01*
X12217801Y-17287603D02*
X12198753Y-17297127D01*
X12398753Y-17420936D02*
X12408277Y-17430460D01*
X12408277Y-17430460D02*
X12398753Y-17439984D01*
X12398753Y-17439984D02*
X12389229Y-17430460D01*
X12389229Y-17430460D02*
X12398753Y-17420936D01*
X12398753Y-17420936D02*
X12398753Y-17439984D01*
X12589229Y-17239984D02*
X12493991Y-17239984D01*
X12493991Y-17239984D02*
X12484467Y-17335222D01*
X12484467Y-17335222D02*
X12493991Y-17325698D01*
X12493991Y-17325698D02*
X12513039Y-17316174D01*
X12513039Y-17316174D02*
X12560658Y-17316174D01*
X12560658Y-17316174D02*
X12579705Y-17325698D01*
X12579705Y-17325698D02*
X12589229Y-17335222D01*
X12589229Y-17335222D02*
X12598753Y-17354270D01*
X12598753Y-17354270D02*
X12598753Y-17401889D01*
X12598753Y-17401889D02*
X12589229Y-17420936D01*
X12589229Y-17420936D02*
X12579705Y-17430460D01*
X12579705Y-17430460D02*
X12560658Y-17439984D01*
X12560658Y-17439984D02*
X12513039Y-17439984D01*
X12513039Y-17439984D02*
X12493991Y-17430460D01*
X12493991Y-17430460D02*
X12484467Y-17420936D01*
X12722562Y-17239984D02*
X12741610Y-17239984D01*
X12741610Y-17239984D02*
X12760658Y-17249508D01*
X12760658Y-17249508D02*
X12770182Y-17259031D01*
X12770182Y-17259031D02*
X12779705Y-17278079D01*
X12779705Y-17278079D02*
X12789229Y-17316174D01*
X12789229Y-17316174D02*
X12789229Y-17363793D01*
X12789229Y-17363793D02*
X12779705Y-17401889D01*
X12779705Y-17401889D02*
X12770182Y-17420936D01*
X12770182Y-17420936D02*
X12760658Y-17430460D01*
X12760658Y-17430460D02*
X12741610Y-17439984D01*
X12741610Y-17439984D02*
X12722562Y-17439984D01*
X12722562Y-17439984D02*
X12703515Y-17430460D01*
X12703515Y-17430460D02*
X12693991Y-17420936D01*
X12693991Y-17420936D02*
X12684467Y-17401889D01*
X12684467Y-17401889D02*
X12674943Y-17363793D01*
X12674943Y-17363793D02*
X12674943Y-17316174D01*
X12674943Y-17316174D02*
X12684467Y-17278079D01*
X12684467Y-17278079D02*
X12693991Y-17259031D01*
X12693991Y-17259031D02*
X12703515Y-17249508D01*
X12703515Y-17249508D02*
X12722562Y-17239984D01*
X12913039Y-17239984D02*
X12932086Y-17239984D01*
X12932086Y-17239984D02*
X12951134Y-17249508D01*
X12951134Y-17249508D02*
X12960658Y-17259031D01*
X12960658Y-17259031D02*
X12970182Y-17278079D01*
X12970182Y-17278079D02*
X12979705Y-17316174D01*
X12979705Y-17316174D02*
X12979705Y-17363793D01*
X12979705Y-17363793D02*
X12970182Y-17401889D01*
X12970182Y-17401889D02*
X12960658Y-17420936D01*
X12960658Y-17420936D02*
X12951134Y-17430460D01*
X12951134Y-17430460D02*
X12932086Y-17439984D01*
X12932086Y-17439984D02*
X12913039Y-17439984D01*
X12913039Y-17439984D02*
X12893991Y-17430460D01*
X12893991Y-17430460D02*
X12884467Y-17420936D01*
X12884467Y-17420936D02*
X12874943Y-17401889D01*
X12874943Y-17401889D02*
X12865420Y-17363793D01*
X12865420Y-17363793D02*
X12865420Y-17316174D01*
X12865420Y-17316174D02*
X12874943Y-17278079D01*
X12874943Y-17278079D02*
X12884467Y-17259031D01*
X12884467Y-17259031D02*
X12893991Y-17249508D01*
X12893991Y-17249508D02*
X12913039Y-17239984D01*
X13065420Y-17439984D02*
X13065420Y-17306650D01*
X13065420Y-17325698D02*
X13074943Y-17316174D01*
X13074943Y-17316174D02*
X13093991Y-17306650D01*
X13093991Y-17306650D02*
X13122563Y-17306650D01*
X13122563Y-17306650D02*
X13141610Y-17316174D01*
X13141610Y-17316174D02*
X13151134Y-17335222D01*
X13151134Y-17335222D02*
X13151134Y-17439984D01*
X13151134Y-17335222D02*
X13160658Y-17316174D01*
X13160658Y-17316174D02*
X13179705Y-17306650D01*
X13179705Y-17306650D02*
X13208277Y-17306650D01*
X13208277Y-17306650D02*
X13227324Y-17316174D01*
X13227324Y-17316174D02*
X13236848Y-17335222D01*
X13236848Y-17335222D02*
X13236848Y-17439984D01*
X13332086Y-17439984D02*
X13332086Y-17306650D01*
X13332086Y-17325698D02*
X13341610Y-17316174D01*
X13341610Y-17316174D02*
X13360658Y-17306650D01*
X13360658Y-17306650D02*
X13389229Y-17306650D01*
X13389229Y-17306650D02*
X13408277Y-17316174D01*
X13408277Y-17316174D02*
X13417801Y-17335222D01*
X13417801Y-17335222D02*
X13417801Y-17439984D01*
X13417801Y-17335222D02*
X13427324Y-17316174D01*
X13427324Y-17316174D02*
X13446372Y-17306650D01*
X13446372Y-17306650D02*
X13474943Y-17306650D01*
X13474943Y-17306650D02*
X13493991Y-17316174D01*
X13493991Y-17316174D02*
X13503515Y-17335222D01*
X13503515Y-17335222D02*
X13503515Y-17439984D01*
X13893991Y-17230460D02*
X13722563Y-17487603D01*
X14151134Y-17239984D02*
X14170182Y-17239984D01*
X14170182Y-17239984D02*
X14189229Y-17249508D01*
X14189229Y-17249508D02*
X14198753Y-17259031D01*
X14198753Y-17259031D02*
X14208277Y-17278079D01*
X14208277Y-17278079D02*
X14217801Y-17316174D01*
X14217801Y-17316174D02*
X14217801Y-17363793D01*
X14217801Y-17363793D02*
X14208277Y-17401889D01*
X14208277Y-17401889D02*
X14198753Y-17420936D01*
X14198753Y-17420936D02*
X14189229Y-17430460D01*
X14189229Y-17430460D02*
X14170182Y-17439984D01*
X14170182Y-17439984D02*
X14151134Y-17439984D01*
X14151134Y-17439984D02*
X14132086Y-17430460D01*
X14132086Y-17430460D02*
X14122563Y-17420936D01*
X14122563Y-17420936D02*
X14113039Y-17401889D01*
X14113039Y-17401889D02*
X14103515Y-17363793D01*
X14103515Y-17363793D02*
X14103515Y-17316174D01*
X14103515Y-17316174D02*
X14113039Y-17278079D01*
X14113039Y-17278079D02*
X14122563Y-17259031D01*
X14122563Y-17259031D02*
X14132086Y-17249508D01*
X14132086Y-17249508D02*
X14151134Y-17239984D01*
X14303515Y-17420936D02*
X14313039Y-17430460D01*
X14313039Y-17430460D02*
X14303515Y-17439984D01*
X14303515Y-17439984D02*
X14293991Y-17430460D01*
X14293991Y-17430460D02*
X14303515Y-17420936D01*
X14303515Y-17420936D02*
X14303515Y-17439984D01*
X14436848Y-17239984D02*
X14455896Y-17239984D01*
X14455896Y-17239984D02*
X14474944Y-17249508D01*
X14474944Y-17249508D02*
X14484467Y-17259031D01*
X14484467Y-17259031D02*
X14493991Y-17278079D01*
X14493991Y-17278079D02*
X14503515Y-17316174D01*
X14503515Y-17316174D02*
X14503515Y-17363793D01*
X14503515Y-17363793D02*
X14493991Y-17401889D01*
X14493991Y-17401889D02*
X14484467Y-17420936D01*
X14484467Y-17420936D02*
X14474944Y-17430460D01*
X14474944Y-17430460D02*
X14455896Y-17439984D01*
X14455896Y-17439984D02*
X14436848Y-17439984D01*
X14436848Y-17439984D02*
X14417801Y-17430460D01*
X14417801Y-17430460D02*
X14408277Y-17420936D01*
X14408277Y-17420936D02*
X14398753Y-17401889D01*
X14398753Y-17401889D02*
X14389229Y-17363793D01*
X14389229Y-17363793D02*
X14389229Y-17316174D01*
X14389229Y-17316174D02*
X14398753Y-17278079D01*
X14398753Y-17278079D02*
X14408277Y-17259031D01*
X14408277Y-17259031D02*
X14417801Y-17249508D01*
X14417801Y-17249508D02*
X14436848Y-17239984D01*
X14684467Y-17239984D02*
X14589229Y-17239984D01*
X14589229Y-17239984D02*
X14579706Y-17335222D01*
X14579706Y-17335222D02*
X14589229Y-17325698D01*
X14589229Y-17325698D02*
X14608277Y-17316174D01*
X14608277Y-17316174D02*
X14655896Y-17316174D01*
X14655896Y-17316174D02*
X14674944Y-17325698D01*
X14674944Y-17325698D02*
X14684467Y-17335222D01*
X14684467Y-17335222D02*
X14693991Y-17354270D01*
X14693991Y-17354270D02*
X14693991Y-17401889D01*
X14693991Y-17401889D02*
X14684467Y-17420936D01*
X14684467Y-17420936D02*
X14674944Y-17430460D01*
X14674944Y-17430460D02*
X14655896Y-17439984D01*
X14655896Y-17439984D02*
X14608277Y-17439984D01*
X14608277Y-17439984D02*
X14589229Y-17430460D01*
X14589229Y-17430460D02*
X14579706Y-17420936D01*
X14789229Y-17439984D02*
X14827325Y-17439984D01*
X14827325Y-17439984D02*
X14846372Y-17430460D01*
X14846372Y-17430460D02*
X14855896Y-17420936D01*
X14855896Y-17420936D02*
X14874944Y-17392365D01*
X14874944Y-17392365D02*
X14884467Y-17354270D01*
X14884467Y-17354270D02*
X14884467Y-17278079D01*
X14884467Y-17278079D02*
X14874944Y-17259031D01*
X14874944Y-17259031D02*
X14865420Y-17249508D01*
X14865420Y-17249508D02*
X14846372Y-17239984D01*
X14846372Y-17239984D02*
X14808277Y-17239984D01*
X14808277Y-17239984D02*
X14789229Y-17249508D01*
X14789229Y-17249508D02*
X14779706Y-17259031D01*
X14779706Y-17259031D02*
X14770182Y-17278079D01*
X14770182Y-17278079D02*
X14770182Y-17325698D01*
X14770182Y-17325698D02*
X14779706Y-17344746D01*
X14779706Y-17344746D02*
X14789229Y-17354270D01*
X14789229Y-17354270D02*
X14808277Y-17363793D01*
X14808277Y-17363793D02*
X14846372Y-17363793D01*
X14846372Y-17363793D02*
X14865420Y-17354270D01*
X14865420Y-17354270D02*
X14874944Y-17344746D01*
X14874944Y-17344746D02*
X14884467Y-17325698D01*
X15074944Y-17439984D02*
X14960658Y-17439984D01*
X15017801Y-17439984D02*
X15017801Y-17239984D01*
X15017801Y-17239984D02*
X14998753Y-17268555D01*
X14998753Y-17268555D02*
X14979706Y-17287603D01*
X14979706Y-17287603D02*
X14960658Y-17297127D01*
X15151134Y-17239984D02*
X15151134Y-17278079D01*
X15227325Y-17239984D02*
X15227325Y-17278079D01*
X15522563Y-17516174D02*
X15513039Y-17506650D01*
X15513039Y-17506650D02*
X15493991Y-17478079D01*
X15493991Y-17478079D02*
X15484468Y-17459031D01*
X15484468Y-17459031D02*
X15474944Y-17430460D01*
X15474944Y-17430460D02*
X15465420Y-17382841D01*
X15465420Y-17382841D02*
X15465420Y-17344746D01*
X15465420Y-17344746D02*
X15474944Y-17297127D01*
X15474944Y-17297127D02*
X15484468Y-17268555D01*
X15484468Y-17268555D02*
X15493991Y-17249508D01*
X15493991Y-17249508D02*
X15513039Y-17220936D01*
X15513039Y-17220936D02*
X15522563Y-17211412D01*
X15636848Y-17239984D02*
X15655896Y-17239984D01*
X15655896Y-17239984D02*
X15674944Y-17249508D01*
X15674944Y-17249508D02*
X15684468Y-17259031D01*
X15684468Y-17259031D02*
X15693991Y-17278079D01*
X15693991Y-17278079D02*
X15703515Y-17316174D01*
X15703515Y-17316174D02*
X15703515Y-17363793D01*
X15703515Y-17363793D02*
X15693991Y-17401889D01*
X15693991Y-17401889D02*
X15684468Y-17420936D01*
X15684468Y-17420936D02*
X15674944Y-17430460D01*
X15674944Y-17430460D02*
X15655896Y-17439984D01*
X15655896Y-17439984D02*
X15636848Y-17439984D01*
X15636848Y-17439984D02*
X15617801Y-17430460D01*
X15617801Y-17430460D02*
X15608277Y-17420936D01*
X15608277Y-17420936D02*
X15598753Y-17401889D01*
X15598753Y-17401889D02*
X15589229Y-17363793D01*
X15589229Y-17363793D02*
X15589229Y-17316174D01*
X15589229Y-17316174D02*
X15598753Y-17278079D01*
X15598753Y-17278079D02*
X15608277Y-17259031D01*
X15608277Y-17259031D02*
X15617801Y-17249508D01*
X15617801Y-17249508D02*
X15636848Y-17239984D01*
X15941610Y-17439984D02*
X15941610Y-17239984D01*
X16027325Y-17439984D02*
X16027325Y-17335222D01*
X16027325Y-17335222D02*
X16017801Y-17316174D01*
X16017801Y-17316174D02*
X15998753Y-17306650D01*
X15998753Y-17306650D02*
X15970182Y-17306650D01*
X15970182Y-17306650D02*
X15951134Y-17316174D01*
X15951134Y-17316174D02*
X15941610Y-17325698D01*
X16151134Y-17439984D02*
X16132087Y-17430460D01*
X16132087Y-17430460D02*
X16122563Y-17420936D01*
X16122563Y-17420936D02*
X16113039Y-17401889D01*
X16113039Y-17401889D02*
X16113039Y-17344746D01*
X16113039Y-17344746D02*
X16122563Y-17325698D01*
X16122563Y-17325698D02*
X16132087Y-17316174D01*
X16132087Y-17316174D02*
X16151134Y-17306650D01*
X16151134Y-17306650D02*
X16179706Y-17306650D01*
X16179706Y-17306650D02*
X16198753Y-17316174D01*
X16198753Y-17316174D02*
X16208277Y-17325698D01*
X16208277Y-17325698D02*
X16217801Y-17344746D01*
X16217801Y-17344746D02*
X16217801Y-17401889D01*
X16217801Y-17401889D02*
X16208277Y-17420936D01*
X16208277Y-17420936D02*
X16198753Y-17430460D01*
X16198753Y-17430460D02*
X16179706Y-17439984D01*
X16179706Y-17439984D02*
X16151134Y-17439984D01*
X16332087Y-17439984D02*
X16313039Y-17430460D01*
X16313039Y-17430460D02*
X16303515Y-17411412D01*
X16303515Y-17411412D02*
X16303515Y-17239984D01*
X16484468Y-17430460D02*
X16465420Y-17439984D01*
X16465420Y-17439984D02*
X16427325Y-17439984D01*
X16427325Y-17439984D02*
X16408277Y-17430460D01*
X16408277Y-17430460D02*
X16398753Y-17411412D01*
X16398753Y-17411412D02*
X16398753Y-17335222D01*
X16398753Y-17335222D02*
X16408277Y-17316174D01*
X16408277Y-17316174D02*
X16427325Y-17306650D01*
X16427325Y-17306650D02*
X16465420Y-17306650D01*
X16465420Y-17306650D02*
X16484468Y-17316174D01*
X16484468Y-17316174D02*
X16493991Y-17335222D01*
X16493991Y-17335222D02*
X16493991Y-17354270D01*
X16493991Y-17354270D02*
X16398753Y-17373317D01*
X16570182Y-17430460D02*
X16589230Y-17439984D01*
X16589230Y-17439984D02*
X16627325Y-17439984D01*
X16627325Y-17439984D02*
X16646372Y-17430460D01*
X16646372Y-17430460D02*
X16655896Y-17411412D01*
X16655896Y-17411412D02*
X16655896Y-17401889D01*
X16655896Y-17401889D02*
X16646372Y-17382841D01*
X16646372Y-17382841D02*
X16627325Y-17373317D01*
X16627325Y-17373317D02*
X16598753Y-17373317D01*
X16598753Y-17373317D02*
X16579706Y-17363793D01*
X16579706Y-17363793D02*
X16570182Y-17344746D01*
X16570182Y-17344746D02*
X16570182Y-17335222D01*
X16570182Y-17335222D02*
X16579706Y-17316174D01*
X16579706Y-17316174D02*
X16598753Y-17306650D01*
X16598753Y-17306650D02*
X16627325Y-17306650D01*
X16627325Y-17306650D02*
X16646372Y-17316174D01*
X16893992Y-17363793D02*
X17046373Y-17363793D01*
X16970182Y-17439984D02*
X16970182Y-17287603D01*
X17398754Y-17439984D02*
X17284468Y-17439984D01*
X17341611Y-17439984D02*
X17341611Y-17239984D01*
X17341611Y-17239984D02*
X17322563Y-17268555D01*
X17322563Y-17268555D02*
X17303515Y-17287603D01*
X17303515Y-17287603D02*
X17284468Y-17297127D01*
X17513039Y-17325698D02*
X17493992Y-17316174D01*
X17493992Y-17316174D02*
X17484468Y-17306650D01*
X17484468Y-17306650D02*
X17474944Y-17287603D01*
X17474944Y-17287603D02*
X17474944Y-17278079D01*
X17474944Y-17278079D02*
X17484468Y-17259031D01*
X17484468Y-17259031D02*
X17493992Y-17249508D01*
X17493992Y-17249508D02*
X17513039Y-17239984D01*
X17513039Y-17239984D02*
X17551135Y-17239984D01*
X17551135Y-17239984D02*
X17570182Y-17249508D01*
X17570182Y-17249508D02*
X17579706Y-17259031D01*
X17579706Y-17259031D02*
X17589230Y-17278079D01*
X17589230Y-17278079D02*
X17589230Y-17287603D01*
X17589230Y-17287603D02*
X17579706Y-17306650D01*
X17579706Y-17306650D02*
X17570182Y-17316174D01*
X17570182Y-17316174D02*
X17551135Y-17325698D01*
X17551135Y-17325698D02*
X17513039Y-17325698D01*
X17513039Y-17325698D02*
X17493992Y-17335222D01*
X17493992Y-17335222D02*
X17484468Y-17344746D01*
X17484468Y-17344746D02*
X17474944Y-17363793D01*
X17474944Y-17363793D02*
X17474944Y-17401889D01*
X17474944Y-17401889D02*
X17484468Y-17420936D01*
X17484468Y-17420936D02*
X17493992Y-17430460D01*
X17493992Y-17430460D02*
X17513039Y-17439984D01*
X17513039Y-17439984D02*
X17551135Y-17439984D01*
X17551135Y-17439984D02*
X17570182Y-17430460D01*
X17570182Y-17430460D02*
X17579706Y-17420936D01*
X17579706Y-17420936D02*
X17589230Y-17401889D01*
X17589230Y-17401889D02*
X17589230Y-17363793D01*
X17589230Y-17363793D02*
X17579706Y-17344746D01*
X17579706Y-17344746D02*
X17570182Y-17335222D01*
X17570182Y-17335222D02*
X17551135Y-17325698D01*
X17817801Y-17430460D02*
X17836849Y-17439984D01*
X17836849Y-17439984D02*
X17874944Y-17439984D01*
X17874944Y-17439984D02*
X17893992Y-17430460D01*
X17893992Y-17430460D02*
X17903516Y-17411412D01*
X17903516Y-17411412D02*
X17903516Y-17401889D01*
X17903516Y-17401889D02*
X17893992Y-17382841D01*
X17893992Y-17382841D02*
X17874944Y-17373317D01*
X17874944Y-17373317D02*
X17846373Y-17373317D01*
X17846373Y-17373317D02*
X17827325Y-17363793D01*
X17827325Y-17363793D02*
X17817801Y-17344746D01*
X17817801Y-17344746D02*
X17817801Y-17335222D01*
X17817801Y-17335222D02*
X17827325Y-17316174D01*
X17827325Y-17316174D02*
X17846373Y-17306650D01*
X17846373Y-17306650D02*
X17874944Y-17306650D01*
X17874944Y-17306650D02*
X17893992Y-17316174D01*
X18017801Y-17439984D02*
X17998754Y-17430460D01*
X17998754Y-17430460D02*
X17989230Y-17411412D01*
X17989230Y-17411412D02*
X17989230Y-17239984D01*
X18122563Y-17439984D02*
X18103516Y-17430460D01*
X18103516Y-17430460D02*
X18093992Y-17420936D01*
X18093992Y-17420936D02*
X18084468Y-17401889D01*
X18084468Y-17401889D02*
X18084468Y-17344746D01*
X18084468Y-17344746D02*
X18093992Y-17325698D01*
X18093992Y-17325698D02*
X18103516Y-17316174D01*
X18103516Y-17316174D02*
X18122563Y-17306650D01*
X18122563Y-17306650D02*
X18151135Y-17306650D01*
X18151135Y-17306650D02*
X18170182Y-17316174D01*
X18170182Y-17316174D02*
X18179706Y-17325698D01*
X18179706Y-17325698D02*
X18189230Y-17344746D01*
X18189230Y-17344746D02*
X18189230Y-17401889D01*
X18189230Y-17401889D02*
X18179706Y-17420936D01*
X18179706Y-17420936D02*
X18170182Y-17430460D01*
X18170182Y-17430460D02*
X18151135Y-17439984D01*
X18151135Y-17439984D02*
X18122563Y-17439984D01*
X18246373Y-17306650D02*
X18322563Y-17306650D01*
X18274944Y-17239984D02*
X18274944Y-17411412D01*
X18274944Y-17411412D02*
X18284468Y-17430460D01*
X18284468Y-17430460D02*
X18303516Y-17439984D01*
X18303516Y-17439984D02*
X18322563Y-17439984D01*
X18379706Y-17430460D02*
X18398754Y-17439984D01*
X18398754Y-17439984D02*
X18436849Y-17439984D01*
X18436849Y-17439984D02*
X18455897Y-17430460D01*
X18455897Y-17430460D02*
X18465420Y-17411412D01*
X18465420Y-17411412D02*
X18465420Y-17401889D01*
X18465420Y-17401889D02*
X18455897Y-17382841D01*
X18455897Y-17382841D02*
X18436849Y-17373317D01*
X18436849Y-17373317D02*
X18408277Y-17373317D01*
X18408277Y-17373317D02*
X18389230Y-17363793D01*
X18389230Y-17363793D02*
X18379706Y-17344746D01*
X18379706Y-17344746D02*
X18379706Y-17335222D01*
X18379706Y-17335222D02*
X18389230Y-17316174D01*
X18389230Y-17316174D02*
X18408277Y-17306650D01*
X18408277Y-17306650D02*
X18436849Y-17306650D01*
X18436849Y-17306650D02*
X18455897Y-17316174D01*
X18532087Y-17516174D02*
X18541611Y-17506650D01*
X18541611Y-17506650D02*
X18560658Y-17478079D01*
X18560658Y-17478079D02*
X18570182Y-17459031D01*
X18570182Y-17459031D02*
X18579706Y-17430460D01*
X18579706Y-17430460D02*
X18589230Y-17382841D01*
X18589230Y-17382841D02*
X18589230Y-17344746D01*
X18589230Y-17344746D02*
X18579706Y-17297127D01*
X18579706Y-17297127D02*
X18570182Y-17268555D01*
X18570182Y-17268555D02*
X18560658Y-17249508D01*
X18560658Y-17249508D02*
X18541611Y-17220936D01*
X18541611Y-17220936D02*
X18532087Y-17211412D01*
X11747500Y-17518500D02*
X11947500Y-17718500D01*
X11947500Y-17518500D02*
X11747500Y-17718500D01*
X11947500Y-17618500D02*
G75*
G02*
X11747500Y-17618500I-100000J0D01*
G01*
X11747500Y-17618500D02*
G75*
G02*
X11947500Y-17618500I100000J0D01*
G01*
X12198753Y-17529031D02*
X12208277Y-17519508D01*
X12208277Y-17519508D02*
X12227324Y-17509984D01*
X12227324Y-17509984D02*
X12274943Y-17509984D01*
X12274943Y-17509984D02*
X12293991Y-17519508D01*
X12293991Y-17519508D02*
X12303515Y-17529031D01*
X12303515Y-17529031D02*
X12313039Y-17548079D01*
X12313039Y-17548079D02*
X12313039Y-17567127D01*
X12313039Y-17567127D02*
X12303515Y-17595698D01*
X12303515Y-17595698D02*
X12189229Y-17709984D01*
X12189229Y-17709984D02*
X12313039Y-17709984D01*
X12398753Y-17690936D02*
X12408277Y-17700460D01*
X12408277Y-17700460D02*
X12398753Y-17709984D01*
X12398753Y-17709984D02*
X12389229Y-17700460D01*
X12389229Y-17700460D02*
X12398753Y-17690936D01*
X12398753Y-17690936D02*
X12398753Y-17709984D01*
X12532086Y-17509984D02*
X12551134Y-17509984D01*
X12551134Y-17509984D02*
X12570182Y-17519508D01*
X12570182Y-17519508D02*
X12579705Y-17529031D01*
X12579705Y-17529031D02*
X12589229Y-17548079D01*
X12589229Y-17548079D02*
X12598753Y-17586174D01*
X12598753Y-17586174D02*
X12598753Y-17633793D01*
X12598753Y-17633793D02*
X12589229Y-17671889D01*
X12589229Y-17671889D02*
X12579705Y-17690936D01*
X12579705Y-17690936D02*
X12570182Y-17700460D01*
X12570182Y-17700460D02*
X12551134Y-17709984D01*
X12551134Y-17709984D02*
X12532086Y-17709984D01*
X12532086Y-17709984D02*
X12513039Y-17700460D01*
X12513039Y-17700460D02*
X12503515Y-17690936D01*
X12503515Y-17690936D02*
X12493991Y-17671889D01*
X12493991Y-17671889D02*
X12484467Y-17633793D01*
X12484467Y-17633793D02*
X12484467Y-17586174D01*
X12484467Y-17586174D02*
X12493991Y-17548079D01*
X12493991Y-17548079D02*
X12503515Y-17529031D01*
X12503515Y-17529031D02*
X12513039Y-17519508D01*
X12513039Y-17519508D02*
X12532086Y-17509984D01*
X12722562Y-17509984D02*
X12741610Y-17509984D01*
X12741610Y-17509984D02*
X12760658Y-17519508D01*
X12760658Y-17519508D02*
X12770182Y-17529031D01*
X12770182Y-17529031D02*
X12779705Y-17548079D01*
X12779705Y-17548079D02*
X12789229Y-17586174D01*
X12789229Y-17586174D02*
X12789229Y-17633793D01*
X12789229Y-17633793D02*
X12779705Y-17671889D01*
X12779705Y-17671889D02*
X12770182Y-17690936D01*
X12770182Y-17690936D02*
X12760658Y-17700460D01*
X12760658Y-17700460D02*
X12741610Y-17709984D01*
X12741610Y-17709984D02*
X12722562Y-17709984D01*
X12722562Y-17709984D02*
X12703515Y-17700460D01*
X12703515Y-17700460D02*
X12693991Y-17690936D01*
X12693991Y-17690936D02*
X12684467Y-17671889D01*
X12684467Y-17671889D02*
X12674943Y-17633793D01*
X12674943Y-17633793D02*
X12674943Y-17586174D01*
X12674943Y-17586174D02*
X12684467Y-17548079D01*
X12684467Y-17548079D02*
X12693991Y-17529031D01*
X12693991Y-17529031D02*
X12703515Y-17519508D01*
X12703515Y-17519508D02*
X12722562Y-17509984D01*
X12913039Y-17509984D02*
X12932086Y-17509984D01*
X12932086Y-17509984D02*
X12951134Y-17519508D01*
X12951134Y-17519508D02*
X12960658Y-17529031D01*
X12960658Y-17529031D02*
X12970182Y-17548079D01*
X12970182Y-17548079D02*
X12979705Y-17586174D01*
X12979705Y-17586174D02*
X12979705Y-17633793D01*
X12979705Y-17633793D02*
X12970182Y-17671889D01*
X12970182Y-17671889D02*
X12960658Y-17690936D01*
X12960658Y-17690936D02*
X12951134Y-17700460D01*
X12951134Y-17700460D02*
X12932086Y-17709984D01*
X12932086Y-17709984D02*
X12913039Y-17709984D01*
X12913039Y-17709984D02*
X12893991Y-17700460D01*
X12893991Y-17700460D02*
X12884467Y-17690936D01*
X12884467Y-17690936D02*
X12874943Y-17671889D01*
X12874943Y-17671889D02*
X12865420Y-17633793D01*
X12865420Y-17633793D02*
X12865420Y-17586174D01*
X12865420Y-17586174D02*
X12874943Y-17548079D01*
X12874943Y-17548079D02*
X12884467Y-17529031D01*
X12884467Y-17529031D02*
X12893991Y-17519508D01*
X12893991Y-17519508D02*
X12913039Y-17509984D01*
X13065420Y-17709984D02*
X13065420Y-17576650D01*
X13065420Y-17595698D02*
X13074943Y-17586174D01*
X13074943Y-17586174D02*
X13093991Y-17576650D01*
X13093991Y-17576650D02*
X13122563Y-17576650D01*
X13122563Y-17576650D02*
X13141610Y-17586174D01*
X13141610Y-17586174D02*
X13151134Y-17605222D01*
X13151134Y-17605222D02*
X13151134Y-17709984D01*
X13151134Y-17605222D02*
X13160658Y-17586174D01*
X13160658Y-17586174D02*
X13179705Y-17576650D01*
X13179705Y-17576650D02*
X13208277Y-17576650D01*
X13208277Y-17576650D02*
X13227324Y-17586174D01*
X13227324Y-17586174D02*
X13236848Y-17605222D01*
X13236848Y-17605222D02*
X13236848Y-17709984D01*
X13332086Y-17709984D02*
X13332086Y-17576650D01*
X13332086Y-17595698D02*
X13341610Y-17586174D01*
X13341610Y-17586174D02*
X13360658Y-17576650D01*
X13360658Y-17576650D02*
X13389229Y-17576650D01*
X13389229Y-17576650D02*
X13408277Y-17586174D01*
X13408277Y-17586174D02*
X13417801Y-17605222D01*
X13417801Y-17605222D02*
X13417801Y-17709984D01*
X13417801Y-17605222D02*
X13427324Y-17586174D01*
X13427324Y-17586174D02*
X13446372Y-17576650D01*
X13446372Y-17576650D02*
X13474943Y-17576650D01*
X13474943Y-17576650D02*
X13493991Y-17586174D01*
X13493991Y-17586174D02*
X13503515Y-17605222D01*
X13503515Y-17605222D02*
X13503515Y-17709984D01*
X13893991Y-17500460D02*
X13722563Y-17757603D01*
X14151134Y-17509984D02*
X14170182Y-17509984D01*
X14170182Y-17509984D02*
X14189229Y-17519508D01*
X14189229Y-17519508D02*
X14198753Y-17529031D01*
X14198753Y-17529031D02*
X14208277Y-17548079D01*
X14208277Y-17548079D02*
X14217801Y-17586174D01*
X14217801Y-17586174D02*
X14217801Y-17633793D01*
X14217801Y-17633793D02*
X14208277Y-17671889D01*
X14208277Y-17671889D02*
X14198753Y-17690936D01*
X14198753Y-17690936D02*
X14189229Y-17700460D01*
X14189229Y-17700460D02*
X14170182Y-17709984D01*
X14170182Y-17709984D02*
X14151134Y-17709984D01*
X14151134Y-17709984D02*
X14132086Y-17700460D01*
X14132086Y-17700460D02*
X14122563Y-17690936D01*
X14122563Y-17690936D02*
X14113039Y-17671889D01*
X14113039Y-17671889D02*
X14103515Y-17633793D01*
X14103515Y-17633793D02*
X14103515Y-17586174D01*
X14103515Y-17586174D02*
X14113039Y-17548079D01*
X14113039Y-17548079D02*
X14122563Y-17529031D01*
X14122563Y-17529031D02*
X14132086Y-17519508D01*
X14132086Y-17519508D02*
X14151134Y-17509984D01*
X14303515Y-17690936D02*
X14313039Y-17700460D01*
X14313039Y-17700460D02*
X14303515Y-17709984D01*
X14303515Y-17709984D02*
X14293991Y-17700460D01*
X14293991Y-17700460D02*
X14303515Y-17690936D01*
X14303515Y-17690936D02*
X14303515Y-17709984D01*
X14436848Y-17509984D02*
X14455896Y-17509984D01*
X14455896Y-17509984D02*
X14474944Y-17519508D01*
X14474944Y-17519508D02*
X14484467Y-17529031D01*
X14484467Y-17529031D02*
X14493991Y-17548079D01*
X14493991Y-17548079D02*
X14503515Y-17586174D01*
X14503515Y-17586174D02*
X14503515Y-17633793D01*
X14503515Y-17633793D02*
X14493991Y-17671889D01*
X14493991Y-17671889D02*
X14484467Y-17690936D01*
X14484467Y-17690936D02*
X14474944Y-17700460D01*
X14474944Y-17700460D02*
X14455896Y-17709984D01*
X14455896Y-17709984D02*
X14436848Y-17709984D01*
X14436848Y-17709984D02*
X14417801Y-17700460D01*
X14417801Y-17700460D02*
X14408277Y-17690936D01*
X14408277Y-17690936D02*
X14398753Y-17671889D01*
X14398753Y-17671889D02*
X14389229Y-17633793D01*
X14389229Y-17633793D02*
X14389229Y-17586174D01*
X14389229Y-17586174D02*
X14398753Y-17548079D01*
X14398753Y-17548079D02*
X14408277Y-17529031D01*
X14408277Y-17529031D02*
X14417801Y-17519508D01*
X14417801Y-17519508D02*
X14436848Y-17509984D01*
X14570182Y-17509984D02*
X14703515Y-17509984D01*
X14703515Y-17509984D02*
X14617801Y-17709984D01*
X14808277Y-17595698D02*
X14789229Y-17586174D01*
X14789229Y-17586174D02*
X14779706Y-17576650D01*
X14779706Y-17576650D02*
X14770182Y-17557603D01*
X14770182Y-17557603D02*
X14770182Y-17548079D01*
X14770182Y-17548079D02*
X14779706Y-17529031D01*
X14779706Y-17529031D02*
X14789229Y-17519508D01*
X14789229Y-17519508D02*
X14808277Y-17509984D01*
X14808277Y-17509984D02*
X14846372Y-17509984D01*
X14846372Y-17509984D02*
X14865420Y-17519508D01*
X14865420Y-17519508D02*
X14874944Y-17529031D01*
X14874944Y-17529031D02*
X14884467Y-17548079D01*
X14884467Y-17548079D02*
X14884467Y-17557603D01*
X14884467Y-17557603D02*
X14874944Y-17576650D01*
X14874944Y-17576650D02*
X14865420Y-17586174D01*
X14865420Y-17586174D02*
X14846372Y-17595698D01*
X14846372Y-17595698D02*
X14808277Y-17595698D01*
X14808277Y-17595698D02*
X14789229Y-17605222D01*
X14789229Y-17605222D02*
X14779706Y-17614746D01*
X14779706Y-17614746D02*
X14770182Y-17633793D01*
X14770182Y-17633793D02*
X14770182Y-17671889D01*
X14770182Y-17671889D02*
X14779706Y-17690936D01*
X14779706Y-17690936D02*
X14789229Y-17700460D01*
X14789229Y-17700460D02*
X14808277Y-17709984D01*
X14808277Y-17709984D02*
X14846372Y-17709984D01*
X14846372Y-17709984D02*
X14865420Y-17700460D01*
X14865420Y-17700460D02*
X14874944Y-17690936D01*
X14874944Y-17690936D02*
X14884467Y-17671889D01*
X14884467Y-17671889D02*
X14884467Y-17633793D01*
X14884467Y-17633793D02*
X14874944Y-17614746D01*
X14874944Y-17614746D02*
X14865420Y-17605222D01*
X14865420Y-17605222D02*
X14846372Y-17595698D01*
X14951134Y-17509984D02*
X15084467Y-17509984D01*
X15084467Y-17509984D02*
X14998753Y-17709984D01*
X15151134Y-17509984D02*
X15151134Y-17548079D01*
X15227325Y-17509984D02*
X15227325Y-17548079D01*
X15522563Y-17786174D02*
X15513039Y-17776650D01*
X15513039Y-17776650D02*
X15493991Y-17748079D01*
X15493991Y-17748079D02*
X15484468Y-17729031D01*
X15484468Y-17729031D02*
X15474944Y-17700460D01*
X15474944Y-17700460D02*
X15465420Y-17652841D01*
X15465420Y-17652841D02*
X15465420Y-17614746D01*
X15465420Y-17614746D02*
X15474944Y-17567127D01*
X15474944Y-17567127D02*
X15484468Y-17538555D01*
X15484468Y-17538555D02*
X15493991Y-17519508D01*
X15493991Y-17519508D02*
X15513039Y-17490936D01*
X15513039Y-17490936D02*
X15522563Y-17481412D01*
X15636848Y-17509984D02*
X15655896Y-17509984D01*
X15655896Y-17509984D02*
X15674944Y-17519508D01*
X15674944Y-17519508D02*
X15684468Y-17529031D01*
X15684468Y-17529031D02*
X15693991Y-17548079D01*
X15693991Y-17548079D02*
X15703515Y-17586174D01*
X15703515Y-17586174D02*
X15703515Y-17633793D01*
X15703515Y-17633793D02*
X15693991Y-17671889D01*
X15693991Y-17671889D02*
X15684468Y-17690936D01*
X15684468Y-17690936D02*
X15674944Y-17700460D01*
X15674944Y-17700460D02*
X15655896Y-17709984D01*
X15655896Y-17709984D02*
X15636848Y-17709984D01*
X15636848Y-17709984D02*
X15617801Y-17700460D01*
X15617801Y-17700460D02*
X15608277Y-17690936D01*
X15608277Y-17690936D02*
X15598753Y-17671889D01*
X15598753Y-17671889D02*
X15589229Y-17633793D01*
X15589229Y-17633793D02*
X15589229Y-17586174D01*
X15589229Y-17586174D02*
X15598753Y-17548079D01*
X15598753Y-17548079D02*
X15608277Y-17529031D01*
X15608277Y-17529031D02*
X15617801Y-17519508D01*
X15617801Y-17519508D02*
X15636848Y-17509984D01*
X15941610Y-17709984D02*
X15941610Y-17509984D01*
X16027325Y-17709984D02*
X16027325Y-17605222D01*
X16027325Y-17605222D02*
X16017801Y-17586174D01*
X16017801Y-17586174D02*
X15998753Y-17576650D01*
X15998753Y-17576650D02*
X15970182Y-17576650D01*
X15970182Y-17576650D02*
X15951134Y-17586174D01*
X15951134Y-17586174D02*
X15941610Y-17595698D01*
X16151134Y-17709984D02*
X16132087Y-17700460D01*
X16132087Y-17700460D02*
X16122563Y-17690936D01*
X16122563Y-17690936D02*
X16113039Y-17671889D01*
X16113039Y-17671889D02*
X16113039Y-17614746D01*
X16113039Y-17614746D02*
X16122563Y-17595698D01*
X16122563Y-17595698D02*
X16132087Y-17586174D01*
X16132087Y-17586174D02*
X16151134Y-17576650D01*
X16151134Y-17576650D02*
X16179706Y-17576650D01*
X16179706Y-17576650D02*
X16198753Y-17586174D01*
X16198753Y-17586174D02*
X16208277Y-17595698D01*
X16208277Y-17595698D02*
X16217801Y-17614746D01*
X16217801Y-17614746D02*
X16217801Y-17671889D01*
X16217801Y-17671889D02*
X16208277Y-17690936D01*
X16208277Y-17690936D02*
X16198753Y-17700460D01*
X16198753Y-17700460D02*
X16179706Y-17709984D01*
X16179706Y-17709984D02*
X16151134Y-17709984D01*
X16332087Y-17709984D02*
X16313039Y-17700460D01*
X16313039Y-17700460D02*
X16303515Y-17681412D01*
X16303515Y-17681412D02*
X16303515Y-17509984D01*
X16484468Y-17700460D02*
X16465420Y-17709984D01*
X16465420Y-17709984D02*
X16427325Y-17709984D01*
X16427325Y-17709984D02*
X16408277Y-17700460D01*
X16408277Y-17700460D02*
X16398753Y-17681412D01*
X16398753Y-17681412D02*
X16398753Y-17605222D01*
X16398753Y-17605222D02*
X16408277Y-17586174D01*
X16408277Y-17586174D02*
X16427325Y-17576650D01*
X16427325Y-17576650D02*
X16465420Y-17576650D01*
X16465420Y-17576650D02*
X16484468Y-17586174D01*
X16484468Y-17586174D02*
X16493991Y-17605222D01*
X16493991Y-17605222D02*
X16493991Y-17624270D01*
X16493991Y-17624270D02*
X16398753Y-17643317D01*
X16570182Y-17700460D02*
X16589230Y-17709984D01*
X16589230Y-17709984D02*
X16627325Y-17709984D01*
X16627325Y-17709984D02*
X16646372Y-17700460D01*
X16646372Y-17700460D02*
X16655896Y-17681412D01*
X16655896Y-17681412D02*
X16655896Y-17671889D01*
X16655896Y-17671889D02*
X16646372Y-17652841D01*
X16646372Y-17652841D02*
X16627325Y-17643317D01*
X16627325Y-17643317D02*
X16598753Y-17643317D01*
X16598753Y-17643317D02*
X16579706Y-17633793D01*
X16579706Y-17633793D02*
X16570182Y-17614746D01*
X16570182Y-17614746D02*
X16570182Y-17605222D01*
X16570182Y-17605222D02*
X16579706Y-17586174D01*
X16579706Y-17586174D02*
X16598753Y-17576650D01*
X16598753Y-17576650D02*
X16627325Y-17576650D01*
X16627325Y-17576650D02*
X16646372Y-17586174D01*
X16893992Y-17633793D02*
X17046373Y-17633793D01*
X16970182Y-17709984D02*
X16970182Y-17557603D01*
X17303515Y-17709984D02*
X17341611Y-17709984D01*
X17341611Y-17709984D02*
X17360658Y-17700460D01*
X17360658Y-17700460D02*
X17370182Y-17690936D01*
X17370182Y-17690936D02*
X17389230Y-17662365D01*
X17389230Y-17662365D02*
X17398754Y-17624270D01*
X17398754Y-17624270D02*
X17398754Y-17548079D01*
X17398754Y-17548079D02*
X17389230Y-17529031D01*
X17389230Y-17529031D02*
X17379706Y-17519508D01*
X17379706Y-17519508D02*
X17360658Y-17509984D01*
X17360658Y-17509984D02*
X17322563Y-17509984D01*
X17322563Y-17509984D02*
X17303515Y-17519508D01*
X17303515Y-17519508D02*
X17293992Y-17529031D01*
X17293992Y-17529031D02*
X17284468Y-17548079D01*
X17284468Y-17548079D02*
X17284468Y-17595698D01*
X17284468Y-17595698D02*
X17293992Y-17614746D01*
X17293992Y-17614746D02*
X17303515Y-17624270D01*
X17303515Y-17624270D02*
X17322563Y-17633793D01*
X17322563Y-17633793D02*
X17360658Y-17633793D01*
X17360658Y-17633793D02*
X17379706Y-17624270D01*
X17379706Y-17624270D02*
X17389230Y-17614746D01*
X17389230Y-17614746D02*
X17398754Y-17595698D01*
X17627325Y-17700460D02*
X17646373Y-17709984D01*
X17646373Y-17709984D02*
X17684468Y-17709984D01*
X17684468Y-17709984D02*
X17703516Y-17700460D01*
X17703516Y-17700460D02*
X17713039Y-17681412D01*
X17713039Y-17681412D02*
X17713039Y-17671889D01*
X17713039Y-17671889D02*
X17703516Y-17652841D01*
X17703516Y-17652841D02*
X17684468Y-17643317D01*
X17684468Y-17643317D02*
X17655896Y-17643317D01*
X17655896Y-17643317D02*
X17636849Y-17633793D01*
X17636849Y-17633793D02*
X17627325Y-17614746D01*
X17627325Y-17614746D02*
X17627325Y-17605222D01*
X17627325Y-17605222D02*
X17636849Y-17586174D01*
X17636849Y-17586174D02*
X17655896Y-17576650D01*
X17655896Y-17576650D02*
X17684468Y-17576650D01*
X17684468Y-17576650D02*
X17703516Y-17586174D01*
X17827325Y-17709984D02*
X17808277Y-17700460D01*
X17808277Y-17700460D02*
X17798754Y-17681412D01*
X17798754Y-17681412D02*
X17798754Y-17509984D01*
X17932087Y-17709984D02*
X17913039Y-17700460D01*
X17913039Y-17700460D02*
X17903516Y-17690936D01*
X17903516Y-17690936D02*
X17893992Y-17671889D01*
X17893992Y-17671889D02*
X17893992Y-17614746D01*
X17893992Y-17614746D02*
X17903516Y-17595698D01*
X17903516Y-17595698D02*
X17913039Y-17586174D01*
X17913039Y-17586174D02*
X17932087Y-17576650D01*
X17932087Y-17576650D02*
X17960658Y-17576650D01*
X17960658Y-17576650D02*
X17979706Y-17586174D01*
X17979706Y-17586174D02*
X17989230Y-17595698D01*
X17989230Y-17595698D02*
X17998754Y-17614746D01*
X17998754Y-17614746D02*
X17998754Y-17671889D01*
X17998754Y-17671889D02*
X17989230Y-17690936D01*
X17989230Y-17690936D02*
X17979706Y-17700460D01*
X17979706Y-17700460D02*
X17960658Y-17709984D01*
X17960658Y-17709984D02*
X17932087Y-17709984D01*
X18055897Y-17576650D02*
X18132087Y-17576650D01*
X18084468Y-17509984D02*
X18084468Y-17681412D01*
X18084468Y-17681412D02*
X18093992Y-17700460D01*
X18093992Y-17700460D02*
X18113039Y-17709984D01*
X18113039Y-17709984D02*
X18132087Y-17709984D01*
X18189230Y-17700460D02*
X18208277Y-17709984D01*
X18208277Y-17709984D02*
X18246373Y-17709984D01*
X18246373Y-17709984D02*
X18265420Y-17700460D01*
X18265420Y-17700460D02*
X18274944Y-17681412D01*
X18274944Y-17681412D02*
X18274944Y-17671889D01*
X18274944Y-17671889D02*
X18265420Y-17652841D01*
X18265420Y-17652841D02*
X18246373Y-17643317D01*
X18246373Y-17643317D02*
X18217801Y-17643317D01*
X18217801Y-17643317D02*
X18198754Y-17633793D01*
X18198754Y-17633793D02*
X18189230Y-17614746D01*
X18189230Y-17614746D02*
X18189230Y-17605222D01*
X18189230Y-17605222D02*
X18198754Y-17586174D01*
X18198754Y-17586174D02*
X18217801Y-17576650D01*
X18217801Y-17576650D02*
X18246373Y-17576650D01*
X18246373Y-17576650D02*
X18265420Y-17586174D01*
X18341611Y-17786174D02*
X18351135Y-17776650D01*
X18351135Y-17776650D02*
X18370182Y-17748079D01*
X18370182Y-17748079D02*
X18379706Y-17729031D01*
X18379706Y-17729031D02*
X18389230Y-17700460D01*
X18389230Y-17700460D02*
X18398754Y-17652841D01*
X18398754Y-17652841D02*
X18398754Y-17614746D01*
X18398754Y-17614746D02*
X18389230Y-17567127D01*
X18389230Y-17567127D02*
X18379706Y-17538555D01*
X18379706Y-17538555D02*
X18370182Y-17519508D01*
X18370182Y-17519508D02*
X18351135Y-17490936D01*
X18351135Y-17490936D02*
X18341611Y-17481412D01*
M02*
