M48
; DRILL file {KiCad 9.0.8-9.0.8~ubuntu24.04.1} date 2026-04-18T20:03:39+0200
; FORMAT={-:-/ absolute / metric / decimal}
; #@! TF.CreationDate,2026-04-18T20:03:39+02:00
; #@! TF.GenerationSoftware,Kicad,Pcbnew,9.0.8-9.0.8~ubuntu24.04.1
; #@! TF.FileFunction,Plated,1,2,PTH
FMAT,2
METRIC
; #@! TA.AperFunction,Plated,PTH,ViaDrill
T1C0.300
; #@! TA.AperFunction,Plated,PTH,ComponentDrill
T2C0.800
; #@! TA.AperFunction,Plated,PTH,ComponentDrill
T3C0.900
; #@! TA.AperFunction,Plated,PTH,ComponentDrill
T4C1.000
; #@! TA.AperFunction,Plated,PTH,ComponentDrill
T5C1.500
; #@! TA.AperFunction,Plated,PTH,ComponentDrill
T6C2.000
%
G90
G05
T1
X135.5Y-83.5
X135.5Y-88.5
X145.401Y-125.099
X145.967Y-125.664
X146.533Y-126.23
X147.707Y-122.793
X148.273Y-123.359
X148.838Y-123.924
X155.0Y-127.8
X155.577Y-128.354
X156.015Y-129.023
X156.586Y-129.584
X157.15Y-130.151
X157.717Y-130.716
X162.174Y-125.326
X162.774Y-125.926
X163.374Y-126.526
X164.0Y-127.126
X164.553Y-127.704
X165.22Y-128.304
X170.26Y-125.24
X170.826Y-125.806
X171.391Y-126.371
X172.0Y-127.0
X172.523Y-122.977
X172.566Y-127.566
X173.0Y-128.238
X173.088Y-123.543
X173.688Y-124.143
X174.288Y-124.743
X174.888Y-125.343
X175.523Y-125.977
X193.0Y-124.143
X193.0Y-126.577
X194.0Y-124.143
X194.0Y-126.577
T2
X179.8Y-92.5
X192.5Y-92.5
X196.5Y-92.5
X209.2Y-92.5
T3
X194.73Y-133.0
X197.27Y-133.0
X206.23Y-82.0
X208.77Y-82.0
T4
X123.0Y-80.725
X123.0Y-83.265
X123.0Y-148.225
X123.0Y-150.765
X124.0Y-98.0
X134.5Y-131.735
X134.5Y-134.275
X134.5Y-140.0
X134.5Y-142.54
X134.5Y-148.275
X134.5Y-150.815
X139.5Y-131.735
X139.5Y-134.275
X139.5Y-140.0
X139.5Y-142.54
X139.5Y-148.275
X139.5Y-150.815
X144.5Y-131.735
X144.5Y-134.275
X144.5Y-140.0
X144.5Y-142.54
X144.5Y-148.275
X144.5Y-150.815
X149.0Y-98.0
X149.5Y-131.735
X149.5Y-134.275
X149.5Y-140.0
X149.5Y-142.54
X149.5Y-148.275
X149.5Y-150.815
X150.5Y-82.0
X158.5Y-82.0
X162.0Y-131.775
X162.0Y-134.315
X162.0Y-140.0
X162.0Y-142.54
X162.0Y-148.275
X162.0Y-150.815
X167.0Y-131.725
X167.0Y-134.265
X167.0Y-140.0
X167.0Y-142.54
X167.0Y-148.225
X167.0Y-150.765
X171.5Y-82.0
X172.0Y-131.75
X172.0Y-134.29
X172.0Y-140.0
X172.0Y-142.54
X172.0Y-148.225
X172.0Y-150.765
X174.0Y-98.0
X185.0Y-131.775
X185.0Y-134.315
X185.0Y-140.0
X185.0Y-142.54
X185.0Y-148.225
X185.0Y-150.765
X193.5Y-148.175
X193.5Y-150.715
X198.5Y-148.175
X198.5Y-150.715
X199.0Y-98.0
X203.5Y-148.225
X203.5Y-150.765
X208.5Y-148.225
X208.5Y-150.765
X216.0Y-80.725
X216.0Y-83.265
X216.0Y-148.315
X216.0Y-150.855
T4
X192.0Y-83.0G85X192.0Y-81.0
G05
X197.0Y-83.0G85X197.0Y-81.0
G05
T5
X128.05Y-121.5G85X125.55Y-121.5
G05
X133.25Y-121.5G85X130.75Y-121.5
G05
X138.45Y-121.5G85X135.95Y-121.5
G05
X153.05Y-121.5G85X150.55Y-121.5
G05
X158.25Y-121.5G85X155.75Y-121.5
G05
X163.45Y-121.5G85X160.95Y-121.5
G05
X164.25Y-77.35G85X165.75Y-77.35
G05
X164.25Y-82.0G85X165.75Y-82.0
G05
X164.25Y-86.65G85X165.75Y-86.65
G05
X178.05Y-121.5G85X175.55Y-121.5
G05
X178.25Y-77.35G85X176.75Y-77.35
G05
X178.25Y-82.0G85X176.75Y-82.0
G05
X178.25Y-86.65G85X176.75Y-86.65
G05
X183.25Y-121.5G85X180.75Y-121.5
G05
X188.45Y-121.5G85X185.95Y-121.5
G05
X203.05Y-121.5G85X200.55Y-121.5
G05
X208.25Y-121.5G85X205.75Y-121.5
G05
X213.45Y-121.5G85X210.95Y-121.5
G05
T6
X132.0Y-77.5G85X134.0Y-77.5
G05
X132.0Y-82.0G85X134.0Y-82.0
G05
X132.0Y-86.5G85X134.0Y-86.5
G05
X137.0Y-77.5G85X139.0Y-77.5
G05
X137.0Y-82.0G85X139.0Y-82.0
G05
X137.0Y-86.5G85X139.0Y-86.5
G05
X142.0Y-77.5G85X144.0Y-77.5
G05
X142.0Y-82.0G85X144.0Y-82.0
G05
X142.0Y-86.5G85X144.0Y-86.5
G05
M30
